<?xml version="1.0" encoding="utf-8"?>
<!-- Generator: Adobe Illustrator 16.0.0, SVG Export Plug-In . SVG Version: 6.00 Build 0)  -->
<!DOCTYPE svg PUBLIC "-//W3C//DTD SVG 1.1//EN" "http://www.w3.org/Graphics/SVG/1.1/DTD/svg11.dtd">
<svg version="1.1" id="Layer_1" xmlns="http://www.w3.org/2000/svg" xmlns:xlink="http://www.w3.org/1999/xlink" x="0px" y="0px" viewBox="100 200 600 400" style="enable-background:new 100 200 600 400;" xml:space="preserve">
<g id="map">
	<path style="fill:#FFFFFF;" d="M523.66,394.5v11.77l0,0V394.5c0,0,0-5.88,7.61-5.88l0,0C523.66,388.62,523.66,394.5,523.66,394.5z"
		/>
	<path style="fill:#FFFFFF;" d="M523.66,382.73l2.49,2.01L523.66,382.73c0,0-7.61,0-7.61-5.88c0,0-0.15,0-0.31,0
		c0.16,0,0.31,0,0.31,0C516.04,382.73,523.66,382.73,523.66,382.73z"/>
	<path style="fill:#FFFFFF;" d="M523.66,406.27L523.66,406.27L523.66,406.27z"/>
	<path style="fill:#FFFFFF;" d="M511.54,375.76L511.54,375.76L511.54,375.76z"/>
	<path style="fill:#FFFFFF;" d="M512.47,376.23c1.4,0.46,2.64,0.62,3.26,0.62C515.11,376.69,513.87,376.69,512.47,376.23z"/>
	<path style="fill:#FFFFFF;" d="M523.66,370.96h-15.22l0,0H523.66c0,0,7.61,0,7.61-5.88l0,0
		C531.27,370.96,523.66,370.96,523.66,370.96z"/>
	<path style="fill:#FFFFFF;" d="M512,375.92c0.16,0,0.16,0,0.31,0.15C512.16,376.07,512.16,376.07,512,375.92z"/>
	<path style="fill:#FFFFFF;" d="M452.35,293.38c0.62,0.46,1.4,0.77,2.64,0.77l0,0C453.75,294.15,452.81,293.84,452.35,293.38z"/>
	<path style="fill:#FFFFFF;" d="M446.13,267.05c-1.09-1.24-2.95-2.48-6.21-2.48v11.77v-11.77
		C443.18,264.58,445.04,265.82,446.13,267.05z"/>
	<path style="fill:#FFFFFF;" d="M456.39,290.59L456.39,290.59L456.39,290.59c-0.62-0.31-1.09-0.77-1.24-1.55
		C455.3,289.82,455.92,290.28,456.39,290.59z"/>
	<path style="fill:#FFFFFF;" d="M413.04,258.69c0,0,0,0-0.16,0C413.04,258.69,413.04,258.69,413.04,258.69z"/>
	<path style="fill:#FFFFFF;" d="M454.83,281.3c-0.78-2.01-3.57-2.01-3.57-2.01l0,0C451.26,279.44,454.21,279.44,454.83,281.3z"/>
	<path style="fill:#FFFFFF;" d="M500.82,376.85c0-5.88-7.61-5.88-7.61-5.88l0,0C493.21,370.96,500.82,370.96,500.82,376.85z"/>
	<path style="fill:#FFFFFF;" d="M523.66,359.04L523.66,359.04c0,1.7,0.62,2.94,1.55,3.87C524.43,362.14,523.66,360.9,523.66,359.04z
		"/>
	<path style="fill:#FFFFFF;" d="M412.89,258.69c-0.78,0-3.57-0.31-3.57-2.94l0,0C409.31,258.38,412.27,258.69,412.89,258.69z"/>
	<rect x="252.87" y="294.15" style="fill:#FFFFFF;" width="0" height="2.94"/>
	<path style="fill:#FFFFFF;" d="M256.44,311.81c-0.93-0.15-3.42-0.46-3.42-2.94l0,0C252.87,311.34,255.51,311.81,256.44,311.81z"/>
	<path style="fill:#FFFFFF;" d="M118.18,586.84c1.09-1.39,1.24-2.94,1.24-3.25C119.42,583.89,119.26,585.44,118.18,586.84z"/>
	<path style="fill:#FFFFFF;" d="M188.09,252.81h-7.61l0,0H188.09c0,5.58,6.68,5.89,7.61,5.89
		C194.77,258.69,188.09,258.38,188.09,252.81z"/>
	<path style="fill:#FFFFFF;" d="M462.76,241.04c0,5.88,7.61,5.88,7.61,5.88l0,0C470.37,246.92,462.76,246.92,462.76,241.04
		l7.61-5.88l0,0L462.76,241.04z"/>
	<path style="fill:#FFFFFF;" d="M529.4,217.03c0.93,0.31,1.86,0.47,1.86,0.47c0-0.62,0.16-1.08,0.47-1.39
		c-0.31,0.31-0.47,0.77-0.47,1.39C531.27,217.34,530.34,217.34,529.4,217.03z"/>
	<path style="fill:#FFFFFF;" d="M439.76,246.92c0,0.62,0.47,5.88,7.61,5.88h7.61l0,0h-7.61
		C440.23,252.81,439.76,247.7,439.76,246.92z"/>
	<path style="fill:#FFFFFF;" d="M256.75,329.62c0,0.15,0,0.31,0,0.46C256.75,329.93,256.75,329.77,256.75,329.62z"/>
	<path style="fill:#FFFFFF;" d="M218.54,241.04v5.88c0,0,0,11.77-15.23,11.77c15.23,0,15.23-11.77,15.23-11.77V241.04
		c0-5.57-6.68-5.88-7.61-5.88C211.86,235.15,218.54,235.46,218.54,241.04z"/>
	<path style="fill:#FFFFFF;" d="M195.7,236.08c-0.78,4.8-7.46,4.8-7.61,4.8l0,0C188.09,241.04,194.77,241.04,195.7,236.08z"/>
	<path style="fill:#FFFFFF;" d="M249.14,335.5L249.14,335.5c5.75,0,7.15-3.25,7.46-4.96C256.29,332.09,254.89,335.5,249.14,335.5z"
		/>
	<path style="fill:#FFFFFF;" d="M172.86,241.04c0,0,0-5.88,7.61-5.88C172.86,235.15,172.86,241.04,172.86,241.04
		c4.82,0,6.53,2.32,7.3,4.03C179.39,243.36,177.68,241.04,172.86,241.04z"/>
	<path style="fill:#FFFFFF;" d="M256.6,317.69c-0.78,0-7.61-0.31-7.61-5.88l0,0C249.14,317.38,255.82,317.69,256.6,317.69z"/>
	<path style="fill:#FFFFFF;" d="M241.53,323.73c0,0,0-3.72,3.88-5.26C241.53,319.86,241.53,323.73,241.53,323.73v11.77l0,0V323.73z"
		/>
	<path style="fill:#FFFFFF;" d="M454.83,281.3c0.16,0.31,0.16,0.62,0.16,0.93C454.99,281.92,454.99,281.61,454.83,281.3z"/>
	<rect x="443.65" y="363.22" style="fill:#FFFFFF;" width="0" height="9.6"/>
	<path style="fill:#FFFFFF;" d="M454.99,365.08h-7.61l0,0H454.99c0-4.8,4.97-5.73,6.99-5.88
		C460.11,359.35,454.99,360.28,454.99,365.08z"/>
	<path style="fill:#FFFFFF;" d="M409.31,382.73v-5.88c0,0,0-1.55,0.93-2.94c-0.93,1.55-0.93,2.94-0.93,2.94V382.73
		c0,0,0,5.88,7.61,5.88C409.31,388.62,409.31,382.73,409.31,382.73z"/>
	<rect x="405.43" y="291.21" style="fill:#FFFFFF;" width="0" height="2.94"/>
	<path style="fill:#FFFFFF;" d="M409.31,270.46l3.73,2.94L409.31,270.46z"/>
	<path style="fill:#FFFFFF;" d="M118.18,586.84l-1.4,0.46v-27.41l0,0V251.72l141.68-38.71V200l0,0l0,0c-0.47,0-0.93,0-1.24,0
		c-0.16,0-0.31,0-0.47,0c-0.31,0-0.62,0-0.78,0.16c-0.16,0-0.31,0-0.62,0.15c-0.31,0-0.47,0.15-0.78,0.15
		c-0.16,0-0.31,0.15-0.62,0.15c-0.31,0-0.47,0.16-0.78,0.16h-0.31l-141.68,38.71c-6.68,1.86-11.19,6.66-11.19,12.23v335.42
		c0,4.18,2.64,8.05,6.99,10.53c2.8,1.55,6.21,2.32,9.63,2.32c1.86,0,3.73-0.31,5.59-0.77l136.09-37.17v-13.63L118.18,586.84z"/>
	<path style="fill:#FFFFFF;" d="M439.76,240.88l20.82-5.73l8.08-2.17l16-4.34l0.78,0.62v5.88l0,0v-5.88l-0.78-0.62l4.82-1.39l0,0
		l11.34-3.1l27.81-7.59l0,0l3.42-0.93l0,0l4.35-1.24l5.59-1.55V200l0,0l0,0c-0.47,0-0.93,0-1.24,0c-0.16,0-0.31,0-0.47,0
		c-0.31,0-0.62,0-0.78,0.16c-0.16,0-0.31,0-0.62,0.15c-0.31,0-0.47,0.15-0.78,0.15c-0.16,0-0.31,0.15-0.62,0.15
		c-0.31,0-0.47,0.16-0.78,0.16h-0.31L400.3,237.94v13.63L439.76,240.88z"/>
	<path style="fill:#FFFFFF;" d="M462.6,570.11l-62.45,17.03V600c1.86,0,3.73-0.31,5.59-0.77l136.09-37.17v-13.63L462.6,570.11z"/>
	<path style="fill:#63BFC6;" d="M256.75,418.2c-15.22,0-15.22,11.77-15.22,11.77v5.88l-7.61,5.88c-7.61,0-7.61,5.88-7.61,5.88l0,0
		c-15.22,0-15.22,11.77-15.22,11.77v11.77v4.02v13.63l0,0c-7.61,0-7.61,5.88-7.61,5.88h3.88v2.94l3.88,2.94
		c0,5.88,7.61,5.88,7.61,5.88c0,5.88,7.61,5.88,7.61,5.88v5.88c7.61,0,7.61,5.88,7.61,5.88c7.61,0,7.61,5.88,7.61,5.88h7.61h9.32
		V412.16c-1.09-0.16-1.71-0.16-1.71-0.16v6.19H256.75z M248.99,447.62h0.16H248.99z"/>
	<path style="fill:#63BFC6;" d="M256.75,305.92c0,0,0,2.17,1.71,3.87v-13.78c-1.09,0.93-1.71,2.17-1.71,4.03V305.92z"/>
	<path style="fill:#63BFC6;" d="M119.42,583.43c0,0,7.61,0,7.61-5.88s0-11.77,0-11.77s-7.61,0-7.61-5.88h-2.64l0,0v27.25l1.4-0.46
		C119.26,585.44,119.42,583.89,119.42,583.43C119.42,583.58,119.42,583.43,119.42,583.43z"/>
	<path style="fill:#63BFC6;" d="M256.44,311.81c0.16,0,0.31,0,0.31,0c0-2.94-3.88-2.94-3.88-2.94
		C252.87,311.34,255.51,311.81,256.44,311.81z"/>
	<path style="fill:#63BFC6;" d="M218.54,246.92v-5.88c0-5.57-6.68-5.88-7.61-5.88h-0.16h-15.22c0,0.31,0,0.77-0.16,1.08
		c-0.78,4.8-7.61,4.8-7.61,4.8l0,0l0,0c0,0,0-5.88-7.61-5.88c-7.61,0-7.61,5.88-7.61,5.88c4.82,0,6.52,2.32,7.3,4.03
		c0.47,1.08,0.47,1.86,0.47,1.86v5.88h7.61c0,5.58,6.68,5.89,7.61,5.89h0.15h7.61C218.54,258.69,218.54,246.92,218.54,246.92z"/>
	<path style="fill:#63BFC6;" d="M256.75,294.62c0-0.15,0-0.31,0-0.46h-3.88v2.94C252.87,297.1,256.29,297.1,256.75,294.62z"/>
	<path style="fill:#63BFC6;" d="M241.53,323.73v11.77h7.61c5.75,0,7.15-3.25,7.46-4.96c0-0.16,0-0.31,0-0.31c0-0.15,0-0.46,0-0.46
		l0,0v-5.88v-6.19c0,0,0,0-0.16,0c-0.78,0-7.61-0.31-7.61-5.88v5.88c-1.55,0-2.8,0.31-3.73,0.62
		C241.53,319.86,241.53,323.73,241.53,323.73z"/>
	<path style="fill:#63BFC6;" d="M241.53,376.85c0,5.88,7.61,5.88,7.61,5.88s-7.61,0-7.61,5.88v11.77c0,0,0,5.88,7.61,5.88
		c7.61,0,7.61,5.88,7.61,5.88c0.62,0,1.24,0,1.71-0.16v-35.31h-16.93V376.85z"/>
	<path style="fill:#63BFC6;" d="M400.15,414.94L400.15,414.94v0.16h1.4C401.7,415.25,400.92,415.25,400.15,414.94z"/>
	<path style="fill:#63BFC6;" d="M462.6,554.01c7.61,0,7.61-5.88,7.61-5.88h7.61c0-11.77,15.22-11.77,15.22-11.77l7.61-5.88v-5.88
		c7.61,0,7.61-5.88,7.61-5.88v-5.88c7.61,0,7.61-5.88,7.61-5.88v-5.88c-7.61,0-7.61,5.88-7.61,5.88h-0.16c0.16,0,0.16,0,0.16,0
		h-30.45v-5.88l-15.22-11.77c0-5.88-7.61-5.88-7.61-5.88v-6.19c0,0,0-5.88-7.61-5.88v-5.88c0-5.88-7.61-5.88-7.61-5.88v-5.88
		c0-5.88-7.61-5.88-7.61-5.88v-5.88h7.61c0,0,0,5.88,7.61,5.88v5.88l15.23,11.77v5.88c0,0,0,5.88,7.61,5.88v5.88l7.61,5.88v-0.16
		v0.16v5.88c0,0,0,5.89,7.61,5.89h7.61c0,0,0-5.89,7.61-5.89h7.61c0,0,7.61,0,7.61-5.88h7.61c0-5.88,7.61-5.88,7.61-5.88
		c4.97,0,8.39-1.24,10.56-2.94l0,0v-20.6h-2.95h-0.15h0.15v-5.88h-7.61c0,5.88-7.61,5.88-7.61,5.88h-7.61l-7.61-5.88v-5.88
		l-7.61-5.88V436h7.61c0,11.77,15.23,11.77,15.23,11.77h15.22c0,2.48,1.4,4.02,2.95,4.8V214.4h-5.59l-4.35,1.24l0,0l0,0
		c-0.15,0.16-0.15,0.16-0.31,0.31c-0.31,0.31-0.47,0.77-0.47,1.39c0,0-0.93,0-1.86-0.46c-0.31-0.16-0.62-0.31-0.78-0.46L500.51,224
		v5.11l0,0h-7.61c0,0-2.95,0-3.57-2.01l-4.82,1.39l0.78,0.62V235l0,0h-14.91l-7.61,5.88c0,5.89,7.61,5.89,7.61,5.89l0,0h-21.13
		c0,0-0.31,0-1.71,0l7.61,5.88l0,0l0,0h-7.61c-7.15,0-7.61-5.27-7.61-5.88l0,0v-6.04l-39.62,10.84v16.11l0,0
		c0.78-0.15,1.4-0.15,1.4-0.15c0,1.24-0.62,2.01-1.4,2.32l0,0v10.22c0.78-0.93,1.4-2.01,1.4-3.72h7.61c0,5.88,7.61,5.88,7.61,5.88
		c-7.61,0-7.61,5.88-7.61,5.88c-7.61,0-7.61-5.88-7.61-5.88c-0.47,0-0.93,0-1.4,0.15v106.23h1.4h-0.16h0.16
		c0,5.88,7.61,5.88,7.61,5.88h-7.61c0,5.88,7.61,5.88,7.61,5.88v5.88c0,0,0,5.88,7.61,5.88c7.61,0,7.61-5.88,7.61-5.88
		s0,5.88,7.61,5.88s7.61-5.88,7.61-5.88c7.61,0,7.61,5.88,7.61,5.88v5.88l-7.61,5.88l0,0c0,5.57-6.99,5.88-7.61,5.88l0,0h-32v157.34
		l62.45-17.03v-10.22V554.01L462.6,554.01z M508.43,477.2L508.43,477.2L508.43,477.2z M500.82,429.81L500.82,429.81L500.82,429.81z
		 M500.97,341.39h-0.16H500.97z M493.21,370.96l7.61-5.88c7.61,0,7.61-5.88,7.61-5.88h15.22l0,0c0,1.7,0.62,2.94,1.55,3.87
		c2.17,2.01,6.06,2.01,6.06,2.01l0,0l0,0c0,5.88-7.61,5.88-7.61,5.88h-15.22c0,2.63,1.4,4.03,3.11,4.8l0,0
		c0.15,0,0.31,0.16,0.47,0.16s0.16,0,0.31,0.15c0,0,0.16,0,0.16,0.16c1.4,0.46,2.64,0.62,3.26,0.62l0,0c0.16,0,0.31,0,0.31,0
		c0,5.88,7.61,5.88,7.61,5.88l2.49,2.01l5.13,3.87l0,0l0,0c-7.61,0-7.61,5.88-7.61,5.88v11.77h0.16h-0.16l0,0l0,0h-15.22l-7.61-5.88
		l0,0l7.61-5.88v-5.88l-7.61-5.88v-5.88C500.82,370.96,493.21,370.96,493.21,370.96L493.21,370.96L493.21,370.96z M485.75,382.73
		h-0.16H485.75z M401.7,300.04h0.16H401.7z M447.38,429.96h0.16H447.38z M470.37,294.15h-0.16H470.37z M470.37,365.08h-0.16H470.37z
		 M451.26,279.44c0,0,2.95,0,3.57,2.01c0.16,0.31,0.16,0.62,0.16,0.93C454.99,282.38,451.26,282.38,451.26,279.44L451.26,279.44
		L451.26,279.44z M451.26,291.21h3.88v-2.94c0,0.31,0,0.62,0.15,0.77c0.16,0.77,0.62,1.24,1.25,1.55l0,0l0,0l0,0l0,0l0,0
		c1.09,0.62,2.33,0.62,2.33,0.62v5.89c-3.88,0-3.88-2.94-3.88-2.94l0,0l0,0l0,0l0,0c-1.24,0-2.18-0.31-2.64-0.77
		C451.26,292.45,451.26,291.21,451.26,291.21L451.26,291.21z M454.99,300.19L454.99,300.19L454.99,300.19z M447.38,258.85
		L447.38,258.85L447.38,258.85z M439.76,264.58c3.26,0,5.28,1.08,6.21,2.48c1.4,1.7,1.4,3.56,1.4,3.56v5.88l0,0h-7.61l0,0V264.58z
		 M432.15,276.5v5.88h-7.61c0-5.88-7.61-5.88-7.61-5.88v-5.88h7.61L432.15,276.5z M424.54,297.1c-3.88,0-3.88-2.94-3.88-2.94
		C424.54,294.15,424.54,297.1,424.54,297.1z M409.31,255.75c0,0,3.88,0,3.88,2.94c0,0,0,0-0.16,0
		C412.27,258.69,409.31,258.38,409.31,255.75L409.31,255.75L409.31,255.75z M413.04,273.4l-3.88-2.94l0,0h3.88V273.4z M413.2,267.52
		c-0.16,0-0.16,0-0.16,0v-5.88c3.88,0,3.88-2.94,3.88-2.94v5.88l0,0C416.93,267.21,413.97,267.52,413.2,267.52z M416.93,294.15
		L416.93,294.15L416.93,294.15z M405.43,294.15L405.43,294.15v-2.94l0,0h3.88l0,0v2.94l0,0l0,0H405.43z M439.76,382.73h-7.61
		c-7.61,0-7.61,5.88-7.61,5.88h-7.61c-7.61,0-7.61-5.88-7.61-5.88v-5.88c0,0,0-1.55,0.93-2.94s2.8-2.94,6.68-2.94v-5.88l0,0
		c7.61,0,7.61-5.88,7.61-5.88c0,5.88,7.61,5.88,7.61,5.88c0,5.88,7.61,5.88,7.61,5.88h7.61l-7.61-5.88l0,0l0,0
		c7.61,0,7.61-5.88,7.61-5.88h7.61h7.61c0,0-0.31,0-0.78,0c-1.86,0.16-6.99,1.08-6.99,5.88h-7.61c0,0,0,5.88,7.61,5.88l7.61,5.88
		c0,0,0,5.88,7.61,5.88c0,5.88-7.61,5.88-7.61,5.88h-15.22C447.38,382.73,439.76,382.73,439.76,382.73z M454.99,559.74
		L454.99,559.74L454.99,559.74z"/>
	<path style="fill:#63BFC6;" d="M443.65,243.98c0,0,0,2.94,3.88,2.94C447.38,246.92,447.38,243.98,443.65,243.98z"/>
	<path style="fill:#63BFC6;" d="M512.31,450.56v2.94l3.88,2.94v-2.94C516.04,453.5,516.04,450.56,512.31,450.56z"/>
	<path style="fill:#63BFC6;" d="M468.82,232.83l-8.08,2.17h2.02C465.86,235.15,467.73,234.07,468.82,232.83z"/>
	<path style="fill:#63BFC6;" d="M439.76,412.31c-7.61,0-7.61,5.88-7.61,5.88C439.76,418.2,439.76,412.31,439.76,412.31z"/>
	<line style="fill:none;" x1="454.99" y1="559.89" x2="454.99" y2="559.74"/>
	<path style="fill:#F16548;" d="M401.7,267.52c0,0-0.62,0-1.4,0.15v2.17C400.92,269.53,401.7,268.76,401.7,267.52z"/>
	<line style="fill:none;" x1="401.7" y1="388.62" x2="401.54" y2="388.62"/>
	<line style="fill:none;" x1="248.99" y1="447.62" x2="249.14" y2="447.62"/>
	<path style="fill:#F16548;" d="M256.75,412.31c0,0,0.78,0,1.71,0.16v-0.31C258,412.16,257.38,412.31,256.75,412.31z"/>
	<path style="fill:#F16548;" d="M401.7,415.25h-1.4v14.71h32l0,0c0.62,0,7.61-0.31,7.61-5.88l0,0l7.61-5.88v-5.88
		c0,0,0-5.88-7.61-5.88c0,0,0,5.88-7.61,5.88c-7.61,0-7.61-5.88-7.61-5.88s0,5.88-7.61,5.88s-7.61-5.88-7.61-5.88v-5.88
		c0,0-7.61,0-7.61-5.88h7.61c0,0-7.61,0-7.61-5.88h-1.4v26.33C400.92,415.25,401.7,415.25,401.7,415.25z M439.76,412.31
		c0,0,0,5.88-7.61,5.88C432.15,418.2,432.15,412.31,439.76,412.31z"/>
	<line style="fill:none;" x1="538.88" y1="459.54" x2="538.72" y2="459.54"/>
	<path style="fill:#F16548;" d="M241.53,530.31c0,0,0-5.88-7.61-5.88c0,0,0-5.88-7.61-5.88v-5.88c0,0-7.61,0-7.61-5.88
		c0,0-7.61,0-7.61-5.88l-3.88-2.94v-2.94h-3.88c0,0,0-5.88,7.61-5.88l0,0v-13.63v-4.03V459.7c0,0,0-11.77,15.23-11.77l0,0
		c0,0,0-5.88,7.61-5.88l7.61-5.88v-5.88c0,0,0-11.77,15.22-11.77v-5.88c0,0,0-5.88-7.61-5.88s-7.61-5.88-7.61-5.88v-11.77
		c0-5.88,7.61-5.88,7.61-5.88s-7.61,0-7.61-5.88h16.93v-21.68l0,0c-0.16,0-0.31,0-0.62,0c-1.55,0-1.71-1.08-1.71-1.7
		c0-1.39,0-1.7-0.47-1.7c-0.31,0-0.47,0.15-0.62,0.46c0,0.62,0.16,1.24,0.16,1.86s-0.31,1.08-1.24,1.08c-0.78,0-1.4-0.46-1.55-1.24
		c0-0.15,0-0.46,0.15-0.77c0-0.46,0-0.77-0.15-1.08c-0.16-0.62-0.16-0.62-0.31-0.62h-0.31c0,0-0.31-0.31-0.31-0.62
		c0-0.62,0.62-0.93,1.55-0.93c0.47,0,1.24,0.15,1.55,0.77l0,0c0.62-0.46,1.24-0.77,1.86-0.77c0.78,0,1.55,0.31,1.86,0.93l0,0v-41.34
		c-1.71-1.71-1.71-3.87-1.71-3.87v-5.88c0-1.86,0.78-3.1,1.71-4.03v-83.31l-141.69,38.71v308.17h2.64c0,5.88,7.61,5.88,7.61,5.88
		s0,5.88,0,11.77c0,5.88-7.61,5.88-7.61,5.88l0,0c0,0.31-0.16,1.86-1.24,3.25l140.29-38.41V530h-9.32h-7.3V530.31z M251.78,354.08
		c0.15,0,0.31,0.31,0.31,0.62c0,0.62-0.62,0.93-1.4,0.93s-1.24-0.31-1.55-0.77c-0.31,0.46-0.93,0.77-1.86,0.77
		c-2.33,0-2.33-1.7-2.33-2.48c0-0.93,0-1.24-0.31-1.24h-0.31c0,0-0.31-0.31-0.31-0.62c0-0.46,0.47-0.93,1.71-0.93
		c1.55,0,1.71,0.93,1.71,2.17c0,0.62,0,1.39,0.47,1.39s0.47-0.62,0.47-1.55c0-0.46,0-0.93-0.31-1.86c0.31-0.15,0.62-0.15,1.24-0.15
		c0.62,0,1.71,0.15,1.71,1.08c0,0.15,0,0.47-0.15,0.78v1.24c0,0.31,0.15,0.62,0.47,0.62C251.47,354.24,251.63,354.24,251.78,354.08z
		 M252.87,294.15L252.87,294.15h3.88c0,0.15,0,0.31,0,0.46c-0.47,2.48-3.73,2.48-3.73,2.48l0,0v-2.94H252.87z M252.87,308.87
		c0,0,3.88,0,3.88,2.94c0,0-0.16,0-0.31,0C255.51,311.81,252.87,311.34,252.87,308.87L252.87,308.87z M241.53,323.73
		c0,0,0-3.72,3.88-5.26c0.93-0.47,2.17-0.62,3.73-0.62v-5.88l0,0c0,5.58,6.68,5.88,7.61,5.88h0.16v5.88v5.88l0,0
		c0,0.15,0,0.31,0,0.46c0,0.15,0,0.31,0,0.31c-0.31,1.7-1.86,4.96-7.46,4.96l0,0h-7.61l0,0v-11.61H241.53z M239.98,348.05
		c1.4,0,2.33,0.46,2.64,0.77c0.31,0.31,0.47,0.46,0.47,0.77c0,0.78-0.47,1.39-1.24,1.39c-0.47,0-0.78-0.16-0.78-0.31l0.16-0.46
		c-0.31-0.16-0.62-0.31-1.09-0.31c-0.93,0-1.71,0.62-1.71,2.01c0,1.24,0.78,2.17,2.02,2.17c0.62,0,0.93-0.15,0.93-0.77
		c-0.16,0-0.31,0-0.47,0c-0.78,0-0.93-0.46-0.93-0.77c0-0.31,0.16-0.46,0.31-0.62c0.16,0,0.62,0,0.93,0h1.09h1.09
		c0.16,0.15,0.31,0.46,0.31,1.24c0,1.86-1.86,2.63-3.73,2.63c-2.95,0-4.35-1.86-4.35-3.87C235.78,349.9,237.18,348.05,239.98,348.05
		z M225.84,356.56c-0.15-0.16-0.15-0.46,0-0.62c0.16-0.16,0.62-0.16,0.78,0l3.73,2.94l3.73-2.94c0.16-0.16,0.62-0.16,0.78,0
		c0.16,0.16,0.16,0.46,0,0.62l-3.73,2.94l3.73,2.94c0.16,0.15,0.16,0.46,0,0.62c-0.15,0.16-0.31,0.16-0.47,0.16
		c-0.15,0-0.31,0-0.47-0.16l-3.73-2.94l-3.73,2.94c-0.16,0.16-0.31,0.16-0.47,0.16c-0.16,0-0.31,0-0.47-0.16
		c-0.16-0.15-0.16-0.46,0-0.62l3.73-2.94L225.84,356.56z M195.7,258.69c-0.78,0-7.61-0.31-7.61-5.89h-7.61l0,0v-5.88
		c0,0,0-0.77-0.47-1.86c-0.62-1.7-2.49-4.03-7.3-4.03c0,0,0-5.88,7.61-5.88s7.61,5.88,7.61,5.88l0,0c0,0,6.68,0,7.61-4.8
		c0-0.31,0.15-0.62,0.15-1.08h15.22c0,0,0,0,0.16,0c0.78,0,7.61,0.31,7.61,5.88v5.88c0,0,0,11.77-15.22,11.77H195.7L195.7,258.69z"
		/>
	<path style="fill:#F16548;" d="M538.88,447.62h-15.23c0,0-15.22,0-15.22-11.77h-7.61v5.88l7.61,5.88v5.88l7.61,5.88h7.61
		c0,0,7.61,0,7.61-5.88h7.61v5.88h2.95v-6.97l0,0C540.28,451.65,538.88,450.25,538.88,447.62z M516.04,456.6l-3.88-2.94v-2.94
		c3.88,0,3.88,2.94,3.88,2.94V456.6z"/>
	<path style="fill:#F16548;" d="M439.76,246.92c0,0.62,0.47,5.88,7.61,5.88h7.61l0,0l-7.61-5.88c-3.88,0-3.88-2.94-3.88-2.94
		c3.88,0,3.88,2.94,3.88,2.94c1.24,0,1.71,0,1.71,0h21.29c0,0-7.61,0-7.61-5.88l7.61-5.88l0,0h15.22v-5.88l-0.78-0.62l-16,4.18
		c-1.09,1.24-2.95,2.17-6.06,2.17h-2.02l-20.82,5.73v6.19C439.76,246.92,439.76,246.92,439.76,246.92z"/>
	<path style="fill:#F16548;" d="M400.15,282.38L400.15,282.38c0.47,0,0.93-0.15,1.4-0.15c0,0,0,5.88,7.61,5.88c0,0,0-5.88,7.61-5.88
		c0,0-7.61,0-7.61-5.88h-7.61c0,1.7-0.62,2.79-1.4,3.72l0,0V282.38z"/>
	<path style="fill:#F16548;" d="M493.21,229.27h7.61l0,0v-5.11l-11.34,3.1l0,0C490.25,229.27,493.21,229.27,493.21,229.27z"/>
	<polygon style="fill:#F16548;" points="541.99,214.4 541.99,212.85 536.39,214.4 	"/>
	<path style="fill:#F16548;" d="M531.27,217.34c0-0.62,0.16-1.08,0.47-1.39c0-0.16,0.16-0.16,0.31-0.31l0,0l-3.42,0.93l0,0
		c0.31,0.15,0.47,0.31,0.78,0.46C530.34,217.34,531.27,217.34,531.27,217.34z"/>
	<path style="fill:#F16548;" d="M531.27,483.08c0,0-7.61,0-7.61,5.88h-7.61c0,5.88-7.61,5.88-7.61,5.88h-7.61
		c-7.61,0-7.61,5.89-7.61,5.89h-7.61c-7.61,0-7.61-5.89-7.61-5.89v-5.88l-7.61-5.88v-5.88c-7.61,0-7.61-5.88-7.61-5.88v-5.88
		l-15.22-11.77v-5.88c-7.61,0-7.61-5.88-7.61-5.88h-7.61v5.88c0,0,7.61,0,7.61,5.88v5.88c0,0,7.61,0,7.61,5.88v5.88
		c7.61,0,7.61,5.88,7.61,5.88v5.88c0,0,7.61,0,7.61,5.88l15.22,11.77v5.88h30.45c0,0,0-5.88,7.61-5.88v5.88c0,0,0,5.88-7.61,5.88
		v5.88c0,0,0,5.88-7.61,5.88v5.88l-7.61,5.88c0,0-15.22,0-15.22,11.77h-7.61c0,0,0,5.88-7.61,5.88v5.88v10.22l79.23-21.68v-68.29
		C539.66,481.84,536.24,483.08,531.27,483.08z"/>
	<path style="fill:#F16548;" d="M508.43,506.77c0,0,0,0-0.16,0H508.43z"/>
	<line style="fill:none;" x1="477.98" y1="488.81" x2="477.98" y2="488.97"/>
	<line style="fill:none;" x1="500.82" y1="429.96" x2="500.82" y2="429.81"/>
	<path style="fill:#F16548;" d="M500.82,376.85v5.88l7.61,5.88v5.88l-7.61,5.88l0,0l7.61,5.88h15.22V394.5c0,0,0-5.88,7.61-5.88l0,0
		l-5.13-3.87l-2.49-2.01c0,0-7.61,0-7.61-5.88c0,0-0.15,0-0.31,0l0,0c-0.62,0-1.86-0.16-3.26-0.62c0,0-0.16,0-0.16-0.16
		c-0.16,0-0.16,0-0.31-0.15c-0.16,0-0.31-0.15-0.47-0.15l0,0c-1.71-0.78-3.11-2.33-3.11-4.8l0,0h15.22c0,0,7.61,0,7.61-5.88l0,0
		c0,0-3.73,0-6.06-2.01c-0.93-0.93-1.55-2.17-1.55-3.87h-15.22c0,0,0,5.88-7.61,5.88l-7.61,5.88l0,0
		C493.21,370.96,500.82,370.96,500.82,376.85z"/>
	<line style="fill:none;" x1="523.81" y1="406.27" x2="523.66" y2="406.27"/>
	<line style="fill:none;" x1="523.66" y1="406.27" x2="523.66" y2="406.27"/>
	<line style="fill:none;" x1="500.97" y1="341.39" x2="500.82" y2="341.39"/>
	<path style="fill:#F16548;" d="M454.99,294.15L454.99,294.15L454.99,294.15L454.99,294.15c0,0,0,2.94,3.88,2.94v-5.89
		c0,0-1.24,0-2.33-0.62l0,0l0,0l0,0l0,0l0,0c-0.62-0.31-1.09-0.77-1.25-1.55c0-0.31-0.15-0.46-0.15-0.77v2.94h-3.88l0,0
		c0,0,0,1.24,1.09,2.17C452.81,293.84,453.75,294.15,454.99,294.15z"/>
	<line style="fill:none;" x1="447.38" y1="258.85" x2="447.38" y2="258.69"/>
	<path style="fill:#F16548;" d="M454.99,282.38c0-0.31,0-0.62-0.16-0.93c-0.78-2.01-3.57-2.01-3.57-2.01l0,0
		C451.26,282.38,454.99,282.38,454.99,282.38z"/>
	<line style="fill:none;" x1="454.99" y1="300.19" x2="454.99" y2="300.04"/>
	<line style="fill:none;" x1="470.37" y1="294.15" x2="470.21" y2="294.15"/>
	<line style="fill:none;" x1="508.43" y1="477.2" x2="508.43" y2="477.35"/>
	<line style="fill:none;" x1="447.38" y1="429.96" x2="447.53" y2="429.96"/>
	<polygon style="fill:#F16548;" points="409.31,294.15 409.31,294.15 409.31,291.21 409.31,291.21 405.43,291.21 405.43,294.15 	"/>
	<line style="fill:none;" x1="470.21" y1="364.92" x2="470.37" y2="365.08"/>
	<line style="fill:none;" x1="401.7" y1="300.04" x2="401.86" y2="300.04"/>
	<path style="fill:#F16548;" d="M462.6,388.62c0,0,7.61,0,7.61-5.88c-7.61,0-7.61-5.88-7.61-5.88l-7.61-5.88
		c-7.61,0-7.61-5.88-7.61-5.88l0,0h7.61c0-4.8,4.97-5.73,6.99-5.88c0.47,0,0.78,0,0.78,0h-7.61h-7.61c0,0,0,5.88-7.61,5.88l0,0
		l7.61,5.88l0,0h-7.61c0,0-7.61,0-7.61-5.88c0,0-7.61,0-7.61-5.88c0,0,0,5.88-7.61,5.88l0,0v5.88c-3.88,0-5.75,1.55-6.68,2.94
		s-0.93,2.94-0.93,2.94v5.88c0,0,0,5.88,7.61,5.88h7.61c0,0,0-5.88,7.61-5.88h7.61c0,0,7.61,0,7.61,5.88H462.6z"/>
	<line style="fill:none;" x1="485.75" y1="382.73" x2="485.59" y2="382.73"/>
	<path style="fill:#F16548;" d="M447.38,276.5L447.38,276.5v-5.88c0,0,0-1.86-1.4-3.56c-1.09-1.24-2.95-2.48-6.21-2.48v11.77l0,0
		h7.61V276.5z"/>
	<path style="fill:#F16548;" d="M416.93,276.5c0,0,7.61,0,7.61,5.88h7.61v-5.88l-7.61-5.88h-7.61V276.5z"/>
	<path style="fill:#F16548;" d="M416.93,264.58v-5.88c0,0,0,2.94-3.88,2.94v5.88c0,0,0,0,0.16,0
		C413.97,267.52,416.93,267.21,416.93,264.58L416.93,264.58z"/>
	<polygon style="fill:#F16548;" points="413.04,273.4 413.04,270.46 409.31,270.46 	"/>
	<line style="fill:none;" x1="416.93" y1="294.15" x2="416.93" y2="294"/>
	<path style="fill:#F16548;" d="M412.89,258.69c0.16,0,0.16,0,0.16,0c0-2.94-3.88-2.94-3.88-2.94l0,0
		C409.31,258.38,412.27,258.69,412.89,258.69z"/>
	<path style="fill:#F16548;" d="M420.66,294.15c0,0,0,2.94,3.88,2.94C424.54,297.1,424.54,294.15,420.66,294.15z"/>
	<path style="fill:#FFFFFF;" d="M240.13,355.79c1.86,0,3.73-0.77,3.73-2.63c0-0.62-0.16-1.08-0.31-1.24h-1.09h-1.09
		c-0.31,0-0.78,0-0.93,0c-0.16,0.15-0.31,0.46-0.31,0.62c0,0.31,0.16,0.77,0.93,0.77c0.16,0,0.31,0,0.47,0
		c0,0.46-0.31,0.77-0.93,0.77c-1.24,0-2.02-0.93-2.02-2.17c0-1.4,0.78-2.01,1.71-2.01c0.47,0,0.78,0.15,1.09,0.31l-0.16,0.46
		c0.16,0.15,0.47,0.31,0.78,0.31c0.62,0,1.24-0.46,1.24-1.39c0-0.31-0.16-0.62-0.47-0.77c-0.47-0.31-1.24-0.77-2.64-0.77
		c-2.8,0-4.19,1.86-4.19,3.87C235.78,353.93,237.18,355.79,240.13,355.79z"/>
	<path style="fill:#FFFFFF;" d="M251.01,353.78v-1.24c0.16-0.31,0.16-0.62,0.16-0.77c0-1.08-1.09-1.08-1.71-1.08
		s-0.93,0.15-1.24,0.15c0.31,0.93,0.31,1.4,0.31,1.86c0,0.77,0,1.55-0.47,1.55s-0.47-0.62-0.47-1.39c0-1.24-0.16-2.17-1.71-2.17
		c-1.09,0-1.71,0.46-1.71,0.93c0,0.31,0.16,0.47,0.31,0.62h0.31c0.31,0,0.31,0.15,0.31,1.24c0,0.77,0,2.48,2.33,2.48
		c0.93,0,1.55-0.31,1.86-0.78c0.31,0.46,0.78,0.78,1.55,0.78c0.78,0,1.4-0.31,1.4-0.93c0-0.31-0.16-0.46-0.31-0.62
		c-0.15,0-0.31,0.16-0.47,0.16C251.01,354.24,251.01,354.08,251.01,353.78z"/>
	<path style="fill:#FFFFFF;" d="M256.75,350.68c-0.78,0-1.4,0.31-1.86,0.77l0,0c-0.47-0.62-1.09-0.77-1.55-0.77
		c-0.93,0-1.55,0.31-1.55,0.93c0,0.31,0.15,0.62,0.31,0.62h0.31c0.16,0,0.31,0,0.31,0.62c0,0.31,0.16,0.62,0.16,1.08
		c-0.16,0.31-0.16,0.46-0.16,0.77c0,0.93,0.62,1.24,1.55,1.24c0.93,0,1.24-0.31,1.24-1.08c0-0.77,0-1.39-0.16-1.86
		c0.16-0.31,0.47-0.46,0.62-0.46c0.47,0,0.47,0.31,0.47,1.7c0,0.62,0.16,1.7,1.71,1.7c0.16,0,0.47,0,0.62,0v-4.02
		C258.15,350.83,257.53,350.68,256.75,350.68z"/>
	<path style="fill:#FFFFFF;" d="M225.84,363.07c0.16,0.16,0.31,0.16,0.47,0.16c0.16,0,0.31,0,0.47-0.16l3.73-2.94l3.73,2.94
		c0.15,0.16,0.31,0.16,0.47,0.16c0.15,0,0.31,0,0.47-0.16c0.16-0.15,0.16-0.46,0-0.62l-3.73-2.94l3.73-2.94
		c0.16-0.16,0.16-0.46,0-0.62c-0.15-0.16-0.62-0.16-0.78,0l-3.73,2.94l-3.73-2.94c-0.16-0.16-0.62-0.16-0.78,0
		c-0.15,0.16-0.15,0.46,0,0.62l3.73,2.94l-3.73,2.94C225.68,362.6,225.68,362.91,225.84,363.07z"/>
	<rect x="258.46" y="376.85" style="fill:#E5E5E5;" width="0" height="35.31"/>
	<path style="fill:#E5E5E5;" d="M340.65,570.89l-82.18-22.45v-18.12V412.47l0,0v117.85v18.12v13.63l136.09,37.17
		c1.86,0.46,3.73,0.77,5.59,0.77v-12.85L340.65,570.89z"/>
	<path style="fill:#E5E5E5;" d="M258.46,296.01v13.94l0,0V296.01v-83.16l82.18,22.45l38.22,10.38l14.76,4.03l6.68,1.86v-13.63
		l-136.09-37.17h-0.31c-0.31,0-0.47-0.16-0.78-0.16c-0.16,0-0.31-0.15-0.62-0.15s-0.47-0.15-0.78-0.15c-0.16,0-0.31,0-0.62-0.15
		c-0.31,0-0.62,0-0.78-0.16c-0.16,0-0.31,0-0.47,0c-0.47,0-0.93,0-1.24,0l0,0l0,0v12.85v83.16H258.46z M348.41,235.15h-0.16H348.41z
		"/>
	<path style="fill:#5AAEB4;" d="M363.48,300.04c7.61,0,7.61-5.89,7.61-5.89C363.64,294.15,363.48,299.88,363.48,300.04
		L363.48,300.04z"/>
	<path style="fill:#5AAEB4;" d="M268.25,288.27c0,0,0,2.94,3.88,2.94C271.98,291.21,271.98,288.27,268.25,288.27z"/>
	<path style="fill:#5AAEB4;" d="M279.59,282.38v-2.94h-3.88C275.86,279.44,275.86,282.38,279.59,282.38z"/>
	<path style="fill:#5AAEB4;" d="M325.42,252.81c-3.73,0-3.88,2.94-3.88,2.94l0,0C325.42,255.75,325.42,252.81,325.42,252.81z"/>
	<path style="fill:#5AAEB4;" d="M329.15,394.5c0,0,0-2.95-3.88-2.95c0,0,0-2.94-3.88-2.94v8.82h3.88
		C325.42,397.44,329.15,397.44,329.15,394.5z"/>
	<path style="fill:#5AAEB4;" d="M397.82,412.31h-7.61c0,0,0,2.94,3.88,2.94h6.21v-0.16C399.06,414.63,397.82,414.01,397.82,412.31z"
		/>
	<path style="fill:#5AAEB4;" d="M348.26,406.27l7.61-5.88h-15.23C340.65,400.39,340.65,406.27,348.26,406.27z"/>
	<path style="fill:#5AAEB4;" d="M325.42,382.73c0,0,0-2.94-3.88-2.94v5.88h3.88V382.73z"/>
	<path style="fill:#5AAEB4;" d="M264.37,311.81v5.88c0,0,7.61,0,7.61,5.88c0,0-7.61,0-7.61,5.88v5.88h7.61c0,0-7.61,0-7.61,5.88
		h15.23c0,0,7.61,0,7.61-5.88l0,0c0-0.16,0.16-5.88,7.61-5.88h-7.61v-5.88c0,0,0-5.88-7.61-5.88c0,0,0-5.88-7.61-5.88v-5.88l0,0
		c0-0.15,0.16-5.88,7.61-5.88h-15.23l0,0c0-0.16,0.16-5.89,7.61-5.89h-7.61c0,0-3.57,0-5.9,1.86v13.94
		C259.55,311.03,261.42,311.81,264.37,311.81z"/>
	<path style="fill:#5AAEB4;" d="M374.98,282.38c0,0,0-2.94-3.88-2.94C371.1,279.44,371.1,282.38,374.98,282.38z"/>
	<path style="fill:#5AAEB4;" d="M394.09,429.96c-7.61,0-7.61-5.88-7.61-5.88s0,0-7.61,0c-7.61,0-7.61,5.73-7.61,5.88l0,0v5.88
		c-7.61,0-7.61-5.88-7.61-5.88h-7.61l-7.61-5.88h-15.22c0-5.88-7.61-5.88-7.61-5.88s7.61,0,7.61-5.88c0-5.88-7.61-5.88-7.61-5.88
		h-7.61l0,0h-23.15c-7.61,0-7.61,5.73-7.61,5.88l0,0h-7.61c-7.61,0-7.61,5.73-7.61,5.88l0,0l0,0l0,0h-7.61
		c0-4.03-3.57-5.26-5.9-5.73v117.85h13.52h7.61c0,0,7.61,0,7.61-5.88h7.61h7.61c0,0,7.61,0,7.61,5.88h7.61h7.61v5.88v5.88v11.77
		l7.61,5.88l7.61,5.88v-0.15v0.15v5.11l59.5,16.26V429.96H394.09z M333.03,524.43L333.03,524.43L333.03,524.43z M340.65,554.01h0.16
		H340.65z"/>
	<path style="fill:#5AAEB4;" d="M378.71,258.69v17.65c0,0,0,5.88,7.61,5.88c7.61,0,7.61,0,7.61,0s3.88,0,6.21-2.17l0,0v-10.22
		c-1.09,0.62-2.33,0.62-2.33,0.62c0-1.7,1.24-2.48,2.33-2.79v-16.11l-6.68-1.86C392.38,253.27,389.12,258.69,378.71,258.69z"/>
	<path style="fill:#5AAEB4;" d="M394.09,288.27L394.09,288.27h-7.61c0,0.15,0,0.31,0,0.46c0,0.46,0.16,0.77,0.16,1.24l0,0v0.16v0.15
		v0.16l0,0v0.15l0,0c0,0,0,0,0,0.16l0,0c0,0,0,0.15,0.16,0.15c0.15,0.31,0.47,0.62,0.62,0.93l0,0l0,0c0,0,0,0,0.16,0.15l0.16,0.15
		c0,0,0,0,0.15,0l0,0l0,0l0,0l0,0l0,0l0,0l0,0l0,0l0,0l0,0l0,0l0,0l0,0c0,0,0,0,0.16,0c0.15,0,0.15,0.15,0.31,0.15l0,0l0,0
		c0,0,0,0,0.15,0l0,0l0,0l0,0c0.47,0.16,0.78,0.47,1.24,0.62l0,0l0,0h0.15l0,0l0,0l0,0l0,0l0,0h0.16l0,0h0.16l0,0h0.15h0.16l0,0
		c0.16,0,0.16,0,0.31,0l0,0c0.16,0,0.16,0,0.31,0l0,0l0,0c0,0,0,0,0.16,0c0,0,0,0,0.16,0l0,0c0,0,0,0,0.15,0l0,0l0,0h0.16
		c0,0,0,0,0.16,0c0,0,0,0,0.16,0c0,0,0,0,0.16,0l0,0l0,0h0.15l0,0c0.16,0,0.16,0,0.31,0h0.16c0.16,0,0.16,0,0.16,0l0,0l0,0
		c0.15,0,0.15,0,0.15,0l0,0v5.89h-14.45v5.88v5.88h0.16h-0.16c0,0.16,0,5.88-7.61,5.88h-15.22c-7.61,0-7.61,5.73-7.61,5.88l0,0
		c0,0,0-5.88-7.61-5.88s-7.61,5.73-7.61,5.88l0,0c0-5.88-7.61-5.88-7.61-5.88c0,5.88-7.61,5.88-7.61,5.88h-7.61v5.88
		c-7.61,0-7.61,5.73-7.61,5.88l0,0c-7.61,0-7.61,5.73-7.61,5.88l0,0c-7.61,0-7.61,5.73-7.61,5.88l0,0h-7.61c0,0.31,0,0.46,0,0.77
		c0.16,0,0.31,0,0.47,0c0.62,0,1.09,0,1.4-0.16c0,0,0.16,0.31,0.16,0.62c0,0.62-0.31,0.77-0.78,0.93c0,1.55,0.15,3.25,0.31,4.8
		c0.31,0,0.47,0,0.62,0c0,0,0.16,0.31,0.16,0.62c0,0.77-0.47,0.93-1.86,0.93c-0.78,0-1.24-0.15-2.02-0.15h-0.16
		c-0.15-0.16-0.31-0.46-0.31-0.77c0-0.31,0.16-0.62,0.78-0.62l0,0c0-1.08-0.16-2.17-0.16-3.25c-1.4,1.39-3.42,1.86-4.82,2.17v0.62
		c0,0.31,0.16,0.62,0.47,0.62c0.16,0,0.31,0,0.47-0.16c0.16,0,0.31,0.31,0.31,0.62c0,0.62-0.62,0.93-1.4,0.93
		c-0.78,0-1.4-0.31-1.55-0.77c-0.31,0.46-0.93,0.77-1.55,0.77c-1.55,0-2.8-1.24-2.8-2.79c0-1.39,1.09-2.33,2.49-2.33
		c0.47,0,0.78,0,1.09,0.16l0,0c0.15,0,0.47-0.16,1.09-0.16c0.16,0,0.16,0,0.31,0v-3.25c-3.11,0-4.97,0.93-6.06,2.17c0,0,0,0,0,0.16
		c0,1.39-0.16,2.48-0.16,3.72c0,0.77,0.16,0.93,0.47,0.93c0.16,0,0.47,0,0.47-0.16c0.15,0,0.31,0.31,0.31,0.62
		c0,0.15,0,0.31-0.16,0.46l4.97,3.87c0,5.88,7.61,5.88,7.61,5.88v5.89c0,5.88-7.61,5.88-7.61,5.88h-13.52v36.7
		c5.75-0.77,5.9-5.73,5.9-5.73h7.61c7.61,0,7.61-5.88,7.61-5.88c7.61,0,7.61-5.88,7.61-5.88l0,0v-5.88h7.61
		c0-5.88,7.61-5.88,7.61-5.88c0-5.88,7.61-5.88,7.61-5.88h7.61l7.61-5.88c0,0,0,5.88,7.61,5.88v5.88c0,0,7.61,0,7.61,5.88h7.61
		c0,0,0,5.88,7.61,5.88v5.88h7.61v-5.88c0,0,0-5.88-7.61-5.88c0,0,0-5.88-7.61-5.88c0,0,0-5.88-7.61-5.88v-5.88l0,0
		c0-0.15,0.16-5.88,7.61-5.88v5.88c7.61,0,7.61,5.88,7.61,5.88h7.61v5.73v0.15h7.61v11.77c0,0,7.61,0,7.61,5.88v5.88
		c0,0,7.61,0,7.61,5.88v-5.88c0,0,7.61,0,7.61-5.88c0,0-7.61,0-7.61-5.88c0,0,7.61,0,7.61-5.88h6.21V282.38l0,0
		C394.09,283.16,394.09,288.11,394.09,288.27z M302.58,341.54L302.58,341.54L302.58,341.54z M279.59,382.58L279.59,382.58
		L279.59,382.58z M284.87,355.79c-1.86,0-2.64-0.46-2.64-1.24c0-0.46,0.31-0.62,0.47-0.62c0.47,0.15,1.09,0.46,1.86,0.46
		c0.31,0,0.62,0,0.62-0.15c0-0.16-0.31-0.16-1.09-0.46c-1.71-0.31-2.02-0.93-2.02-1.55c0-1.24,1.4-1.55,2.8-1.55
		c1.71,0,2.33,0.46,2.33,1.08c0,0.46-0.16,0.62-0.47,0.62c-0.47-0.15-1.09-0.31-1.71-0.31c-0.31,0-0.47,0-0.47,0.16
		c0,0.15,0.31,0.15,1.09,0.31c1.71,0.31,2.18,0.93,2.18,1.55C287.83,355.32,286.27,355.79,284.87,355.79z M290.31,355.79
		c-1.09,0-2.02-0.46-2.02-2.01c0-1.7,0-2.17,0-3.87c0-0.46,0-1.24-0.47-1.24c-0.16,0-0.16,0-0.31,0c-0.16-0.15-0.16-0.31-0.16-0.62
		c0-0.31,0.47-0.93,1.55-0.93c1.24,0,2.02,0.62,2.02,2.32c0,1.24,0,2.01,0,3.72c0,0.62,0.16,0.93,0.31,0.93s0.47,0,0.47-0.15
		c0.16,0,0.31,0.31,0.31,0.62C292.02,355.48,291.4,355.79,290.31,355.79z M298.08,355.79c-0.78,0-1.4-0.31-1.55-0.77
		c-0.31,0.46-0.93,0.77-1.55,0.77c-1.55,0-2.8-1.24-2.8-2.79c0-1.4,1.09-2.32,2.49-2.32c0.47,0,0.78,0,1.09,0.15l0,0
		c0.15,0,0.47-0.15,1.09-0.15c0.93,0,1.86,0.31,1.86,1.24c0,0.15,0,0.46-0.15,0.77v1.08c0,0.31,0.15,0.62,0.47,0.62
		c0.16,0,0.31,0,0.47-0.15c0.16,0,0.31,0.31,0.31,0.62C299.48,355.32,298.86,355.79,298.08,355.79z M305.23,355.79
		c-1.55,0-1.71-1.08-1.71-1.7c0-1.39,0-1.7-0.47-1.7c-0.31,0-0.47,0.16-0.62,0.46c0,0.62,0.16,1.24,0.16,1.86
		c0,0.62-0.31,1.08-1.24,1.08c-0.78,0-1.4-0.46-1.55-1.24c0-0.16,0-0.46,0.15-0.77c0-0.46,0-0.77-0.15-1.08
		c-0.16-0.62-0.16-0.62-0.31-0.62h-0.31c0,0-0.31-0.31-0.31-0.62c0-0.62,0.62-0.93,1.55-0.93c0.47,0,1.24,0.16,1.55,0.77l0,0
		c0.62-0.46,1.24-0.77,1.86-0.77c1.09,0,2.02,0.46,2.02,1.86c0,1.7,0.16,1.7,0.31,1.7h0.31c0.16,0.16,0.31,0.31,0.31,0.46
		C306.93,355.17,306.31,355.79,305.23,355.79z M312.84,355.79c-0.62,0-1.24-0.31-1.71-0.77c-0.31,0.46-0.93,0.77-1.55,0.77
		c-1.71,0-2.8-1.39-2.8-2.94c0-1.39,0.93-2.17,2.8-2.17c0.47,0,0.93,0,1.24,0.15c0-0.31,0-0.46,0-0.77c0-0.78-0.16-1.7-0.47-2.32
		c0.31-0.31,0.78-0.46,1.4-0.46c1.09,0,1.55,0.62,1.55,2.32c0,1.39-0.16,2.48-0.16,3.72c0,0.77,0.16,0.93,0.47,0.93
		c0.16,0,0.47,0,0.47-0.16c0.16,0,0.31,0.31,0.31,0.62C314.39,355.48,313.93,355.79,312.84,355.79z M325.42,359.04L325.42,359.04
		L325.42,359.04z M333.03,359.04h0.16H333.03z M394.09,305.92h0.16H394.09z"/>
	<path style="fill:#5AAEB4;" d="M333.03,305.92c0-5.88-7.61-5.88-7.61-5.88c-7.46,0-7.61,5.73-7.61,5.88l0,0v5.88
		c0,5.88,7.61,5.88,7.61,5.88v-5.88C325.42,305.92,333.03,305.92,333.03,305.92z"/>
	<path style="fill:#5AAEB4;" d="M333.03,246.92c0,11.77-15.23,11.77-15.23,11.77v5.88c-15.07,0-15.22,11.61-15.22,11.77l0,0
		l7.61,5.88V294h7.61c7.61,0,7.61-5.88,7.61-5.88h7.61h0.16h-0.16v11.77c7.61,0,7.61,5.89,7.61,5.89c0,0.15,0,5.88-7.61,5.88v6.04
		c0,0,7.61,0,7.61-5.88h7.61c0-5.88,7.61-5.88,7.61-5.88v-11.77c7.61,0,7.61-5.88,7.61-5.88s7.61,0,7.61-5.88s-7.61-5.88-7.61-5.88
		v-11.77c0-11.77,15.23-11.77,15.23-11.77v-5.88c0-0.31,0-0.77,0-1.08l-38.22-10.38v5.58C340.65,246.92,333.03,246.92,333.03,246.92
		z M344.53,285.33v5.88c0,2.94-3.88,2.94-3.88,2.94v-5.88C344.53,288.27,344.53,285.33,344.53,285.33z"/>
	<polygon style="fill:#5AAEB4;" points="298.7,394.5 294.82,394.5 298.7,397.44 	"/>
	<polygon style="fill:#5AAEB4;" points="382.59,291.21 382.59,294.15 386.48,294.15 	"/>
	<path style="fill:#5AAEB4;" d="M264.37,323.73v-2.94h-3.73C260.64,320.79,264.37,320.79,264.37,323.73z"/>
	<line style="fill:none;" x1="333.03" y1="524.27" x2="333.03" y2="524.43"/>
	<line style="fill:none;" x1="340.8" y1="554.01" x2="340.65" y2="554.01"/>
	<path style="fill:#DA5C42;" d="M340.65,294.15c0,0,3.88,0,3.88-2.94v-5.88c0,0,0,2.94-3.88,2.94V294.15z"/>
	<line style="fill:none;" x1="348.26" y1="235.15" x2="348.41" y2="235.15"/>
	<path style="fill:#DA5C42;" d="M397.82,270.46c0,0,1.24,0,2.33-0.62l0,0v-2.17l0,0C399.06,268.14,397.82,268.76,397.82,270.46z"/>
	<path style="fill:#DA5C42;" d="M264.37,418.2h7.61l0,0l0,0l0,0c0-0.15,0.16-5.88,7.61-5.88h7.61l0,0c0-0.15,0.16-5.88,7.61-5.88
		h22.84l0,0h7.61c0,0,7.61,0,7.61,5.88c0,5.88-7.61,5.88-7.61,5.88s7.61,0,7.61,5.88h15.22l7.61,5.88h7.61c0,0,0,5.88,7.61,5.88
		v-5.88l0,0c0-0.16,0.16-5.88,7.61-5.88c7.61,0,7.61,0,7.61,0s0,5.88,7.61,5.88h6.22v-14.71h-6.22c-3.88,0-3.88-2.94-3.88-2.94h7.61
		c0,1.7,1.24,2.48,2.33,2.79l0,0v-26.33h-6.21c0,5.88-7.61,5.88-7.61,5.88c0,5.88,7.61,5.88,7.61,5.88c0,5.88-7.61,5.88-7.61,5.88
		v5.88c0-5.88-7.61-5.88-7.61-5.88v-5.88c0-5.88-7.61-5.88-7.61-5.88v-11.92h-7.61v-0.16v-5.73h-7.61c0,0,0-5.88-7.61-5.88v-5.88
		c-7.61,0-7.61,5.73-7.61,5.88l0,0v5.88c7.61,0,7.61,5.88,7.61,5.88c7.61,0,7.61,5.88,7.61,5.88c7.61,0,7.61,5.88,7.61,5.88v5.88
		h-7.61l-7.61,5.88c-7.61,0-7.61-5.88-7.61-5.88h15.22v-5.88c-7.61,0-7.61-5.88-7.61-5.88h-7.61c0-5.88-7.61-5.88-7.61-5.88v-5.88
		c-7.61,0-7.61-5.88-7.61-5.88l-7.61,5.88h-7.61c0,0-7.61,0-7.61,5.88c0,0-7.61,0-7.61,5.88h-7.61v5.88l0,0c0,0.15,0,5.88-7.61,5.88
		c0,0.16,0,5.88-7.61,5.88h-7.61c0,0,0,4.96-5.9,5.73l0,0v0.31l0,0C260.79,412.78,264.37,414.01,264.37,418.2z M321.54,379.79
		c3.88,0,3.88,2.94,3.88,2.94v2.94h-3.88V379.79z M321.54,388.62c3.88,0,3.88,2.94,3.88,2.94c3.88,0,3.88,2.95,3.88,2.95
		c0,2.94-3.88,2.94-3.88,2.94h-3.88V388.62z M298.7,394.5v2.94l-3.88-2.94H298.7z"/>
	<line style="fill:none;" x1="333.03" y1="288.27" x2="333.19" y2="288.27"/>
	<line style="fill:none;" x1="378.71" y1="311.81" x2="378.86" y2="311.81"/>
	<line style="fill:none;" x1="340.65" y1="565.78" x2="340.65" y2="565.62"/>
	<path style="fill:#DA5C42;" d="M258.46,351.61c0.16,0.31,0.16,0.62,0.16,0.93c0,1.7,0.15,1.7,0.31,1.7h0.31
		c0.16,0.15,0.31,0.31,0.31,0.46c0,0.46-0.31,0.77-1.09,0.93l0,0v21.06l0,0h13.52c0,0,7.61,0,7.61-5.88v-5.88c0,0-7.61,0-7.61-5.88
		l-4.97-3.87c-0.31,0.31-0.78,0.46-1.4,0.46c-0.62,0-1.24-0.31-1.71-0.77c-0.31,0.46-0.93,0.77-1.55,0.77c-1.71,0-2.8-1.39-2.8-2.94
		c0-1.4,0.93-2.17,2.8-2.17c0.47,0,0.93,0,1.24,0.16c0-0.31,0-0.46,0-0.77c0-0.78-0.16-1.71-0.47-2.32c0.31-0.31,0.78-0.46,1.4-0.46
		c1.09,0,1.55,0.62,1.55,2.32c1.09-1.08,2.95-2.17,6.06-2.17v3.25c0.93,0,1.55,0.46,1.55,1.24c0,0.16,0,0.46-0.16,0.77V353
		c1.4-0.16,3.42-0.77,4.82-2.17c0-0.46,0-1.08,0-1.55c-0.16,0-0.31,0-0.47,0h-0.16c-0.15-0.15-0.31-0.46-0.31-0.77
		c0-0.31,0.16-0.62,0.78-0.62c0.47,0,1.09,0,1.55,0c0-0.31,0-0.46,0-0.77h7.61l0,0c0-0.16,0.16-5.88,7.61-5.88l0,0
		c0-0.16,0.16-5.88,7.61-5.88l0,0c0-0.16,0.16-5.88,7.61-5.88v-5.88h7.61c0,0,7.61,0,7.61-5.88c0,0-7.61,0-7.61-5.88v-5.88l0,0
		c0-0.15,0.16-5.88,7.61-5.88c0,0,7.61,0,7.61,5.88c0,0-7.61,0-7.61,5.88v5.88c0,0,7.61,0,7.61,5.88l0,0c0-0.15,0.16-5.88,7.61-5.88
		c7.61,0,7.61,5.88,7.61,5.88l0,0c0-0.15,0.16-5.88,7.61-5.88h15.22c7.61,0,7.61-5.88,7.61-5.88v-5.88v-5.88h15.23v-5.89l0,0h-0.16
		l0,0l0,0h-0.15h-0.16c-0.16,0-0.16,0-0.31,0l0,0H393l0,0l0,0c0,0,0,0-0.16,0c0,0,0,0-0.16,0c0,0,0,0-0.16,0h-0.16l0,0l0,0
		c0,0,0,0-0.15,0l0,0c0,0,0,0-0.16,0c0,0,0,0-0.16,0l0,0l0,0c-0.16,0-0.16,0-0.31,0l0,0c-0.15,0-0.15,0-0.31,0l0,0h-0.16h-0.16l0,0
		h-0.16l0,0h-0.16l0,0l0,0l0,0l0,0l0,0h-0.15l0,0l0,0c-0.47-0.15-0.78-0.31-1.24-0.62l0,0l0,0l0,0c0,0,0,0-0.16,0l0,0l0,0
		c-0.16,0-0.16-0.15-0.31-0.15c0,0,0,0-0.16,0l0,0l0,0l0,0l0,0l0,0l0,0l0,0l0,0l0,0l0,0l0,0l0,0l0,0c0,0,0,0-0.16,0l-0.16-0.15
		c0,0,0,0-0.16-0.15l0,0l0,0c-0.31-0.31-0.47-0.62-0.62-0.93l-0.16-0.15l0,0c0,0,0,0,0-0.15l0,0v-0.16l0,0v-0.15v-0.16v-0.15l0,0
		c-0.16-0.31-0.16-0.77-0.16-1.24c0-0.15,0-0.31,0-0.46h7.61l0,0c0-0.16,0-5.11,6.21-5.88v-2.32c-2.17,2.17-6.21,2.17-6.21,2.17
		s0,0-7.61,0c-7.61,0-7.61-5.88-7.61-5.88v-18.89c10.41,0,13.67-5.42,14.76-8.98l-14.76-4.03c0,0.31,0,0.77,0,1.08v5.88
		c0,0-15.22,0-15.22,11.77v11.77c0,0,7.61,0,7.61,5.88s-7.61,5.88-7.61,5.88c0,0.16,0,5.88-7.61,5.88v11.77c0,0-7.61,0-7.61,5.88
		h-7.61c0,5.88-7.61,5.88-7.61,5.88v-5.88c7.61,0,7.61-5.88,7.61-5.88s0-5.88-7.61-5.88v-11.46h-7.61c0,0.15,0,5.88-7.61,5.88h-7.61
		v-11.77l-7.61-5.88l0,0c0-0.15,0.16-11.77,15.23-11.77v-5.88c0,0,15.23,0,15.23-11.77c0,0,7.61,0,7.61-5.88v-5.58l-83.12-22.76
		v83.16c2.18-1.86,5.9-1.86,5.9-1.86h7.61c-7.61,0-7.61,5.73-7.61,5.89l0,0h15.23c-7.61,0-7.61,5.73-7.61,5.88l0,0v5.88
		c7.61,0,7.61,5.88,7.61,5.88c7.61,0,7.61,5.88,7.61,5.88v5.88h7.61c-7.61,0-7.61,5.73-7.61,5.88l0,0c0,5.88-7.61,5.88-7.61,5.88
		h-15.23c0-5.88,7.61-5.88,7.61-5.88h-7.61v-5.88c0-5.88,7.61-5.88,7.61-5.88c0-5.88-7.61-5.88-7.61-5.88v-5.88
		c-2.95,0-4.82-0.93-5.9-2.01l0,0V351.61L258.46,351.61z M382.59,291.21l3.88,2.94h-3.88V291.21z M374.98,282.38
		c-3.88,0-3.88-2.94-3.88-2.94C374.98,279.44,374.98,282.38,374.98,282.38z M371.1,294.15c0,0.15,0,5.89-7.61,5.89l0,0
		C363.48,299.88,363.64,294.15,371.1,294.15z M321.54,255.75c0,0,0-2.94,3.88-2.94C325.42,252.81,325.42,255.75,321.54,255.75
		L321.54,255.75z M268.25,288.27c3.88,0,3.88,2.94,3.88,2.94C268.25,291.21,268.25,288.27,268.25,288.27z M279.59,282.38
		c-3.88,0-3.88-2.94-3.88-2.94h3.88V282.38z M264.37,320.79v2.94c0-2.94-3.88-2.94-3.88-2.94H264.37z"/>
	<path style="fill:#DA5C42;" d="M262.35,352.07c-0.16,0.16-0.31,0.46-0.31,0.77c0,0.62,0.31,1.08,0.78,1.08
		c0.47,0,0.47-0.93,0.47-1.08c0-0.31,0-0.77,0.16-1.08c-0.16,0-0.31,0-0.31,0C262.66,351.92,262.5,352.07,262.35,352.07z"/>
	<path style="fill:#DA5C42;" d="M333.03,559.89l-7.61-5.89v-11.77v-5.88v-5.88h-7.61h-7.61c0-5.88-7.61-5.88-7.61-5.88h-7.77h-7.61
		c0,5.88-7.61,5.88-7.61,5.88h-7.61h-13.52v17.96l82.18,22.45v-5.11L333.03,559.89z"/>
	<line style="fill:none;" x1="302.58" y1="341.39" x2="302.58" y2="341.54"/>
	<line style="fill:none;" x1="394.09" y1="305.92" x2="394.24" y2="305.92"/>
	<line style="fill:none;" x1="325.42" y1="359.04" x2="325.42" y2="359.04"/>
	<line style="fill:none;" x1="333.03" y1="359.04" x2="333.19" y2="359.04"/>
	<line style="fill:none;" x1="279.59" y1="382.73" x2="279.59" y2="382.58"/>
	<path style="fill:#E5E5E5;" d="M259.55,354.7c0-0.31-0.15-0.46-0.31-0.46h-0.31c-0.16,0-0.31,0-0.31-1.7c0-0.31,0-0.62-0.16-0.93
		l0,0l0,0v4.03l0,0l0,0C259.24,355.48,259.55,355.17,259.55,354.7z"/>
	<path style="fill:#E5E5E5;" d="M267.16,354.7c0-0.31-0.31-0.62-0.31-0.62c-0.16,0-0.31,0.16-0.47,0.16c-0.16,0-0.47-0.16-0.47-0.93
		c0-1.24,0.15-2.32,0.15-3.72c0,0,0,0,0-0.15c0-1.55-0.47-2.32-1.55-2.32c-0.62,0-1.09,0.16-1.4,0.46c0.31,0.77,0.47,1.7,0.47,2.32
		c0,0.31,0,0.46,0,0.77c-0.31-0.16-0.78-0.16-1.24-0.16c-1.86,0-2.8,0.77-2.8,2.17c0,1.55,1.09,2.94,2.8,2.94
		c0.62,0,1.24-0.31,1.55-0.77c0.47,0.46,0.93,0.77,1.71,0.77c0.78,0,1.24-0.15,1.4-0.46C267.16,355.17,267.16,355.01,267.16,354.7z
		 M263.43,353.16c0,0.16,0,1.08-0.47,1.08c-0.47,0-0.78-0.62-0.78-1.08c0-0.46,0.16-0.77,0.31-0.77c0.16-0.15,0.31-0.15,0.78-0.15
		c0.16,0,0.31,0,0.31,0C263.43,352.38,263.43,352.69,263.43,353.16z"/>
	<path style="fill:#5AAEB4;" d="M295.59,351.92c-0.31,0-0.62,0-0.78,0.15c-0.16,0.16-0.31,0.46-0.31,0.77
		c0,0.77,0.31,1.24,0.78,1.24s0.47-0.62,0.47-1.39c0-0.31,0-0.46,0-0.77H295.59z"/>
	<path style="fill:#5AAEB4;" d="M270.58,351.92c-0.31,0-0.62,0-0.78,0.15c-0.16,0.16-0.31,0.46-0.31,0.77
		c0,0.77,0.31,1.24,0.78,1.24s0.47-0.62,0.47-1.39c0-0.31,0-0.46,0-0.77H270.58z"/>
	<path style="fill:#E5E5E5;" d="M270.74,350.68L270.74,350.68c-0.31,0-0.78-0.16-1.09-0.16c-1.55,0-2.49,0.77-2.49,2.32
		c0,1.55,1.24,2.79,2.8,2.79c0.78,0,1.4-0.31,1.55-0.77c0.31,0.46,0.78,0.77,1.55,0.77c0.78,0,1.4-0.31,1.4-0.93
		c0-0.31-0.16-0.46-0.31-0.62c-0.16,0-0.31,0.16-0.47,0.16c-0.31,0-0.47-0.16-0.47-0.62V353v-0.46c0.16-0.31,0.16-0.62,0.16-0.77
		c0-0.78-0.78-1.08-1.55-1.24c-0.16,0-0.16,0-0.31,0C271.2,350.68,270.89,350.68,270.74,350.68z M270.43,354.08
		c-0.47,0-0.78-0.46-0.78-1.24c0-0.31,0.16-0.62,0.31-0.77c0.16-0.15,0.47-0.15,0.78-0.15h0.16c0,0.15,0,0.46,0,0.77
		C270.89,353.47,270.74,354.08,270.43,354.08z"/>
	<path style="fill:#E5E5E5;" d="M278.35,354.24L278.35,354.24c-0.78,0-0.78,0.31-0.78,0.62c0,0.31,0.15,0.62,0.31,0.77h0.15
		c0.62,0,1.09,0.16,2.02,0.16c1.4,0,1.86-0.16,1.86-0.93c0-0.31-0.16-0.62-0.16-0.62c-0.16,0-0.31,0-0.62,0
		c0-1.55-0.15-3.1-0.31-4.8c0.62-0.16,0.78-0.31,0.78-0.93c0-0.31-0.16-0.62-0.16-0.62c-0.31,0-0.78,0.16-1.4,0.16
		c-0.16,0-0.31,0-0.47,0c-0.62,0-1.09,0-1.55,0c-0.62,0-0.78,0.31-0.78,0.62c0,0.31,0.16,0.62,0.31,0.78h0.15c0.16,0,0.31,0,0.47,0
		c0,0.46,0,0.93,0,1.55C278.19,352.07,278.35,353.16,278.35,354.24z"/>
	<path style="fill:#E5E5E5;" d="M285.65,352.38c-0.62-0.15-1.09-0.15-1.09-0.31c0-0.15,0.16-0.15,0.47-0.15
		c0.62,0,1.24,0.15,1.71,0.31c0.16-0.16,0.47-0.31,0.47-0.62c0-0.62-0.62-1.08-2.33-1.08c-1.55,0-2.8,0.31-2.8,1.55
		c0,0.62,0.31,1.24,2.02,1.55c0.93,0.16,1.09,0.31,1.09,0.46c0,0.16-0.31,0.16-0.62,0.16c-0.78,0-1.55-0.16-1.86-0.46
		c-0.16,0.16-0.47,0.31-0.47,0.62c0,0.77,0.78,1.24,2.64,1.24c1.4,0,2.95-0.31,2.95-1.7C287.83,353.31,287.36,352.85,285.65,352.38z
		"/>
	<path style="fill:#E5E5E5;" d="M291.09,354.24c-0.31,0-0.31-0.31-0.31-0.93c0-1.71,0-2.48,0-3.72c0-1.7-0.78-2.32-2.02-2.32
		c-1.09,0-1.55,0.46-1.55,0.93c0,0.31,0.16,0.46,0.16,0.62c0.16,0,0.16,0,0.31,0c0.47,0,0.47,0.77,0.47,1.24c0,1.71,0,2.17,0,3.87
		c0,1.55,0.93,2.01,2.02,2.01c1.09,0,1.71-0.31,1.71-0.93c0-0.31-0.31-0.62-0.31-0.62C291.55,354.08,291.24,354.24,291.09,354.24z"
		/>
	<path style="fill:#E5E5E5;" d="M298.7,354.24c-0.31,0-0.47-0.16-0.47-0.62v-1.08c0.16-0.31,0.16-0.62,0.16-0.77
		c0-0.93-0.78-1.24-1.86-1.24c-0.47,0-0.93,0-1.09,0.16l0,0c-0.31-0.16-0.78-0.16-1.09-0.16c-1.55,0-2.49,0.77-2.49,2.32
		c0,1.55,1.24,2.79,2.8,2.79c0.78,0,1.4-0.31,1.55-0.77c0.31,0.46,0.78,0.77,1.55,0.77c0.78,0,1.4-0.31,1.4-0.93
		c0-0.31-0.16-0.46-0.31-0.62C299.01,354.24,298.86,354.24,298.7,354.24z M295.28,354.08c-0.47,0-0.78-0.46-0.78-1.24
		c0-0.31,0.16-0.62,0.31-0.77c0.16-0.15,0.47-0.15,0.78-0.15h0.16c0,0.15,0,0.46,0,0.77C295.75,353.47,295.75,354.08,295.28,354.08z
		"/>
	<path style="fill:#5AAEB4;" d="M309.73,352.07c-0.16,0.16-0.31,0.46-0.31,0.77c0,0.62,0.31,1.08,0.78,1.08
		c0.47,0,0.47-0.93,0.47-1.08c0-0.31,0-0.77,0.16-1.08c-0.16,0-0.31,0-0.31,0C310.04,351.92,309.73,352.07,309.73,352.07z"/>
	<path style="fill:#E5E5E5;" d="M306.31,354.24c-0.15,0-0.31,0-0.31-1.7c0-1.39-0.93-1.86-2.02-1.86c-0.78,0-1.4,0.31-1.86,0.77l0,0
		c-0.47-0.62-1.09-0.77-1.55-0.77c-0.93,0-1.55,0.31-1.55,0.93c0,0.31,0.16,0.62,0.31,0.62h0.31c0.16,0,0.31,0,0.31,0.62
		c0,0.31,0.16,0.62,0.16,1.08c-0.16,0.31-0.16,0.46-0.16,0.77c0,0.93,0.62,1.24,1.55,1.24c0.93,0,1.24-0.31,1.24-1.08
		c0-0.77,0-1.39-0.16-1.86c0.16-0.31,0.47-0.46,0.62-0.46c0.47,0,0.47,0.31,0.47,1.7c0,0.62,0.16,1.7,1.71,1.7
		c1.09,0,1.71-0.46,1.71-1.08c0-0.31-0.16-0.46-0.31-0.46L306.31,354.24z"/>
	<path style="fill:#E5E5E5;" d="M313.61,354.24c-0.16,0-0.47-0.16-0.47-0.93c0-1.24,0.16-2.32,0.16-3.72c0-1.7-0.47-2.32-1.55-2.32
		c-0.62,0-1.09,0.15-1.4,0.46c0.31,0.78,0.47,1.71,0.47,2.32c0,0.31,0,0.46,0,0.77c-0.31-0.15-0.78-0.15-1.24-0.15
		c-1.86,0-2.8,0.77-2.8,2.17c0,1.55,1.09,2.94,2.8,2.94c0.62,0,1.24-0.31,1.55-0.77c0.47,0.46,0.93,0.77,1.71,0.77
		c1.09,0,1.55-0.31,1.55-0.93c0-0.31-0.31-0.62-0.31-0.62C313.93,354.08,313.77,354.24,313.61,354.24z M310.66,353.16
		c0,0.16,0,1.08-0.47,1.08c-0.47,0-0.78-0.62-0.78-1.08c0-0.46,0.16-0.77,0.31-0.77c0.16-0.15,0.31-0.15,0.78-0.15
		c0.15,0,0.31,0,0.31,0C310.82,352.38,310.66,352.69,310.66,353.16z"/>
	<path style="fill:#E5E5E5;" d="M689.11,239.49l-141.68-38.71h-0.31c-0.31,0-0.47-0.16-0.78-0.16c-0.16,0-0.31-0.15-0.62-0.15
		s-0.47-0.15-0.78-0.15c-0.16,0-0.31,0-0.62-0.15c-0.31,0-0.62,0-0.78-0.16c-0.16,0-0.31,0-0.47,0c-0.47,0-0.93,0-1.24,0l0,0l0,0
		v12.85l1.09,0.31l7.3,2.01l3.26,0.93l47.85,13.16l10.1,2.79l71.93,19.67v101.59v88.58v23.85v121.41l-141.68-38.71v13.63
		l136.09,37.17c1.86,0.46,3.73,0.77,5.59,0.77c3.42,0,6.84-0.77,9.63-2.32c4.35-2.48,6.99-6.35,6.99-10.53V251.57
		C700.3,246.15,695.79,241.35,689.11,239.49z M577.1,217.34v0.16V217.34z M683.83,447.62L683.83,447.62L683.83,447.62z"/>
	<path style="fill:#5AAEB4;" d="M546.65,471.31L546.65,471.31L546.65,471.31c0,0,7.61,0,7.61-5.88s-7.61-5.88-7.61-5.88h-4.66v20.6
		C546.49,476.73,546.65,471.47,546.65,471.31z"/>
	<path style="fill:#5AAEB4;" d="M645.76,512.66v11.77c0,0,7.61,0,7.61-5.88S645.76,512.66,645.76,512.66z"/>
	<path style="fill:#5AAEB4;" d="M541.99,214.4v238.02l0,0c2.17,1.08,4.66,1.08,4.66,1.08h15.22h22.84c0,0,0,5.88,7.61,5.88
		c0,5.88,7.61,5.88,7.61,5.88h-7.61l7.61,5.88h7.61v-5.88l7.61,5.88v23.54c0,5.89,7.61,5.89,7.61,5.89v5.88l7.61,5.88v5.88
		c7.61,0,7.61-5.88,7.61-5.88l0,0l7.61-5.88v-17.65h7.61l30.29-23.38v-23.85h-15.07c-7.61,0-7.61-5.88-7.61-5.88h-15.22
		c0-5.88-7.61-5.88-7.61-5.88v-11.77c0-5.88-7.61-5.88-7.61-5.88s0-5.88-7.61-5.88h-7.61c7.61,0,7.61-5.88,7.61-5.88l0,0
		c-7.61,0-7.61-5.88-7.61-5.88s7.61,0,7.61-5.88H638l7.61-5.88v-11.77c7.61,0,7.61-5.88,7.61-5.88c0-5.88,7.61-5.88,7.61-5.88h7.61
		v-5.88c7.61,0,7.61-5.73,7.61-5.88l0,0l0,0c0,5.27,6.06,5.88,7.46,5.88V251.57l-71.93-19.67l-0.31,0.16
		c-3.73,0-3.88,2.94-3.88,2.94h-7.61v-5.88h1.55l-47.85-13.16c-1.09,1.24-3.26,1.24-3.26,1.24v-2.01l-7.3-2.01
		c-0.16,0.31-0.31,0.77-0.31,1.24H541.99z M676.37,447.62L676.37,447.62L676.37,447.62z M668.6,347.27L668.6,347.27v-0.16
		C668.6,347.27,668.6,347.27,668.6,347.27z M660.99,353.16c0,0,3.88,0,3.88,2.94h-3.88c0,0-3.88,0-3.88-2.94H660.99z M645.76,341.39
		v-0.16C645.76,341.39,645.76,341.39,645.76,341.39z M615.16,365.08L615.16,365.08c0-0.16,0.15-5.88,7.61-5.88c0,0,3.89,0,3.89,2.94
		h11.5c0,0,0,2.94-3.88,2.94h-7.61c0,0-3.89,0-3.89-2.94l-3.88,2.94v5.88l-3.88-2.94v-2.94H615.16z M607.55,406.27L607.55,406.27
		L607.55,406.27z M557.99,365.08c-3.88,0-3.88-2.94-3.88-2.94C557.99,361.98,557.99,365.08,557.99,365.08z M546.65,365.08h7.61v5.88
		l0,0v5.88l-7.61-5.88V365.08h-0.15H546.65z"/>
	<path style="fill:#DA5C42;" d="M676.22,347.27L676.22,347.27L676.22,347.27c0,0.15,0,5.88-7.61,5.88v5.88h-7.61
		c0,0-7.61,0-7.61,5.88c0,0.16,0,5.88-7.61,5.88v11.77l-7.61,5.88h-15.23c0,5.88-7.61,5.88-7.61,5.88s0,5.88,7.61,5.88l0,0
		c0,0.15,0,5.88-7.61,5.88h7.61c7.61,0,7.61,5.88,7.61,5.88s7.61,0,7.61,5.88v11.77c0,0,7.61,0,7.61,5.88h15.23
		c0,0,0,5.88,7.61,5.88h15.07v-88.27C682.43,353.16,676.22,352.54,676.22,347.27z"/>
	<path style="fill:#DA5C42;" d="M599.94,235.15h7.61c0,0,0-2.94,3.88-2.94l0.31-0.16l-10.1-2.79h-1.55v5.88H599.94z"/>
	<path style="fill:#DA5C42;" d="M645.76,488.97v17.66l-7.61,5.88l0,0c0,0.15,0,5.88-7.61,5.88v-5.88l-7.61-5.88v-5.88
		c0,0-7.61,0-7.61-5.89v-23.54l-7.61-5.88v5.88h-7.61l-7.61-5.88h7.61c0,0-7.61,0-7.61-5.88c-7.61,0-7.61-5.88-7.61-5.88h-22.84
		H546.8c0,0-2.49,0-4.66-1.08v6.97h4.66c0,0,7.61,0,7.61,5.88s-7.61,5.88-7.61,5.88l0,0l0,0c0,0.16,0,5.42-4.66,8.83l0,0v68.29
		l141.69,38.71V465.58l-30.29,23.38H645.76z M645.76,524.43v-11.77c0,0,7.61,0,7.61,5.88S645.76,524.43,645.76,524.43z"/>
	<path style="fill:#DA5C42;" d="M553.64,216.11l-3.26-0.93v2.17C550.38,217.34,552.55,217.34,553.64,216.11z"/>
	<path style="fill:#DA5C42;" d="M542.76,214.4c0-0.46,0.16-0.93,0.31-1.24l-1.09-0.31v1.55H542.76z"/>
	<path style="fill:#DA5C42;" d="M546.34,365.08h0.16C546.65,365.08,546.49,365.08,546.34,365.08z"/>
	<polygon style="fill:#DA5C42;" points="554.26,376.85 554.26,370.96 554.26,370.96 554.26,365.08 546.65,365.08 546.65,370.96 	"/>
	<path style="fill:#DA5C42;" d="M577.1,217.65v-0.15C577.1,217.34,577.1,217.5,577.1,217.65z"/>
	<path style="fill:#DA5C42;" d="M557.99,365.08c0,0,0-2.94-3.88-2.94C554.26,361.98,554.26,365.08,557.99,365.08z"/>
	<path style="fill:#DA5C42;" d="M619.04,365.08l3.88-2.94c0,2.94,3.88,2.94,3.88,2.94h7.61c3.88,0,3.88-2.94,3.88-2.94h-11.5
		c0-2.94-3.88-2.94-3.88-2.94c-7.61,0-7.61,5.73-7.61,5.88l0,0v2.94l3.88,2.94v-5.88H619.04z"/>
	<path style="fill:#DA5C42;" d="M645.76,341.23v0.16C645.76,341.39,645.76,341.39,645.76,341.23z"/>
	<line style="fill:none;" x1="607.55" y1="406.27" x2="607.55" y2="406.27"/>
	<path style="fill:#DA5C42;" d="M660.99,356.1h3.88c0-2.94-3.88-2.94-3.88-2.94h-3.88C657.11,356.1,660.99,356.1,660.99,356.1z"/>
	<path style="fill:#DA5C42;" d="M668.6,347.27c0,0,0,0,0-0.16V347.27L668.6,347.27z"/>
	<line style="fill:none;" x1="683.83" y1="447.77" x2="683.83" y2="447.62"/>
	<line style="fill:none;" x1="676.22" y1="447.62" x2="676.37" y2="447.62"/>
</g>
</svg>
