<?xml version="1.0" encoding="utf-8"?>
<!-- Generator: Adobe Illustrator 16.0.0, SVG Export Plug-In . SVG Version: 6.00 Build 0)  -->
<!DOCTYPE svg PUBLIC "-//W3C//DTD SVG 1.1//EN" "http://www.w3.org/Graphics/SVG/1.1/DTD/svg11.dtd">
<svg version="1.1" id="Layer_1" xmlns="http://www.w3.org/2000/svg" xmlns:xlink="http://www.w3.org/1999/xlink" x="0px" y="0px" viewBox="100 200 600 400" style="enable-background:new 100 200 600 400;" xml:space="preserve">
<g>
	<g style="opacity:0.2;">
		<g>
			<g>
				<defs>
					<rect id="SVGID_1_" x="103" y="202.63" width="250.38" height="398.45"/>
				</defs>
				<clipPath id="SVGID_2_">
					<use xlink:href="#SVGID_1_"  style="overflow:visible;"/>
				</clipPath>
				<path style="clip-path:url(#SVGID_2_);" d="M335.8,206.11h-14.92v-0.83c0-1.66-1.82-2.65-3.48-2.65h-12.77
					c-1.66,0-2.49,0.99-2.49,2.65v0.66H106.81c-1.66,0-3.81,0.83-3.81,2.49v386.68c0,1.66,2.16,2.49,3.81,2.49h195.49v0.83
					c0,1.66,0.83,2.65,2.49,2.65h12.77c1.66,0,3.48-0.99,3.48-2.65v-0.83h14.92c10.11,0,17.58-7.63,17.58-17.74V223.69
					C353.21,213.74,345.92,206.11,335.8,206.11"/>
			</g>
		</g>
	</g>
	<path style="fill:#332D2E;" d="M106.81,597.6c-1.66,0-3.81-0.66-3.81-2.49V208.43c0-1.66,2.16-2.49,3.81-2.49H335.8
		c10.11,0,17.58,7.63,17.58,17.74v356.33c0,10.12-7.46,17.74-17.58,17.74H106.81V597.6z"/>
	<rect x="103" y="349.04" width="250.38" height="102.14"/>
	<rect x="103" y="349.04" style="fill:#F16548;" width="252.04" height="100.48"/>
	<g style="opacity:0.25;">
		<g>
			<g>
				<defs>
					<rect id="SVGID_3_" x="300.48" y="206.11" width="23.88" height="391.65"/>
				</defs>
				<clipPath id="SVGID_4_">
					<use xlink:href="#SVGID_3_"  style="overflow:visible;"/>
				</clipPath>
				<rect x="300.48" y="206.11" style="clip-path:url(#SVGID_4_);" width="23.88" height="391.65"/>
			</g>
		</g>
	</g>
	<path d="M320.88,205.61c0-1.66-1.33-2.98-2.98-2.98h-12.6c-1.66,0-2.98,1.33-2.98,2.98v392.32c0,1.66,1.33,2.98,2.98,2.98h12.6
		c1.66,0,2.98-1.33,2.98-2.98V205.61z"/>
	<g style="opacity:0.25;">
		<g>
			<g>
				<defs>
					<rect id="SVGID_5_" x="303.97" y="202.63" width="1.66" height="398.45"/>
				</defs>
				<clipPath id="SVGID_6_">
					<use xlink:href="#SVGID_5_"  style="overflow:visible;"/>
				</clipPath>
				<rect x="303.97" y="202.63" style="clip-path:url(#SVGID_6_);fill:#FFFFFF;" width="1.66" height="398.45"/>
			</g>
		</g>
	</g>
	<g style="opacity:0.25;">
		<g>
			<g>
				<defs>
					<rect id="SVGID_7_" x="307.28" y="202.63" width="1.66" height="398.45"/>
				</defs>
				<clipPath id="SVGID_8_">
					<use xlink:href="#SVGID_7_"  style="overflow:visible;"/>
				</clipPath>
				<rect x="307.28" y="202.63" style="clip-path:url(#SVGID_8_);fill:#FFFFFF;" width="1.66" height="398.45"/>
			</g>
		</g>
	</g>
	<g style="opacity:0.25;">
		<g>
			<g>
				<defs>
					<rect id="SVGID_9_" x="310.76" y="202.63" width="1.66" height="398.45"/>
				</defs>
				<clipPath id="SVGID_10_">
					<use xlink:href="#SVGID_9_"  style="overflow:visible;"/>
				</clipPath>
				<rect x="310.76" y="202.63" style="clip-path:url(#SVGID_10_);fill:#FFFFFF;" width="1.66" height="398.45"/>
			</g>
		</g>
	</g>
	<g style="opacity:0.25;">
		<g>
			<g>
				<defs>
					<polygon id="SVGID_11_" points="314.08,601.08 314.08,601.08 314.08,202.63 					"/>
				</defs>
				<clipPath id="SVGID_12_">
					<use xlink:href="#SVGID_11_"  style="overflow:visible;"/>
				</clipPath>
				<polygon style="clip-path:url(#SVGID_12_);fill:#FFFFFF;" points="314.08,601.08 314.08,601.08 314.08,202.63 				"/>
			</g>
		</g>
	</g>
	<g style="opacity:0.25;">
		<g>
			<g>
				<defs>
					<rect id="SVGID_13_" x="314.08" y="202.63" width="1.66" height="398.45"/>
				</defs>
				<clipPath id="SVGID_14_">
					<use xlink:href="#SVGID_13_"  style="overflow:visible;"/>
				</clipPath>
				<rect x="314.08" y="202.63" style="clip-path:url(#SVGID_14_);fill:#FFFFFF;" width="1.66" height="398.45"/>
			</g>
		</g>
	</g>
	<g style="opacity:0.25;">
		<g>
			<g>
				<defs>
					<rect id="SVGID_15_" x="317.56" y="202.63" width="1.66" height="398.45"/>
				</defs>
				<clipPath id="SVGID_16_">
					<use xlink:href="#SVGID_15_"  style="overflow:visible;"/>
				</clipPath>
				<rect x="317.56" y="202.63" style="clip-path:url(#SVGID_16_);fill:#FFFFFF;" width="1.66" height="398.45"/>
			</g>
		</g>
	</g>
</g>
<g>
	<g style="opacity:0.1;">
		<g>
			<g>
				<defs>
					<rect id="SVGID_17_" x="383.29" y="209.27" width="19.07" height="377.39"/>
				</defs>
				<clipPath id="SVGID_18_">
					<use xlink:href="#SVGID_17_"  style="overflow:visible;"/>
				</clipPath>
				<path style="clip-path:url(#SVGID_18_);" d="M390.09,586.66h10.11c1.16,0,2.16-0.83,2.16-1.82v-8.12v-0.83v-7.63v-0.66v-11.61
					v-0.66v-7.63v-0.83V251.72l0,0c0-1.33-0.17-2.49-0.33-3.65l0,0l-7.46-31.5l-1.66-7.3l-1.66,7.3l-7.46,31.5l0,0
					c-0.17,0.99-0.33,2.32-0.33,3.65l0,0v295.81v7.63l0,0v0.66l0,0v11.61l0,0v0.66l0,0v7.63l0,0v9.12l0,0c0,1,0.99,1.82,2.16,1.82
					H390.09L390.09,586.66"/>
			</g>
		</g>
	</g>
	<path style="fill:#C44A4E;" d="M404.84,583.18c1.16,0,2.16-0.83,2.16-1.82v-9.12h-19.07v9.12c0,1,0.99,1.82,2.16,1.82H404.84z"/>
	<path style="fill:#AC4145;" d="M390.09,583.18h4.64c-1.16,0-2.16-0.83-2.16-1.82v-9.12h-4.64v9.12
		C387.93,582.35,388.93,583.18,390.09,583.18"/>
	<g style="opacity:0.1;">
		<g>
			<g>
				<defs>
					<rect id="SVGID_19_" x="387.93" y="572.4" width="19.07" height="0.83"/>
				</defs>
				<clipPath id="SVGID_20_">
					<use xlink:href="#SVGID_19_"  style="overflow:visible;"/>
				</clipPath>
				<rect x="387.93" y="572.4" style="clip-path:url(#SVGID_20_);" width="19.07" height="0.83"/>
			</g>
		</g>
	</g>
	<g style="opacity:0.1;">
		<g>
			<g>
				<defs>
					<rect id="SVGID_21_" x="387.93" y="543.22" width="19.07" height="0.83"/>
				</defs>
				<clipPath id="SVGID_22_">
					<use xlink:href="#SVGID_21_"  style="overflow:visible;"/>
				</clipPath>
				<rect x="387.93" y="543.22" style="clip-path:url(#SVGID_22_);" width="19.07" height="0.83"/>
			</g>
		</g>
	</g>
	<polygon style="fill:#E2A97B;" points="406.67,249.73 388.43,249.73 388.43,246.08 395.72,214.74 399.21,214.74 406.67,246.08 	"/>
	<path style="fill:#EBA300;" d="M402.19,249.73c0-3.65-2.16-6.63-4.64-6.63c-2.65,0-4.64,2.98-4.64,6.63l0,0V566.1h9.29V249.73z"/>
	<path style="fill:#FFB32B;" d="M407,249.73L407,249.73c0-3.65-1.16-6.63-2.49-6.63s-2.49,2.98-2.49,6.63v294.49h4.81V249.73H407z"
		/>
	<path style="fill:#CE7200;" d="M392.74,249.73L392.74,249.73c0-3.65-1.16-6.63-2.49-6.63s-2.49,2.98-2.49,6.63v294.49h4.81V249.73
		H392.74z"/>
	<polygon style="fill:#1C1C1C;" points="399.21,214.74 395.72,214.74 397.55,207.45 	"/>
	<rect x="387.93" y="544.22" style="fill:#D3984C;" width="19.07" height="28.19"/>
	<g style="opacity:0.3;">
		<g>
			<g>
				<defs>
					<rect id="SVGID_23_" x="402.19" y="544.22" width="4.81" height="28.19"/>
				</defs>
				<clipPath id="SVGID_24_">
					<use xlink:href="#SVGID_23_"  style="overflow:visible;"/>
				</clipPath>
				<rect x="402.19" y="544.22" style="clip-path:url(#SVGID_24_);fill:#FFFFFF;" width="4.81" height="28.19"/>
			</g>
		</g>
	</g>
	<g style="opacity:0.3;">
		<g>
			<g>
				<defs>
					<rect id="SVGID_25_" x="387.93" y="544.22" width="4.81" height="28.19"/>
				</defs>
				<clipPath id="SVGID_26_">
					<use xlink:href="#SVGID_25_"  style="overflow:visible;"/>
				</clipPath>
				<rect x="387.93" y="544.22" style="clip-path:url(#SVGID_26_);" width="4.81" height="28.19"/>
			</g>
		</g>
	</g>
	<g style="opacity:0.1;">
		<g>
			<g>
				<defs>
					<rect id="SVGID_27_" x="387.93" y="551.84" width="19.07" height="0.66"/>
				</defs>
				<clipPath id="SVGID_28_">
					<use xlink:href="#SVGID_27_"  style="overflow:visible;"/>
				</clipPath>
				<rect x="387.93" y="551.84" style="clip-path:url(#SVGID_28_);" width="19.07" height="0.66"/>
			</g>
		</g>
	</g>
	<g style="opacity:0.1;">
		<g>
			<g>
				<defs>
					<rect id="SVGID_29_" x="387.93" y="564.11" width="19.07" height="0.66"/>
				</defs>
				<clipPath id="SVGID_30_">
					<use xlink:href="#SVGID_29_"  style="overflow:visible;"/>
				</clipPath>
				<rect x="387.93" y="564.11" style="clip-path:url(#SVGID_30_);" width="19.07" height="0.66"/>
			</g>
		</g>
	</g>
</g>
<g>
	<g style="opacity:0.1;">
		<g>
			<g>
				<defs>
					<rect id="SVGID_31_" x="438.85" y="248.56" width="33" height="333.29"/>
				</defs>
				<clipPath id="SVGID_32_">
					<use xlink:href="#SVGID_31_"  style="overflow:visible;"/>
				</clipPath>
				<path style="clip-path:url(#SVGID_32_);" d="M467.37,579.36v-13.43v-2.65c1.66,0,3.15-1.33,3.15-3.15V407.24v-3.15h1.33V256.68
					v-0.5v-0.33v-3.65l-7.3-3.65h-6.96h-2.16h-9.12l-7.3,3.65v3.65v0.33v0.5v147.41h1.66v3.15v152.88c0,1.66,1.33,3.15,3.15,3.15
					v2.65v13.43c0,1.33,1.16,2.49,2.49,2.49h12.6h4.31h1.99C466.21,581.68,467.37,580.68,467.37,579.36"/>
			</g>
		</g>
	</g>
	<path style="fill:#2B2B2B;" d="M450.29,558.3c-1.66,0-2.99-1.33-2.99-3.15V371.43c0-1.66,1.33-2.99,2.99-2.99H474
		c1.66,0,2.99,1.33,2.99,2.99v183.89c0,1.66-1.33,3.15-2.99,3.15h-23.71V558.3z"/>
	<path style="fill:#E5E5E5;" d="M451.29,368.28V305.6c0-1.16,0.99-2.16,2.16-2.16h17.24c1.16,0,2.16,0.99,2.16,2.16v62.68H451.29
		L451.29,368.28z"/>
	<path style="fill:#2B2B2B;" d="M471.02,296.65c0,0,0.17-2.16-0.66-3.32c-0.99-1.33-4.31-1.33-8.12-1.33s-7.13,0.17-8.12,1.33
		c-1,1.33-0.66,3.32-0.66,3.32l0.33,6.63h16.91L471.02,296.65z"/>
	<path style="fill:#E5E5E5;" d="M462.07,292c-2.82,0-5.31,0-6.96,0.66v-5.31c0,0,1.16-12.44,5.97-22.72
		c-0.17-0.17-0.33-0.5-0.33-0.83c0-0.66,0.5-1.33,1.16-1.33s1.33,0.5,1.33,1.33c0,0.33-0.17,0.5-0.33,0.83
		c4.81,10.28,5.97,22.72,5.97,22.72v5.31C467.54,292,464.88,292,462.07,292"/>
	<path d="M461.9,284.87v-22.22c0-0.17,0.17-0.17,0.17-0.17l0.17,0.17v22.05c0,0.17-0.17,0.17-0.17,0.17H461.9"/>
	<path d="M461.07,285.7c0-0.66,0.5-1.16,1.16-1.16c0.66,0,1.16,0.5,1.16,1.16c0,0.17-0.17,0.17-0.17,0.17l-0.17-0.17
		c0-0.33-0.33-0.66-0.66-0.66s-0.66,0.33-0.66,0.66c0,0.17-0.17,0.17-0.17,0.17S461.07,285.87,461.07,285.7"/>
	<g style="opacity:0.3;">
		<g>
			<g>
				<defs>
					<rect id="SVGID_33_" x="463.23" y="303.44" width="5.8" height="65"/>
				</defs>
				<clipPath id="SVGID_34_">
					<use xlink:href="#SVGID_33_"  style="overflow:visible;"/>
				</clipPath>
				<rect x="463.23" y="303.44" style="clip-path:url(#SVGID_34_);fill:#FFFFFF;" width="5.8" height="65"/>
			</g>
		</g>
	</g>
	<g style="opacity:0.1;">
		<g>
			<g>
				<defs>
					<rect id="SVGID_35_" x="462.07" y="368.28" width="9.45" height="190.02"/>
				</defs>
				<clipPath id="SVGID_36_">
					<use xlink:href="#SVGID_35_"  style="overflow:visible;"/>
				</clipPath>
				<rect x="462.07" y="368.28" style="clip-path:url(#SVGID_36_);fill:#FFFFFF;" width="9.45" height="190.02"/>
			</g>
		</g>
	</g>
	<g style="opacity:0.1;">
		<g>
			<g>
				<defs>
					<rect id="SVGID_37_" x="451.29" y="366.95" width="21.72" height="1.33"/>
				</defs>
				<clipPath id="SVGID_38_">
					<use xlink:href="#SVGID_37_"  style="overflow:visible;"/>
				</clipPath>
				<rect x="451.29" y="366.95" style="clip-path:url(#SVGID_38_);" width="21.72" height="1.33"/>
			</g>
		</g>
	</g>
	<g style="opacity:0.1;">
		<g>
			<g>
				<defs>
					<rect id="SVGID_39_" x="462.56" y="292" width="4.64" height="11.44"/>
				</defs>
				<clipPath id="SVGID_40_">
					<use xlink:href="#SVGID_39_"  style="overflow:visible;"/>
				</clipPath>
				<path style="clip-path:url(#SVGID_40_);fill:#FFFFFF;" d="M467.21,303.44h-4.64V292c1.82,0,3.32,0,4.64,0.17V303.44z"/>
			</g>
		</g>
	</g>
	<g style="opacity:0.5;">
		<g>
			<g>
				<defs>
					<rect id="SVGID_41_" x="462.07" y="262.49" width="6.96" height="30.01"/>
				</defs>
				<clipPath id="SVGID_42_">
					<use xlink:href="#SVGID_41_"  style="overflow:visible;"/>
				</clipPath>
				<path style="clip-path:url(#SVGID_42_);fill:#FFFFFF;" d="M469.03,287.36c0,0-1.16-12.44-5.97-22.72
					c0.17-0.17,0.33-0.5,0.33-0.83c0-0.66-0.5-1.16-1.33-1.16v29.51c2.82,0,5.31,0,6.96,0.66V287.36L469.03,287.36z"/>
			</g>
		</g>
	</g>
	<g style="opacity:0.1;">
		<g>
			<g>
				<defs>
					<rect id="SVGID_43_" x="455.27" y="290.51" width="13.76" height="2.16"/>
				</defs>
				<clipPath id="SVGID_44_">
					<use xlink:href="#SVGID_43_"  style="overflow:visible;"/>
				</clipPath>
				<path style="clip-path:url(#SVGID_44_);" d="M462.07,292c-2.82,0-5.31,0-6.96,0.66v-1.49c1.49-0.5,4.14-0.66,6.96-0.66
					c2.82,0,5.31,0,6.96,0.66v1.49C467.54,292,464.88,292,462.07,292"/>
			</g>
		</g>
	</g>
	<path style="fill:#2B2B2B;" d="M474,574.38V558.3h-23.71v16.08c0,1.33,1.16,2.49,2.49,2.49h18.9
		C472.84,576.87,474,575.71,474,574.38"/>
	<g style="opacity:0.1;">
		<g>
			<g>
				<defs>
					<rect id="SVGID_45_" x="465.38" y="558.3" width="4.31" height="18.57"/>
				</defs>
				<clipPath id="SVGID_46_">
					<use xlink:href="#SVGID_45_"  style="overflow:visible;"/>
				</clipPath>
				<rect x="465.38" y="558.3" style="clip-path:url(#SVGID_46_);fill:#FFFFFF;" width="4.31" height="18.57"/>
			</g>
		</g>
	</g>
	<g style="opacity:0.1;">
		<g>
			<g>
				<defs>
					<rect id="SVGID_47_" x="450.29" y="558.3" width="23.71" height="2.65"/>
				</defs>
				<clipPath id="SVGID_48_">
					<use xlink:href="#SVGID_47_"  style="overflow:visible;"/>
				</clipPath>
				<rect x="450.29" y="558.3" style="clip-path:url(#SVGID_48_);" width="23.71" height="2.65"/>
			</g>
		</g>
	</g>
	<polygon style="fill:#2B2B2B;" points="478.48,245.74 478.48,251.38 478.48,399.29 445.48,399.29 445.48,251.38 445.48,245.74
		452.78,242.09 461.9,242.09 471.18,242.09 	"/>
	<g style="opacity:0.1;">
		<g>
			<g>
				<defs>
					<rect id="SVGID_49_" x="464.05" y="242.09" width="9.45" height="157.19"/>
				</defs>
				<clipPath id="SVGID_50_">
					<use xlink:href="#SVGID_49_"  style="overflow:visible;"/>
				</clipPath>
				<polygon style="clip-path:url(#SVGID_50_);fill:#FFFFFF;" points="464.05,242.09 464.05,399.29 473.51,399.29 473.51,243.25
					471.18,242.09 				"/>
			</g>
		</g>
	</g>
	<g style="opacity:0.3;">
		<g>
			<g>
				<defs>
					<rect id="SVGID_51_" x="452.45" y="251.38" width="15.92" height="134.14"/>
				</defs>
				<clipPath id="SVGID_52_">
					<use xlink:href="#SVGID_51_"  style="overflow:visible;"/>
				</clipPath>
				<polygon style="clip-path:url(#SVGID_52_);" points="468.37,324.5 468.37,328.15 463.56,343.07 463.56,366.95 468.37,366.95
					460.41,385.52 452.45,366.95 457.26,366.95 457.26,343.07 452.45,328.15 452.45,324.5 452.45,251.38 460.41,251.38
					468.37,251.38 				"/>
			</g>
		</g>
	</g>
	<polygon style="fill:#DDDDDD;" points="469.86,324.5 469.86,328.15 465.22,343.07 465.22,366.95 469.86,366.95 461.9,385.52
		453.94,366.95 458.75,366.95 458.75,343.07 453.94,328.15 453.94,324.5 453.94,251.38 461.9,251.38 469.86,251.38 	"/>
	<polygon style="fill:#C8C8C8;" points="453.94,251.38 469.86,251.38 462.07,258.51 	"/>
	<polygon style="fill:#AFAFAF;" points="463.72,379.22 463.72,257.02 460.41,257.02 460.41,379.22 461.9,381.38 	"/>
	<g style="opacity:0.1;">
		<g>
			<g>
				<defs>
					<rect id="SVGID_53_" x="447.14" y="399.29" width="29.85" height="3.15"/>
				</defs>
				<clipPath id="SVGID_54_">
					<use xlink:href="#SVGID_53_"  style="overflow:visible;"/>
				</clipPath>
				<rect x="447.14" y="399.29" style="clip-path:url(#SVGID_54_);" width="29.85" height="3.15"/>
			</g>
		</g>
	</g>
	<g style="opacity:0.2;">
		<g>
			<g>
				<defs>
					<rect id="SVGID_55_" x="453.61" y="302.12" width="17.08" height="1.33"/>
				</defs>
				<clipPath id="SVGID_56_">
					<use xlink:href="#SVGID_55_"  style="overflow:visible;"/>
				</clipPath>
				<rect x="453.61" y="302.12" style="clip-path:url(#SVGID_56_);" width="17.08" height="1.33"/>
			</g>
		</g>
	</g>
	<g style="opacity:0.2;">
		<g>
			<g>
				<defs>
					<rect id="SVGID_57_" x="445.48" y="251.05" width="33" height="0.83"/>
				</defs>
				<clipPath id="SVGID_58_">
					<use xlink:href="#SVGID_57_"  style="overflow:visible;"/>
				</clipPath>
				<rect x="445.48" y="251.05" style="clip-path:url(#SVGID_58_);" width="33" height="0.83"/>
			</g>
		</g>
	</g>
</g>
<g>
	<path style="fill:#CACACA;" d="M543.29,591.77c-15.09,0-27.53-12.27-27.53-27.53V239.42c0-15.09,12.27-27.52,27.53-27.52h125.19
		c15.09,0,27.53,12.27,27.53,27.52v324.83c0,15.09-12.27,27.53-27.53,27.53H543.29z"/>
	<path style="fill:#F0F0F0;" d="M543.29,590.12c-14.26,0-25.7-11.61-25.7-25.7V239.42c0-14.26,11.61-25.7,25.7-25.7h125.19
		c14.26,0,25.7,11.61,25.7,25.7v324.83c0,14.26-11.61,25.7-25.7,25.7H543.29V590.12z"/>
	<path style="fill:#CACACA;" d="M610.77,231.63c0,2.82-2.16,4.97-4.97,4.97c-2.82,0-4.97-2.16-4.97-4.97c0-2.82,2.16-4.97,4.97-4.97
		C608.62,226.65,610.77,228.81,610.77,231.63"/>
	<path style="fill:#B1B1B1;" d="M605.8,234.44c-1.49,0-2.82-1.33-2.82-2.82c0-1.49,1.33-2.82,2.82-2.82c1.49,0,2.82,1.33,2.82,2.82
		C608.62,233.12,607.46,234.44,605.8,234.44"/>
	<path style="fill:#CACACA;" d="M618.57,242.57h-25.54c-2.16,0-3.81,1.66-3.81,3.81c0,2.16,1.66,3.81,3.81,3.81h25.7
		c2.16,0,3.81-1.66,3.81-3.81C622.54,244.23,620.72,242.57,618.57,242.57"/>
	<path style="fill:#B1B1B1;" d="M593.03,248.71c-1.16,0-2.16-1-2.16-2.16s0.99-2.16,2.16-2.16h25.7c1.16,0,2.16,0.99,2.16,2.16
		s-0.99,2.16-2.16,2.16H593.03z"/>
	<path style="fill:#CACACA;" d="M579.43,242.57L579.43,242.57c-2.16,0-3.81,1.66-3.81,3.81c0,2.16,1.66,3.81,3.81,3.81l0,0
		c2.16,0,3.81-1.66,3.81-3.81C583.41,244.23,581.59,242.57,579.43,242.57"/>
	<path style="fill:#B1B1B1;" d="M579.6,248.71c-1.16,0-2.16-1-2.16-2.16s0.99-2.16,2.16-2.16l0,0c1.16,0,2.16,0.99,2.16,2.16
		S580.76,248.71,579.6,248.71L579.6,248.71z"/>
	<path style="fill:#CACACA;" d="M605.8,546.84c-9.45,0-17.24,7.63-17.24,17.25c0,9.45,7.63,17.24,17.24,17.24
		c9.45,0,17.25-7.63,17.25-17.24C623.04,554.63,615.25,546.84,605.8,546.84 M605.8,580.17c-8.79,0-16.08-7.13-16.08-16.08
		c0-8.79,7.13-16.08,16.08-16.08c8.79,0,16.08,7.13,16.08,16.08C621.88,572.87,614.59,580.17,605.8,580.17"/>
	<rect x="528.86" y="266.28" style="fill:#4C9BA8;" width="152.88" height="272.43"/>
	<rect x="694.18" y="563.58" style="fill:#888A9A;" width="1.66" height="1.16"/>
	<rect x="515.76" y="563.58" style="fill:#888A9A;" width="1.66" height="1.16"/>
	<rect x="694.18" y="244.73" style="fill:#888A9A;" width="1.66" height="1.16"/>
	<path style="fill:#CACACA;" d="M665.99,210.24c0-0.33-0.33-0.5-0.5-0.5h-28.35c-0.33,0-0.5,0.33-0.5,0.5v1.66h29.35V210.24z"/>
	<g style="opacity:0.1;">
		<g>
			<g>
				<defs>
					<rect id="SVGID_59_" x="636.47" y="211.4" width="29.51" height="0.5"/>
				</defs>
				<clipPath id="SVGID_60_">
					<use xlink:href="#SVGID_59_"  style="overflow:visible;"/>
				</clipPath>
				<rect x="636.47" y="211.4" style="clip-path:url(#SVGID_60_);" width="29.51" height="0.5"/>
			</g>
		</g>
	</g>
	<path style="fill:#CACACA;" d="M514.1,297.62c-0.33,0-0.5,0.33-0.5,0.5v11.77c0,0.33,0.33,0.5,0.5,0.5h1.66v-12.93h-1.66V297.62z"
		/>
	<g style="opacity:0.1;">
		<g>
			<g>
				<defs>
					<rect id="SVGID_61_" x="515.1" y="297.62" width="0.5" height="12.93"/>
				</defs>
				<clipPath id="SVGID_62_">
					<use xlink:href="#SVGID_61_"  style="overflow:visible;"/>
				</clipPath>
				<rect x="515.1" y="297.62" style="clip-path:url(#SVGID_62_);" width="0.5" height="12.93"/>
			</g>
		</g>
	</g>
	<path style="fill:#CACACA;" d="M514.1,261.97c-0.33,0-0.5,0.33-0.5,0.5v16.25c0,0.33,0.33,0.5,0.5,0.5h1.66v-17.25H514.1z"/>
	<g style="opacity:0.1;">
		<g>
			<g>
				<defs>
					<rect id="SVGID_63_" x="515.1" y="261.97" width="0.5" height="17.41"/>
				</defs>
				<clipPath id="SVGID_64_">
					<use xlink:href="#SVGID_63_"  style="overflow:visible;"/>
				</clipPath>
				<rect x="515.1" y="261.97" style="clip-path:url(#SVGID_64_);" width="0.5" height="17.41"/>
			</g>
		</g>
	</g>
	<path style="fill:#CACACA;" d="M514.1,329.12c-0.33,0-0.5,0.33-0.5,0.5v11.77c0,0.33,0.33,0.5,0.5,0.5h1.66v-12.93h-1.66V329.12z"
		/>
	<g style="opacity:0.1;">
		<g>
			<g>
				<defs>
					<rect id="SVGID_65_" x="515.1" y="329.12" width="0.5" height="12.93"/>
				</defs>
				<clipPath id="SVGID_66_">
					<use xlink:href="#SVGID_65_"  style="overflow:visible;"/>
				</clipPath>
				<rect x="515.1" y="329.12" style="clip-path:url(#SVGID_66_);" width="0.5" height="12.93"/>
			</g>
		</g>
	</g>
	<g style="opacity:0.05;">
		<g>
			<g>
				<defs>
					<rect id="SVGID_67_" x="517.42" y="213.72" width="98.66" height="373.41"/>
				</defs>
				<clipPath id="SVGID_68_">
					<use xlink:href="#SVGID_67_"  style="overflow:visible;"/>
				</clipPath>
				<path style="clip-path:url(#SVGID_68_);fill:#FFFFFF;" d="M543.29,213.72c-14.26,0-25.7,11.61-25.7,25.7v324.83
					c0,9.95,5.8,18.74,14.09,22.88l84.57-373.41H543.29z"/>
			</g>
		</g>
	</g>
</g>
</svg>
