<?xml version="1.0" encoding="utf-8"?>
<!-- Generator: Adobe Illustrator 16.0.0, SVG Export Plug-In . SVG Version: 6.00 Build 0)  -->
<!DOCTYPE svg PUBLIC "-//W3C//DTD SVG 1.1//EN" "http://www.w3.org/Graphics/SVG/1.1/DTD/svg11.dtd">
<svg version="1.1" id="Layer_1" xmlns="http://www.w3.org/2000/svg" xmlns:xlink="http://www.w3.org/1999/xlink" x="0px" y="0px" viewBox="100.5 200.5 600 400" enable-background="new 100.5 200.5 600 400" xml:space="preserve">
<g>
	<path fill="#FFFFFF" d="M435.617,367.966h-47.454h-47.454H221.761h-47.454h-47.663h-23.622v31.567h39.51
		c0,13.168,10.661,23.83,23.832,23.83c13.169,0,23.831-10.662,23.831-23.83h55.397c12.125-5.019,25.504-7.945,39.72-7.945
		c14.006,0,27.385,2.719,39.719,7.945H459.24v-31.567H435.617z M166.364,407.477c-4.391,0-7.944-3.554-7.944-7.943
		c0-4.393,3.553-7.945,7.944-7.945c4.389,0,7.943,3.553,7.943,7.945C174.307,403.923,170.753,407.477,166.364,407.477z
		 M419.73,391.798c-7.944,0-7.944,0-15.888,0c-7.944,0-7.944-7.944-7.944-7.944s0-7.943,7.944-7.943c7.943,0,7.943,0,15.888,0
		c7.943,0,7.943,7.943,7.943,7.943S427.674,391.798,419.73,391.798z"/>
	<path fill="#5B5E5E" d="M376.875,448.031l5.436-2.091c0,0,14.843-5.435,20.277,9.407c5.436,14.843-9.407,20.278-9.407,20.278
		l-6.48,2.509c0.835,5.435,1.254,10.869,1.254,16.514c0,17.143-4.181,33.239-11.707,47.454h82.992V399.533H324.612
		C347.399,409.147,365.795,426.291,376.875,448.031z"/>
	<path fill="#5B5E5E" d="M182.252,494.648c0-42.854,26.131-79.438,63.341-95.115h-55.606c0,13.168-10.662,23.83-23.832,23.83
		c-13.169,0-23.832-10.662-23.832-23.83h-39.301v142.569h90.727C186.432,527.888,182.252,511.791,182.252,494.648z"/>
	<path fill="#FFFFFF" d="M393.181,475.835c0,0,14.843-5.436,9.407-20.278c-5.436-14.842-20.277-9.406-20.277-9.406l-5.436,2.091
		c4.808,9.406,8.153,19.44,9.826,30.102L393.181,475.835z"/>
	<path fill="#FFFFFF" d="M350.745,573.877H459.24v-31.565h-82.784C369.977,554.437,361.405,565.099,350.745,573.877z"/>
	<path fill="#FFFFFF" d="M193.749,542.103h-90.727v31.566h116.44C208.801,565.099,200.021,554.437,193.749,542.103z"/>
	<path fill="#5B5E5E" d="M174.307,360.022c0-7.944-7.943-7.944-7.943-7.944s-23.832,0-31.775,0c-7.944,0-7.944,7.944-7.944,7.944
		v7.943h47.454v-7.943H174.307z"/>
	<path fill="#434747" d="M340.501,348.106c0-19.858-19.86-19.858-19.86-19.858s-59.37,0-79.229,0s-19.859,19.858-19.859,19.858
		v19.859h118.739v-19.859H340.501z"/>
	<path fill="#5B5E5E" d="M435.617,360.022c0-7.944-7.943-7.944-7.943-7.944s-23.831,0-31.775,0c-7.945,0-7.945,7.944-7.945,7.944
		v7.943h47.456v-7.943H435.617z"/>
	<path fill="#63BFC6" d="M419.73,375.91c-7.944,0-7.944,0-15.888,0c-7.944,0-7.944,7.943-7.944,7.943s0,7.944,7.944,7.944
		c7.943,0,7.943,0,15.888,0c7.943,0,7.943-7.944,7.943-7.944S427.674,375.91,419.73,375.91z"/>
	<circle fill="#F16548" cx="166.364" cy="399.532" r="7.944"/>
	<path fill="#434747" d="M213.817,494.648L213.817,494.648c0-0.209,0-0.416,0-0.626
		C213.817,494.232,213.817,494.439,213.817,494.648z"/>
	<path fill="#434747" d="M285.103,423.363c-2.717,0-5.226,0.21-7.734,0.419C279.877,423.573,282.386,423.363,285.103,423.363v7.944
		c4.39,0,7.944,3.554,7.944,7.943s-3.554,7.944-7.944,7.944v118.738c39.301,0,71.285-31.983,71.285-71.285
		C356.388,455.348,324.404,423.363,285.103,423.363z"/>
	<path fill="#434747" d="M376.456,542.103c7.318-14.215,11.707-30.312,11.707-47.454c0-5.645-0.417-11.079-1.253-16.514
		c-1.673-10.663-5.018-20.905-9.825-30.104c-11.081-21.74-29.477-38.884-52.262-48.498c-12.125-5.017-25.504-7.945-39.719-7.945
		c-14.006,0-27.386,2.719-39.719,7.945c-37.21,15.469-63.341,52.262-63.341,95.115c0,17.143,4.181,33.239,11.498,47.454
		c6.271,12.124,15.051,22.996,25.504,31.566c17.769,14.843,40.765,23.831,65.85,23.831s47.872-8.988,65.851-23.831
		C361.405,565.099,369.977,554.437,376.456,542.103z M285.103,581.821c-48.081,0-87.173-39.093-87.173-87.173
		c0-48.081,39.092-87.172,87.173-87.172c48.081,0,87.173,39.091,87.173,87.172C372.276,542.729,333.184,581.821,285.103,581.821z"/>
	<path fill="#FFFFFF" d="M285.103,407.477c-48.081,0-87.173,39.091-87.173,87.172c0,48.08,39.092,87.173,87.173,87.173
		c48.081,0,87.173-39.093,87.173-87.173C372.276,446.567,333.184,407.477,285.103,407.477z M285.103,565.934
		c-39.301,0-71.286-31.983-71.286-71.285l0,0l0,0c0-0.209,0-0.416,0-0.626c0.418-36.375,28.013-66.269,63.551-70.032
		c2.508-0.208,5.225-0.417,7.734-0.417c39.301,0,71.285,31.983,71.285,71.284C356.388,533.95,324.404,565.934,285.103,565.934z"/>
	<path fill="#505353" d="M237.649,494.648c0,4.391-3.554,7.943-7.943,7.943c-4.391,0-7.944-3.553-7.944-7.943
		c0-34.91,28.431-63.341,63.342-63.341v-7.944c-2.717,0-5.226,0.21-7.734,0.419c-35.538,3.762-63.133,33.656-63.551,70.03
		c0,0.21,0,0.42,0,0.627l0,0c0,39.301,31.985,71.285,71.286,71.285V446.986C258.972,447.195,237.649,468.519,237.649,494.648z"/>
	<path fill="#5F5F5E" d="M293.047,439.251c0-4.39-3.554-7.943-7.944-7.943v15.888C289.493,447.195,293.047,443.641,293.047,439.251z
		"/>
	<path fill="#6A6A6A" d="M221.761,494.648c0,4.391,3.554,7.943,7.944,7.943c4.39,0,7.943-3.553,7.943-7.943
		c0-26.13,21.323-47.453,47.454-47.453v-15.888C250.192,431.308,221.761,459.738,221.761,494.648z"/>
</g>
<g>
	<path fill="#E5E5E5" d="M499.127,561.755l3.896-19.829h-9.742v-135.25h36.563l2.521-12.723H484.8c-0.229,0-0.459,0-0.688,0
		c-0.115,0-0.115,0-0.23,0c-0.114,0-0.228,0-0.457,0.114c-0.115,0-0.115,0.114-0.23,0.114c-0.114,0-0.229,0.115-0.343,0.115
		c-0.115,0-0.115,0.114-0.229,0.114c-0.115,0-0.229,0.115-0.229,0.115c-0.114,0-0.114,0.114-0.229,0.114
		c-0.115,0-0.115,0.114-0.23,0.114c-0.114,0-0.114,0.114-0.114,0.23c-0.114,0.113-0.114,0.113-0.114,0.229
		c0,0.114-0.115,0.114-0.115,0.229c0,0.114-0.114,0.114-0.114,0.229c0,0.115-0.114,0.115-0.114,0.229
		c0,0.115-0.115,0.115-0.115,0.229c0,0.116-0.114,0.116-0.114,0.23c0,0.113-0.114,0.113-0.114,0.229c0,0.114,0,0.114-0.115,0.229
		c0,0.114,0,0.114-0.114,0.229c0,0.114,0,0.114,0,0.229c0,0.113,0,0.113,0,0.229v0.115v0.114v0.115v0.114v0.115v0.113
		c0,0,0,0,0,0.115c0,0,0,0,0,0.113l0,0l0,0l0,0v181.441c0,4.242,4.24,4.242,4.24,4.242h105.563l-88.026-17.423
		C502.451,566.683,498.324,565.881,499.127,561.755z"/>
	<path fill="#E5E5E5" d="M649.85,398.08c0-4.242-4.24-4.242-4.24-4.242h-36.45l40.69,8.024V398.08z"/>
	<polygon fill="#DA5C42" points="503.023,541.811 503.023,541.811 493.396,541.811 	"/>
	<polygon fill="#DA5C42" points="493.396,541.811 506.463,524.732 529.959,406.561 493.396,406.561 	"/>
	<polygon fill="#46686F" points="503.023,541.811 506.463,524.732 493.396,541.811 	"/>
	<path fill="#FFFFFF" d="M697.073,411.374l-47.338-9.397l-40.689-8.023l-69.573-13.868c-4.126-0.803-4.929,3.323-4.929,3.323
		l-2.062,10.545l-2.522,12.723l-23.496,118.171l-3.439,17.193l0,0l-3.896,19.828c-0.803,4.127,3.324,4.93,3.324,4.93l88.026,17.422
		l69.574,13.868c4.125,0.803,4.928-3.323,4.928-3.323l35.417-178.347C701.199,412.178,697.073,411.374,697.073,411.374z
		 M659.936,554.877l-107.854-21.434l-33.126-6.533l26.363-132.729l140.98,27.968L659.936,554.877z"/>
	<path fill="#5C9EA8" d="M518.955,526.796l43.899-38.74l12.266,24.985l44.814-39.542l39.888,81.264l26.362-132.729l-140.866-27.853
		L518.955,526.796z M553.342,440.717c1.031-5.157,5.501-8.71,10.659-8.825c0-0.114,0-0.114,0-0.229
		c1.834-9.398,11.003-15.588,20.518-13.64c6.417,1.261,11.346,5.96,13.181,11.806c0.688,0,1.489,0,2.177,0.115
		c1.031,0.229,2.063,0.573,2.979,1.146c0.918-0.229,1.949-0.343,2.866-0.114c0.574,0.114,1.032,0.229,1.489,0.459
		c2.752-3.209,7.107-4.929,11.692-4.128c6.532,1.262,10.889,7.681,9.513,14.329v0.113c3.21,1.376,5.273,4.93,4.471,8.482
		c-0.803,4.127-4.814,6.763-8.94,5.96l-10.431-2.062c-1.72,5.043-6.991,8.137-12.378,7.105l-39.199-7.794
		C555.978,452.295,552.194,446.562,553.342,440.717z"/>
	<polygon fill="#5C9EA8" points="518.955,526.796 552.194,533.443 552.194,533.443 	"/>
	<polygon fill="#4C7079" points="575.233,513.156 562.97,488.169 518.955,526.796 552.194,533.443 	"/>
	<polygon fill="#184448" points="575.233,513.156 552.194,533.443 552.194,533.443 659.936,554.877 620.049,473.612 	"/>
	<path fill="#999999" d="M606.754,440.145L606.754,440.145c5.042,1.833,8.252,7.106,7.105,12.493
		c-0.114,0.572-0.229,1.031-0.458,1.49l10.431,2.062c4.126,0.803,8.138-1.833,8.939-5.96c0.688-3.553-1.261-7.106-4.47-8.482v-0.113
		c1.261-6.533-2.979-12.952-9.514-14.329c-4.47-0.915-8.94,0.804-11.69,4.128c-0.459-0.229-0.918-0.345-1.49-0.459
		c-1.031-0.229-1.948-0.114-2.865,0.114C605.837,432.922,607.441,436.477,606.754,440.145z"/>
	<path fill="#FFFFFF" d="M561.938,453.439l39.199,7.794c5.387,1.031,10.658-2.062,12.378-7.105c0.229-0.459,0.344-1.032,0.459-1.49
		c1.031-5.387-2.062-10.66-7.106-12.379v-0.114c0.688-3.668-0.917-7.223-3.896-9.056c-0.918-0.572-1.834-0.916-2.98-1.146
		c-0.688-0.115-1.49-0.229-2.179-0.115c-1.833-5.846-6.762-10.545-13.181-11.806c-9.398-1.833-18.568,4.241-20.517,13.64
		c0,0.115,0,0.115,0,0.229c-5.043,0-9.629,3.553-10.659,8.825C552.194,446.562,555.978,452.295,561.938,453.439z"/>
</g>
<g>
	<path fill="none" d="M508.871,228.633c0,0-24.165-12.749-61.84-12.749c-37.676,0-51.376,3.996-51.376,23.785
		c0,16.745,0.381,60.509,52.138,64.315c52.136,3.615,62.221-58.606,62.981-62.031C511.536,238.527,512.678,230.346,508.871,228.633z
		"/>
	<path fill="none" d="M623.42,215.885c-37.674,0-61.84,12.749-61.84,12.749c-3.807,1.902-2.665,10.084-1.903,13.32
		c0.761,3.425,10.845,65.646,62.982,62.031c51.756-3.616,52.137-47.57,52.137-64.315C674.796,219.88,661.096,215.885,623.42,215.885
		z"/>
	<g>
		<path fill="#4C9BA8" d="M662.428,285.907c11.227-13.89,12.368-32.348,12.368-43.193c0-0.952,0-1.903,0-2.854
			c0-7.992-2.283-13.509-7.422-17.125c-7.609-5.327-21.5-6.85-43.954-6.85c-37.674,0-61.84,12.749-61.84,12.749
			c-3.807,1.902-2.665,10.084-1.903,13.32c0,0.38,0.19,1.142,0.38,2.283c0.951,4.376,3.234,14.08,7.993,24.356
			c8.372,17.696,24.354,37.485,54.42,35.392c10.084-0.763,18.266-3.047,24.926-6.28C653.865,294.47,658.623,290.475,662.428,285.907
			z"/>
		<path fill="#4C9BA8" d="M510.774,241.953c0.762-3.425,1.903-11.417-1.903-13.32c0,0-24.165-12.749-61.84-12.749
			c-21.691,0-35.393,1.332-43.193,6.279c-5.709,3.615-8.183,9.133-8.183,17.505c0,0.571,0,1.332,0,1.903
			c0,11.036,0.953,30.445,12.94,44.716c3.806,4.567,8.562,8.562,15.032,11.606c6.469,3.043,14.46,5.327,24.166,5.898
			c29.873,2.094,45.856-17.505,54.42-35.201c4.947-10.466,7.229-20.17,8.182-24.546
			C510.584,243.095,510.774,242.333,510.774,241.953z"/>
		<g>
			<path fill="#666868" d="M656.147,305.506c4.377,4.186,8.944,9.324,14.462,16.553c4.187,1.715,18.839-10.084,19.409-18.455
				c-1.903-2.854-8.373-6.659-17.315-11.606C668.517,297.133,663.189,301.701,656.147,305.506z"/>
			<path fill="#666868" d="M547.118,246.52c-3.805,0.952-7.422,1.902-11.987,2.854c-4.376-0.952-8.182-1.903-11.988-2.854
				c-1.331,1.332-2.474,2.854-2.854,4.757c-0.762,2.664-2.095,8.373-4.947,15.413c6.089-1.142,12.179-2.475,19.789-3.615
				c7.421,1.141,13.509,2.473,19.789,3.615c-2.665-7.041-4.187-12.749-4.947-15.413C549.592,249.374,548.64,247.851,547.118,246.52z
				"/>
			<path fill="#666868" d="M398.129,292.568c-9.324,4.947-15.983,9.133-18.077,11.986c0.761,8.372,15.222,20.359,19.408,18.646
				c5.9-7.611,10.656-12.938,15.223-17.314C407.833,302.08,402.314,297.516,398.129,292.568z"/>
			<path fill="#434747" d="M701.436,237.006l-2.284-26.83c0,0-20.551-2.474-27.779-4.376c-55.183-9.514-95.332-0.951-108.46,3.806
				c-13.13,4.757-27.592-2.854-27.592-2.854s-14.461,7.611-27.59,2.854c-13.13-4.757-53.279-13.32-108.46-3.806
				c-7.42,2.093-27.971,4.376-27.971,4.376l-2.284,26.83c0,0,0,1.332,0.381,1.712c0.571,0.571,0.571,0.381,2.283,0.571
				c3.996,0.191,10.656,1.904,11.797,10.655c0.952,7.421,1.523,27.021,14.652,42.813c4.186,4.947,9.515,9.515,16.745,13.129
				c8.371,4.187,19.028,7.232,32.537,7.992c41.861,2.472,60.128-27.209,67.931-47c2.853-7.041,4.186-12.749,4.947-15.413
				c0.57-1.712,1.522-3.425,2.854-4.757c3.616-3.615,9.515-5.328,11.988-5.328s8.183,1.903,11.797,5.328
				c1.333,1.332,2.474,2.855,2.854,4.757c0.761,2.664,2.093,8.372,4.947,15.413c7.801,19.79,26.067,49.471,67.93,47
				c13.891-0.76,24.736-3.806,33.108-8.373c7.041-3.805,12.559-8.373,16.745-13.509c12.748-15.604,13.318-35.012,14.271-42.243
				c0.951-8.753,7.802-10.275,11.796-10.656c1.714,0,1.714,0,2.284-0.571C701.436,238.337,701.436,237.006,701.436,237.006z
				 M447.793,303.984c-51.757-3.616-52.138-47.57-52.138-64.315c0-19.789,13.701-23.785,51.376-23.785
				c37.675,0,61.84,12.749,61.84,12.749c3.807,1.902,2.665,10.084,1.903,13.32C510.014,245.378,499.929,307.6,447.793,303.984z
				 M622.659,303.984c-52.138,3.615-62.222-58.606-62.982-62.031c-0.762-3.425-1.903-11.417,1.903-13.32
				c0,0,24.166-12.749,61.84-12.749c37.676,0,51.376,3.996,51.376,23.785C674.796,256.415,674.415,300.369,622.659,303.984z"/>
			<path fill="#458D99" d="M667.374,222.734c-26.448,5.328-67.739,13.509-107.317,21.502c0.951,4.376,3.234,14.08,7.993,24.356
				c25.687,4.376,45.476,8.373,50.233,11.036c10.084,5.518,19.217,9.895,29.112,18.077c6.279-3.235,11.036-7.229,14.842-11.797
				c-15.413-7.992-33.299-15.983-43.193-18.837c-4.567-1.332-30.635-4.947-53.469-9.895c38.056-5.898,85.436-11.417,109.031-14.651
				c0-0.952,0-1.712,0-2.474v-0.19l0,0l0,0l0,0l0,0v-0.19l0,0v-0.19l0,0v-0.191l0,0v-0.19l0,0c0-0.19,0-0.19,0-0.381l0,0v-0.19l0,0
				C674.606,231.106,672.322,226.159,667.374,222.734"/>
			<path fill="#458D99" d="M403.838,222.164c-5.519,3.615-7.992,8.942-8.183,17.125l0,0l0,0l0,0l0,0l0,0l0,0l0,0l0,0
				c0,0,0,0,0,0.191c0,0.19,0,0,0,0.19c0,0.571,0,1.142,0,1.903c26.259,3.806,66.597,9.514,105.035,15.603
				c-25.497,5.329-44.525,9.515-49.473,11.037c-9.895,2.854-27.21,10.465-42.432,18.458c3.805,4.566,8.562,8.562,15.031,11.607
				c9.514-7.613,18.267-11.989,28.162-17.317c4.947-2.665,23.975-7.041,50.424-11.796c4.947-10.466,7.23-20.17,8.182-24.547
				C471.006,236.054,430.287,227.682,403.838,222.164"/>
		</g>
	</g>
</g>
</svg>
