<?xml version="1.0" encoding="utf-8"?>
<!-- Generator: Adobe Illustrator 16.0.0, SVG Export Plug-In . SVG Version: 6.00 Build 0)  -->
<!DOCTYPE svg PUBLIC "-//W3C//DTD SVG 1.1//EN" "http://www.w3.org/Graphics/SVG/1.1/DTD/svg11.dtd">
<svg version="1.1" id="Layer_1" xmlns="http://www.w3.org/2000/svg" xmlns:xlink="http://www.w3.org/1999/xlink" x="0px" y="0px" viewBox="0 0 380.5 215.9" style="enable-background:new 0 0 380.5 215.9;" xml:space="preserve"
	>
<style type="text/css">
<![CDATA[
	.st0{fill:#46686F;}
	.st1{fill:#E5E5E5;}
	.st2{fill:#184448;}
	.st3{fill:#4C7079;}
	.st4{fill:#4C9BA8;}
	.st5{fill:#505353;}
	.st6{fill:#F16548;}
	.st7{fill:#5B5E5E;}
	.st8{fill:#5C9EA8;}
	.st9{fill:#5F5F5E;}
	.st10{fill:#999999;}
	.st11{fill:#FFFFFF;}
	.st12{fill:#63BFC6;}
	.st13{fill:none;}
	.st14{fill:#666868;}
	.st15{fill:#6A6A6A;}
	.st16{fill:#DA5C42;}
	.st17{fill:#434747;}
	.st18{fill:#458D99;}
]]>
</style>
<g id="activity">
	<g>
		<path class="st11" d="M160.7,105.4h-22.7h-22.7H58.4H35.7H12.9H1.6v15.1h18.9c0,6.3,5.1,11.4,11.4,11.4s11.4-5.1,11.4-11.4h26.5
			c5.8-2.4,12.2-3.8,19-3.8c6.7,0,13.1,1.3,19,3.8H172v-15.1H160.7z M31.9,124.3c-2.1,0-3.8-1.7-3.8-3.8c0-2.1,1.7-3.8,3.8-3.8
			c2.1,0,3.8,1.7,3.8,3.8C35.7,122.6,34,124.3,31.9,124.3z M153.1,116.8c-3.8,0-3.8,0-7.6,0c-3.8,0-3.8-3.8-3.8-3.8s0-3.8,3.8-3.8
			c3.8,0,3.8,0,7.6,0c3.8,0,3.8,3.8,3.8,3.8S156.9,116.8,153.1,116.8z"/>
		<path class="st7" d="M132.6,143.7l2.6-1c0,0,7.1-2.6,9.7,4.5c2.6,7.1-4.5,9.7-4.5,9.7l-3.1,1.2c0.4,2.6,0.6,5.2,0.6,7.9
			c0,8.2-2,15.9-5.6,22.7H172v-68.2h-64.4C118.5,125.1,127.3,133.3,132.6,143.7z"/>
		<path class="st7" d="M39.5,166c0-20.5,12.5-38,30.3-45.5H43.2c0,6.3-5.1,11.4-11.4,11.4s-11.4-5.1-11.4-11.4H1.6v68.2H45
			C41.5,181.9,39.5,174.2,39.5,166z"/>
		<path class="st11" d="M140.4,157c0,0,7.1-2.6,4.5-9.7c-2.6-7.1-9.7-4.5-9.7-4.5l-2.6,1c2.3,4.5,3.9,9.3,4.7,14.4L140.4,157z"/>
		<path class="st11" d="M120.1,203.9H172v-15.1h-39.6C129.3,194.6,125.2,199.7,120.1,203.9z"/>
		<path class="st11" d="M45,188.7H1.6v15.1h55.7C52.2,199.7,48,194.6,45,188.7z"/>
		<path class="st7" d="M35.7,101.6c0-3.8-3.8-3.8-3.8-3.8s-11.4,0-15.2,0s-3.8,3.8-3.8,3.8v3.8h22.7V101.6z"/>
		<path class="st17" d="M115.2,95.9c0-9.5-9.5-9.5-9.5-9.5s-28.4,0-37.9,0c-9.5,0-9.5,9.5-9.5,9.5v9.5h56.8V95.9z"/>
		<path class="st7" d="M160.7,101.6c0-3.8-3.8-3.8-3.8-3.8s-11.4,0-15.2,0c-3.8,0-3.8,3.8-3.8,3.8v3.8h22.7V101.6z"/>
		<path class="st12" d="M153.1,109.2c-3.8,0-3.8,0-7.6,0c-3.8,0-3.8,3.8-3.8,3.8s0,3.8,3.8,3.8c3.8,0,3.8,0,7.6,0
			c3.8,0,3.8-3.8,3.8-3.8S156.9,109.2,153.1,109.2z"/>
		<circle class="st6" cx="31.9" cy="120.5" r="3.8"/>
		<path class="st17" d="M54.6,166L54.6,166c0-0.1,0-0.2,0-0.3C54.6,165.8,54.6,165.9,54.6,166z"/>
		<path class="st17" d="M88.7,131.9c-1.3,0-2.5,0.1-3.7,0.2C86.2,132,87.4,131.9,88.7,131.9v3.8c2.1,0,3.8,1.7,3.8,3.8
			s-1.7,3.8-3.8,3.8v56.8c18.8,0,34.1-15.3,34.1-34.1C122.8,147.2,107.5,131.9,88.7,131.9z"/>
		<path class="st17" d="M132.4,188.7c3.5-6.8,5.6-14.5,5.6-22.7c0-2.7-0.2-5.3-0.6-7.9c-0.8-5.1-2.4-10-4.7-14.4
			c-5.3-10.4-14.1-18.6-25-23.2c-5.8-2.4-12.2-3.8-19-3.8c-6.7,0-13.1,1.3-19,3.8c-17.8,7.4-30.3,25-30.3,45.5
			c0,8.2,2,15.9,5.5,22.7c3,5.8,7.2,11,12.2,15.1c8.5,7.1,19.5,11.4,31.5,11.4c12,0,22.9-4.3,31.5-11.4
			C125.2,199.7,129.3,194.6,132.4,188.7z M88.7,207.7C65.7,207.7,47,189,47,166c0-23,18.7-41.7,41.7-41.7s41.7,18.7,41.7,41.7
			C130.4,189,111.7,207.7,88.7,207.7z"/>
		<path class="st11" d="M88.7,124.3C65.7,124.3,47,143,47,166c0,23,18.7,41.7,41.7,41.7s41.7-18.7,41.7-41.7
			C130.4,143,111.7,124.3,88.7,124.3z M88.7,200.1c-18.8,0-34.1-15.3-34.1-34.1v0l0,0c0-0.1,0-0.2,0-0.3
			c0.2-17.4,13.4-31.7,30.4-33.5c1.2-0.1,2.5-0.2,3.7-0.2c18.8,0,34.1,15.3,34.1,34.1C122.8,184.8,107.5,200.1,88.7,200.1z"/>
		<path class="st5" d="M66,166c0,2.1-1.7,3.8-3.8,3.8c-2.1,0-3.8-1.7-3.8-3.8c0-16.7,13.6-30.3,30.3-30.3v-3.8
			c-1.3,0-2.5,0.1-3.7,0.2c-17,1.8-30.2,16.1-30.4,33.5c0,0.1,0,0.2,0,0.3v0c0,18.8,15.3,34.1,34.1,34.1v-56.8
			C76.2,143.3,66,153.5,66,166z"/>
		<path class="st9" d="M92.5,139.5c0-2.1-1.7-3.8-3.8-3.8v7.6C90.8,143.3,92.5,141.6,92.5,139.5z"/>
		<path class="st15" d="M58.4,166c0,2.1,1.7,3.8,3.8,3.8c2.1,0,3.8-1.7,3.8-3.8c0-12.5,10.2-22.7,22.7-22.7v-7.6
			C72,135.7,58.4,149.3,58.4,166z"/>
	</g>
	<g>
		<path class="st1" d="M204.8,184.2l3.4-17.3h-8.5v-118h31.9l2.2-11.1h-41.5c-0.2,0-0.4,0-0.6,0c-0.1,0-0.1,0-0.2,0
			c-0.1,0-0.2,0-0.4,0.1c-0.1,0-0.1,0.1-0.2,0.1c-0.1,0-0.2,0.1-0.3,0.1c-0.1,0-0.1,0.1-0.2,0.1c-0.1,0-0.2,0.1-0.2,0.1
			c-0.1,0-0.1,0.1-0.2,0.1c-0.1,0-0.1,0.1-0.2,0.1c-0.1,0-0.1,0.1-0.1,0.2c-0.1,0.1-0.1,0.1-0.1,0.2c0,0.1-0.1,0.1-0.1,0.2
			c0,0.1-0.1,0.1-0.1,0.2c0,0.1-0.1,0.1-0.1,0.2c0,0.1-0.1,0.1-0.1,0.2c0,0.1-0.1,0.1-0.1,0.2c0,0.1-0.1,0.1-0.1,0.2
			c0,0.1,0,0.1-0.1,0.2c0,0.1,0,0.1-0.1,0.2c0,0.1,0,0.1,0,0.2c0,0.1,0,0.1,0,0.2c0,0,0,0.1,0,0.1c0,0,0,0.1,0,0.1c0,0,0,0.1,0,0.1
			c0,0,0,0.1,0,0.1c0,0,0,0.1,0,0.1c0,0,0,0.1,0,0.1c0,0,0,0,0,0.1c0,0,0,0,0,0.1c0,0,0,0,0,0v0l0,0V200c0,3.7,3.7,3.7,3.7,3.7h92.1
			l-76.8-15.2C207.7,188.5,204.1,187.8,204.8,184.2z"/>
		<path class="st1" d="M336.3,41.4c0-3.7-3.7-3.7-3.7-3.7h-31.8l35.5,7V41.4z"/>
		<polygon class="st16" points="208.2,166.8 208.2,166.8 199.8,166.8 		"/>
		<polygon class="st16" points="199.8,166.8 211.2,151.9 231.7,48.8 199.8,48.8 		"/>
		<polygon class="st0" points="208.2,166.8 211.2,151.9 199.8,166.8 		"/>
		<path class="st11" d="M377.5,53l-41.3-8.2l-35.5-7L240,25.7c-3.6-0.7-4.3,2.9-4.3,2.9l-1.8,9.2l-2.2,11.1l-20.5,103.1l-3,15l0,0
			l-3.4,17.3c-0.7,3.6,2.9,4.3,2.9,4.3l76.8,15.2l60.7,12.1c3.6,0.7,4.3-2.9,4.3-2.9l30.9-155.6C381.1,53.7,377.5,53,377.5,53z
			 M345.1,178.2l-94.1-18.7l-28.9-5.7l23-115.8l123,24.4L345.1,178.2z"/>
		<path class="st8" d="M222.1,153.7l38.3-33.8l10.7,21.8l39.1-34.5l34.8,70.9l23-115.8L245.1,38L222.1,153.7z M252.1,78.6
			c0.9-4.5,4.8-7.6,9.3-7.7c0-0.1,0-0.1,0-0.2c1.6-8.2,9.6-13.6,17.9-11.9c5.6,1.1,9.9,5.2,11.5,10.3c0.6,0,1.3,0,1.9,0.1
			c0.9,0.2,1.8,0.5,2.6,1c0.8-0.2,1.7-0.3,2.5-0.1c0.5,0.1,0.9,0.2,1.3,0.4c2.4-2.8,6.2-4.3,10.2-3.6c5.7,1.1,9.5,6.7,8.3,12.5
			l0,0.1c2.8,1.2,4.6,4.3,3.9,7.4c-0.7,3.6-4.2,5.9-7.8,5.2l-9.1-1.8c-1.5,4.4-6.1,7.1-10.8,6.2l-34.2-6.8
			C254.4,88.7,251.1,83.7,252.1,78.6z"/>
		<polygon class="st8" points="222.1,153.7 251.1,159.5 251.1,159.5 		"/>
		<polygon class="st3" points="271.2,141.8 260.5,120 222.1,153.7 251.1,159.5 		"/>
		<polygon class="st2" points="271.2,141.8 251.1,159.5 251.1,159.5 345.1,178.2 310.3,107.3 		"/>
		<path class="st10" d="M298.7,78.1L298.7,78.1c4.4,1.6,7.2,6.2,6.2,10.9c-0.1,0.5-0.2,0.9-0.4,1.3l9.1,1.8c3.6,0.7,7.1-1.6,7.8-5.2
			c0.6-3.1-1.1-6.2-3.9-7.4l0-0.1c1.1-5.7-2.6-11.3-8.3-12.5c-3.9-0.8-7.8,0.7-10.2,3.6c-0.4-0.2-0.8-0.3-1.3-0.4
			c-0.9-0.2-1.7-0.1-2.5,0.1C297.9,71.8,299.3,74.9,298.7,78.1z"/>
		<path class="st11" d="M259.6,89.7l34.2,6.8c4.7,0.9,9.3-1.8,10.8-6.2c0.2-0.4,0.3-0.9,0.4-1.3c0.9-4.7-1.8-9.3-6.2-10.8l0-0.1
			c0.6-3.2-0.8-6.3-3.4-7.9c-0.8-0.5-1.6-0.8-2.6-1c-0.6-0.1-1.3-0.2-1.9-0.1c-1.6-5.1-5.9-9.2-11.5-10.3
			c-8.2-1.6-16.2,3.7-17.9,11.9c0,0.1,0,0.1,0,0.2c-4.4,0-8.4,3.1-9.3,7.7C251.1,83.7,254.4,88.7,259.6,89.7z"/>
	</g>
	<g>
		<path class="st13" d="M73.5,14.2c0,0-12.7-6.7-32.5-6.7S14,9.6,14,20c0,8.8,0.2,31.8,27.4,33.8C68.8,55.7,74.1,23,74.5,21.2
			C74.9,19.4,75.5,15.1,73.5,14.2z"/>
		<path class="st13" d="M133.7,7.5c-19.8,0-32.5,6.7-32.5,6.7c-2,1-1.4,5.3-1,7c0.4,1.8,5.7,34.5,33.1,32.6
			c27.2-1.9,27.4-25,27.4-33.8C160.7,9.6,153.5,7.5,133.7,7.5z"/>
		<g>
			<path class="st4" d="M154.2,44.3c5.9-7.3,6.5-17,6.5-22.7c0-0.5,0-1,0-1.5c0-4.2-1.2-7.1-3.9-9c-4-2.8-11.3-3.6-23.1-3.6
				c-19.8,0-32.5,6.7-32.5,6.7c-2,1-1.4,5.3-1,7c0,0.2,0.1,0.6,0.2,1.2c0.5,2.3,1.7,7.4,4.2,12.8c4.4,9.3,12.8,19.7,28.6,18.6
				c5.3-0.4,9.6-1.6,13.1-3.3C149.7,48.8,152.2,46.7,154.2,44.3z"/>
			<path class="st4" d="M74.5,21.2c0.4-1.8,1-6-1-7c0,0-12.7-6.7-32.5-6.7c-11.4,0-18.6,0.7-22.7,3.3c-3,1.9-4.3,4.8-4.3,9.2
				c0,0.3,0,0.7,0,1c0,5.8,0.5,16,6.8,23.5c2,2.4,4.5,4.5,7.9,6.1c3.4,1.6,7.6,2.8,12.7,3.1c15.7,1.1,24.1-9.2,28.6-18.5
				c2.6-5.5,3.8-10.6,4.3-12.9C74.4,21.8,74.5,21.4,74.5,21.2z"/>
			<g>
				<path class="st14" d="M150.9,54.6c2.3,2.2,4.7,4.9,7.6,8.7c2.2,0.9,9.9-5.3,10.2-9.7c-1-1.5-4.4-3.5-9.1-6.1
					C157.4,50.2,154.6,52.6,150.9,54.6z"/>
				<path class="st14" d="M93.6,23.6c-2,0.5-3.9,1-6.3,1.5c-2.3-0.5-4.3-1-6.3-1.5c-0.7,0.7-1.3,1.5-1.5,2.5
					c-0.4,1.4-1.1,4.4-2.6,8.1c3.2-0.6,6.4-1.3,10.4-1.9c3.9,0.6,7.1,1.3,10.4,1.9c-1.4-3.7-2.2-6.7-2.6-8.1
					C94.9,25.1,94.4,24.3,93.6,23.6z"/>
				<path class="st14" d="M15.3,47.8c-4.9,2.6-8.4,4.8-9.5,6.3c0.4,4.4,8,10.7,10.2,9.8c3.1-4,5.6-6.8,8-9.1
					C20.4,52.8,17.5,50.4,15.3,47.8z"/>
				<path class="st17" d="M174.7,18.6l-1.2-14.1c0,0-10.8-1.3-14.6-2.3c-29-5-50.1-0.5-57,2c-6.9,2.5-14.5-1.5-14.5-1.5
					s-7.6,4-14.5,1.5c-6.9-2.5-28-7-57-2C12,3.3,1.2,4.5,1.2,4.5L0,18.6c0,0,0,0.7,0.2,0.9c0.3,0.3,0.3,0.2,1.2,0.3
					c2.1,0.1,5.6,1,6.2,5.6c0.5,3.9,0.8,14.2,7.7,22.5c2.2,2.6,5,5,8.8,6.9c4.4,2.2,10,3.8,17.1,4.2c22,1.3,31.6-14.3,35.7-24.7
					c1.5-3.7,2.2-6.7,2.6-8.1c0.3-0.9,0.8-1.8,1.5-2.5c1.9-1.9,5-2.8,6.3-2.8c1.3,0,4.3,1,6.2,2.8c0.7,0.7,1.3,1.5,1.5,2.5
					c0.4,1.4,1.1,4.4,2.6,8.1c4.1,10.4,13.7,26,35.7,24.7c7.3-0.4,13-2,17.4-4.4c3.7-2,6.6-4.4,8.8-7.1c6.7-8.2,7-18.4,7.5-22.2
					c0.5-4.6,4.1-5.4,6.2-5.6c0.9,0,0.9,0,1.2-0.3C174.7,19.3,174.7,18.6,174.7,18.6z M41.4,53.8C14.2,51.9,14,28.8,14,20
					C14,9.6,21.2,7.5,41,7.5c19.8,0,32.5,6.7,32.5,6.7c2,1,1.4,5.3,1,7C74.1,23,68.8,55.7,41.4,53.8z M133.3,53.8
					c-27.4,1.9-32.7-30.8-33.1-32.6c-0.4-1.8-1-6,1-7c0,0,12.7-6.7,32.5-6.7c19.8,0,27,2.1,27,12.5
					C160.7,28.8,160.5,51.9,133.3,53.8z"/>
				<path class="st18" d="M156.8,11.1c-13.9,2.8-35.6,7.1-56.4,11.3c0.5,2.3,1.7,7.4,4.2,12.8c13.5,2.3,23.9,4.4,26.4,5.8
					c5.3,2.9,10.1,5.2,15.3,9.5c3.3-1.7,5.8-3.8,7.8-6.2c-8.1-4.2-17.5-8.4-22.7-9.9c-2.4-0.7-16.1-2.6-28.1-5.2
					c20-3.1,44.9-6,57.3-7.7c0-0.5,0-0.9,0-1.3c0,0,0-0.1,0-0.1c0,0,0,0,0,0c0,0,0,0,0,0l0,0l0,0c0,0,0-0.1,0-0.1c0,0,0,0,0,0
					c0,0,0-0.1,0-0.1c0,0,0,0,0,0c0,0,0-0.1,0-0.1c0,0,0,0,0,0c0,0,0-0.1,0-0.1c0,0,0,0,0,0c0-0.1,0-0.1,0-0.2c0,0,0,0,0,0
					c0,0,0-0.1,0-0.1l0,0C160.6,15.5,159.4,12.9,156.8,11.1"/>
				<path class="st18" d="M18.3,10.8c-2.9,1.9-4.2,4.7-4.3,9c0,0,0,0,0,0c0,0,0,0,0,0c0,0,0,0,0,0c0,0,0,0,0,0c0,0,0,0,0,0
					c0,0,0,0,0,0c0,0,0,0,0,0c0,0,0,0,0,0c0,0,0,0,0,0.1s0,0,0,0.1c0,0.3,0,0.6,0,1C27.8,23,49,26,69.2,29.2
					c-13.4,2.8-23.4,5-26,5.8c-5.2,1.5-14.3,5.5-22.3,9.7c2,2.4,4.5,4.5,7.9,6.1c5-4,9.6-6.3,14.8-9.1c2.6-1.4,12.6-3.7,26.5-6.2
					c2.6-5.5,3.8-10.6,4.3-12.9C53.6,18.1,32.2,13.7,18.3,10.8"/>
			</g>
		</g>
	</g>
</g>
</svg>
