<?xml version="1.0" encoding="utf-8"?>
<!-- Generator: Adobe Illustrator 16.0.0, SVG Export Plug-In . SVG Version: 6.00 Build 0)  -->
<!DOCTYPE svg PUBLIC "-//W3C//DTD SVG 1.1//EN" "http://www.w3.org/Graphics/SVG/1.1/DTD/svg11.dtd">
<svg version="1.1" id="Layer_1" xmlns="http://www.w3.org/2000/svg" xmlns:xlink="http://www.w3.org/1999/xlink" x="0px" y="0px" viewBox="100.5 -199.5 600 800" style="enable-background:new 100.5 -199.5 600 800;"
	 xml:space="preserve">
<g id="backpack">
	<path style="fill:#3C9581;" d="M170.49,470.531c0,0,0,129.969,129.962,129.969h199.953c129.963,0,129.963-129.969,129.963-129.969
		l0,0H170.49L170.49,470.531z"/>
	<path style="fill:#2C6857;" d="M559.107-65.296c0.423,0.141,0.987,0.282,1.412,0.423C559.954-65.015,559.53-65.156,559.107-65.296z
		"/>
	<path style="fill:#3C9581;" d="M100.5,290.463v110.072c0,0,0,69.996,69.99,69.996V220.469
		C170.49,220.469,100.5,220.469,100.5,290.463z"/>
	<path style="fill:#3C9581;" d="M630.51,220.469v250.062c69.99,0,69.99-69.996,69.99-69.996V290.463
		C700.5,220.469,630.51,220.469,630.51,220.469z"/>
	<path style="fill:#3C9581;" d="M450.453,420.574L450.453,420.574h39.933l0,0h30.058c40.076,0,40.076-40.078,40.076-40.078V220.469
		H240.481v160.027c0,0,0,39.938,39.934,39.938h30.056l0,0h39.935l0,0h100.047V420.574z M360.566,368.078h-8.467
		c3.528,9.455,3.528,19.334,3.528,19.334l0,0l0,0c0,10.02-10.019,10.02-10.019,10.02s-10.019,0-10.019-10.02
		c0,0,0-10.02,3.528-19.334h-8.466c0,0-6.208,0-8.89-4.939h-41.062v-10.018h41.062c2.54-4.941,8.89-4.941,8.89-4.941h30.057
		c4.939,0,7.479,2.541,8.749,4.941h151.271v10.018H369.314C366.775,367.938,360.566,368.078,360.566,368.078z"/>
	<polygon style="fill:#F16548;" points="310.471,420.574 310.471,420.574 310.471,450.49 350.548,450.49 350.548,420.574
		350.548,420.574 	"/>
	<polygon style="fill:#F16548;" points="450.453,420.574 450.453,420.574 450.453,450.49 490.528,450.49 490.528,420.574
		490.528,420.574 	"/>
	<rect x="380.462" y="50.562" style="fill:#3C9581;" width="0" height="39.936"/>
	<path style="fill:#3C9581;" d="M280.556,110.537c13.265,0,54.751,0,100.047,0v-10.02l0,0c0,0-10.019,0-10.019-10.019V50.562
		c0,0,0-10.02,10.019-10.02l0,0l0,0V-69.53H270.396c-1.552,0-2.963,0-4.516,0.142c-0.423,0-0.987,0-1.411,0.141
		c-1.129,0-2.117,0.141-3.245,0.282c-0.564,0-0.987,0.141-1.552,0.141c-1.271,0.141-2.399,0.282-3.67,0.423
		c-0.282,0-0.564,0.142-0.846,0.142c-1.412,0.282-2.823,0.423-4.234,0.705c-0.564,0.141-1.128,0.283-1.693,0.424
		c-0.847,0.142-1.693,0.423-2.54,0.564c-0.706,0.141-1.271,0.282-1.834,0.423c-0.846,0.282-1.693,0.423-2.541,0.706
		c-0.563,0.141-1.128,0.282-1.693,0.423l0,0V70.318C240.481,70.46,240.481,110.537,280.556,110.537z"/>
	<path style="fill:#3C9581;" d="M420.537,40.542c10.021,0,10.021,10.02,10.021,10.02v39.936c0,9.878-9.879,10.019-10.021,10.019
		v10.02c42.898,0,83.114,0,100.047,0c40.076,0,39.936-39.937,39.936-39.937V-64.873l0,0c-0.425-0.142-0.989-0.282-1.412-0.423
		c-0.988-0.282-1.834-0.564-2.823-0.847c-0.562-0.142-1.128-0.282-1.833-0.423c-0.847-0.283-1.835-0.423-2.682-0.564
		c-0.563-0.141-1.129-0.283-1.693-0.423c-1.411-0.282-2.822-0.564-4.233-0.706c-0.281,0-0.563-0.142-0.846-0.142
		c-1.269-0.141-2.399-0.282-3.67-0.423c-0.563,0-0.987-0.141-1.552-0.141c-1.129-0.142-2.117-0.142-3.246-0.282
		c-0.422,0-0.986,0-1.411-0.141c-1.552,0-2.962-0.142-4.516-0.142H420.537V40.542L420.537,40.542z"/>
	<path style="fill:#E9DEBF;" d="M530.603-69.53h99.907c33.161,0,59.972-26.812,59.972-59.976c0-33.162-26.811-59.975-59.972-59.975
		H420.537V-69.53H530.603z"/>
	<path style="fill:#E9DEBF;" d="M380.462-189.48H170.49c-33.16,0-59.971,26.812-59.971,59.975c0,33.164,26.812,59.976,59.971,59.976
		h99.906h110.207V-189.48H380.462z"/>
	<polygon style="fill:#F16548;" points="420.537,100.517 380.462,100.517 380.462,110.537 380.462,160.493 420.537,160.493
		420.537,110.537 	"/>
	<rect x="380.462" y="50.562" style="fill:#F16548;" width="39.933" height="39.936"/>
	<polygon style="fill:#F16548;" points="380.462,40.542 420.537,40.542 420.537,40.542 420.537,40.542 420.537,-69.53
		420.537,-189.48 420.537,-199.5 380.462,-199.5 380.462,-189.48 380.462,-69.53 	"/>
	<path style="fill:#E9DEBF;" d="M420.537,100.517c0.142,0,10.021,0,10.021-10.019V50.562c0,0,0-10.02-10.021-10.02l0,0l0,0l0,0
		h-39.934l0,0l0,0c-10.019,0-10.019,10.02-10.019,10.02v39.936c0,10.019,10.019,10.019,10.019,10.019l0,0H420.537L420.537,100.517z
		 M420.537,90.498h-39.934l0,0V50.562l0,0h39.934V90.498z"/>
	<path style="fill:#1A5A4D;" d="M321.619,352.979h-41.063v10.02h41.063c-0.705-1.27-1.129-2.965-1.129-4.939
		S320.914,354.25,321.619,352.979z"/>
	<path style="fill:#1A5A4D;" d="M520.443,352.979H369.314c1.271,2.541,1.271,4.939,1.271,4.939c0,2.115-0.423,3.668-1.129,4.939
		h151.128v-9.879H520.443z"/>
	<path style="fill:#434747;" d="M369.314,352.979c-1.269-2.541-3.81-4.939-8.748-4.939h-30.057c0,0-6.209,0-8.89,4.939
		c-0.705,1.271-1.129,2.963-1.129,4.939c0,1.975,0.424,3.668,1.129,4.939c2.54,4.938,8.89,4.938,8.89,4.938h8.467
		c1.411-3.949,3.527-7.762,6.49-10.582l0,0l0,0c2.964,2.963,4.94,6.771,6.492,10.582h8.467c0,0,6.209,0,8.89-4.938
		c0.705-1.271,1.129-2.965,1.129-4.939C370.444,358.059,370.444,355.52,369.314,352.979z"/>
	<path style="fill:#FFFFFF;" d="M345.466,357.354L345.466,357.354c-2.963,2.963-4.938,6.771-6.49,10.584
		c-3.527,9.455-3.527,19.332-3.527,19.332c0,10.02,10.018,10.02,10.018,10.02s10.019,0,10.019-10.02l0,0l0,0
		c0,0,0-10.018-3.527-19.332C350.548,364.125,348.43,360.316,345.466,357.354L345.466,357.354z M350.548,389.387
		c0,2.824-2.258,4.939-4.94,4.939c-2.68,0-4.938-2.258-4.938-4.939c0-2.68,2.258-4.939,4.938-4.939
		C348.29,384.447,350.548,386.566,350.548,389.387z"/>
	<circle style="fill:#63BFC6;" cx="345.466" cy="389.387" r="4.939"/>
	<path style="fill:#2C6857;" d="M630.51,470.531V30.523l0,0c0-44.734-29.493-82.695-69.99-95.396V70.601c0,0,0,39.937-39.936,39.937
		c-16.933,0-57.009,0-100.047,0v49.956h-39.934v-49.956c-45.296,0-86.642,0-100.047,0c-39.934,0-39.934-39.937-39.934-39.937
		V-64.873c-40.498,12.701-69.99,50.662-69.99,95.396l0,0l0,0v189.946v250.062H630.51z M350.548,450.49h-39.935v-30.057h-30.057
		c-39.934,0-39.934-39.938-39.934-39.938V220.469H560.52v160.027c0,0,0,39.938-39.936,39.938h-30.056v30.057h-40.075v-30.057
		H350.406v30.057H350.548z"/>
	<path style="fill:none;" d="M424.065,172.064c-7.196-6.915-18.484-10.583-23.425-10.583c-4.938,0-16.368,3.527-23.565,10.442
		c7.479,1.834,14.676,3.669,23.424,5.504C409.25,175.875,416.445,174.04,424.065,172.064z"/>
</g>
</svg>
