<?xml version="1.0" encoding="utf-8"?>
<!-- Generator: Adobe Illustrator 16.0.0, SVG Export Plug-In . SVG Version: 6.00 Build 0)  -->
<!DOCTYPE svg PUBLIC "-//W3C//DTD SVG 1.1//EN" "http://www.w3.org/Graphics/SVG/1.1/DTD/svg11.dtd">
<svg version="1.1" id="Layer_1" xmlns="http://www.w3.org/2000/svg" xmlns:xlink="http://www.w3.org/1999/xlink" x="0px" y="0px" viewBox="0 0 425.2 566.9" style="enable-background:new 0 0 425.2 566.9;" xml:space="preserve"
	>
<style type="text/css">
<![CDATA[
	.st0{fill:#E9DEBF;}
	.st1{fill:#1A5A4D;}
	.st2{fill:#F16548;}
	.st3{fill:#2C6857;}
	.st4{fill:#FFFFFF;}
	.st5{fill:#63BFC6;}
	.st6{fill:none;}
	.st7{fill:#3C9581;}
	.st8{fill:#434747;}
]]>
</style>
<g id="backpack">
	<path class="st7" d="M49.6,474.8c0,0,0,92.1,92.1,92.1h141.7c92.1,0,92.1-92.1,92.1-92.1h0H49.6z"/>
	<path class="st3" d="M325,95.1c0.3,0.1,0.7,0.2,1,0.3C325.6,95.3,325.3,95.2,325,95.1z"/>
	<path class="st7" d="M0,347.2v78c0,0,0,49.6,49.6,49.6V297.6C49.6,297.6,0,297.6,0,347.2z"/>
	<path class="st7" d="M375.6,297.6v177.2c49.6,0,49.6-49.6,49.6-49.6v-78C425.2,297.6,375.6,297.6,375.6,297.6z"/>
	<path class="st7" d="M248,439.4L248,439.4l28.3,0v0h21.3C326,439.4,326,411,326,411V297.6H99.2V411c0,0,0,28.3,28.3,28.3h21.3v0
		h28.3v0H248z M184.3,402.2h-6c2.5,6.7,2.5,13.7,2.5,13.7l0,0v0c0,7.1-7.1,7.1-7.1,7.1s-7.1,0-7.1-7.1c0,0,0-7.1,2.5-13.7h-6
		c0,0-4.4,0-6.3-3.5h-29.1v-7.1h29.1c1.8-3.5,6.3-3.5,6.3-3.5h21.3c3.5,0,5.3,1.8,6.2,3.5h107.2v7.1H190.5
		C188.7,402.1,184.3,402.2,184.3,402.2z"/>
	<polygon class="st2" points="148.8,439.4 148.8,439.4 148.8,460.6 177.2,460.6 177.2,439.4 177.2,439.4 	"/>
	<polygon class="st2" points="248,439.4 248,439.4 248,460.6 276.4,460.6 276.4,439.4 276.4,439.4 	"/>
	<rect x="198.4" y="177.2" class="st7" width="0" height="28.3"/>
	<path class="st7" d="M127.6,219.7c9.4,0,38.8,0,70.9,0v-7.1h0c0,0-7.1,0-7.1-7.1v-28.3c0,0,0-7.1,7.1-7.1v0h0v-78h-78.1
		c-1.1,0-2.1,0-3.2,0.1c-0.3,0-0.7,0-1,0.1c-0.8,0-1.5,0.1-2.3,0.2c-0.4,0-0.7,0.1-1.1,0.1c-0.9,0.1-1.7,0.2-2.6,0.3
		c-0.2,0-0.4,0.1-0.6,0.1c-1,0.2-2,0.3-3,0.5c-0.4,0.1-0.8,0.2-1.2,0.3c-0.6,0.1-1.2,0.3-1.8,0.4c-0.5,0.1-0.9,0.2-1.3,0.3
		c-0.6,0.2-1.2,0.3-1.8,0.5c-0.4,0.1-0.8,0.2-1.2,0.3v0v95.9C99.2,191.3,99.2,219.7,127.6,219.7z"/>
	<path class="st7" d="M226.8,170.1c7.1,0,7.1,7.1,7.1,7.1v28.3c0,7-7,7.1-7.1,7.1v7.1c30.4,0,58.9,0,70.9,0
		c28.4,0,28.3-28.3,28.3-28.3v-96l0,0c-0.3-0.1-0.7-0.2-1-0.3c-0.7-0.2-1.3-0.4-2-0.6c-0.4-0.1-0.8-0.2-1.3-0.3
		c-0.6-0.2-1.3-0.3-1.9-0.4c-0.4-0.1-0.8-0.2-1.2-0.3c-1-0.2-2-0.4-3-0.5c-0.2,0-0.4-0.1-0.6-0.1c-0.9-0.1-1.7-0.2-2.6-0.3
		c-0.4,0-0.7-0.1-1.1-0.1c-0.8-0.1-1.5-0.1-2.3-0.2c-0.3,0-0.7,0-1-0.1c-1.1,0-2.1-0.1-3.2-0.1h-78V170.1z"/>
	<path class="st0" d="M304.8,92.1h70.8c23.5,0,42.5-19,42.5-42.5c0-23.5-19-42.5-42.5-42.5H226.8v85H304.8z"/>
	<path class="st0" d="M198.4,7.1H49.6c-23.5,0-42.5,19-42.5,42.5c0,23.5,19,42.5,42.5,42.5h70.8h78.1V7.1z"/>
	<polygon class="st2" points="226.8,212.6 198.4,212.6 198.4,219.7 198.4,255.1 226.8,255.1 226.8,219.7 226.8,212.6 	"/>
	<rect x="198.4" y="177.2" class="st2" width="28.3" height="28.3"/>
	<polygon class="st2" points="198.4,170.1 226.8,170.1 226.8,170.1 226.8,170.1 226.8,92.1 226.8,7.1 226.8,0 198.4,0 198.4,7.1
		198.4,92.1 	"/>
	<path class="st0" d="M226.8,212.6c0.1,0,7.1,0,7.1-7.1v-28.3c0,0,0-7.1-7.1-7.1h0h0v0h-28.3h0v0c-7.1,0-7.1,7.1-7.1,7.1v28.3
		c0,7.1,7.1,7.1,7.1,7.1h0H226.8L226.8,212.6z M226.8,205.5h-28.3h0v-28.3h0h28.3V205.5z"/>
	<path class="st1" d="M156.7,391.5h-29.1v7.1h29.1c-0.5-0.9-0.8-2.1-0.8-3.5S156.2,392.4,156.7,391.5z"/>
	<path class="st1" d="M297.6,391.5H190.5c0.9,1.8,0.9,3.5,0.9,3.5c0,1.5-0.3,2.6-0.8,3.5h107.1V391.5z"/>
	<path class="st8" d="M190.5,391.5c-0.9-1.8-2.7-3.5-6.2-3.5H163c0,0-4.4,0-6.3,3.5c-0.5,0.9-0.8,2.1-0.8,3.5s0.3,2.6,0.8,3.5
		c1.8,3.5,6.3,3.5,6.3,3.5h6c1-2.8,2.5-5.5,4.6-7.5l0,0v0c2.1,2.1,3.5,4.8,4.6,7.5h6c0,0,4.4,0,6.3-3.5c0.5-0.9,0.8-2.1,0.8-3.5
		C191.3,395.1,191.3,393.3,190.5,391.5z"/>
	<path class="st4" d="M173.6,394.6L173.6,394.6c-2.1,2.1-3.5,4.8-4.6,7.5c-2.5,6.7-2.5,13.7-2.5,13.7c0,7.1,7.1,7.1,7.1,7.1
		s7.1,0,7.1-7.1v0l0,0c0,0,0-7.1-2.5-13.7C177.2,399.4,175.7,396.7,173.6,394.6L173.6,394.6z M177.2,417.3c0,2-1.6,3.5-3.5,3.5
		s-3.5-1.6-3.5-3.5s1.6-3.5,3.5-3.5S177.2,415.3,177.2,417.3z"/>
	<circle class="st5" cx="173.6" cy="417.3" r="3.5"/>
	<path class="st3" d="M375.6,474.8V163l0,0c0-31.7-20.9-58.6-49.6-67.6v96c0,0,0,28.3-28.3,28.3c-12,0-40.4,0-70.9,0v35.4h-28.3
		v-35.4c-32.1,0-61.4,0-70.9,0c-28.3,0-28.3-28.3-28.3-28.3V95.4c-28.7,9-49.6,35.9-49.6,67.6v0h0v134.6v177.2H375.6z M177.2,460.6
		h-28.3v-21.3h-21.3c-28.3,0-28.3-28.3-28.3-28.3V297.6H326V411c0,0,0,28.3-28.3,28.3h-21.3v21.3H248v-21.3h-70.9V460.6z"/>
	<path class="st6" d="M229.3,263.3c-5.1-4.9-13.1-7.5-16.6-7.5s-11.6,2.5-16.7,7.4c5.3,1.3,10.4,2.6,16.6,3.9
		C218.8,266,223.9,264.7,229.3,263.3z"/>
</g>
</svg>
