<?xml version="1.0" encoding="utf-8"?>
<!-- Generator: Adobe Illustrator 16.0.0, SVG Export Plug-In . SVG Version: 6.00 Build 0)  -->
<!DOCTYPE svg PUBLIC "-//W3C//DTD SVG 1.1//EN" "http://www.w3.org/Graphics/SVG/1.1/DTD/svg11.dtd">
<svg version="1.1" id="Layer_1" xmlns="http://www.w3.org/2000/svg" xmlns:xlink="http://www.w3.org/1999/xlink" x="0px" y="0px"
	 viewBox="0 0 386 236" style="enable-background:new 0 0 386 236;" xml:space="preserve">
<style type="text/css">
<![CDATA[
	.st0{fill:#4C9BA8;}
	.st1{fill:#4D4D4D;}
	.st2{fill:#F16548;}
	.st3{fill:#96D4C8;}
	.st4{fill:#FFFFFF;}
	.st5{fill:#434747;}
]]>
</style>
<g>
	<g>
		<path class="st4" d="M13,29.4l43.2,0l0.2-2.4l-43.2,1.3c-10,0.3-10,10-10,10v0.9C3.3,39.1,3.3,29.4,13,29.4z"/>
		<path class="st0" d="M129.8,29.4c0,0,9.7,0,9.7,9.7v145l11.3,1.1L167.5,11L59,0.6L56.5,27l-0.2,2.4L129.8,29.4z"/>
		<path class="st3" d="M139.5,184.1v17.2c0,0,0,9.7-9.7,9.7H38.9l-1.4,14.5L146,236l4.8-50.8h0L139.5,184.1z"/>
		<path class="st2" d="M31.9,163.7c-0.1,0-0.3,0-0.3,0s-0.7,1.7-2.5,7.6h5.5c-1.8-5.9-2.5-7.6-2.5-7.6S32,163.7,31.9,163.7z"/>
		<path class="st2" d="M19.5,169.2c0,0,0.2-0.1,0.4-0.4c0.2-0.2,0.4-0.4,0.4-0.4s0.1-0.9,0.1-2c0-1-0.1-1.8-0.1-1.8
			s-0.1-0.2-0.4-0.4s-0.4-0.4-0.4-0.4s-1.7-0.2-4-0.2c-0.6,0-1.7,0.1-1.7,0.1v5.5c0,0,1.2,0.1,2.7,0.1
			C18.6,169.3,19.5,169.2,19.5,169.2z"/>
		<path class="st2" d="M53.7,62.6c-5,2.3-9.4,5.5-13.2,9.5c2.3,1,4.8,2,7.4,2.8C49.5,70.5,51.4,66.4,53.7,62.6z"/>
		<path class="st2" d="M43.5,104.5H29c0.5,7.4,3,14.3,6.8,20.1c3.1-1.6,6.5-2.9,9.9-4.1C44.4,115.5,43.7,110.1,43.5,104.5z"/>
		<path class="st2" d="M45.9,81.2c-3.4-1.1-6.7-2.3-9.7-3.8c-4,5.9-6.6,12.9-7.2,20.4h14.5C43.7,92.1,44.6,86.5,45.9,81.2z"/>
		<path class="st2" d="M90.1,139.5c4.7-2.3,8.9-5.4,12.4-9.2c-2.2-1.1-4.5-2-6.8-2.9C94.2,131.8,92.3,135.8,90.1,139.5z"/>
		<path class="st2" d="M97.6,121.1c3.2,1.1,6.3,2.4,9.2,3.9c4-5.9,6.5-13,7.1-20.5H100C99.7,110.3,98.9,115.8,97.6,121.1z"/>
		<path class="st2" d="M99.9,97.8h13.9c-0.6-7.7-3.3-14.8-7.5-20.8c-2.8,1.4-5.8,2.6-9,3.7C98.8,86.2,99.7,91.9,99.9,97.8z"/>
		<path class="st2" d="M114.3,168.7c0,0,0.2-0.1,0.4-0.4s0.4-0.4,0.4-0.4s0.1-0.8,0.1-1.7c0-0.9-0.1-1.6-0.1-1.6s-0.1-0.2-0.4-0.4
			s-0.4-0.4-0.4-0.4s-1.7-0.2-4-0.2c-0.6,0-1.7,0.1-1.7,0.1v5c0,0,1.3,0.1,2.7,0.1C113.2,168.8,114.3,168.7,114.3,168.7z"/>
		<path class="st2" d="M91.7,176.2c0.2,0.2,0.4,0.4,0.4,0.4s1.5,0.1,3,0.1c1.5,0,3-0.1,3-0.1s0.2-0.1,0.4-0.4
			c0.2-0.2,0.4-0.4,0.4-0.4s0.3-2,0.3-5.6s-0.3-5.6-0.3-5.6s-0.1-0.2-0.4-0.4s-0.4-0.4-0.4-0.4s-1.5-0.1-3-0.1c-1.5,0-3,0.1-3,0.1
			s-0.2,0.1-0.4,0.4c-0.2,0.2-0.4,0.4-0.4,0.4s-0.3,2-0.3,5.6s0.3,5.6,0.3,5.6S91.5,175.9,91.7,176.2z"/>
		<path class="st2" d="M81.6,169.2c0,0,0.2-0.1,0.4-0.4c0.2-0.2,0.4-0.4,0.4-0.4s0.1-0.9,0.1-2c0-1-0.1-1.8-0.1-1.8
			s-0.1-0.2-0.4-0.4c-0.2-0.2-0.4-0.4-0.4-0.4s-1.7-0.2-4-0.2c-0.6,0-1.7,0.1-1.7,0.1v5.5c0,0,1.2,0.1,2.7,0.1
			C80.7,169.3,81.6,169.2,81.6,169.2z"/>
		<path class="st2" d="M68.3,58.9c-1.4,0.1-2.8,0.3-4.2,0.5c-4,4.8-7.3,10.7-9.7,17.2c4.4,1,9.1,1.5,13.9,1.7V58.9z"/>
		<path class="st2" d="M102,71.7c-3.4-3.5-7.4-6.5-11.8-8.6c2,3.5,3.8,7.3,5.2,11.3C97.7,73.6,99.9,72.7,102,71.7z"/>
		<path class="st2" d="M79.6,59.5c-1.5-0.3-3.1-0.5-4.7-0.6v19.3c4.9-0.2,9.6-0.9,14-2C86.6,69.9,83.5,64.3,79.6,59.5z"/>
		<path class="st2" d="M40,130c3.8,4.2,8.5,7.6,13.7,10c-2.4-4-4.4-8.4-6.1-13C45,127.8,42.4,128.9,40,130z"/>
		<path class="st2" d="M52.1,118.8c5.1-1.2,10.5-1.9,16.1-2.1v-12.2H50.1C50.3,109.4,51,114.2,52.1,118.8z"/>
		<path class="st2" d="M50.1,97.8h18.1V85c-5.5-0.2-10.8-0.8-15.9-2C51.1,87.7,50.4,92.7,50.1,97.8z"/>
		<path class="st2" d="M64.1,143.2c1.4,0.2,2.8,0.4,4.2,0.5v-20.4c-4.9,0.2-9.7,0.8-14.2,1.8C56.4,132.1,59.9,138.2,64.1,143.2z"/>
		<path class="st2" d="M93.3,104.5H74.9v12.2c5.7,0.3,11.1,1.1,16.3,2.4C92.4,114.5,93.1,109.6,93.3,104.5z"/>
		<path class="st2" d="M91,82.6c-5.1,1.3-10.5,2-16,2.3v12.9h18.3C93,92.5,92.2,87.4,91,82.6z"/>
		<path class="st2" d="M89.3,125.5c-4.5-1.1-9.4-1.9-14.3-2.1v20.3c1.6-0.1,3.2-0.3,4.7-0.6C83.6,138.1,86.9,132.2,89.3,125.5z"/>
		<path class="st2" d="M129.8,211.1c9.7,0,9.7-9.7,9.7-9.7v-17.2v-145c0-9.7-9.7-9.7-9.7-9.7l-73.6,0l-43.2,0
			c-9.7,0-9.7,9.7-9.7,9.7v161.3v0.9c0,9.7,9.7,9.7,9.7,9.7h25.9H129.8z M127.4,160.9c3.6,0,6,0.2,6,0.2l0.8,1.1l-0.1,1.7
			c0,0-2.4-0.2-5.1-0.2v15.6h-3.1v-15.6c-2.8,0.1-5.1,0.2-5.1,0.2l-0.1-1.7l0.8-1.1C121.3,161.1,123.7,160.9,127.4,160.9z
			 M71.4,52.1c27.2,0,49.3,22.1,49.3,49.2c0,27.2-22.1,49.3-49.3,49.3c-27.2,0-49.2-22.1-49.2-49.3C22.2,74.2,44.2,52.1,71.4,52.1z
			 M41.9,177.9l0.3-1.5c0,0,2.6,0.3,5.1,0.3c2.4,0,3.5-0.2,3.5-0.2s0.2-0.1,0.4-0.4c0.2-0.2,0.4-0.4,0.4-0.4s0.1-0.7,0.1-1.7
			c0-1.1-0.1-1.7-0.1-1.7s-0.1-0.2-0.4-0.4c-0.2-0.2-0.4-0.4-0.4-0.4s-1-0.1-2.1-0.1c-2.2,0-4-0.1-4-0.1s-0.7-0.5-1.4-1.2
			s-1.2-1.4-1.2-1.4s-0.1-1-0.1-2.4c0-1.4,0.1-2.4,0.1-2.4s0.4-0.7,1.2-1.4c0.8-0.8,1.4-1.2,1.4-1.2s1.8-0.3,4.2-0.3
			c2.5,0,4.5,0.3,4.5,0.3l0.7,1.2l-0.3,1.5c0,0-2.1-0.3-4.9-0.3c-1.8,0-3,0.2-3,0.2s-0.2,0.1-0.4,0.4c-0.2,0.2-0.4,0.4-0.4,0.4
			s-0.1,0.7-0.1,1.6s0.1,1.6,0.1,1.6s0.1,0.2,0.4,0.4c0.2,0.2,0.4,0.4,0.4,0.4s1.4,0.1,2.8,0.1c2,0,3.3,0.1,3.3,0.1s0.7,0.5,1.4,1.2
			c0.8,0.8,1.2,1.4,1.2,1.4s0.1,1,0.1,2.5s-0.1,2.5-0.1,2.5s-0.4,0.7-1.2,1.4c-0.8,0.8-1.4,1.2-1.4,1.2s-2,0.3-4.7,0.3
			c-2.8,0-4.7-0.3-4.7-0.3L41.9,177.9z M57.3,176.4c0,0,2.6,0.3,5.1,0.3c2.4,0,3.5-0.2,3.5-0.2s0.2-0.1,0.4-0.4
			c0.2-0.2,0.4-0.4,0.4-0.4s0.1-0.7,0.1-1.7c0-1.1-0.1-1.7-0.1-1.7s-0.1-0.2-0.4-0.4c-0.2-0.2-0.4-0.4-0.4-0.4s-1-0.1-2.1-0.1
			c-2.2,0-4-0.1-4-0.1s-0.7-0.5-1.4-1.2c-0.8-0.8-1.2-1.4-1.2-1.4s-0.1-1-0.1-2.4c0-1.4,0.1-2.4,0.1-2.4s0.4-0.7,1.2-1.4
			c0.8-0.8,1.4-1.2,1.4-1.2s1.8-0.3,4.2-0.3c2.5,0,4.5,0.3,4.5,0.3l0.7,1.2l-0.3,1.5c0,0-2.1-0.3-4.9-0.3c-1.8,0-3,0.2-3,0.2
			s-0.2,0.1-0.4,0.4s-0.4,0.4-0.4,0.4s-0.1,0.7-0.1,1.6s0.1,1.6,0.1,1.6s0.1,0.2,0.4,0.4c0.2,0.2,0.4,0.4,0.4,0.4s1.4,0.1,2.8,0.1
			c2,0,3.3,0.1,3.3,0.1s0.7,0.5,1.4,1.2c0.8,0.8,1.2,1.4,1.2,1.4s0.1,1,0.1,2.5s-0.1,2.5-0.1,2.5s-0.4,0.7-1.2,1.4
			c-0.8,0.8-1.4,1.2-1.4,1.2s-2,0.3-4.7,0.3c-2.8,0-4.7-0.3-4.7-0.3l-0.7-1.2L57.3,176.4z M72.8,163.8l-0.9,0.1l-0.1-1.4l0.8-1.3
			c0,0,1.9-0.3,5.1-0.3c3.3,0,5.2,0.3,5.2,0.3s0.7,0.5,1.4,1.2c0.8,0.8,1.2,1.4,1.2,1.4s0.1,1.1,0.1,2.6c0,1.6-0.1,2.8-0.1,2.8
			s-0.4,0.7-1.2,1.4c-0.8,0.8-1.4,1.2-1.4,1.2S81,172,78.6,172c-1.4,0-2.7-0.1-2.7-0.1v7.4h-3.1V163.8z M87.9,170.1
			c0-3.8,0.4-6.4,0.4-6.4s0.4-0.7,1.2-1.4c0.8-0.8,1.4-1.2,1.4-1.2s1.7-0.1,4.2-0.1c2.5,0,4.2,0.1,4.2,0.1s0.7,0.5,1.4,1.2
			c0.8,0.8,1.2,1.4,1.2,1.4s0.4,2.7,0.4,6.4s-0.4,6.4-0.4,6.4s-0.4,0.7-1.2,1.4c-0.8,0.8-1.4,1.2-1.4,1.2s-1.7,0.1-4.2,0.1
			c-2.5,0-4.2-0.1-4.2-0.1s-0.7-0.5-1.4-1.2c-0.8-0.8-1.2-1.4-1.2-1.4S87.9,173.9,87.9,170.1z M108.7,179.3h-3.1v-15.5l-0.9,0.1
			l-0.1-1.4l0.8-1.3c0,0,1.9-0.3,5.1-0.3c3.3,0,5.2,0.3,5.2,0.3s0.7,0.5,1.4,1.2s1.2,1.4,1.2,1.4s0.1,0.8,0.1,2.4s-0.1,2.5-0.1,2.5
			s-0.4,0.7-1.2,1.4c-0.5,0.5-0.9,0.8-1.1,1c0.9,1.8,2.2,4.4,3.4,7.4l-1.4,0.7h-1.6c-1.3-3.3-2.8-6.3-3.6-7.8h-1.3
			c-1.4,0-2.7-0.1-2.7-0.1V179.3z M39.9,178.5l-1.2,0.8H37c0,0-0.8-2.8-1.5-5.3h-7.2c-0.7,2.5-1.5,5.3-1.5,5.3h-1.7l-1.2-0.8
			c0,0,1-4,2.5-8.6c1.8-5.6,3.1-8.9,3.1-8.9s0.9-0.1,2.4-0.1c1.5,0,2.4,0.1,2.4,0.1s1.3,3.3,3.1,8.9
			C38.8,174.5,39.9,178.5,39.9,178.5z M10.5,161.1c0,0,1.9-0.3,5.1-0.3c3.3,0,5.2,0.3,5.2,0.3s0.7,0.5,1.4,1.2s1.2,1.4,1.2,1.4
			s0.1,1.1,0.1,2.6c0,1.6-0.1,2.8-0.1,2.8s-0.4,0.7-1.2,1.4c-0.8,0.8-1.4,1.2-1.4,1.2s-1.8,0.1-4.2,0.1c-1.4,0-2.7-0.1-2.7-0.1v7.4
			h-3.1v-15.5l-0.9,0.1l-0.1-1.4L10.5,161.1z M8.5,181.4h126v1.4H8.5V181.4z"/>
		<path class="st4" d="M71.4,150.6c27.2,0,49.3-22.1,49.3-49.3c0-27.2-22.1-49.2-49.3-49.2c-27.2,0-49.2,22.1-49.2,49.2
			C22.2,128.5,44.2,150.6,71.4,150.6z M90.1,139.5c2.2-3.7,4-7.8,5.5-12.1c2.4,0.8,4.7,1.8,6.8,2.9C99,134.1,94.8,137.2,90.1,139.5z
			 M106.7,125c-2.9-1.5-6-2.8-9.2-3.9c1.3-5.3,2.2-10.8,2.4-16.6h13.9C113.3,112.1,110.8,119.1,106.7,125z M106.4,77
			c4.2,6,6.9,13.1,7.5,20.8H99.9c-0.2-5.9-1.1-11.7-2.6-17.1C100.5,79.7,103.5,78.4,106.4,77z M102,71.7c-2.1,1-4.3,1.9-6.6,2.6
			c-1.4-4-3.2-7.8-5.2-11.3C94.6,65.3,98.6,68.2,102,71.7z M74.9,58.9c1.6,0.1,3.2,0.3,4.7,0.6c3.8,4.7,7,10.4,9.3,16.7
			c-4.5,1.1-9.2,1.8-14,2V58.9z M74.9,84.9c5.6-0.3,10.9-1.1,16-2.3c1.3,4.8,2,9.9,2.3,15.2H74.9V84.9z M74.9,104.5h18.3
			c-0.2,5.1-0.9,10-2.1,14.7c-5.2-1.3-10.6-2.1-16.3-2.4V104.5z M74.9,123.4c5,0.3,9.8,1,14.3,2.1c-2.3,6.7-5.6,12.6-9.6,17.5
			c-1.5,0.3-3.1,0.5-4.7,0.6V123.4z M40,130c2.4-1.1,5-2.2,7.6-3c1.6,4.7,3.7,9,6.1,13C48.4,137.6,43.8,134.2,40,130z M68.3,143.8
			c-1.4-0.1-2.8-0.3-4.2-0.5c-4.2-5-7.6-11.2-10-18.1c4.5-1,9.3-1.7,14.2-1.8V143.8z M68.3,116.7c-5.6,0.2-11,0.9-16.1,2.1
			c-1.1-4.5-1.8-9.3-2-14.3h18.1V116.7z M68.3,97.8H50.1c0.2-5.2,1-10.1,2.2-14.8c5.1,1.1,10.4,1.8,15.9,2V97.8z M64.1,59.4
			c1.4-0.2,2.8-0.4,4.2-0.5v19.4c-4.8-0.2-9.5-0.7-13.9-1.7C56.7,70.1,60.1,64.2,64.1,59.4z M53.7,62.6c-2.3,3.8-4.2,7.9-5.8,12.3
			c-2.6-0.8-5-1.7-7.4-2.8C44.2,68.1,48.7,64.9,53.7,62.6z M36.2,77.4c3.1,1.5,6.3,2.8,9.7,3.8c-1.4,5.3-2.2,10.8-2.5,16.6H29
			C29.6,90.3,32.2,83.3,36.2,77.4z M29,104.5h14.5c0.2,5.6,1,11,2.3,16.1c-3.5,1.1-6.8,2.5-9.9,4.1C31.9,118.8,29.5,111.9,29,104.5z
			"/>
		<path class="st4" d="M10.8,163.8v15.5h3.1v-7.4c0,0,1.3,0.1,2.7,0.1c2.4,0,4.2-0.1,4.2-0.1s0.7-0.5,1.4-1.2
			c0.8-0.8,1.2-1.4,1.2-1.4s0.1-1.2,0.1-2.8c0-1.6-0.1-2.6-0.1-2.6s-0.4-0.7-1.2-1.4s-1.4-1.2-1.4-1.2s-1.9-0.3-5.2-0.3
			c-3.2,0-5.1,0.3-5.1,0.3l-0.8,1.3l0.1,1.4L10.8,163.8z M13.9,163.7c0,0,1.1-0.1,1.7-0.1c2.3,0,4,0.2,4,0.2s0.2,0.1,0.4,0.4
			s0.4,0.4,0.4,0.4s0.1,0.8,0.1,1.8c0,1-0.1,2-0.1,2s-0.1,0.2-0.4,0.4c-0.2,0.2-0.4,0.4-0.4,0.4s-0.9,0.1-3,0.1
			c-1.4,0-2.7-0.1-2.7-0.1V163.7z"/>
		<path class="st4" d="M31.9,160.9c-1.5,0-2.4,0.1-2.4,0.1s-1.3,3.3-3.1,8.9c-1.4,4.6-2.5,8.6-2.5,8.6l1.2,0.8h1.7
			c0,0,0.8-2.8,1.5-5.3h7.2c0.7,2.5,1.5,5.3,1.5,5.3h1.7l1.2-0.8c0,0-1-4-2.5-8.6c-1.8-5.6-3.1-8.9-3.1-8.9S33.4,160.9,31.9,160.9z
			 M29.1,171.3c1.9-5.9,2.5-7.6,2.5-7.6s0.1,0,0.3,0c0.1,0,0.3,0,0.3,0s0.7,1.7,2.5,7.6H29.1z"/>
		<path class="st4" d="M42.6,179.1c0,0,1.9,0.3,4.7,0.3c2.8,0,4.7-0.3,4.7-0.3s0.7-0.5,1.4-1.2c0.8-0.8,1.2-1.4,1.2-1.4
			s0.1-1,0.1-2.5s-0.1-2.5-0.1-2.5s-0.4-0.7-1.2-1.4c-0.8-0.8-1.4-1.2-1.4-1.2s-1.3-0.1-3.3-0.1c-1.5,0-2.8-0.1-2.8-0.1
			s-0.2-0.1-0.4-0.4c-0.2-0.2-0.4-0.4-0.4-0.4s-0.1-0.7-0.1-1.6s0.1-1.6,0.1-1.6s0.1-0.2,0.4-0.4c0.2-0.2,0.4-0.4,0.4-0.4
			s1.2-0.2,3-0.2c2.8,0,4.9,0.3,4.9,0.3l0.3-1.5l-0.7-1.2c0,0-2-0.3-4.5-0.3c-2.4,0-4.2,0.3-4.2,0.3s-0.7,0.5-1.4,1.2
			c-0.8,0.8-1.2,1.4-1.2,1.4s-0.1,1-0.1,2.4c0,1.4,0.1,2.4,0.1,2.4s0.4,0.7,1.2,1.4s1.4,1.2,1.4,1.2s1.8,0.1,4,0.1
			c1.1,0,2.1,0.1,2.1,0.1s0.2,0.1,0.4,0.4c0.2,0.2,0.4,0.4,0.4,0.4s0.1,0.6,0.1,1.7c0,1.1-0.1,1.7-0.1,1.7s-0.1,0.2-0.4,0.4
			c-0.2,0.2-0.4,0.4-0.4,0.4s-1.1,0.2-3.5,0.2c-2.5,0-5.1-0.3-5.1-0.3l-0.3,1.5L42.6,179.1z"/>
		<path class="st4" d="M62.4,179.4c2.8,0,4.7-0.3,4.7-0.3s0.7-0.5,1.4-1.2c0.8-0.8,1.2-1.4,1.2-1.4s0.1-1,0.1-2.5s-0.1-2.5-0.1-2.5
			s-0.4-0.7-1.2-1.4c-0.8-0.8-1.4-1.2-1.4-1.2s-1.3-0.1-3.3-0.1c-1.5,0-2.8-0.1-2.8-0.1s-0.2-0.1-0.4-0.4c-0.2-0.2-0.4-0.4-0.4-0.4
			s-0.1-0.7-0.1-1.6s0.1-1.6,0.1-1.6s0.1-0.2,0.4-0.4s0.4-0.4,0.4-0.4s1.2-0.2,3-0.2c2.8,0,4.9,0.3,4.9,0.3l0.3-1.5l-0.7-1.2
			c0,0-2-0.3-4.5-0.3c-2.4,0-4.2,0.3-4.2,0.3s-0.7,0.5-1.4,1.2c-0.8,0.8-1.2,1.4-1.2,1.4s-0.1,1-0.1,2.4c0,1.4,0.1,2.4,0.1,2.4
			s0.4,0.7,1.2,1.4c0.8,0.8,1.4,1.2,1.4,1.2s1.8,0.1,4,0.1c1.1,0,2.1,0.1,2.1,0.1s0.2,0.1,0.4,0.4c0.2,0.2,0.4,0.4,0.4,0.4
			s0.1,0.6,0.1,1.7c0,1.1-0.1,1.7-0.1,1.7s-0.1,0.2-0.4,0.4c-0.2,0.2-0.4,0.4-0.4,0.4s-1.1,0.2-3.5,0.2c-2.5,0-5.1-0.3-5.1-0.3
			l-0.3,1.5l0.7,1.2C57.7,179.1,59.7,179.4,62.4,179.4z"/>
		<path class="st4" d="M76,171.9c0,0,1.3,0.1,2.7,0.1c2.4,0,4.2-0.1,4.2-0.1s0.7-0.5,1.4-1.2c0.8-0.8,1.2-1.4,1.2-1.4
			s0.1-1.2,0.1-2.8c0-1.6-0.1-2.6-0.1-2.6s-0.4-0.7-1.2-1.4c-0.8-0.8-1.4-1.2-1.4-1.2s-1.9-0.3-5.2-0.3c-3.2,0-5.1,0.3-5.1,0.3
			l-0.8,1.3l0.1,1.4l0.9-0.1v15.5H76V171.9z M76,163.7c0,0,1.1-0.1,1.7-0.1c2.3,0,4,0.2,4,0.2s0.2,0.1,0.4,0.4
			c0.2,0.2,0.4,0.4,0.4,0.4s0.1,0.8,0.1,1.8c0,1-0.1,2-0.1,2s-0.1,0.2-0.4,0.4c-0.2,0.2-0.4,0.4-0.4,0.4s-0.9,0.1-3,0.1
			c-1.4,0-2.7-0.1-2.7-0.1V163.7z"/>
		<path class="st4" d="M90.9,179.2c0,0,1.7,0.1,4.2,0.1c2.5,0,4.2-0.1,4.2-0.1s0.7-0.5,1.4-1.2c0.8-0.8,1.2-1.4,1.2-1.4
			s0.4-2.7,0.4-6.4s-0.4-6.4-0.4-6.4s-0.4-0.7-1.2-1.4c-0.8-0.8-1.4-1.2-1.4-1.2s-1.7-0.1-4.2-0.1c-2.5,0-4.2,0.1-4.2,0.1
			s-0.7,0.5-1.4,1.2c-0.8,0.8-1.2,1.4-1.2,1.4s-0.4,2.7-0.4,6.4s0.4,6.4,0.4,6.4s0.4,0.7,1.2,1.4C90.3,178.8,90.9,179.2,90.9,179.2z
			 M91.4,164.5c0,0,0.1-0.2,0.4-0.4c0.2-0.2,0.4-0.4,0.4-0.4s1.5-0.1,3-0.1c1.5,0,3,0.1,3,0.1s0.2,0.1,0.4,0.4s0.4,0.4,0.4,0.4
			s0.3,2,0.3,5.6s-0.3,5.6-0.3,5.6s-0.1,0.2-0.4,0.4c-0.2,0.2-0.4,0.4-0.4,0.4s-1.5,0.1-3,0.1c-1.5,0-3-0.1-3-0.1s-0.2-0.1-0.4-0.4
			c-0.2-0.2-0.4-0.4-0.4-0.4s-0.3-2-0.3-5.6S91.4,164.5,91.4,164.5z"/>
		<path class="st4" d="M112.6,171.5c0.8,1.5,2.3,4.5,3.6,7.8h1.6l1.4-0.7c-1.2-3-2.5-5.7-3.4-7.4c0.3-0.2,0.7-0.5,1.1-1
			c0.8-0.8,1.2-1.4,1.2-1.4s0.1-0.8,0.1-2.5s-0.1-2.4-0.1-2.4s-0.4-0.7-1.2-1.4s-1.4-1.2-1.4-1.2s-1.9-0.3-5.2-0.3
			c-3.2,0-5.1,0.3-5.1,0.3l-0.8,1.3l0.1,1.4l0.9-0.1v15.5h3.1v-7.9c0,0,1.2,0.1,2.7,0.1H112.6z M108.7,163.7c0,0,1.1-0.1,1.7-0.1
			c2.3,0,4,0.2,4,0.2s0.2,0.1,0.4,0.4s0.4,0.4,0.4,0.4s0.1,0.8,0.1,1.6c0,0.9-0.1,1.7-0.1,1.7s-0.1,0.2-0.4,0.4s-0.4,0.4-0.4,0.4
			s-1.1,0.1-3,0.1c-1.4,0-2.7-0.1-2.7-0.1V163.7z"/>
		<path class="st4" d="M120.7,163.9c0,0,2.3-0.2,5.1-0.2v15.6h3.1v-15.6c2.7,0.1,5.1,0.2,5.1,0.2l0.1-1.7l-0.8-1.1
			c0,0-2.4-0.2-6-0.2c-3.6,0-6,0.2-6,0.2l-0.8,1.1L120.7,163.9z"/>
		<rect x="8.5" y="181.4" class="st4" width="126" height="1.4"/>
	</g>
	<g>
		<g>
			<path class="st4" d="M379.5,222.8c0-4.8,4.8-4.8,4.8-4.8v-4.8c0,0-4.8,0-4.8-4.8c0-4.8,4.8-4.8,4.8-4.8V199c0,0-4.8,0-4.8-4.8
				c0-4.8,4.8-4.8,4.8-4.8v-4.8c0,0-4.8,0-4.8-4.8c0-4.8,4.8-4.8,4.8-4.8v-4.8c0,0-4.8,0-4.8-4.8c0-4.8,4.8-4.8,4.8-4.8v-4.8
				c0,0-4.8,0-4.8-4.8c0-4.8,4.8-4.8,4.8-4.8V142c0,0-4.8,0-4.8-4.8s4.8-4.8,4.8-4.8l0-4.8h-152v104.5l152,0l0-4.8
				C384.2,227.5,379.5,227.5,379.5,222.8z M374.7,227.5l-137.8,0v-95h137.8V227.5z"/>
			<path class="st2" d="M198.9,127.8l-19,0v4.8c0,0,4.8,0,4.8,4.8c0,4.8-4.8,4.8-4.8,4.8v4.8c0,0,4.8,0,4.8,4.8
				c0,4.8-4.8,4.8-4.8,4.8v4.8c0,0,4.8,0,4.8,4.8c0,4.8-4.8,4.8-4.8,4.8v4.8c0,0,4.8,0,4.8,4.8c0,4.8-4.8,4.8-4.8,4.8v4.8
				c0,0,4.8,0,4.8,4.8c0,4.8-4.8,4.8-4.8,4.8v4.8c0,0,4.8,0,4.8,4.8c0,4.8-4.8,4.8-4.8,4.8v4.8c0,0,4.8,0,4.8,4.8
				c0,4.8-4.8,4.8-4.8,4.8v4.8h19h33.3V127.8H198.9z M227.4,227.5h-38v-95h38V227.5z"/>
			<path class="st4" d="M189.4,132.5v95h38v-95H189.4z M222.7,222.8h-28.5V218h28.5V222.8z M222.7,213.3h-28.5v-9.5h28.5V213.3z
				 M222.7,199h-28.5v-4.8h28.5V199z M222.7,189.5h-28.5v-4.8h28.5V189.5z M222.7,180h-28.5v-19h28.5V180z M222.7,156.3h-28.5v-4.8
				h28.5V156.3z M222.7,146.8h-28.5v-9.5h28.5V146.8z"/>
			<path class="st0" d="M236.9,227.5l137.8,0v-95H236.9V227.5z M268.6,180c0-0.7,1-1.6,2.6-2.3l-3.4-15.9h2.6l8.6,13.4
				c3-0.6,6.2-1,9.1-1l13.5-0.5v-10.7l-6.5-24.7h6.5l18.5,34.8l10.4-0.4c11.9,0,21.5,3.2,21.5,7.2c0,4-9.6,7.2-21.5,7.2l-10.4-0.4
				l-18.5,34.8h-6.5l6.5-24.7v-10.7l-13.5-0.5c-2.9,0-6.2-0.4-9.1-1l-8.6,13.4h-2.6l3.4-15.9C269.6,181.6,268.6,180.8,268.6,180z"/>
			<rect x="194.2" y="218" class="st1" width="28.5" height="4.8"/>
			<rect x="194.2" y="203.8" class="st1" width="28.5" height="9.5"/>
			<rect x="194.2" y="137.3" class="st1" width="28.5" height="9.5"/>
			<rect x="194.2" y="161" class="st1" width="28.5" height="19"/>
			<rect x="194.2" y="194.3" class="st1" width="28.5" height="4.8"/>
			<rect x="194.2" y="184.8" class="st1" width="28.5" height="4.8"/>
			<rect x="194.2" y="151.5" class="st1" width="28.5" height="4.8"/>
			<path class="st5" d="M270.4,198.2l8.6-13.4c3,0.6,6.2,1,9.1,1l13.5,0.5v10.7l-6.5,24.7h6.5l18.5-34.8l10.4,0.4
				c11.9,0,21.5-3.2,21.5-7.2c0-4-9.6-7.2-21.5-7.2l-10.4,0.4l-18.5-34.8h-6.5l6.5,24.7v10.7l-13.5,0.5c-2.9,0-6.2,0.4-9.1,1
				l-8.6-13.4h-2.6l3.4,15.9c-1.6,0.8-2.6,1.6-2.6,2.3c0,0.7,1,1.6,2.6,2.3l-3.4,15.9H270.4z M339.4,175.2c2.3,1.3,3.8,3,3.8,4.8
				s-1.4,3.6-3.8,4.8c1-1.5,1.5-3.1,1.5-4.8C340.9,178.3,340.4,176.6,339.4,175.2z"/>
			<path class="st4" d="M343.2,180c0-1.9-1.4-3.6-3.8-4.8c1,1.5,1.5,3.1,1.5,4.8c0,1.7-0.6,3.4-1.5,4.8
				C341.7,183.6,343.2,181.9,343.2,180z"/>
		</g>
		<g>
			<path class="st4" d="M378,105.6c0-4.7,4.7-4.7,4.7-4.7v-4.7c0,0-4.7,0-4.7-4.7c0-4.7,4.7-4.7,4.7-4.7v-4.7c0,0-4.7,0-4.7-4.7
				c0-4.7,4.7-4.7,4.7-4.7v-4.7c0,0-4.7,0-4.7-4.7s4.7-4.7,4.7-4.7v-4.7c0,0-4.7,0-4.7-4.7c0-4.7,4.7-4.7,4.7-4.7v-4.7
				c0,0-4.7,0-4.7-4.7s4.7-4.7,4.7-4.7V25c0,0-4.7,0-4.7-4.7s4.7-4.7,4.7-4.7l0-4.7H230.9v104.4h151.9l0-4.7
				C382.7,110.4,378,110.4,378,105.6z M373.2,110.4H235.6V15.5h137.6V110.4z"/>
			<path class="st2" d="M197.6,10.7h-19v4.7c0,0,4.7,0,4.7,4.7s-4.7,4.7-4.7,4.7v4.7c0,0,4.7,0,4.7,4.7s-4.7,4.7-4.7,4.7v4.7
				c0,0,4.7,0,4.7,4.7c0,4.7-4.7,4.7-4.7,4.7v4.7c0,0,4.7,0,4.7,4.7s-4.7,4.7-4.7,4.7v4.7c0,0,4.7,0,4.7,4.7c0,4.7-4.7,4.7-4.7,4.7
				v4.7c0,0,4.7,0,4.7,4.7c0,4.7-4.7,4.7-4.7,4.7v4.7c0,0,4.7,0,4.7,4.7c0,4.7-4.7,4.7-4.7,4.7v4.7h19h33.2V10.7H197.6z
				 M226.1,110.4h-38V15.5h38V110.4z"/>
			<path class="st4" d="M188.1,15.5v94.9h38V15.5H188.1z M221.4,105.6h-28.5v-4.7h28.5V105.6z M221.4,96.1h-28.5v-9.5h28.5V96.1z
				 M221.4,81.9h-28.5v-4.7h28.5V81.9z M221.4,72.4h-28.5v-4.7h28.5V72.4z M221.4,62.9h-28.5v-19h28.5V62.9z M221.4,39.2h-28.5v-4.7
				h28.5V39.2z M221.4,29.7h-28.5v-9.5h28.5V29.7z"/>
			<path class="st3" d="M306.9,34.3v-6H296v6c1.8-0.3,3.6-0.5,5.5-0.5S305.2,33.9,306.9,34.3z"/>
			<path class="st3" d="M235.6,110.4h137.6V15.5H235.6V110.4z M272.3,19.2c1,0,1.8,0.8,1.8,1.8c0,0,0,1.1,0.5,2
				c0.6,1.1,1.6,1.6,3.1,1.6h47.4c0,0,1,0,2-0.5c1.1-0.6,1.6-1.6,1.6-3.1c0-1,0.8-1.8,1.8-1.8c1,0,1.8,0.8,1.8,1.8
				c0,5.3-4.4,7.3-7.3,7.3h-14.6v6.9c11.6,3.8,20,14.8,20,27.7v25.5c0,7.3-7.3,7.3-7.3,7.3h-1.1l4.2,4.2c0,0,0,0,0,0l3.6,3.6
				c0.7,0.7,0.7,1.9,0,2.6c-0.4,0.4-0.8,0.5-1.3,0.5s-0.9-0.2-1.3-0.5l-3.1-3.1h-45.9l-3.1,3.1c-0.4,0.4-0.8,0.5-1.3,0.5
				c-0.5,0-0.9-0.2-1.3-0.5c-0.7-0.7-0.7-1.9,0-2.6l7.8-7.8h-1.1c-7.3,0-7.3-7.3-7.3-7.3V62.9c0-12.9,8.4-23.9,20-27.7v-6.9h-14.6
				c-5.3,0-7.3-4.4-7.3-7.3C270.5,20,271.3,19.2,272.3,19.2z"/>
			<polygon class="st3" points="285.8,95.7 282.2,99.4 320.8,99.4 317.1,95.7 			"/>
			<rect x="192.9" y="100.9" class="st1" width="28.5" height="4.7"/>
			<rect x="192.9" y="86.7" class="st1" width="28.5" height="9.5"/>
			<rect x="192.9" y="20.2" class="st1" width="28.5" height="9.5"/>
			<rect x="192.9" y="43.9" class="st1" width="28.5" height="19"/>
			<rect x="192.9" y="77.2" class="st1" width="28.5" height="4.7"/>
			<rect x="192.9" y="67.7" class="st1" width="28.5" height="4.7"/>
			<rect x="192.9" y="34.4" class="st1" width="28.5" height="4.7"/>
			<path class="st4" d="M280.9,47.8c-3.2,4.4-4.9,9.6-4.9,15.1v5.5h23.7V37.5c-1,0.1-2,0.2-3,0.4l-1.6,0.3l-1.6,0.5
				C288.4,40.3,284.1,43.5,280.9,47.8z"/>
			<path class="st4" d="M303.3,37.5v30.9H327v-5.5c0-5.5-1.7-10.7-5-15.1c-3.2-4.3-7.5-7.5-12.6-9.1l-1.6-0.5l-1.6-0.3
				C305.3,37.7,304.3,37.6,303.3,37.5z"/>
			<path class="st5" d="M277.8,28.3h14.6v6.9c-11.6,3.8-20,14.8-20,27.7v25.5c0,0,0,7.3,7.3,7.3h1.1l-7.8,7.8
				c-0.7,0.7-0.7,1.9,0,2.6c0.4,0.4,0.8,0.5,1.3,0.5c0.5,0,0.9-0.2,1.3-0.5l3.1-3.1h45.9l3.1,3.1c0.4,0.4,0.8,0.5,1.3,0.5
				s0.9-0.2,1.3-0.5c0.7-0.7,0.7-1.9,0-2.6l-3.6-3.6c0,0,0,0,0,0l-4.2-4.2h1.1c0,0,7.3,0,7.3-7.3V62.9c0-12.9-8.4-23.9-20-27.7v-6.9
				h14.6c2.9,0,7.3-1.9,7.3-7.3c0-1-0.8-1.8-1.8-1.8c-1,0-1.8,0.8-1.8,1.8c0,1.5-0.5,2.5-1.6,3.1c-1,0.5-2,0.5-2,0.5h-47.4
				c-1.5,0-2.5-0.5-3.1-1.6c-0.5-0.9-0.5-2-0.5-2c0-1-0.8-1.8-1.8-1.8c-1,0-1.8,0.8-1.8,1.8C270.5,23.9,272.4,28.3,277.8,28.3z
				 M277.8,77.5c-1.8,0-1.8-1.8-1.8-1.8V72h10.9v3.6c0,1.8-1.8,1.8-1.8,1.8H277.8z M282.2,99.4l3.6-3.6h31.3l3.6,3.6H282.2z
				 M327,75.7c0,1.8-1.8,1.8-1.8,1.8h-7.3c-1.8,0-1.8-1.8-1.8-1.8V72H327V75.7z M309.4,38.7c5.1,1.7,9.4,4.8,12.6,9.1
				c3.2,4.4,5,9.6,5,15.1v5.5h-23.7V37.5c1,0.1,2,0.2,3,0.4l1.6,0.3L309.4,38.7z M296,28.3h10.9v6c-1.8-0.3-3.6-0.5-5.5-0.5
				s-3.7,0.2-5.5,0.5V28.3z M295.1,38.2l1.6-0.3c1-0.2,2-0.3,3-0.4v30.9h-23.7v-5.5c0-5.5,1.7-10.7,4.9-15.1
				c3.2-4.3,7.5-7.5,12.6-9.1L295.1,38.2z"/>
			<path class="st4" d="M286.9,75.7V72h-10.9v3.6c0,0,0,1.8,1.8,1.8h7.3C285.1,77.5,286.9,77.5,286.9,75.7z"/>
			<path class="st4" d="M316,75.7c0,0,0,1.8,1.8,1.8h7.3c0,0,1.8,0,1.8-1.8V72H316V75.7z"/>
		</g>
	</g>
</g>
</svg>
