<?xml version="1.0" encoding="utf-8"?>
<!-- Generator: Adobe Illustrator 16.0.0, SVG Export Plug-In . SVG Version: 6.00 Build 0)  -->
<!DOCTYPE svg PUBLIC "-//W3C//DTD SVG 1.1//EN" "http://www.w3.org/Graphics/SVG/1.1/DTD/svg11.dtd">
<svg version="1.1" id="Layer_1" xmlns="http://www.w3.org/2000/svg" xmlns:xlink="http://www.w3.org/1999/xlink" x="0px" y="0px" viewBox="0 0 600 400" style="enable-background:new 0 0 600 400;" xml:space="preserve">
<g>
	<path style="fill:#FFFFFF;" d="M17.43,49.67h68.01l0.31-4.03l-68.01,2.18C2,48.32,2,64.62,2,64.62v1.51
		C2.16,65.96,2.16,49.67,17.43,49.67z"/>
	<path style="fill:#4C9BA8;" d="M201.32,49.67c0,0,15.27,0,15.27,16.29v243.59l17.79,1.85l26.29-292.64L89.85,1.29l-3.94,44.35
		l-0.31,4.03H201.32z"/>
	<path style="fill:#96D4C8;" d="M216.59,309.55v28.9c0,0,0,16.29-15.27,16.29H58.21L56,379.1l170.82,17.64l7.56-85.34l0,0
		L216.59,309.55z"/>
	<path style="fill:#F16548;" d="M47.18,275.28c-0.16,0-0.47,0-0.47,0s-1.1,2.86-3.94,12.77h8.66c-2.83-9.91-3.94-12.77-3.94-12.77
		S47.34,275.28,47.18,275.28z"/>
	<path style="fill:#F16548;" d="M27.66,284.52c0,0,0.31-0.17,0.63-0.67c0.32-0.34,0.63-0.67,0.63-0.67s0.16-1.51,0.16-3.36
		c0-1.68-0.16-3.02-0.16-3.02s-0.16-0.33-0.63-0.67c-0.47-0.34-0.63-0.67-0.63-0.67s-2.68-0.34-6.3-0.34
		c-0.94,0-2.68,0.17-2.68,0.17v9.24c0,0,1.89,0.17,4.25,0.17C26.25,284.69,27.66,284.52,27.66,284.52z"/>
	<path style="fill:#F16548;" d="M81.51,105.44c-7.87,3.86-14.8,9.24-20.78,15.96c3.62,1.68,7.56,3.36,11.65,4.7
		C74.89,118.71,77.89,111.83,81.51,105.44z"/>
	<path style="fill:#F16548;" d="M65.45,175.83H42.62c0.79,12.43,4.72,24.02,10.71,33.77c4.88-2.69,10.23-4.87,15.59-6.89
		C66.86,194.31,65.76,185.24,65.45,175.83z"/>
	<path style="fill:#F16548;" d="M69.23,136.69c-5.35-1.85-10.55-3.86-15.27-6.38c-6.3,9.91-10.39,21.67-11.34,34.27h22.83
		C65.76,155,67.18,145.59,69.23,136.69z"/>
	<path style="fill:#F16548;" d="M138.81,234.63c7.4-3.86,14.01-9.07,19.52-15.46c-3.46-1.85-7.08-3.36-10.71-4.87
		C145.27,221.69,142.28,228.41,138.81,234.63z"/>
	<path style="fill:#F16548;" d="M150.62,203.72c5.04,1.85,9.92,4.03,14.48,6.55c6.3-9.91,10.23-21.84,11.18-34.44H154.4
		C153.93,185.58,152.67,194.81,150.62,203.72z"/>
	<path style="fill:#F16548;" d="M154.24,164.58h21.88c-0.94-12.94-5.2-24.86-11.81-34.94c-4.41,2.35-9.13,4.37-14.17,6.21
		C152.51,145.09,153.93,154.66,154.24,164.58z"/>
	<path style="fill:#F16548;" d="M176.91,283.68c0,0,0.31-0.17,0.63-0.67s0.63-0.67,0.63-0.67s0.16-1.34,0.16-2.86
		c0-1.51-0.16-2.69-0.16-2.69s-0.16-0.33-0.63-0.67c-0.47-0.34-0.63-0.67-0.63-0.67s-2.68-0.34-6.3-0.34
		c-0.94,0-2.68,0.17-2.68,0.17v8.4c0,0,2.05,0.17,4.25,0.17C175.18,283.85,176.91,283.68,176.91,283.68z"/>
	<path style="fill:#F16548;" d="M141.33,296.28c0.32,0.34,0.63,0.67,0.63,0.67s2.36,0.17,4.72,0.17c2.36,0,4.72-0.17,4.72-0.17
		s0.31-0.17,0.63-0.67c0.31-0.34,0.63-0.67,0.63-0.67s0.47-3.36,0.47-9.41c0-6.05-0.47-9.41-0.47-9.41s-0.16-0.33-0.63-0.67
		c-0.47-0.34-0.63-0.67-0.63-0.67s-2.36-0.17-4.72-0.17c-2.36,0-4.72,0.17-4.72,0.17s-0.31,0.17-0.63,0.67
		c-0.31,0.34-0.63,0.67-0.63,0.67s-0.47,3.36-0.47,9.41c0,6.05,0.47,9.41,0.47,9.41S141.02,295.78,141.33,296.28z"/>
	<path style="fill:#F16548;" d="M125.43,284.52c0,0,0.31-0.17,0.63-0.67c0.31-0.34,0.63-0.67,0.63-0.67s0.16-1.51,0.16-3.36
		c0-1.68-0.16-3.02-0.16-3.02s-0.16-0.33-0.63-0.67c-0.32-0.34-0.63-0.67-0.63-0.67s-2.68-0.34-6.3-0.34
		c-0.95,0-2.68,0.17-2.68,0.17v9.24c0,0,1.89,0.17,4.25,0.17C124.02,284.69,125.43,284.52,125.43,284.52z"/>
	<path style="fill:#F16548;" d="M104.49,99.23c-2.2,0.17-4.41,0.5-6.61,0.84c-6.3,8.06-11.49,17.98-15.27,28.89
		c6.93,1.68,14.33,2.52,21.88,2.86V99.23z"/>
	<path style="fill:#F16548;" d="M157.55,120.73c-5.35-5.88-11.65-10.92-18.58-14.45c3.15,5.88,5.98,12.26,8.19,18.98
		C150.78,123.92,154.24,122.41,157.55,120.73z"/>
	<path style="fill:#F16548;" d="M122.28,100.23c-2.36-0.5-4.88-0.84-7.4-1.01v32.42c7.71-0.34,15.11-1.51,22.04-3.36
		C133.3,117.71,128.42,108.3,122.28,100.23z"/>
	<path style="fill:#F16548;" d="M59.94,218.67c5.98,7.05,13.38,12.77,21.57,16.8c-3.78-6.72-6.93-14.11-9.6-21.84
		C67.81,214.97,63.72,216.82,59.94,218.67z"/>
	<path style="fill:#F16548;" d="M78.99,199.85c8.03-2.02,16.53-3.19,25.35-3.53v-20.5h-28.5C76.15,184.06,77.26,192.13,78.99,199.85
		z"/>
	<path style="fill:#F16548;" d="M75.84,164.58h28.5v-21.5c-8.66-0.34-17-1.34-25.03-3.36C77.41,147.61,76.31,156.01,75.84,164.58z"
		/>
	<path style="fill:#F16548;" d="M97.88,240.84c2.2,0.34,4.41,0.67,6.61,0.84v-34.27c-7.71,0.34-15.27,1.34-22.36,3.02
		C85.76,222.2,91.27,232.45,97.88,240.84z"/>
	<path style="fill:#F16548;" d="M143.85,175.83h-28.97v20.5c8.97,0.5,17.48,1.85,25.66,4.03
		C142.44,192.63,143.54,184.4,143.85,175.83z"/>
	<path style="fill:#F16548;" d="M140.23,139.04c-8.03,2.18-16.53,3.36-25.19,3.86v21.67h28.81
		C143.38,155.67,142.12,147.1,140.23,139.04z"/>
	<path style="fill:#F16548;" d="M137.55,211.11c-7.08-1.85-14.8-3.19-22.51-3.53v34.1c2.52-0.17,5.04-0.5,7.4-1.01
		C128.58,232.28,133.78,222.36,137.55,211.11z"/>
	<path style="fill:#F16548;" d="M201.32,354.91c15.27,0,15.27-16.3,15.27-16.3v-28.89V66.13c0-16.29-15.27-16.29-15.27-16.29H85.44
		H17.43c-15.27,0-15.27,16.29-15.27,16.29V337.1v1.51c0,16.3,15.27,16.3,15.27,16.3h40.78H201.32z M197.54,270.58
		c5.67,0,9.45,0.34,9.45,0.34l1.26,1.85l-0.16,2.86c0,0-3.78-0.34-8.03-0.34v26.21h-4.88v-26.21c-4.41,0.17-8.03,0.34-8.03,0.34
		l-0.16-2.86l1.26-1.85C187.94,270.92,191.71,270.58,197.54,270.58z M109.37,87.8c42.82,0,77.62,37.13,77.62,82.65
		c0,45.69-34.79,82.82-77.62,82.82s-77.46-37.13-77.46-82.82C31.91,124.93,66.55,87.8,109.37,87.8z M62.93,299.14l0.47-2.52
		c0,0,4.09,0.5,8.03,0.5c3.78,0,5.51-0.34,5.51-0.34s0.31-0.17,0.63-0.67c0.32-0.34,0.63-0.67,0.63-0.67s0.16-1.18,0.16-2.86
		c0-1.85-0.16-2.86-0.16-2.86s-0.16-0.34-0.63-0.67c-0.31-0.34-0.63-0.67-0.63-0.67s-1.57-0.17-3.31-0.17c-3.46,0-6.3-0.17-6.3-0.17
		s-1.1-0.84-2.2-2.02c-1.1-1.18-1.89-2.35-1.89-2.35s-0.16-1.68-0.16-4.03s0.16-4.03,0.16-4.03s0.63-1.18,1.89-2.35
		c1.26-1.34,2.2-2.02,2.2-2.02s2.83-0.5,6.61-0.5c3.94,0,7.08,0.5,7.08,0.5l1.1,2.02l-0.47,2.52c0,0-3.31-0.5-7.71-0.5
		c-2.83,0-4.72,0.34-4.72,0.34s-0.31,0.17-0.63,0.67c-0.31,0.34-0.63,0.67-0.63,0.67s-0.16,1.17-0.16,2.69
		c0,1.51,0.16,2.69,0.16,2.69s0.16,0.33,0.63,0.67c0.31,0.34,0.63,0.67,0.63,0.67s2.2,0.17,4.41,0.17c3.15,0,5.2,0.17,5.2,0.17
		s1.1,0.84,2.2,2.02c1.26,1.34,1.89,2.35,1.89,2.35s0.16,1.68,0.16,4.2c0,2.52-0.16,4.2-0.16,4.2s-0.63,1.18-1.89,2.35
		c-1.26,1.34-2.2,2.02-2.2,2.02s-3.15,0.5-7.4,0.5c-4.41,0-7.4-0.5-7.4-0.5L62.93,299.14z M87.17,296.62c0,0,4.09,0.5,8.03,0.5
		c3.78,0,5.51-0.34,5.51-0.34s0.31-0.17,0.63-0.67c0.31-0.34,0.63-0.67,0.63-0.67s0.16-1.18,0.16-2.86c0-1.85-0.16-2.86-0.16-2.86
		s-0.16-0.34-0.63-0.67c-0.31-0.34-0.63-0.67-0.63-0.67s-1.57-0.17-3.31-0.17c-3.46,0-6.3-0.17-6.3-0.17s-1.1-0.84-2.2-2.02
		c-1.26-1.34-1.89-2.35-1.89-2.35s-0.16-1.68-0.16-4.03s0.16-4.03,0.16-4.03s0.63-1.18,1.89-2.35c1.26-1.34,2.2-2.02,2.2-2.02
		s2.83-0.5,6.61-0.5c3.94,0,7.08,0.5,7.08,0.5l1.1,2.02l-0.47,2.52c0,0-3.31-0.5-7.71-0.5c-2.83,0-4.72,0.34-4.72,0.34
		s-0.31,0.17-0.63,0.67c-0.32,0.5-0.63,0.67-0.63,0.67s-0.16,1.17-0.16,2.69c0,1.51,0.16,2.69,0.16,2.69s0.16,0.33,0.63,0.67
		c0.31,0.34,0.63,0.67,0.63,0.67s2.2,0.17,4.41,0.17c3.15,0,5.2,0.17,5.2,0.17s1.1,0.84,2.2,2.02c1.26,1.34,1.89,2.35,1.89,2.35
		s0.16,1.68,0.16,4.2c0,2.52-0.16,4.2-0.16,4.2s-0.63,1.18-1.89,2.35c-1.26,1.34-2.2,2.02-2.2,2.02s-3.15,0.5-7.4,0.5
		c-4.41,0-7.4-0.5-7.4-0.5l-1.1-2.02L87.17,296.62z M111.58,275.45l-1.42,0.17l-0.16-2.35l1.26-2.18c0,0,2.99-0.5,8.03-0.5
		c5.2,0,8.19,0.5,8.19,0.5s1.1,0.84,2.2,2.02c1.26,1.34,1.89,2.35,1.89,2.35s0.16,1.85,0.16,4.37c0,2.69-0.16,4.71-0.16,4.71
		s-0.63,1.17-1.89,2.35c-1.26,1.34-2.2,2.02-2.2,2.02s-2.99,0.34-6.77,0.34c-2.2,0-4.25-0.17-4.25-0.17v12.43h-4.88V275.45z
		 M135.35,286.04c0-6.38,0.63-10.75,0.63-10.75s0.63-1.18,1.89-2.35c1.26-1.34,2.2-2.02,2.2-2.02s2.68-0.17,6.61-0.17
		s6.61,0.17,6.61,0.17s1.1,0.84,2.2,2.02c1.26,1.34,1.89,2.35,1.89,2.35s0.63,4.54,0.63,10.75c0,6.21-0.63,10.75-0.63,10.75
		s-0.63,1.18-1.89,2.35c-1.26,1.34-2.2,2.02-2.2,2.02s-2.68,0.17-6.61,0.17s-6.61-0.17-6.61-0.17s-1.1-0.84-2.2-2.02
		c-1.26-1.34-1.89-2.35-1.89-2.35S135.35,292.42,135.35,286.04z M168.1,301.49h-4.88v-26.04l-1.42,0.17l-0.16-2.35l1.26-2.18
		c0,0,2.99-0.5,8.03-0.5c5.2,0,8.19,0.5,8.19,0.5s1.1,0.84,2.2,2.02s1.89,2.35,1.89,2.35s0.16,1.34,0.16,4.03s-0.16,4.2-0.16,4.2
		s-0.63,1.18-1.89,2.35c-0.79,0.84-1.42,1.34-1.73,1.68c1.42,3.02,3.46,7.39,5.35,12.43l-2.2,1.18h-2.52
		c-2.05-5.54-4.41-10.58-5.67-13.1h-2.05c-2.2,0-4.25-0.17-4.25-0.17v13.44H168.1z M59.78,300.15l-1.89,1.34h-2.68
		c0,0-1.26-4.71-2.36-8.9H41.52c-1.1,4.2-2.36,8.9-2.36,8.9h-2.68l-1.89-1.34c0,0,1.57-6.72,3.94-14.45
		c2.83-9.41,4.88-14.95,4.88-14.95s1.42-0.17,3.78-0.17c2.36,0,3.78,0.17,3.78,0.17s2.05,5.54,4.88,14.95
		C58.05,293.43,59.78,300.15,59.78,300.15z M13.49,270.92c0,0,2.99-0.5,8.03-0.5c5.2,0,8.19,0.5,8.19,0.5s1.1,0.84,2.2,2.02
		c1.1,1.18,1.89,2.35,1.89,2.35s0.16,1.85,0.16,4.37c0,2.69-0.16,4.71-0.16,4.71s-0.63,1.17-1.89,2.35c-1.26,1.34-2.2,2.02-2.2,2.02
		s-2.83,0.17-6.61,0.17c-2.2,0-4.25-0.17-4.25-0.17v12.43h-4.88v-26.04l-1.42,0.17l-0.16-2.35L13.49,270.92z M10.34,305.02h198.37
		v2.35H10.34V305.02z"/>
	<path style="fill:#FFFFFF;" d="M109.37,253.28c42.82,0,77.62-37.13,77.62-82.82c0-45.69-34.79-82.65-77.62-82.65
		s-77.46,37.13-77.46,82.65C31.91,216.15,66.55,253.28,109.37,253.28z M138.81,234.63c3.46-6.21,6.3-13.1,8.66-20.33
		c3.78,1.34,7.4,3.03,10.71,4.87C152.83,225.56,146.21,230.77,138.81,234.63z M164.95,210.27c-4.57-2.52-9.45-4.7-14.48-6.55
		c2.05-8.9,3.46-18.14,3.78-27.89h21.88C175.34,188.6,171.4,200.36,164.95,210.27z M164.48,129.63
		c6.61,10.08,10.86,22.01,11.81,34.94h-22.04c-0.31-9.91-1.73-19.66-4.09-28.73C155.19,134.17,159.91,131.99,164.48,129.63z
		 M157.55,120.73c-3.31,1.68-6.77,3.19-10.39,4.37c-2.2-6.72-5.04-13.1-8.19-18.98C145.9,109.98,152.2,114.85,157.55,120.73z
		 M114.88,99.23c2.52,0.17,5.04,0.5,7.4,1.01c5.98,7.9,11.02,17.47,14.64,28.05c-7.08,1.85-14.48,3.02-22.04,3.36V99.23z
		 M114.88,142.9c8.82-0.5,17.16-1.85,25.19-3.86c2.05,8.06,3.15,16.63,3.62,25.54h-28.81V142.9z M114.88,175.83h28.81
		c-0.31,8.57-1.42,16.8-3.31,24.69c-8.19-2.18-16.69-3.53-25.66-4.03v-20.66H114.88z M114.88,207.58c7.87,0.5,15.43,1.68,22.51,3.53
		c-3.62,11.25-8.82,21.17-15.11,29.4c-2.36,0.5-4.88,0.84-7.4,1.01V207.58L114.88,207.58z M59.94,218.67
		c3.78-1.85,7.87-3.7,11.97-5.04c2.52,7.9,5.83,15.12,9.6,21.84C73.16,231.44,65.92,225.72,59.94,218.67z M104.49,241.85
		c-2.2-0.17-4.41-0.5-6.61-0.84c-6.61-8.4-11.96-18.82-15.74-30.41c7.08-1.68,14.64-2.85,22.36-3.02V241.85z M104.49,196.33
		c-8.82,0.34-17.32,1.51-25.35,3.53c-1.73-7.56-2.83-15.62-3.15-24.02h28.5V196.33z M104.49,164.58H75.84
		c0.31-8.74,1.57-16.97,3.46-24.86c8.03,1.85,16.37,3.02,25.03,3.36v21.5H104.49z M97.88,100.07c2.2-0.34,4.41-0.67,6.61-0.84v32.59
		c-7.56-0.34-14.96-1.18-21.88-2.86C86.23,118.04,91.58,108.13,97.88,100.07z M81.51,105.44c-3.62,6.38-6.61,13.27-9.13,20.66
		c-4.09-1.34-7.87-2.86-11.65-4.7C66.55,114.68,73.63,109.31,81.51,105.44z M53.96,130.3c4.88,2.52,9.92,4.71,15.27,6.38
		c-2.2,8.9-3.46,18.14-3.94,27.89H42.62C43.56,151.98,47.66,140.22,53.96,130.3z M42.62,175.83h22.83
		c0.31,9.41,1.57,18.48,3.62,27.05c-5.51,1.85-10.71,4.2-15.59,6.89C47.18,199.85,43.41,188.26,42.62,175.83z"/>
	<path style="fill:#FFFFFF;" d="M13.97,275.45v26.04h4.88v-12.43c0,0,2.05,0.17,4.25,0.17c3.78,0,6.61-0.17,6.61-0.17
		s1.1-0.84,2.2-2.02c1.26-1.34,1.89-2.35,1.89-2.35s0.16-2.02,0.16-4.7c0-2.69-0.16-4.37-0.16-4.37s-0.63-1.18-1.89-2.35
		c-1.26-1.18-2.2-2.02-2.2-2.02s-2.99-0.5-8.19-0.5c-5.04,0-8.03,0.5-8.03,0.5l-1.26,2.18l0.16,2.35L13.97,275.45z M18.85,275.28
		c0,0,1.73-0.17,2.68-0.17c3.62,0,6.3,0.34,6.3,0.34s0.31,0.17,0.63,0.67c0.31,0.5,0.63,0.67,0.63,0.67s0.16,1.34,0.16,3.02
		c0,1.68-0.16,3.36-0.16,3.36s-0.16,0.34-0.63,0.67c-0.31,0.34-0.63,0.67-0.63,0.67s-1.42,0.17-4.72,0.17
		c-2.2,0-4.25-0.17-4.25-0.17V275.28z"/>
	<path style="fill:#FFFFFF;" d="M47.18,270.58c-2.36,0-3.78,0.17-3.78,0.17s-2.05,5.54-4.88,14.95c-2.2,7.73-3.94,14.45-3.94,14.45
		l1.89,1.34h2.68c0,0,1.26-4.71,2.36-8.9h11.34c1.1,4.2,2.36,8.9,2.36,8.9h2.68l1.89-1.34c0,0-1.57-6.72-3.94-14.45
		c-2.83-9.41-4.88-14.95-4.88-14.95S49.55,270.58,47.18,270.58z M42.78,288.05c2.99-9.91,3.94-12.77,3.94-12.77s0.16,0,0.47,0
		c0.16,0,0.47,0,0.47,0s1.1,2.86,3.94,12.77H42.78z"/>
	<path style="fill:#FFFFFF;" d="M64.03,301.15c0,0,2.99,0.5,7.4,0.5c4.41,0,7.4-0.5,7.4-0.5s1.1-0.84,2.2-2.02
		c1.26-1.34,1.89-2.35,1.89-2.35s0.16-1.68,0.16-4.2c0-2.52-0.16-4.2-0.16-4.2s-0.63-1.18-1.89-2.35c-1.26-1.34-2.2-2.02-2.2-2.02
		s-2.05-0.17-5.2-0.17c-2.36,0-4.41-0.17-4.41-0.17s-0.31-0.17-0.63-0.67c-0.31-0.34-0.63-0.67-0.63-0.67s-0.16-1.18-0.16-2.69
		c0-1.51,0.16-2.69,0.16-2.69s0.16-0.33,0.63-0.67c0.31-0.34,0.63-0.67,0.63-0.67s1.89-0.34,4.72-0.34c4.41,0,7.71,0.5,7.71,0.5
		l0.47-2.52l-1.1-2.02c0,0-3.15-0.5-7.08-0.5c-3.78,0-6.61,0.5-6.61,0.5s-1.1,0.84-2.2,2.02c-1.26,1.34-1.89,2.35-1.89,2.35
		s-0.16,1.68-0.16,4.03s0.16,4.03,0.16,4.03s0.63,1.18,1.89,2.35c1.26,1.17,2.2,2.02,2.2,2.02s2.83,0.17,6.3,0.17
		c1.73,0,3.31,0.17,3.31,0.17s0.31,0.17,0.63,0.67c0.32,0.33,0.63,0.67,0.63,0.67s0.16,1.01,0.16,2.86c0,1.85-0.16,2.86-0.16,2.86
		s-0.16,0.33-0.63,0.67c-0.31,0.34-0.63,0.67-0.63,0.67s-1.73,0.34-5.51,0.34c-3.94,0-8.03-0.5-8.03-0.5l-0.47,2.52L64.03,301.15z"
		/>
	<path style="fill:#FFFFFF;" d="M95.2,301.66c4.41,0,7.4-0.5,7.4-0.5s1.1-0.84,2.2-2.02c1.26-1.34,1.89-2.35,1.89-2.35
		s0.16-1.68,0.16-4.2c0-2.52-0.16-4.2-0.16-4.2s-0.63-1.18-1.89-2.35c-1.26-1.34-2.2-2.02-2.2-2.02s-2.05-0.17-5.2-0.17
		c-2.36,0-4.41-0.17-4.41-0.17s-0.31-0.17-0.63-0.67c-0.32-0.34-0.63-0.67-0.63-0.67s-0.16-1.18-0.16-2.69
		c0-1.51,0.16-2.69,0.16-2.69s0.16-0.33,0.63-0.67c0.47-0.34,0.63-0.67,0.63-0.67s1.89-0.34,4.72-0.34c4.41,0,7.71,0.5,7.71,0.5
		l0.47-2.52l-1.1-2.02c0,0-3.15-0.5-7.08-0.5c-3.78,0-6.61,0.5-6.61,0.5s-1.1,0.84-2.2,2.02c-1.26,1.34-1.89,2.35-1.89,2.35
		s-0.16,1.68-0.16,4.03s0.16,4.03,0.16,4.03s0.63,1.18,1.89,2.35c1.26,1.34,2.2,2.02,2.2,2.02s2.83,0.17,6.3,0.17
		c1.73,0,3.31,0.17,3.31,0.17s0.31,0.17,0.63,0.67c0.31,0.33,0.63,0.67,0.63,0.67s0.16,1.01,0.16,2.86c0,1.85-0.16,2.86-0.16,2.86
		s-0.16,0.33-0.63,0.67c-0.31,0.34-0.63,0.67-0.63,0.67s-1.73,0.34-5.51,0.34c-3.94,0-8.03-0.5-8.03-0.5l-0.47,2.52l1.1,2.02
		C87.8,301.15,90.95,301.66,95.2,301.66z"/>
	<path style="fill:#FFFFFF;" d="M116.62,289.06c0,0,2.05,0.17,4.25,0.17c3.78,0,6.61-0.17,6.61-0.17s1.1-0.84,2.2-2.02
		c1.26-1.34,1.89-2.35,1.89-2.35s0.16-2.02,0.16-4.7c0-2.69-0.16-4.37-0.16-4.37s-0.63-1.18-1.89-2.35c-1.26-1.34-2.2-2.02-2.2-2.02
		s-2.99-0.5-8.19-0.5c-5.04,0-8.03,0.5-8.03,0.5l-1.26,2.18l0.16,2.35l1.42-0.17v26.04h5.04V289.06z M116.62,275.28
		c0,0,1.73-0.17,2.68-0.17c3.62,0,6.3,0.34,6.3,0.34s0.31,0.17,0.63,0.67c0.31,0.34,0.63,0.67,0.63,0.67s0.16,1.34,0.16,3.02
		c0,1.68-0.16,3.36-0.16,3.36s-0.16,0.34-0.63,0.67c-0.31,0.34-0.63,0.67-0.63,0.67s-1.42,0.17-4.72,0.17
		c-2.2,0-4.25-0.17-4.25-0.17V275.28z"/>
	<path style="fill:#FFFFFF;" d="M140.07,301.32c0,0,2.68,0.17,6.61,0.17s6.61-0.17,6.61-0.17s1.1-0.84,2.2-2.02
		c1.26-1.34,1.89-2.35,1.89-2.35s0.63-4.54,0.63-10.75c0-6.22-0.63-10.75-0.63-10.75s-0.63-1.18-1.89-2.35
		c-1.26-1.34-2.2-2.02-2.2-2.02s-2.68-0.17-6.61-0.17s-6.61,0.17-6.61,0.17s-1.1,0.84-2.2,2.02c-1.26,1.34-1.89,2.35-1.89,2.35
		s-0.63,4.54-0.63,10.75c0,6.21,0.63,10.75,0.63,10.75s0.63,1.17,1.89,2.35C139.13,300.65,140.07,301.32,140.07,301.32z
		 M140.86,276.63c0,0,0.16-0.34,0.63-0.67c0.31-0.34,0.63-0.67,0.63-0.67s2.36-0.17,4.72-0.17c2.36,0,4.72,0.17,4.72,0.17
		s0.31,0.17,0.63,0.67c0.32,0.5,0.63,0.67,0.63,0.67s0.47,3.36,0.47,9.41s-0.47,9.41-0.47,9.41s-0.16,0.33-0.63,0.67
		c-0.31,0.34-0.63,0.67-0.63,0.67s-2.36,0.17-4.72,0.17c-2.36,0-4.72-0.17-4.72-0.17s-0.31-0.17-0.63-0.67
		c-0.31-0.34-0.63-0.67-0.63-0.67s-0.47-3.36-0.47-9.41S140.86,276.63,140.86,276.63z"/>
	<path style="fill:#FFFFFF;" d="M174.24,288.39c1.26,2.52,3.62,7.56,5.67,13.1h2.52l2.2-1.18c-1.89-5.04-3.94-9.58-5.35-12.43
		c0.47-0.34,1.1-0.84,1.73-1.68c1.26-1.34,1.89-2.35,1.89-2.35s0.16-1.34,0.16-4.2c0-2.86-0.16-4.03-0.16-4.03s-0.63-1.18-1.89-2.35
		c-1.26-1.18-2.2-2.02-2.2-2.02s-2.99-0.5-8.19-0.5c-5.04,0-8.03,0.5-8.03,0.5l-1.26,2.18l0.16,2.35l1.42-0.17v26.04h4.88v-13.27
		c0,0,1.89,0.17,4.25,0.17h2.2V288.39z M168.1,275.28c0,0,1.73-0.17,2.68-0.17c3.62,0,6.3,0.34,6.3,0.34s0.31,0.17,0.63,0.67
		c0.31,0.5,0.63,0.67,0.63,0.67s0.16,1.34,0.16,2.69c0,1.51-0.16,2.86-0.16,2.86s-0.16,0.33-0.63,0.67
		c-0.47,0.34-0.63,0.67-0.63,0.67s-1.73,0.17-4.72,0.17c-2.2,0-4.25-0.17-4.25-0.17V275.28z"/>
	<path style="fill:#FFFFFF;" d="M186.99,275.62c0,0,3.62-0.34,8.03-0.34v26.21h4.88v-26.21c4.25,0.17,8.03,0.34,8.03,0.34l0.16-2.86
		l-1.26-1.85c0,0-3.78-0.34-9.45-0.34c-5.67,0-9.45,0.34-9.45,0.34l-1.26,1.85L186.99,275.62z"/>
	<rect x="10.34" y="305.02" style="fill:#FFFFFF;" width="198.37" height="2.35"/>
</g>
<g>
	<g>
		<path style="fill:#FFFFFF;" d="M588.44,375.35c0-7.78,7.56-7.78,7.56-7.78v-7.78c0,0-7.56,0-7.56-7.78s7.56-7.78,7.56-7.78v-7.45
			c0,0-7.56,0-7.56-7.78c0-7.78,7.56-7.78,7.56-7.78v-7.78c0,0-7.56,0-7.56-7.78s7.56-7.78,7.56-7.78v-7.78c0,0-7.56,0-7.56-7.78
			s7.56-7.78,7.56-7.78v-7.78c0,0-7.56,0-7.56-7.78s7.56-7.78,7.56-7.78v-6.81c0,0-7.56,0-7.56-7.78c0-7.78,7.56-7.78,7.56-7.78
			v-7.78H356.69v169.34H596v-7.78C595.84,382.97,588.44,382.97,588.44,375.35z M580.89,382.97H363.93V229.02h216.95V382.97z"/>
		<path style="fill:#F16548;" d="M304.11,221.41h-29.91v7.78c0,0,7.56,0,7.56,7.78s-7.56,7.78-7.56,7.78v7.78c0,0,7.56,0,7.56,7.78
			s-7.56,7.78-7.56,7.78v7.78c0,0,7.56,0,7.56,7.78s-7.56,7.78-7.56,7.78v7.78c0,0,7.56,0,7.56,7.78s-7.56,7.78-7.56,7.78v7.78
			c0,0,7.56,0,7.56,7.78s-7.56,7.78-7.56,7.78v7.78c0,0,7.56,0,7.56,7.78c0,7.78-7.56,7.78-7.56,7.78v7.78c0,0,7.56,0,7.56,7.78
			s-7.56,7.78-7.56,7.78v7.78h29.91h52.43V221.41H304.11z M348.98,382.97h-59.83V229.02h59.83V382.97z"/>
		<path style="fill:#FFFFFF;" d="M289.15,229.02v153.94h59.83V229.02H289.15z M341.58,375.35h-44.87v-7.78h44.87V375.35z
			 M341.58,359.96h-44.87v-15.39h44.87V359.96z M341.58,336.79h-44.87v-7.78h44.87V336.79z M341.58,321.39h-44.87v-7.78h44.87
			V321.39z M341.58,306h-44.87v-30.79h44.87V306z M341.58,267.59h-44.87v-7.78h44.87V267.59z M341.58,252.2h-44.87V236.8h44.87
			V252.2z"/>
		<path style="fill:#4C9BA8;" d="M363.93,382.97h216.95V229.02H363.93V382.97z M413.84,306c0-1.13,1.57-2.59,4.09-3.73l-5.35-25.77
			h4.09l13.54,21.71c4.72-0.97,9.76-1.62,14.33-1.62l21.25-0.81v-17.34l-10.23-40.03h10.23l29.13,56.39l16.37-0.65
			c18.73,0,33.85,5.19,33.85,11.67c0,6.48-15.11,11.67-33.85,11.67l-16.37-0.65l-29.13,56.39h-10.23l10.23-40.02v-17.34l-21.25-0.81
			c-4.57,0-9.76-0.65-14.33-1.62l-13.54,21.71h-4.09l5.35-25.76C415.42,308.59,413.84,307.29,413.84,306z"/>
		<rect x="296.71" y="367.57" style="fill:#4D4D4D;" width="44.87" height="7.78"/>
		<rect x="296.71" y="344.56" style="fill:#4D4D4D;" width="44.87" height="15.39"/>
		<rect x="296.71" y="236.8" style="fill:#4D4D4D;" width="44.87" height="15.39"/>
		<rect x="296.71" y="275.21" style="fill:#4D4D4D;" width="44.87" height="30.79"/>
		<rect x="296.71" y="329.17" style="fill:#4D4D4D;" width="44.87" height="7.78"/>
		<rect x="296.71" y="313.77" style="fill:#4D4D4D;" width="44.87" height="7.78"/>
		<rect x="296.71" y="259.81" style="fill:#4D4D4D;" width="44.87" height="7.78"/>
		<path style="fill:#434747;" d="M416.68,335.49l13.54-21.71c4.72,0.97,9.76,1.62,14.33,1.62l21.25,0.81v17.34l-10.23,40.03h10.23
			l29.13-56.39l16.37,0.65c18.73,0,33.85-5.19,33.85-11.67c0-6.48-15.11-11.67-33.85-11.67l-16.37,0.65l-29.13-56.39h-10.23
			l10.23,40.02v17.34l-21.25,0.81c-4.57,0-9.76,0.65-14.33,1.62l-13.54-21.71h-4.09l5.35,25.77c-2.52,1.3-4.09,2.59-4.09,3.73
			c0,1.13,1.57,2.59,4.09,3.73l-5.35,25.76h4.09V335.49z M525.31,298.22c3.62,2.11,5.98,4.86,5.98,7.78s-2.2,5.83-5.98,7.78
			c1.57-2.43,2.36-5.02,2.36-7.78C527.67,303.24,526.88,300.49,525.31,298.22z"/>
		<path style="fill:#FFFFFF;" d="M531.29,306c0-3.08-2.2-5.83-5.98-7.78c1.57,2.43,2.36,5.02,2.36,7.78c0,2.75-0.94,5.51-2.36,7.78
			C528.93,311.83,531.29,309.08,531.29,306z"/>
	</g>
	<g>
		<path style="fill:#FFFFFF;" d="M586.08,185.43c0-7.62,7.4-7.62,7.4-7.62v-7.62c0,0-7.4,0-7.4-7.62s7.4-7.62,7.4-7.62v-7.62
			c0,0-7.4,0-7.4-7.62s7.4-7.62,7.4-7.62v-7.62c0,0-7.4,0-7.4-7.62c0-7.62,7.4-7.62,7.4-7.62v-7.62c0,0-7.4,0-7.4-7.62
			s7.4-7.62,7.4-7.62v-7.62c0,0-7.4,0-7.4-7.62s7.4-7.62,7.4-7.62v-8.75c0,0-7.4,0-7.4-7.62c0-7.62,7.4-7.62,7.4-7.62v-7.62H354.49
			v169.18h239.15v-7.62C593.48,193.21,586.08,193.21,586.08,185.43z M578.52,193.21H361.89V39.43h216.64V193.21z"/>
		<path style="fill:#F16548;" d="M302.06,31.65h-29.91v7.62c0,0,7.4,0,7.4,7.62c0,7.62-7.4,7.62-7.4,7.62v7.62c0,0,7.4,0,7.4,7.62
			s-7.4,7.62-7.4,7.62v7.62c0,0,7.4,0,7.4,7.62c0,7.62-7.4,7.62-7.4,7.62v7.62c0,0,7.4,0,7.4,7.62s-7.4,7.62-7.4,7.62v7.62
			c0,0,7.4,0,7.4,7.62s-7.4,7.62-7.4,7.62v7.62c0,0,7.4,0,7.4,7.62c0,7.62-7.4,7.62-7.4,7.62v7.62c0,0,7.4,0,7.4,7.62
			c0,7.62-7.4,7.62-7.4,7.62v7.62h29.91h52.27V31.65H302.06z M346.93,193.21H287.1V39.43h59.83V193.21z"/>
		<path style="fill:#FFFFFF;" d="M287.1,39.43v153.78h59.83V39.43H287.1z M339.53,185.43h-44.87v-7.62h44.87V185.43z M339.53,170.04
			h-44.87v-15.39h44.87V170.04z M339.53,147.03h-44.87v-7.62h44.87V147.03z M339.53,131.63h-44.87v-7.62h44.87V131.63z
			 M339.53,116.24h-44.87V85.45h44.87V116.24z M339.53,77.84h-44.87v-7.62h44.87V77.84z M339.53,62.44h-44.87V47.05h44.87V62.44z"/>
		<path style="fill:#96D4C8;" d="M474.14,69.9v-9.72h-17.16v9.72c2.83-0.49,5.67-0.81,8.66-0.81
			C468.63,69.09,471.47,69.25,474.14,69.9z"/>
		<path style="fill:#96D4C8;" d="M361.89,193.21h216.64V39.43H361.89V193.21z M419.67,45.43c1.57,0,2.83,1.3,2.83,2.92
			c0,0,0,1.78,0.79,3.24c0.94,1.78,2.52,2.59,4.88,2.59h74.63c0,0,1.57,0,3.15-0.81c1.73-0.97,2.52-2.59,2.52-5.02
			c0-1.62,1.26-2.92,2.83-2.92c1.57,0,2.83,1.3,2.83,2.92c0,8.59-6.93,11.83-11.49,11.83h-22.99v11.18
			c18.26,6.16,31.49,23.98,31.49,44.89v41.32c0,11.83-11.49,11.83-11.49,11.83h-1.73l6.61,6.81l0,0l5.67,5.83
			c1.1,1.13,1.1,3.08,0,4.21c-0.63,0.65-1.26,0.81-2.05,0.81c-0.79,0-1.42-0.32-2.05-0.81l-4.88-5.02h-72.27l-4.88,5.02
			c-0.63,0.65-1.26,0.81-2.05,0.81s-1.42-0.32-2.05-0.81c-1.1-1.13-1.1-3.08,0-4.21l12.28-12.64h-1.73
			c-11.49,0-11.49-11.83-11.49-11.83v-41.32c0-20.9,13.23-38.73,31.49-44.89V60.17h-22.99c-8.34,0-11.49-7.13-11.49-11.83
			C416.83,46.72,418.09,45.43,419.67,45.43z"/>
		<polygon style="fill:#96D4C8;" points="440.92,169.39 435.25,175.39 496.03,175.39 490.2,169.39 		"/>
		<rect x="294.66" y="177.82" style="fill:#4D4D4D;" width="44.87" height="7.62"/>
		<rect x="294.66" y="154.81" style="fill:#4D4D4D;" width="44.87" height="15.39"/>
		<rect x="294.66" y="47.05" style="fill:#4D4D4D;" width="44.87" height="15.39"/>
		<rect x="294.66" y="85.45" style="fill:#4D4D4D;" width="44.87" height="30.79"/>
		<rect x="294.66" y="139.41" style="fill:#4D4D4D;" width="44.87" height="7.62"/>
		<rect x="294.66" y="124.02" style="fill:#4D4D4D;" width="44.87" height="7.62"/>
		<rect x="294.66" y="70.06" style="fill:#4D4D4D;" width="44.87" height="7.62"/>
		<path style="fill:#FFFFFF;" d="M433.21,91.77c-5.04,7.13-7.71,15.56-7.71,24.47v8.91h37.31V75.08c-1.57,0.16-3.15,0.32-4.72,0.65
			l-2.52,0.49l-2.52,0.81C445.02,79.62,438.25,84.8,433.21,91.77z"/>
		<path style="fill:#FFFFFF;" d="M468.47,75.08v50.07h37.31v-8.91c0-8.91-2.68-17.34-7.87-24.47c-5.04-6.97-11.81-12.15-19.84-14.75
			l-2.52-0.81l-2.52-0.49C471.62,75.41,470.05,75.24,468.47,75.08z"/>
		<path style="fill:#434747;" d="M428.33,60.17h22.99v11.18c-18.26,6.16-31.49,23.98-31.49,44.89v41.32c0,0,0,11.83,11.49,11.83
			h1.73l-12.28,12.64c-1.1,1.13-1.1,3.08,0,4.21c0.63,0.65,1.26,0.81,2.05,0.81s1.42-0.32,2.05-0.81l4.88-5.02h72.26l4.88,5.02
			c0.63,0.65,1.26,0.81,2.05,0.81c0.79,0,1.42-0.32,2.05-0.81c1.1-1.13,1.1-3.08,0-4.21l-5.67-5.83l0,0l-6.61-6.81h1.73
			c0,0,11.49,0,11.49-11.83v-41.32c0-20.9-13.22-38.73-31.49-44.89V60.17h22.99c4.57,0,11.49-3.08,11.49-11.83
			c0-1.62-1.26-2.92-2.83-2.92c-1.57,0-2.83,1.3-2.83,2.92c0,2.43-0.79,4.05-2.52,5.02c-1.57,0.81-3.15,0.81-3.15,0.81h-74.63
			c-2.36,0-3.94-0.81-4.88-2.59c-0.79-1.46-0.79-3.24-0.79-3.24c0-1.62-1.26-2.92-2.83-2.92c-1.57,0-2.83,1.3-2.83,2.92
			C416.83,53.04,419.83,60.17,428.33,60.17z M428.33,139.9c-2.83,0-2.83-2.92-2.83-2.92v-6h17.16v5.83c0,2.92-2.83,2.92-2.83,2.92
			h-11.49V139.9z M435.25,175.39l5.67-5.83h49.28l5.67,5.83H435.25z M505.79,136.98c0,2.92-2.83,2.92-2.83,2.92h-11.49
			c-2.83,0-2.83-2.92-2.83-2.92v-6h17.16V136.98z M478.08,77.03c8.03,2.75,14.8,7.78,19.84,14.75c5.04,7.13,7.87,15.56,7.87,24.47
			v8.91h-37.31V75.08c1.58,0.16,3.15,0.32,4.72,0.65l2.52,0.49L478.08,77.03z M456.98,60.17h17.16v9.72
			c-2.83-0.49-5.67-0.81-8.66-0.81c-2.99,0-5.83,0.32-8.66,0.81v-9.72H456.98z M455.56,76.22l2.52-0.49
			c1.57-0.32,3.15-0.49,4.72-0.65v50.07h-37.31v-8.91c0-8.91,2.68-17.34,7.71-24.47c5.04-6.97,11.81-12.15,19.84-14.75L455.56,76.22
			z"/>
		<path style="fill:#FFFFFF;" d="M442.65,136.98v-6h-17.16v5.83c0,0,0,2.92,2.83,2.92h11.49
			C439.82,139.9,442.65,139.9,442.65,136.98z"/>
		<path style="fill:#FFFFFF;" d="M488.47,136.98c0,0,0,2.92,2.83,2.92h11.49c0,0,2.83,0,2.83-2.92v-6h-17.16V136.98z"/>
	</g>
</g>
</svg>
