<?xml version="1.0" encoding="utf-8"?>
<!-- Generator: Adobe Illustrator 16.0.0, SVG Export Plug-In . SVG Version: 6.00 Build 0)  -->
<!DOCTYPE svg PUBLIC "-//W3C//DTD SVG 1.1//EN" "http://www.w3.org/Graphics/SVG/1.1/DTD/svg11.dtd">
<svg version="1.1" id="Layer_1" xmlns="http://www.w3.org/2000/svg" xmlns:xlink="http://www.w3.org/1999/xlink" x="0px" y="0px" viewBox="0 0 366 208.6" style="enable-background:new 0 0 366 208.6;" xml:space="preserve">
<style type="text/css">
<![CDATA[
	.st0{fill:#E6E6E6;}
	.st1{fill:#8D939E;}
	.st2{fill:#F16548;}
	.st3{fill:#FFFFFF;}
	.st4{fill:#CCCCCC;}
	.st5{fill:#DBEFF0;}
	.st6{fill:#434747;}
]]>
</style>
<g id="mail">
	<g>
		<polygon class="st0" points="229,136.4 92.1,0 92.1,191.7 366,191.7 366,0 		"/>
		<polygon class="st1" points="229,136.4 366,0 229,126.3 92.1,0 		"/>
		<polygon class="st3" points="229,126.3 366,0 92.1,0 		"/>
	</g>
	<g>
		<polygon class="st3" points="0,208.6 14.4,208.6 0,194.1 		"/>
		<polygon class="st3" points="248.1,24.8 262.5,39.2 262.5,24.8 		"/>
		<polygon class="st2" points="13.6,196.5 13.6,192.7 0,179.1 0,194.1 14.4,208.6 29.5,208.6 17.4,196.5 		"/>
		<polygon class="st2" points="33.3,196.5 45.4,208.6 60.4,208.6 48.4,196.5 		"/>
		<polygon class="st2" points="13.6,161.8 0,148.1 0,163.2 13.6,176.8 		"/>
		<polygon class="st2" points="64.3,196.5 76.3,208.6 91.4,208.6 79.3,196.5 		"/>
		<polygon class="st2" points="13.6,130.8 0,117.2 0,132.2 13.6,145.8 		"/>
		<polygon class="st2" points="95.2,196.5 107.3,208.6 122.3,208.6 110.3,196.5 		"/>
		<polygon class="st2" points="13.6,99.8 0,86.2 0,101.3 13.6,114.9 		"/>
		<polygon class="st2" points="126.2,196.5 138.2,208.6 153.3,208.6 141.2,196.5 		"/>
		<polygon class="st2" points="13.6,68.9 0,55.3 0,70.3 13.6,83.9 		"/>
		<polygon class="st2" points="157.1,196.5 169.2,208.6 184.2,208.6 172.2,196.5 		"/>
		<polygon class="st2" points="13.6,37.9 0.5,24.8 0,24.8 0,39.4 13.6,53 		"/>
		<polygon class="st2" points="188.1,196.5 200.2,208.6 215.2,208.6 203.1,196.5 		"/>
		<polygon class="st2" points="43.5,36.9 31.4,24.8 16.4,24.8 28.4,36.9 		"/>
		<polygon class="st2" points="219,196.5 231.1,208.6 246.1,208.6 234.1,196.5 		"/>
		<polygon class="st2" points="74.4,36.9 62.4,24.8 47.3,24.8 59.4,36.9 		"/>
		<polygon class="st2" points="248.9,195.4 262.1,208.6 262.5,208.6 262.5,194 248.9,180.4 		"/>
		<polygon class="st2" points="105.4,36.9 93.3,24.8 78.3,24.8 90.4,36.9 		"/>
		<polygon class="st2" points="248.9,164.5 262.5,178.1 262.5,163 248.9,149.4 		"/>
		<polygon class="st2" points="136.3,36.9 124.3,24.8 109.2,24.8 121.3,36.9 		"/>
		<polygon class="st2" points="248.9,133.5 262.5,147.1 262.5,132.1 248.9,118.5 		"/>
		<polygon class="st2" points="167.3,36.9 155.2,24.8 140.2,24.8 152.3,36.9 		"/>
		<polygon class="st2" points="248.9,102.6 262.5,116.2 262.5,101.1 248.9,87.5 		"/>
		<polygon class="st2" points="198.3,36.9 186.2,24.8 171.2,24.8 183.2,36.9 		"/>
		<polygon class="st2" points="248.9,71.6 262.5,85.2 262.5,70.2 248.9,56.6 		"/>
		<polygon class="st2" points="229.2,36.9 217.1,24.8 202.1,24.8 214.2,36.9 		"/>
		<polygon class="st2" points="233.1,24.8 245.1,36.9 248.9,36.9 248.9,40.6 262.5,54.3 262.5,39.2 248.1,24.8 		"/>
		<path class="st3" d="M199.1,77.5c0.3,0.1,0.6,0.1,0.9,0.2v-0.2H199.1z"/>
		<path class="st3" d="M248.9,36.9h-3.8l-12.1-12.1h-15.9l12.1,12.1h-15l-12.1-12.1h-15.9l12.1,12.1h-15l-12.1-12.1h-15.9l12.1,12.1
			h-15l-12.1-12.1h-15.9l12.1,12.1h-15l-12.1-12.1H93.3l12.1,12.1h-15L78.3,24.8H62.4l12.1,12.1h-15L47.3,24.8H31.4l12.1,12.1h-15
			L16.4,24.8H0.5l13.2,13.1v15L0,39.4v15.9l13.6,13.6v15L0,70.3v15.9l13.6,13.6v15L0,101.3v15.9l13.6,13.6v15L0,132.2v15.9
			l13.6,13.6v15L0,163.2v15.9l13.6,13.6v3.8h3.8l12.1,12.1h15.9l-12.1-12.1h15l12.1,12.1h15.9l-12.1-12.1h15l12.1,12.1h15.9
			l-12.1-12.1h15l12.1,12.1h15.9l-12.1-12.1h15l12.1,12.1h15.9l-12.1-12.1h15l12.1,12.1h15.9l-12.1-12.1h15l12.1,12.1h15.9
			L219,196.5h15l12.1,12.1h15.9l-13.1-13.1v-15l13.6,13.6v-15.9l-13.6-13.6v-15l13.6,13.6v-15.9l-13.6-13.6v-15l13.6,13.6v-15.9
			l-13.6-13.6v-15l13.6,13.6V85.2l-13.6-13.6v-15l13.6,13.6V54.3l-13.6-13.6V36.9z M230.9,152.3v7.1h-92.7v-7.1H230.9z M138.2,181.8
			v-7.1h55.6v7.1H138.2z M230.9,168.1h-92.7V161h92.7V168.1z M230.2,71c0.4,0,0.6,0.3,0.6,0.6v0.9c0,0.4-0.3,0.6-0.6,0.6h-1.8v2.2
			h1.8c0.4,0,0.6,0.3,0.6,0.6v0.9c0,0.4-0.3,0.6-0.6,0.6h-1.8v2.2h1.8c0.4,0,0.6,0.3,0.6,0.6v0.9c0,0.4-0.3,0.6-0.6,0.6h-1.8v2.2
			h1.8c0.4,0,0.6,0.3,0.6,0.6v0.9c0,0.4-0.3,0.6-0.6,0.6h-1.8V88c0,0.4-0.3,0.6-0.6,0.6h-0.9c-0.4,0-0.6-0.3-0.6-0.6v-1.8H224V88
			c0,0.4-0.3,0.6-0.6,0.6h-0.9c-0.4,0-0.6-0.3-0.6-0.6v-1.8h-2.2V88c0,0.4-0.3,0.6-0.6,0.6h-0.9c-0.4,0-0.6-0.3-0.6-0.6v-1.8h-2.2
			V88c0,0.4-0.3,0.6-0.6,0.6h-0.9c-0.4,0-0.6-0.3-0.6-0.6v-1.8h-2.2V88c0,0.4-0.3,0.6-0.6,0.6h-0.9c-0.4,0-0.6-0.3-0.6-0.6v-1.8
			h-2.2V88c0,0.4-0.3,0.6-0.6,0.6H205c-0.4,0-0.6-0.3-0.6-0.6v-1.8h-2.2V88c0,0.4-0.3,0.6-0.6,0.6h-0.9c-0.4,0-0.6-0.3-0.6-0.6v-1.8
			h-1.8c-0.4,0-0.6-0.3-0.6-0.6v-0.9c0-0.4,0.3-0.6,0.6-0.6h1.8v-2.2h-1.8c-0.4,0-0.6-0.3-0.6-0.6v-0.4c-1.3-0.1-2.8,0.2-4.2,1.2
			c-0.2,0.2-0.5,0.1-0.7-0.1c-0.2-0.2-0.1-0.5,0.1-0.7c1.7-1.2,3.4-1.5,5-1.4c0.1-0.1,0.3-0.2,0.5-0.2h1.8v-0.9
			c-1.8-0.5-4.3-1-6.7,0.7c-0.2,0.2-0.5,0.1-0.7-0.1c-0.2-0.2-0.1-0.5,0.1-0.7c1.7-1.2,3.4-1.5,5-1.4c-0.1-0.1-0.2-0.3-0.2-0.4V76
			c0-0.1,0-0.2,0.1-0.3c-1.4-0.1-2.9,0.1-4.3,1.2c-0.2,0.2-0.5,0.1-0.7-0.1c-0.2-0.2-0.1-0.5,0.1-0.7c2.6-1.9,5.3-1.5,7.2-0.9v-2
			h-1.8c-0.4,0-0.6-0.3-0.6-0.6v-0.9c0-0.4,0.3-0.6,0.6-0.6h1.8v-2.2h-1.8c-0.4,0-0.6-0.3-0.6-0.6v-0.9c0-0.4,0.3-0.6,0.6-0.6h1.8
			v-2.2h-1.8c-0.4,0-0.6-0.3-0.6-0.6v-0.9c0-0.4,0.3-0.6,0.6-0.6h1.8V60h-1.8c-0.4,0-0.6-0.3-0.6-0.6v-0.9c0-0.4,0.3-0.6,0.6-0.6
			h1.8V56c0-0.4,0.3-0.6,0.6-0.6h0.9c0.4,0,0.6,0.3,0.6,0.6v1.8h2.2V56c0-0.4,0.3-0.6,0.6-0.6h0.9c0.4,0,0.6,0.3,0.6,0.6v1.8h2.2V56
			c0-0.4,0.3-0.6,0.6-0.6h0.9c0.4,0,0.6,0.3,0.6,0.6v1.8h2.2V56c0-0.4,0.3-0.6,0.6-0.6h0.9c0.4,0,0.6,0.3,0.6,0.6v1.8h2.2V56
			c0-0.4,0.3-0.6,0.6-0.6h0.9c0.4,0,0.6,0.3,0.6,0.6v1.8h2.2V56c0-0.4,0.3-0.6,0.6-0.6h0.9c0.4,0,0.6,0.3,0.6,0.6v1.8h2.2V56
			c0-0.4,0.3-0.6,0.6-0.6h0.9c0.4,0,0.6,0.3,0.6,0.6v1.8h1.8c0.4,0,0.6,0.3,0.6,0.6v0.9c0,0.4-0.3,0.6-0.6,0.6h-1.8v2.2h1.8
			c0.4,0,0.6,0.3,0.6,0.6v0.9c0,0.4-0.3,0.6-0.6,0.6h-1.8v2.2h1.8c0.4,0,0.6,0.3,0.6,0.6v0.9c0,0.4-0.3,0.6-0.6,0.6h-1.8V71H230.2z"
			/>
		<path class="st4" d="M201.5,80.8L201.5,80.8c0.2,0.1,0.3,0.1,0.4,0.1c0.1,0,0.1,0,0.2,0.1v-1.6c-0.2-0.1-0.4-0.1-0.5-0.2
			c-0.1,0-0.2-0.1-0.4-0.1l-0.1,0c-0.1,0-0.2-0.1-0.3-0.1c-0.3-0.1-0.6-0.2-0.9-0.3v0.9h-1.8c-0.2,0-0.3,0.1-0.5,0.2
			c1.3,0.1,2.6,0.5,3.5,0.8C201.3,80.7,201.4,80.8,201.5,80.8z"/>
		<path class="st4" d="M200,77.5v0.2c0.5,0.1,0.9,0.3,1.2,0.4c0.1,0,0.2,0.1,0.3,0.1l0.1,0c0.1,0,0.2,0.1,0.4,0.1
			c0.1,0,0.1,0,0.2,0.1v-1.6c-0.2-0.1-0.4-0.1-0.5-0.2c-0.1,0-0.2-0.1-0.4-0.1l-0.1,0c-0.1,0-0.2-0.1-0.3-0.1
			c-0.9-0.3-2-0.7-3.3-0.7c0,0.1-0.1,0.2-0.1,0.3v0.9c0,0.2,0.1,0.3,0.2,0.4c0.5,0,0.9,0.1,1.4,0.2H200z"/>
		<path class="st4" d="M230.2,68.8c0.4,0,0.6-0.3,0.6-0.6v-0.9c0-0.4-0.3-0.6-0.6-0.6h-1.8v-2.2h1.8c0.4,0,0.6-0.3,0.6-0.6v-0.9
			c0-0.4-0.3-0.6-0.6-0.6h-1.8V60h1.8c0.4,0,0.6-0.3,0.6-0.6v-0.9c0-0.4-0.3-0.6-0.6-0.6h-1.8V56c0-0.4-0.3-0.6-0.6-0.6h-0.9
			c-0.4,0-0.6,0.3-0.6,0.6v1.8H224V56c0-0.4-0.3-0.6-0.6-0.6h-0.9c-0.4,0-0.6,0.3-0.6,0.6v1.8h-2.2V56c0-0.4-0.3-0.6-0.6-0.6h-0.9
			c-0.4,0-0.6,0.3-0.6,0.6v1.8h-2.2V56c0-0.4-0.3-0.6-0.6-0.6h-0.9c-0.4,0-0.6,0.3-0.6,0.6v1.8h-2.2V56c0-0.4-0.3-0.6-0.6-0.6h-0.9
			c-0.4,0-0.6,0.3-0.6,0.6v1.8h-2.2V56c0-0.4-0.3-0.6-0.6-0.6H205c-0.4,0-0.6,0.3-0.6,0.6v1.8h-2.2V56c0-0.4-0.3-0.6-0.6-0.6h-0.9
			c-0.4,0-0.6,0.3-0.6,0.6v1.8h-1.8c-0.4,0-0.6,0.3-0.6,0.6v0.9c0,0.4,0.3,0.6,0.6,0.6h1.8v2.2h-1.8c-0.4,0-0.6,0.3-0.6,0.6v0.9
			c0,0.4,0.3,0.6,0.6,0.6h1.8v2.2h-1.8c-0.4,0-0.6,0.3-0.6,0.6v0.9c0,0.4,0.3,0.6,0.6,0.6h1.8v2.2h-1.8c-0.4,0-0.6,0.3-0.6,0.6v0.9
			c0,0.4,0.3,0.6,0.6,0.6h1.8v2c0.5,0.1,0.9,0.3,1.2,0.4c0.1,0,0.2,0.1,0.3,0.1l0.1,0c0.1,0,0.2,0.1,0.4,0.1c0.1,0,0.1,0,0.2,0.1V60
			h24.1v24.1h-24.1v-2c-0.2-0.1-0.4-0.1-0.5-0.2c-0.1,0-0.2-0.1-0.4-0.1l-0.1,0c-0.1,0-0.2-0.1-0.3-0.1c-0.9-0.3-2.1-0.7-3.4-0.8
			v0.4c0,0.4,0.3,0.6,0.6,0.6h1.8v2.2h-1.8c-0.4,0-0.6,0.3-0.6,0.6v0.9c0,0.4,0.3,0.6,0.6,0.6h1.8V88c0,0.4,0.3,0.6,0.6,0.6h0.9
			c0.4,0,0.6-0.3,0.6-0.6v-1.8h2.2V88c0,0.4,0.3,0.6,0.6,0.6h0.9c0.4,0,0.6-0.3,0.6-0.6v-1.8h2.2V88c0,0.4,0.3,0.6,0.6,0.6h0.9
			c0.4,0,0.6-0.3,0.6-0.6v-1.8h2.2V88c0,0.4,0.3,0.6,0.6,0.6h0.9c0.4,0,0.6-0.3,0.6-0.6v-1.8h2.2V88c0,0.4,0.3,0.6,0.6,0.6h0.9
			c0.4,0,0.6-0.3,0.6-0.6v-1.8h2.2V88c0,0.4,0.3,0.6,0.6,0.6h0.9c0.4,0,0.6-0.3,0.6-0.6v-1.8h2.2V88c0,0.4,0.3,0.6,0.6,0.6h0.9
			c0.4,0,0.6-0.3,0.6-0.6v-1.8h1.8c0.4,0,0.6-0.3,0.6-0.6v-0.9c0-0.4-0.3-0.6-0.6-0.6h-1.8v-2.2h1.8c0.4,0,0.6-0.3,0.6-0.6v-0.9
			c0-0.4-0.3-0.6-0.6-0.6h-1.8v-2.2h1.8c0.4,0,0.6-0.3,0.6-0.6V76c0-0.4-0.3-0.6-0.6-0.6h-1.8v-2.2h1.8c0.4,0,0.6-0.3,0.6-0.6v-0.9
			c0-0.4-0.3-0.6-0.6-0.6h-1.8v-2.2H230.2z"/>
		<path class="st5" d="M208.8,75.4c0.2-0.2,0.5-0.1,0.7,0.1c0.2,0.2,0.1,0.5-0.1,0.7c-1.1,0.8-2.4,1.2-3.8,1.2c-0.1,0-0.3,0-0.4,0
			c-1.1-0.1-2.1-0.3-3-0.6v1.6c0.8,0.3,1.9,0.6,3,0.7c1.4,0.1,2.5-0.3,3.6-1c0.2-0.2,0.5-0.1,0.7,0.1c0.2,0.2,0.1,0.5-0.1,0.7
			c-1.1,0.8-2.4,1.2-3.8,1.2c-0.1,0-0.3,0-0.4,0c-1.1-0.1-2.1-0.3-3-0.6V81c0.8,0.3,1.9,0.6,3,0.7c1.4,0.1,2.5-0.3,3.6-1
			c0.2-0.2,0.5-0.1,0.7,0.1c0.2,0.2,0.1,0.5-0.1,0.7c-1.1,0.8-2.4,1.2-3.8,1.2c-0.1,0-0.3,0-0.4,0c-1.1-0.1-2.1-0.3-3-0.6v2h24.1V60
			h-24.1v15.8c0.8,0.3,1.9,0.6,3,0.7C206.6,76.5,207.7,76.2,208.8,75.4z"/>
		<path class="st6" d="M201.2,76.5L201.2,76.5c0.2,0.1,0.3,0.1,0.4,0.1c0.2,0.1,0.3,0.1,0.5,0.2c0.8,0.3,1.9,0.5,3,0.6
			c0.1,0,0.3,0,0.4,0c1.4,0,2.7-0.4,3.8-1.2c0.2-0.2,0.3-0.5,0.1-0.7c-0.2-0.2-0.5-0.3-0.7-0.1c-1.1,0.8-2.2,1.1-3.6,1
			c-1.1-0.1-2.2-0.4-3-0.7c-0.1,0-0.1,0-0.2-0.1c-0.1,0-0.3-0.1-0.4-0.1l-0.1,0c-0.1,0-0.2-0.1-0.3-0.1c-0.4-0.1-0.8-0.3-1.2-0.4
			c-2-0.6-4.7-0.9-7.2,0.9c-0.2,0.2-0.3,0.5-0.1,0.7c0.2,0.2,0.5,0.3,0.7,0.1c1.4-1,2.9-1.3,4.3-1.2c1.3,0.1,2.4,0.5,3.3,0.7
			C201,76.5,201.1,76.5,201.2,76.5z"/>
		<path class="st6" d="M201.2,79.1L201.2,79.1c0.2,0.1,0.3,0.1,0.4,0.1c0.2,0.1,0.3,0.1,0.5,0.2c0.8,0.3,1.9,0.5,3,0.6
			c0.1,0,0.3,0,0.4,0c1.4,0,2.7-0.4,3.8-1.2c0.2-0.2,0.3-0.5,0.1-0.7c-0.2-0.2-0.5-0.3-0.7-0.1c-1.1,0.8-2.2,1.1-3.6,1
			c-1.1-0.1-2.2-0.4-3-0.7c-0.1,0-0.1,0-0.2-0.1c-0.1,0-0.3-0.1-0.4-0.1l-0.1,0c-0.1,0-0.2-0.1-0.3-0.1c-0.4-0.1-0.8-0.3-1.2-0.4
			c-0.3-0.1-0.6-0.2-0.9-0.2c-0.4-0.1-0.9-0.2-1.4-0.2c-1.6-0.1-3.3,0.1-5,1.4c-0.2,0.2-0.3,0.5-0.1,0.7c0.2,0.2,0.5,0.3,0.7,0.1
			c2.3-1.7,4.8-1.3,6.7-0.7c0.3,0.1,0.6,0.2,0.9,0.3C201,79.1,201.1,79.1,201.2,79.1z"/>
		<path class="st6" d="M201.2,81.7L201.2,81.7c0.2,0.1,0.3,0.1,0.4,0.1c0.2,0.1,0.3,0.1,0.5,0.2c0.8,0.3,1.9,0.5,3,0.6
			c0.1,0,0.3,0,0.4,0c1.4,0,2.7-0.4,3.8-1.2c0.2-0.2,0.3-0.5,0.1-0.7c-0.2-0.2-0.5-0.3-0.7-0.1c-1.1,0.8-2.2,1.1-3.6,1
			c-1.1-0.1-2.2-0.4-3-0.7c-0.1,0-0.1,0-0.2-0.1c-0.1,0-0.3-0.1-0.4-0.1l-0.1,0c-0.1,0-0.2-0.1-0.3-0.1c-0.9-0.3-2.1-0.7-3.5-0.8
			c-1.6-0.1-3.3,0.1-5,1.4c-0.2,0.2-0.3,0.5-0.1,0.7c0.2,0.2,0.5,0.3,0.7,0.1c1.4-1,2.9-1.3,4.2-1.2c1.3,0.1,2.5,0.5,3.4,0.8
			C201,81.7,201.1,81.7,201.2,81.7z"/>
		<rect x="138.2" y="152.3" class="st4" width="92.7" height="7.1"/>
		<rect x="138.2" y="161" class="st4" width="92.7" height="7.1"/>
		<rect x="138.2" y="174.7" class="st4" width="55.6" height="7.1"/>
	</g>
</g>
</svg>
