<?xml version="1.0" encoding="utf-8"?>
<!-- Generator: Adobe Illustrator 16.0.0, SVG Export Plug-In . SVG Version: 6.00 Build 0)  -->
<!DOCTYPE svg PUBLIC "-//W3C//DTD SVG 1.1//EN" "http://www.w3.org/Graphics/SVG/1.1/DTD/svg11.dtd">
<svg version="1.1" id="Layer_1" xmlns="http://www.w3.org/2000/svg" xmlns:xlink="http://www.w3.org/1999/xlink" x="0px" y="0px" viewBox="100.5 200.5 600 400" enable-background="new 100.5 200.5 600 400" xml:space="preserve">
<g>
	<polygon fill="#E6E6E6" points="474.611,422.458 250.961,199.625 250.961,512.8 698.424,512.8 698.424,199.625 	"/>
	<polygon fill="#8D939E" points="474.611,422.458 698.424,199.625 474.611,405.958 250.961,199.625 	"/>
	<polygon fill="#FFFFFF" points="474.611,405.958 698.424,199.625 250.961,199.625 	"/>
</g>
<g>
	<polygon fill="#FFFFFF" points="100.5,600.5 124.025,600.5 100.5,576.812 	"/>
	<polygon fill="#FFFFFF" points="505.813,300.231 529.339,323.757 529.339,300.231 	"/>
	<polygon fill="#F16548" points="122.718,580.732 122.718,574.524 100.5,552.307 100.5,576.812 124.025,600.5 148.693,600.5
		128.926,580.732 	"/>
	<polygon fill="#F16548" points="154.901,580.732 174.668,600.5 199.174,600.5 179.57,580.732 	"/>
	<polygon fill="#F16548" points="122.718,524.044 100.5,501.663 100.5,526.331 122.718,548.549 	"/>
	<polygon fill="#F16548" points="205.545,580.732 225.149,600.5 249.817,600.5 230.05,580.732 	"/>
	<polygon fill="#F16548" points="122.718,473.4 100.5,451.183 100.5,475.688 122.718,497.905 	"/>
	<polygon fill="#F16548" points="256.025,580.732 275.793,600.5 300.298,600.5 280.694,580.732 	"/>
	<polygon fill="#F16548" points="122.718,422.757 100.5,400.539 100.5,425.207 122.718,447.425 	"/>
	<polygon fill="#F16548" points="306.669,580.732 326.273,600.5 350.942,600.5 331.174,580.732 	"/>
	<polygon fill="#F16548" points="122.718,372.276 100.5,350.059 100.5,374.563 122.718,396.781 	"/>
	<polygon fill="#F16548" points="357.15,580.732 376.917,600.5 401.422,600.5 381.818,580.732 	"/>
	<polygon fill="#F16548" points="122.718,321.632 101.317,300.231 100.5,300.231 100.5,324.083 122.718,346.301 	"/>
	<polygon fill="#F16548" points="407.794,580.732 427.562,600.5 452.066,600.5 432.299,580.732 	"/>
	<polygon fill="#F16548" points="171.565,319.999 151.797,300.231 127.292,300.231 146.896,319.999 	"/>
	<polygon fill="#F16548" points="458.274,580.732 478.042,600.5 502.547,600.5 482.942,580.732 	"/>
	<polygon fill="#F16548" points="222.045,319.999 202.441,300.231 177.773,300.231 197.54,319.999 	"/>
	<polygon fill="#F16548" points="507.121,578.936 528.686,600.5 529.339,600.5 529.339,576.648 507.121,554.431 	"/>
	<polygon fill="#F16548" points="272.689,319.999 252.922,300.231 228.417,300.231 248.184,319.999 	"/>
	<polygon fill="#F16548" points="507.121,528.455 529.339,550.673 529.339,526.005 507.121,503.787 	"/>
	<polygon fill="#F16548" points="323.169,319.999 303.565,300.231 278.897,300.231 298.665,319.999 	"/>
	<polygon fill="#F16548" points="507.121,477.812 529.339,500.029 529.339,475.524 507.121,453.307 	"/>
	<polygon fill="#F16548" points="373.813,319.999 354.046,300.231 329.541,300.231 349.308,319.999 	"/>
	<polygon fill="#F16548" points="507.121,427.331 529.339,449.549 529.339,424.881 507.121,402.663 	"/>
	<polygon fill="#F16548" points="424.457,319.999 404.689,300.231 380.185,300.231 399.789,319.999 	"/>
	<polygon fill="#F16548" points="507.121,376.687 529.339,398.905 529.339,374.4 507.121,352.183 	"/>
	<polygon fill="#F16548" points="474.938,319.999 455.17,300.231 430.665,300.231 450.432,319.999 	"/>
	<polygon fill="#F16548" points="481.309,300.231 500.912,319.999 507.121,319.999 507.121,326.044 529.339,348.425
		529.339,323.757 505.813,300.231 	"/>
	<path fill="#FFFFFF" d="M425.764,386.326c0.49,0.162,0.98,0.162,1.471,0.326v-0.326H425.764z"/>
	<path fill="#FFFFFF" d="M507.121,319.999h-6.209l-19.767-19.768H455.17l19.768,19.768h-24.506l-19.767-19.768h-25.976
		l19.768,19.768h-24.506l-19.767-19.768h-25.976l19.768,19.768h-24.505l-19.768-19.768h-25.976l19.768,19.768h-24.505
		l-19.768-19.768h-26.302l19.767,19.768h-24.505l-19.768-19.768h-25.976l19.768,19.768h-24.505l-19.931-19.768h-25.976
		l19.768,19.768H147.06l-19.767-19.768h-25.976l21.564,21.4v24.506L100.5,324.083v25.976l22.218,22.218v24.505L100.5,374.563v25.976
		l22.218,22.218v24.505L100.5,425.207v25.976l22.218,22.218v24.505L100.5,475.688v25.976l22.218,22.218v24.505L100.5,526.331v25.976
		l22.218,22.218v6.208h6.208l19.768,19.768h25.975l-19.767-19.768h24.505l19.768,19.768h25.975l-19.768-19.768h24.505l19.768,19.768
		h25.975l-19.768-19.768h24.505l19.768,19.768h25.975l-19.768-19.768h24.505l19.768,19.768h25.975l-19.768-19.768h24.505
		l19.768,19.768h25.975l-19.767-19.768h24.505l19.768,19.768h25.975l-19.276-19.768h24.505l19.768,19.768h25.976l-21.401-21.4
		v-24.506l22.218,22.218v-25.975l-22.218-22.218v-24.506l22.218,22.218v-25.975l-22.218-22.218v-24.506l22.218,22.218v-25.975
		l-22.218-22.219v-24.505l22.218,22.218v-26.465l-22.218-22.219v-24.504l22.218,22.218v-25.976l-22.218-22.219V319.999z
		 M477.715,508.524v11.6H326.273v-11.6H477.715z M326.273,556.718v-11.599h90.832v11.599H326.273z M477.715,534.336H326.273v-11.599
		h151.441V534.336z M476.571,375.707c0.653,0,0.979,0.49,0.979,0.979v1.471c0,0.653-0.489,0.98-0.979,0.98h-2.94v3.594h2.94
		c0.653,0,0.979,0.49,0.979,0.98v1.471c0,0.653-0.489,0.979-0.979,0.979h-2.94v3.595h2.94c0.653,0,0.979,0.489,0.979,0.979v1.471
		c0,0.653-0.489,0.98-0.979,0.98h-2.94v3.594h2.94c0.653,0,0.979,0.49,0.979,0.979v1.471c0,0.653-0.489,0.98-0.979,0.98h-2.94v3.267
		c0,0.654-0.49,0.981-0.98,0.981h-1.471c-0.653,0-0.98-0.49-0.98-0.981v-2.939h-3.757v2.939c0,0.654-0.49,0.981-0.98,0.981h-1.47
		c-0.653,0-0.98-0.49-0.98-0.981v-2.939h-3.594v2.939c0,0.654-0.49,0.981-0.98,0.981h-1.471c-0.653,0-0.98-0.49-0.98-0.981v-2.939
		h-3.594v2.939c0,0.654-0.49,0.981-0.98,0.981h-1.47c-0.653,0-0.98-0.49-0.98-0.981v-2.939h-3.594v2.939
		c0,0.654-0.49,0.981-0.98,0.981h-1.471c-0.653,0-0.98-0.49-0.98-0.981v-2.939h-3.594v2.939c0,0.654-0.489,0.981-0.98,0.981h-1.959
		c-0.654,0-0.98-0.49-0.98-0.981v-2.939h-3.595v2.939c0,0.654-0.49,0.981-0.98,0.981h-1.47c-0.653,0-0.98-0.49-0.98-0.981v-2.939
		h-2.94c-0.653,0-0.98-0.49-0.98-0.981v-1.47c0-0.653,0.49-0.979,0.98-0.979h2.94v-3.595h-2.94c-0.653,0-0.98-0.489-0.98-0.98
		v-0.653c-2.124-0.163-4.574,0.327-6.861,1.961c-0.326,0.326-0.817,0.163-1.144-0.163c-0.327-0.327-0.163-0.817,0.164-1.145
		c2.777-1.96,5.554-2.45,8.168-2.287c0.163-0.163,0.489-0.326,0.816-0.326h2.941v-1.471c-2.941-0.816-7.025-1.634-10.946,1.145
		c-0.326,0.326-0.817,0.163-1.144-0.164c-0.327-0.326-0.163-0.817,0.164-1.144c2.777-1.96,5.554-2.45,8.168-2.287
		c-0.163-0.163-0.327-0.49-0.327-0.653v-1.47c0-0.164,0-0.327,0.164-0.491c-2.287-0.163-4.738,0.164-7.025,1.961
		c-0.326,0.327-0.816,0.163-1.144-0.163c-0.327-0.327-0.163-0.817,0.164-1.144c4.247-3.104,8.657-2.451,11.762-1.471v-3.268h-2.94
		c-0.653,0-0.98-0.49-0.98-0.979v-1.471c0-0.653,0.49-0.98,0.98-0.98h2.94v-3.594h-2.94c-0.653,0-0.98-0.49-0.98-0.98v-1.471
		c0-0.653,0.49-0.979,0.98-0.979h2.94v-3.594h-2.94c-0.653,0-0.98-0.49-0.98-0.981v-1.47c0-0.653,0.49-0.98,0.98-0.98h2.94v-4.083
		h-2.94c-0.653,0-0.98-0.49-0.98-0.981v-1.47c0-0.653,0.49-0.98,0.98-0.98h2.94v-3.104c0-0.654,0.49-0.98,0.98-0.98h1.471
		c0.653,0,0.979,0.49,0.979,0.98v2.941h3.595v-2.941c0-0.654,0.489-0.98,0.98-0.98h1.47c0.653,0,0.98,0.49,0.98,0.98v2.941h3.594
		v-2.941c0-0.654,0.49-0.98,0.98-0.98h1.47c0.654,0,0.98,0.49,0.98,0.98v2.941h3.595v-2.941c0-0.654,0.489-0.98,0.979-0.98h1.471
		c0.653,0,0.979,0.49,0.979,0.98v2.941h3.595v-2.941c0-0.654,0.49-0.98,0.979-0.98h1.471c0.653,0,0.98,0.49,0.98,0.98v2.941h3.594
		v-2.941c0-0.654,0.49-0.98,0.98-0.98h1.471c0.652,0,0.979,0.49,0.979,0.98v2.941h3.595v-2.941c0-0.654,0.49-0.98,0.979-0.98h1.471
		c0.653,0,0.979,0.49,0.979,0.98v2.941h2.941c0.653,0,0.979,0.489,0.979,0.979v1.471c0,0.654-0.489,0.98-0.979,0.98h-2.941v3.594
		h2.941c0.653,0,0.979,0.49,0.979,0.98v1.47c0,0.653-0.489,0.98-0.979,0.98h-2.941v3.594h2.941c0.653,0,0.979,0.491,0.979,0.98
		v1.471c0,0.653-0.489,0.979-0.979,0.979h-2.941v4.085H476.571z"/>
	<path fill="#CCCCCC" d="M429.686,391.717L429.686,391.717c0.326,0.163,0.489,0.163,0.652,0.163c0.164,0,0.164,0,0.327,0.164v-2.614
		c-0.327-0.163-0.653-0.163-0.817-0.326c-0.162,0-0.326-0.164-0.653-0.164h-0.163c-0.164,0-0.326-0.163-0.49-0.163
		c-0.49-0.164-0.979-0.327-1.471-0.49v1.471h-2.939c-0.327,0-0.49,0.163-0.817,0.326c2.124,0.163,4.248,0.817,5.718,1.308
		C429.358,391.554,429.521,391.717,429.686,391.717z"/>
	<path fill="#CCCCCC" d="M427.234,386.326v0.326c0.816,0.163,1.471,0.49,1.96,0.653c0.164,0,0.327,0.164,0.491,0.164h0.162
		c0.164,0,0.327,0.163,0.654,0.163c0.163,0,0.163,0,0.326,0.164v-2.614c-0.326-0.164-0.653-0.164-0.816-0.327
		c-0.164,0-0.326-0.164-0.653-0.164h-0.164c-0.163,0-0.327-0.162-0.489-0.162c-1.471-0.49-3.268-1.145-5.392-1.145
		c0,0.164-0.163,0.327-0.163,0.491v1.47c0,0.327,0.163,0.49,0.326,0.653c0.816,0,1.471,0.163,2.287,0.327H427.234z"/>
	<path fill="#CCCCCC" d="M476.571,372.112c0.653,0,0.979-0.49,0.979-0.979v-1.471c0-0.653-0.489-0.979-0.979-0.979h-2.94v-3.595
		h2.94c0.653,0,0.979-0.49,0.979-0.98v-1.47c0-0.653-0.489-0.979-0.979-0.979h-2.94v-3.921h2.94c0.653,0,0.979-0.49,0.979-0.981
		v-1.47c0-0.653-0.489-0.98-0.979-0.98h-2.94v-3.104c0-0.654-0.49-0.98-0.98-0.98h-1.471c-0.653,0-0.98,0.49-0.98,0.98v2.941h-3.757
		v-2.941c0-0.654-0.49-0.98-0.98-0.98h-1.47c-0.653,0-0.98,0.49-0.98,0.98v2.941h-3.594v-2.941c0-0.654-0.49-0.98-0.98-0.98h-1.471
		c-0.653,0-0.98,0.49-0.98,0.98v2.941h-3.594v-2.941c0-0.654-0.49-0.98-0.98-0.98h-1.47c-0.653,0-0.98,0.49-0.98,0.98v2.941h-3.594
		v-2.941c0-0.654-0.49-0.98-0.98-0.98h-1.471c-0.653,0-0.98,0.49-0.98,0.98v2.941h-3.594v-2.941c0-0.654-0.489-0.98-0.98-0.98
		h-1.959c-0.654,0-0.98,0.49-0.98,0.98v2.941h-3.595v-2.941c0-0.654-0.49-0.98-0.98-0.98h-1.47c-0.653,0-0.98,0.49-0.98,0.98v2.941
		h-2.94c-0.653,0-0.98,0.489-0.98,0.979v1.471c0,0.654,0.49,0.98,0.98,0.98h2.94v3.594h-2.94c-0.653,0-0.98,0.49-0.98,0.98v1.47
		c0,0.653,0.49,0.98,0.98,0.98h2.94v3.594h-2.94c-0.653,0-0.98,0.491-0.98,0.98v1.471c0,0.653,0.49,0.979,0.98,0.979h2.94v3.595
		h-2.94c-0.653,0-0.98,0.49-0.98,0.98v1.47c0,0.654,0.49,0.98,0.98,0.98h2.94v3.268c0.817,0.164,1.47,0.49,1.961,0.653
		c0.163,0,0.327,0.163,0.489,0.163h0.164c0.163,0,0.326,0.163,0.653,0.163c0.163,0,0.163,0,0.326,0.164v-25.321h39.372v39.371
		h-39.372v-3.268c-0.326-0.163-0.653-0.163-0.816-0.327c-0.163,0-0.327-0.163-0.653-0.163h-0.163c-0.164,0-0.327-0.163-0.491-0.163
		c-1.47-0.49-3.43-1.144-5.554-1.308v0.653c0,0.654,0.49,0.98,0.979,0.98h2.941v3.595h-2.941c-0.652,0-0.979,0.49-0.979,0.979v1.47
		c0,0.654,0.49,0.981,0.979,0.981h2.941v2.939c0,0.654,0.49,0.981,0.98,0.981h1.471c0.652,0,0.979-0.49,0.979-0.981v-2.939h3.595
		v2.939c0,0.654,0.489,0.981,0.979,0.981h1.471c0.652,0,0.979-0.49,0.979-0.981v-2.939h3.594v2.939c0,0.654,0.491,0.981,0.98,0.981
		h1.471c0.653,0,0.98-0.49,0.98-0.981v-2.939h3.594v2.939c0,0.654,0.49,0.981,0.98,0.981h1.47c0.653,0,0.98-0.49,0.98-0.981v-2.939
		h3.594v2.939c0,0.654,0.491,0.981,0.98,0.981h1.471c0.653,0,0.98-0.49,0.98-0.981v-2.939h3.594v2.939
		c0,0.654,0.49,0.981,0.98,0.981h1.47c0.653,0,0.98-0.49,0.98-0.981v-2.939h3.594v2.939c0,0.654,0.49,0.981,0.98,0.981h1.471
		c0.653,0,0.98-0.49,0.98-0.981v-2.939h2.939c0.654,0,0.98-0.49,0.98-0.981v-1.47c0-0.653-0.49-0.979-0.98-0.979h-2.939v-3.595
		h2.939c0.654,0,0.98-0.489,0.98-0.98v-1.47c0-0.654-0.49-0.98-0.98-0.98h-2.939v-3.595h2.939c0.654,0,0.98-0.489,0.98-0.979v-1.633
		c0-0.654-0.49-0.981-0.98-0.981h-2.939v-3.594h2.939c0.654,0,0.98-0.49,0.98-0.979v-1.471c0-0.653-0.49-0.98-0.98-0.98h-2.939
		v-3.594h3.757V372.112z"/>
	<path fill="#DBEFF0" d="M441.61,382.895c0.327-0.326,0.817-0.163,1.145,0.164c0.326,0.326,0.163,0.817-0.164,1.144
		c-1.797,1.307-3.921,1.96-6.208,1.96c-0.163,0-0.49,0-0.653,0c-1.797-0.163-3.431-0.489-4.901-0.979v2.614
		c1.308,0.489,3.104,0.979,4.901,1.143c2.287,0.164,4.084-0.49,5.881-1.634c0.327-0.326,0.817-0.163,1.145,0.164
		c0.326,0.326,0.163,0.816-0.164,1.143c-1.797,1.308-3.921,1.961-6.208,1.961c-0.163,0-0.49,0-0.653,0
		c-1.797-0.164-3.431-0.49-4.901-0.979v2.45c1.308,0.489,3.104,0.98,4.901,1.144c2.287,0.163,4.084-0.49,5.881-1.634
		c0.327-0.326,0.817-0.163,1.145,0.163c0.326,0.327,0.163,0.816-0.164,1.144c-1.797,1.307-3.921,1.961-6.208,1.961
		c-0.163,0-0.49,0-0.653,0c-1.797-0.164-3.431-0.49-4.901-0.98v3.268h39.371v-39.371h-39.371v25.812
		c1.308,0.49,3.104,0.98,4.901,1.143C438.017,384.691,439.813,384.202,441.61,382.895z"/>
	<path fill="#434747" d="M429.194,384.691L429.194,384.691c0.327,0.164,0.491,0.164,0.653,0.164c0.327,0.163,0.49,0.163,0.817,0.327
		c1.307,0.49,3.104,0.816,4.9,0.979c0.164,0,0.491,0,0.654,0c2.287,0,4.411-0.653,6.208-1.96c0.327-0.326,0.489-0.817,0.163-1.144
		c-0.327-0.327-0.816-0.49-1.144-0.164c-1.797,1.308-3.594,1.797-5.882,1.635c-1.797-0.164-3.594-0.653-4.9-1.145
		c-0.163,0-0.163,0-0.327-0.163c-0.163,0-0.49-0.163-0.652-0.163h-0.164c-0.163,0-0.327-0.164-0.49-0.164
		c-0.653-0.163-1.307-0.489-1.961-0.653c-3.267-0.98-7.678-1.47-11.762,1.471c-0.327,0.327-0.49,0.817-0.164,1.144
		c0.327,0.327,0.817,0.49,1.145,0.163c2.287-1.634,4.737-2.124,7.024-1.96c2.124,0.163,3.921,0.817,5.392,1.144
		C428.867,384.691,429.031,384.691,429.194,384.691z"/>
	<path fill="#434747" d="M429.194,388.939L429.194,388.939c0.327,0.164,0.491,0.164,0.653,0.164c0.327,0.163,0.49,0.163,0.817,0.326
		c1.307,0.49,3.104,0.816,4.9,0.979c0.164,0,0.491,0,0.654,0c2.287,0,4.411-0.652,6.208-1.96c0.327-0.326,0.489-0.816,0.163-1.144
		c-0.327-0.326-0.816-0.49-1.144-0.163c-1.797,1.307-3.594,1.797-5.882,1.634c-1.797-0.164-3.594-0.653-4.9-1.144
		c-0.163,0-0.163,0-0.327-0.163c-0.163,0-0.49-0.164-0.652-0.164h-0.164c-0.163,0-0.327-0.163-0.49-0.163
		c-0.653-0.163-1.307-0.49-1.961-0.654c-0.489-0.162-0.979-0.326-1.47-0.326c-0.653-0.163-1.47-0.326-2.287-0.326
		c-2.614-0.163-5.392,0.163-8.169,2.287c-0.326,0.326-0.489,0.816-0.163,1.144c0.327,0.327,0.816,0.49,1.144,0.163
		c3.758-2.777,7.842-2.124,10.945-1.144c0.491,0.163,0.98,0.326,1.471,0.49C428.867,388.939,429.031,388.939,429.194,388.939z"/>
	<path fill="#434747" d="M429.194,393.188L429.194,393.188c0.327,0.163,0.491,0.163,0.653,0.163c0.327,0.163,0.49,0.163,0.817,0.327
		c1.307,0.489,3.104,0.816,4.9,0.979c0.164,0,0.491,0,0.654,0c2.287,0,4.411-0.653,6.208-1.96c0.327-0.327,0.489-0.817,0.163-1.144
		c-0.327-0.326-0.816-0.49-1.144-0.163c-1.797,1.307-3.594,1.797-5.882,1.634c-1.797-0.164-3.594-0.654-4.9-1.145
		c-0.163,0-0.163,0-0.327-0.163c-0.163,0-0.49-0.163-0.652-0.163h-0.164c-0.163,0-0.327-0.163-0.49-0.163
		c-1.47-0.49-3.431-1.145-5.718-1.308c-2.614-0.163-5.392,0.163-8.169,2.287c-0.326,0.327-0.489,0.817-0.163,1.144
		c0.327,0.327,0.816,0.49,1.144,0.164c2.288-1.634,4.738-2.124,6.862-1.961c2.123,0.163,4.083,0.816,5.554,1.308
		C428.867,393.188,429.031,393.188,429.194,393.188z"/>
	<rect x="326.273" y="508.524" fill="#CCCCCC" width="151.441" height="11.6"/>
	<rect x="326.273" y="522.737" fill="#CCCCCC" width="151.441" height="11.599"/>
	<rect x="326.273" y="545.119" fill="#CCCCCC" width="90.832" height="11.599"/>
</g>
</svg>
