<?xml version="1.0" encoding="utf-8"?>
<!-- Generator: Adobe Illustrator 16.0.0, SVG Export Plug-In . SVG Version: 6.00 Build 0)  -->
<!DOCTYPE svg PUBLIC "-//W3C//DTD SVG 1.1//EN" "http://www.w3.org/Graphics/SVG/1.1/DTD/svg11.dtd">
<svg version="1.1" id="Layer_1" xmlns="http://www.w3.org/2000/svg" xmlns:xlink="http://www.w3.org/1999/xlink" x="0px" y="0px" viewBox="0 0 390 259" style="enable-background:new 0 0 390 259;" xml:space="preserve">
<style type="text/css">
<![CDATA[
	.st0{fill:#E5E5E5;}
	.st1{fill:#F16548;}
	.st2{fill:#5AAEB4;}
	.st3{fill:#FFFFFF;}
	.st4{fill:none;stroke:#DA5C42;stroke-width:0;stroke-linecap:round;stroke-linejoin:round;}
	.st5{fill:#63BFC6;}
	.st6{fill:none;stroke:#F16548;stroke-width:0;stroke-linecap:round;stroke-linejoin:round;}
	.st7{fill:#DA5C42;}
]]>
</style>
<g id="map">
	<path class="st3" d="M276.3,124.6v7.6h0L276.3,124.6c0,0,0-3.8,4.9-3.8l0,0C276.3,120.8,276.3,124.6,276.3,124.6z"/>
	<path class="st3" d="M276.3,117l1.6,1.3L276.3,117c0,0-4.9,0-4.9-3.8c0,0-0.1,0-0.2,0c0.1,0,0.2,0,0.2,0
		C271.4,117,276.3,117,276.3,117z"/>
	<polygon class="st3" points="276.3,132.2 276.3,132.2 276.3,132.2 	"/>
	<path class="st3" d="M268.5,112.5C268.5,112.5,268.5,112.5,268.5,112.5C268.5,112.5,268.5,112.5,268.5,112.5z"/>
	<path class="st3" d="M269.1,112.8c0.9,0.3,1.7,0.4,2.1,0.4C270.8,113.1,270,113.1,269.1,112.8z"/>
	<path class="st3" d="M276.3,109.4h-9.8c0,0,0,0,0,0L276.3,109.4c0,0,4.9,0,4.9-3.8l0,0C281.2,109.4,276.3,109.4,276.3,109.4z"/>
	<path class="st3" d="M268.8,112.6c0.1,0,0.1,0,0.2,0.1C268.9,112.7,268.9,112.7,268.8,112.6z"/>
	<path class="st3" d="M230.4,59.3c0.4,0.3,0.9,0.5,1.7,0.5h0C231.3,59.8,230.7,59.6,230.4,59.3z"/>
	<path class="st3" d="M226.4,42.3c-0.7-0.8-1.9-1.6-4-1.6l0,7.6l0-7.6C224.5,40.7,225.7,41.5,226.4,42.3z"/>
	<path class="st3" d="M233,57.5L233,57.5L233,57.5c-0.4-0.2-0.7-0.5-0.8-1C232.3,57,232.7,57.3,233,57.5z"/>
	<path class="st3" d="M205.1,36.9c0,0,0,0-0.1,0C205.1,36.9,205.1,36.9,205.1,36.9z"/>
	<path class="st3" d="M232,51.5c-0.5-1.3-2.3-1.3-2.3-1.3l0,0C229.7,50.3,231.6,50.3,232,51.5z"/>
	<path class="st3" d="M261.6,113.2c0-3.8-4.9-3.8-4.9-3.8l0,0C256.7,109.4,261.6,109.4,261.6,113.2z"/>
	<path class="st3" d="M276.3,101.7L276.3,101.7c0,1.1,0.4,1.9,1,2.5C276.8,103.7,276.3,102.9,276.3,101.7z"/>
	<path class="st3" d="M205,36.9c-0.5,0-2.3-0.2-2.3-1.9l0,0C202.7,36.7,204.6,36.9,205,36.9z"/>
	<rect x="102" y="59.8" class="st3" width="0" height="1.9"/>
	<path class="st3" d="M104.3,71.2c-0.6-0.1-2.2-0.3-2.2-1.9l0,0C102,70.9,103.7,71.2,104.3,71.2z"/>
	<path class="st3" d="M15.3,248.8c0.7-0.9,0.8-1.9,0.8-2.1C16.1,246.9,16,247.9,15.3,248.8z"/>
	<path class="st3" d="M60.3,33.1h-4.9v0L60.3,33.1c0,3.6,4.3,3.8,4.9,3.8C64.6,36.9,60.3,36.7,60.3,33.1z"/>
	<path class="st3" d="M237.1,25.5c0,3.8,4.9,3.8,4.9,3.8l0,0C242,29.3,237.1,29.3,237.1,25.5l4.9-3.8l0,0L237.1,25.5z"/>
	<path class="st3" d="M280,10c0.6,0.2,1.2,0.3,1.2,0.3c0-0.4,0.1-0.7,0.3-0.9c-0.2,0.2-0.3,0.5-0.3,0.9
		C281.2,10.2,280.6,10.2,280,10z"/>
	<path class="st3" d="M222.3,29.3c0,0.4,0.3,3.8,4.9,3.8h4.9l0,0h-4.9C222.6,33.1,222.3,29.8,222.3,29.3z"/>
	<path class="st3" d="M104.5,82.7c0,0.1,0,0.2,0,0.3C104.5,82.9,104.5,82.8,104.5,82.7z"/>
	<path class="st3" d="M79.9,25.5v3.8c0,0,0,7.6-9.8,7.6c9.8,0,9.8-7.6,9.8-7.6V25.5c0-3.6-4.3-3.8-4.9-3.8
		C75.6,21.7,79.9,21.9,79.9,25.5z"/>
	<path class="st3" d="M65.2,22.3c-0.5,3.1-4.8,3.1-4.9,3.1l0,0C60.3,25.5,64.6,25.5,65.2,22.3z"/>
	<path class="st3" d="M99.6,86.5L99.6,86.5c3.7,0,4.6-2.1,4.8-3.2C104.2,84.3,103.3,86.5,99.6,86.5z"/>
	<path class="st3" d="M50.5,25.5c0,0,0-3.8,4.9-3.8C50.5,21.7,50.5,25.5,50.5,25.5c3.1,0,4.2,1.5,4.7,2.6
		C54.7,27,53.6,25.5,50.5,25.5z"/>
	<path class="st3" d="M104.4,75c-0.5,0-4.9-0.2-4.9-3.8v0C99.6,74.8,103.9,75,104.4,75z"/>
	<path class="st3" d="M94.7,78.9c0,0,0-2.4,2.5-3.4C94.7,76.4,94.7,78.9,94.7,78.9l0,7.6h0V78.9z"/>
	<path class="st3" d="M232,51.5c0.1,0.2,0.1,0.4,0.1,0.6C232.1,51.9,232.1,51.7,232,51.5z"/>
	<rect x="224.8" y="104.4" class="st3" width="0" height="6.2"/>
	<path class="st3" d="M232.1,105.6h-4.9v0L232.1,105.6c0-3.1,3.2-3.7,4.5-3.8C235.4,101.9,232.1,102.5,232.1,105.6z"/>
	<path class="st3" d="M202.7,117v-3.8c0,0,0-1,0.6-1.9c-0.6,1-0.6,1.9-0.6,1.9V117c0,0,0,3.8,4.9,3.8
		C202.7,120.8,202.7,117,202.7,117z"/>
	<rect x="200.2" y="57.9" class="st3" width="0" height="1.9"/>
	<polygon class="st3" points="202.7,44.5 205.1,46.4 202.7,44.5 	"/>
	<path class="st3" d="M15.3,248.8l-0.9,0.3v-17.7l0,0v-199l91.2-25V-1h0l0,0c-0.3,0-0.6,0-0.8,0c-0.1,0-0.2,0-0.3,0
		c-0.2,0-0.4,0-0.5,0.1c-0.1,0-0.2,0-0.4,0.1c-0.2,0-0.3,0.1-0.5,0.1c-0.1,0-0.2,0.1-0.4,0.1c-0.2,0-0.3,0.1-0.5,0.1l-0.2,0
		l-91.2,25c-4.3,1.2-7.2,4.3-7.2,7.9V249c0,2.7,1.7,5.2,4.5,6.8c1.8,1,4,1.5,6.2,1.5c1.2,0,2.4-0.2,3.6-0.5l87.6-24V224L15.3,248.8z
		"/>
	<path class="st3" d="M222.3,25.4l13.4-3.7l5.2-1.4l10.3-2.8l0.5,0.4v3.8h0v-3.8l-0.5-0.4l3.1-0.9l0,0l7.3-2l17.9-4.9l0,0l2.2-0.6
		l0,0l2.8-0.8l3.6-1V-1h0l0,0c-0.3,0-0.6,0-0.8,0c-0.1,0-0.2,0-0.3,0c-0.2,0-0.4,0-0.5,0.1c-0.1,0-0.2,0-0.4,0.1
		c-0.2,0-0.3,0.1-0.5,0.1c-0.1,0-0.2,0.1-0.4,0.1c-0.2,0-0.3,0.1-0.5,0.1l-0.2,0l-87.6,24v8.8L222.3,25.4z"/>
	<path class="st3" d="M237,238l-40.2,11v8.3c1.2,0,2.4-0.2,3.6-0.5l87.6-24V224L237,238z"/>
	<path class="st5" d="M104.5,139.9c-9.8,0-9.8,7.6-9.8,7.6v3.8l-4.9,3.8c-4.9,0-4.9,3.8-4.9,3.8h0c-9.8,0-9.8,7.6-9.8,7.6v7.6v2.6
		v8.8h0c-4.9,0-4.9,3.8-4.9,3.8h2.5v1.9l2.5,1.9c0,3.8,4.9,3.8,4.9,3.8c0,3.8,4.9,3.8,4.9,3.8v3.8c4.9,0,4.9,3.8,4.9,3.8
		c4.9,0,4.9,3.8,4.9,3.8h4.9h6v-76.1c-0.7-0.1-1.1-0.1-1.1-0.1V139.9z M99.5,158.9l0.1,0L99.5,158.9z"/>
	<path class="st5" d="M104.5,67.4c0,0,0,1.4,1.1,2.5V61c-0.7,0.6-1.1,1.4-1.1,2.6V67.4z"/>
	<path class="st5" d="M16.1,246.6c0,0,4.9,0,4.9-3.8c0-3.8,0-7.6,0-7.6s-4.9,0-4.9-3.8h-1.7l0,0V249l0.9-0.3
		C16,247.9,16.1,246.9,16.1,246.6C16.1,246.7,16.1,246.6,16.1,246.6z"/>
	<path class="st5" d="M104.3,71.2c0.1,0,0.2,0,0.2,0c0-1.9-2.5-1.9-2.5-1.9C102,70.9,103.7,71.2,104.3,71.2z"/>
	<path class="st5" d="M79.9,29.3v-3.8c0-3.6-4.3-3.8-4.9-3.8c0,0-0.1,0-0.1,0h-9.8c0,0.2,0,0.5-0.1,0.7c-0.5,3.1-4.9,3.1-4.9,3.1
		l0,0l0,0c0,0,0-3.8-4.9-3.8c-4.9,0-4.9,3.8-4.9,3.8c3.1,0,4.2,1.5,4.7,2.6c0.3,0.7,0.3,1.2,0.3,1.2v3.8h4.9c0,3.6,4.3,3.8,4.9,3.8
		c0,0,0.1,0,0.1,0h4.9C79.9,36.9,79.9,29.3,79.9,29.3z"/>
	<path class="st5" d="M104.5,60.1c0-0.1,0-0.2,0-0.3H102v1.9C102,61.7,104.2,61.7,104.5,60.1z"/>
	<path class="st5" d="M94.7,78.9v7.6h4.9c3.7,0,4.6-2.1,4.8-3.2c0-0.1,0-0.2,0-0.2c0-0.1,0-0.3,0-0.3c0,0,0,0,0,0v-3.8V75
		c0,0,0,0-0.1,0c-0.5,0-4.9-0.2-4.9-3.8V75c-1,0-1.8,0.2-2.4,0.4C94.7,76.4,94.7,78.9,94.7,78.9z"/>
	<path class="st5" d="M94.7,113.2c0,3.8,4.9,3.8,4.9,3.8s-4.9,0-4.9,3.8v7.6c0,0,0,3.8,4.9,3.8c4.9,0,4.9,3.8,4.9,3.8
		c0.4,0,0.8,0,1.1-0.1v-22.8H94.7z"/>
	<path class="st5" d="M196.8,137.8L196.8,137.8v0.1h0.9C197.8,138,197.3,138,196.8,137.8z"/>
	<path class="st5" d="M237,227.6c4.9,0,4.9-3.8,4.9-3.8h4.9c0-7.6,9.8-7.6,9.8-7.6l4.9-3.8v-3.8c4.9,0,4.9-3.8,4.9-3.8v-3.8
		c4.9,0,4.9-3.8,4.9-3.8v-3.8c-4.9,0-4.9,3.8-4.9,3.8l-0.1,0c0.1,0,0.1,0,0.1,0h-19.6v-3.8l-9.8-7.6c0-3.8-4.9-3.8-4.9-3.8V178
		c0,0,0-3.8-4.9-3.8v-3.8c0-3.8-4.9-3.8-4.9-3.8v-3.8c0-3.8-4.9-3.8-4.9-3.8v-3.8h4.9c0,0,0,3.8,4.9,3.8v3.8l9.8,7.6v3.8
		c0,0,0,3.8,4.9,3.8v3.8l4.9,3.8l0-0.1l0,0.1v3.8c0,0,0,3.8,4.9,3.8h4.9c0,0,0-3.8,4.9-3.8h4.9c0,0,4.9,0,4.9-3.8h4.9
		c0-3.8,4.9-3.8,4.9-3.8c3.2,0,5.4-0.8,6.8-1.9v0v-13.3h-1.9l-0.1,0l0.1,0v-3.8h-4.9c0,3.8-4.9,3.8-4.9,3.8h-4.9l-4.9-3.8v-3.8
		l-4.9-3.8v-3.8h4.9c0,7.6,9.8,7.6,9.8,7.6h9.8c0,1.6,0.9,2.6,1.9,3.1V8.3h-3.6l-2.8,0.8l0,0l0,0c-0.1,0.1-0.1,0.1-0.2,0.2
		c-0.2,0.2-0.3,0.5-0.3,0.9c0,0-0.6,0-1.2-0.3c-0.2-0.1-0.4-0.2-0.5-0.3l-17.9,4.9v3.3l0,0h-4.9c0,0-1.9,0-2.3-1.3l-3.1,0.9l0.5,0.4
		v3.8h0H242l-4.9,3.8c0,3.8,4.9,3.8,4.9,3.8l0,0h-13.6c0,0-0.2,0-1.1,0l4.9,3.8h0l0,0h-4.9c-4.6,0-4.9-3.4-4.9-3.8c0,0,0,0,0,0v-3.9
		l-25.5,7v10.4v0c0.5-0.1,0.9-0.1,0.9-0.1c0,0.8-0.4,1.3-0.9,1.5v0v6.6c0.5-0.6,0.9-1.3,0.9-2.4h4.9c0,3.8,4.9,3.8,4.9,3.8
		c-4.9,0-4.9,3.8-4.9,3.8c-4.9,0-4.9-3.8-4.9-3.8c-0.3,0-0.6,0-0.9,0.1v68.6h0.9l-0.1,0l0.1,0c0,3.8,4.9,3.8,4.9,3.8h-4.9
		c0,3.8,4.9,3.8,4.9,3.8v3.8c0,0,0,3.8,4.9,3.8c4.9,0,4.9-3.8,4.9-3.8s0,3.8,4.9,3.8c4.9,0,4.9-3.8,4.9-3.8c4.9,0,4.9,3.8,4.9,3.8
		v3.8l-4.9,3.8h0c0,3.6-4.5,3.8-4.9,3.8h0h-20.6V249l40.2-11v-6.6V227.6z M266.5,178L266.5,178L266.5,178z M261.6,147.4L261.6,147.4
		L261.6,147.4z M261.7,90.3l-0.1,0L261.7,90.3z M256.7,109.4l4.9-3.8c4.9,0,4.9-3.8,4.9-3.8h9.8h0c0,1.1,0.4,1.9,1,2.5
		c1.4,1.3,3.9,1.3,3.9,1.3c0,0,0,0,0,0l0,0c0,3.8-4.9,3.8-4.9,3.8h-9.8c0,1.7,0.9,2.6,2,3.1c0,0,0,0,0,0c0.1,0,0.2,0.1,0.3,0.1
		c0.1,0,0.1,0,0.2,0.1c0,0,0.1,0,0.1,0.1c0.9,0.3,1.7,0.4,2.1,0.4c0,0,0,0,0,0c0.1,0,0.2,0,0.2,0c0,3.8,4.9,3.8,4.9,3.8l1.6,1.3
		l3.3,2.5c0,0,0,0,0,0l0,0c-4.9,0-4.9,3.8-4.9,3.8v7.6l0.1,0l-0.1,0l0,0h0h-9.8l-4.9-3.8v0l4.9-3.8v-3.8l-4.9-3.8v-3.8
		C261.6,109.4,256.7,109.4,256.7,109.4L256.7,109.4L256.7,109.4z M251.9,117l-0.1,0L251.9,117z M197.8,63.6l0.1,0L197.8,63.6z
		 M227.2,147.5l0.1,0L227.2,147.5z M242,59.8l-0.1,0L242,59.8z M242,105.6l-0.1,0L242,105.6z M229.7,50.3c0,0,1.9,0,2.3,1.3
		c0.1,0.2,0.1,0.4,0.1,0.6C232.1,52.2,229.7,52.2,229.7,50.3L229.7,50.3L229.7,50.3z M229.7,57.9h2.5V56c0,0.2,0,0.4,0.1,0.5
		c0.1,0.5,0.4,0.8,0.8,1l0,0v0l0,0l0,0l0,0c0.7,0.4,1.5,0.4,1.5,0.4v3.8c-2.5,0-2.5-1.9-2.5-1.9h0v0h0h0c-0.8,0-1.4-0.2-1.7-0.5
		C229.7,58.7,229.7,57.9,229.7,57.9L229.7,57.9z M232.1,63.7L232.1,63.7L232.1,63.7z M227.2,37L227.2,37L227.2,37z M222.3,40.7
		c2.1,0,3.4,0.7,4,1.6c0.9,1.1,0.9,2.3,0.9,2.3v3.8l0,0h-4.9l0,0L222.3,40.7z M217.4,48.4v3.8h-4.9c0-3.8-4.9-3.8-4.9-3.8v-3.8h4.9
		L217.4,48.4z M212.5,61.7c-2.5,0-2.5-1.9-2.5-1.9C212.5,59.8,212.5,61.7,212.5,61.7z M202.7,35c0,0,2.5,0,2.5,1.9c0,0,0,0-0.1,0
		C204.6,36.9,202.7,36.7,202.7,35L202.7,35L202.7,35z M205.1,46.4l-2.5-1.9l0,0h2.5V46.4z M205.2,42.6c-0.1,0-0.1,0-0.1,0v-3.8
		c2.5,0,2.5-1.9,2.5-1.9v3.8v0C207.6,42.4,205.7,42.6,205.2,42.6z M207.6,59.8L207.6,59.8L207.6,59.8z M200.2,59.8L200.2,59.8v-1.9
		l0,0h2.5l0,0v1.9v0l0,0H200.2z M222.3,117h-4.9c-4.9,0-4.9,3.8-4.9,3.8h-4.9c-4.9,0-4.9-3.8-4.9-3.8v-3.8c0,0,0-1,0.6-1.9
		s1.8-1.9,4.3-1.9v-3.8v0c4.9,0,4.9-3.8,4.9-3.8c0,3.8,4.9,3.8,4.9,3.8c0,3.8,4.9,3.8,4.9,3.8h4.9l-4.9-3.8l0,0v0
		c4.9,0,4.9-3.8,4.9-3.8h4.9h4.9c0,0-0.2,0-0.5,0c-1.2,0.1-4.5,0.7-4.5,3.8h-4.9c0,0,0,3.8,4.9,3.8l4.9,3.8c0,0,0,3.8,4.9,3.8
		c0,3.8-4.9,3.8-4.9,3.8h-9.8C227.2,117,222.3,117,222.3,117z M232.1,231.3L232.1,231.3L232.1,231.3z"/>
	<path class="st5" d="M224.8,27.4c0,0,0,1.9,2.5,1.9C227.2,29.3,227.2,27.4,224.8,27.4z"/>
	<path class="st5" d="M269,160.8v1.9l2.5,1.9v-1.9C271.4,162.7,271.4,160.8,269,160.8z"/>
	<path class="st5" d="M241,20.2l-5.2,1.4h1.3C239.1,21.7,240.3,21,241,20.2z"/>
	<path class="st5" d="M222.3,136.1c-4.9,0-4.9,3.8-4.9,3.8C222.3,139.9,222.3,136.1,222.3,136.1z"/>
	<line class="st6" x1="232.1" y1="231.4" x2="232.1" y2="231.3"/>
	<path class="st1" d="M197.8,42.6c0,0-0.4,0-0.9,0.1v1.4C197.3,43.9,197.8,43.4,197.8,42.6z"/>
	<line class="st6" x1="197.8" y1="120.8" x2="197.7" y2="120.8"/>
	<line class="st6" x1="99.5" y1="158.9" x2="99.6" y2="158.9"/>
	<path class="st1" d="M104.5,136.1c0,0,0.5,0,1.1,0.1V136C105.3,136,104.9,136.1,104.5,136.1z"/>
	<path class="st1" d="M197.8,138h-0.9v9.5h20.6h0c0.4,0,4.9-0.2,4.9-3.8h0l4.9-3.8v-3.8c0,0,0-3.8-4.9-3.8c0,0,0,3.8-4.9,3.8
		c-4.9,0-4.9-3.8-4.9-3.8s0,3.8-4.9,3.8c-4.9,0-4.9-3.8-4.9-3.8v-3.8c0,0-4.9,0-4.9-3.8h4.9c0,0-4.9,0-4.9-3.8h-0.9v17
		C197.3,138,197.8,138,197.8,138z M222.3,136.1c0,0,0,3.8-4.9,3.8C217.4,139.9,217.4,136.1,222.3,136.1z"/>
	<line class="st6" x1="286.1" y1="166.6" x2="286" y2="166.6"/>
	<path class="st1" d="M94.7,212.3c0,0,0-3.8-4.9-3.8c0,0,0-3.8-4.9-3.8v-3.8c0,0-4.9,0-4.9-3.8c0,0-4.9,0-4.9-3.8l-2.5-1.9v-1.9
		h-2.5c0,0,0-3.8,4.9-3.8h0v-8.8v-2.6v-7.6c0,0,0-7.6,9.8-7.6h0c0,0,0-3.8,4.9-3.8l4.9-3.8v-3.8c0,0,0-7.6,9.8-7.6v-3.8
		c0,0,0-3.8-4.9-3.8c-4.9,0-4.9-3.8-4.9-3.8v-7.6c0-3.8,4.9-3.8,4.9-3.8s-4.9,0-4.9-3.8h10.9V99.5v0c-0.1,0-0.2,0-0.4,0
		c-1,0-1.1-0.7-1.1-1.1c0-0.9,0-1.1-0.3-1.1c-0.2,0-0.3,0.1-0.4,0.3c0,0.4,0.1,0.8,0.1,1.2s-0.2,0.7-0.8,0.7c-0.5,0-0.9-0.3-1-0.8
		c0-0.1,0-0.3,0.1-0.5c0-0.3,0-0.5-0.1-0.7c-0.1-0.4-0.1-0.4-0.2-0.4l-0.2,0c0,0-0.2-0.2-0.2-0.4c0-0.4,0.4-0.6,1-0.6
		c0.3,0,0.8,0.1,1,0.5l0,0c0.4-0.3,0.8-0.5,1.2-0.5c0.5,0,1,0.2,1.2,0.6v0V70c-1.1-1.1-1.1-2.5-1.1-2.5v-3.8c0-1.2,0.5-2,1.1-2.6
		V7.3l-91.2,25v199h1.7c0,3.8,4.9,3.8,4.9,3.8s0,3.8,0,7.6c0,3.8-4.9,3.8-4.9,3.8s0,0,0,0c0,0.2-0.1,1.2-0.8,2.1l90.3-24.8v-11.7h-6
		H94.7z M101.3,98.5c0.1,0,0.2,0.2,0.2,0.4c0,0.4-0.4,0.6-0.9,0.6c-0.5,0-0.8-0.2-1-0.5c-0.2,0.3-0.6,0.5-1.2,0.5
		c-1.5,0-1.5-1.1-1.5-1.6c0-0.6,0-0.8-0.2-0.8l-0.2,0c0,0-0.2-0.2-0.2-0.4c0-0.3,0.3-0.6,1.1-0.6c1,0,1.1,0.6,1.1,1.4
		c0,0.4,0,0.9,0.3,0.9c0.3,0,0.3-0.4,0.3-1c0-0.3,0-0.6-0.2-1.2c0.2-0.1,0.4-0.1,0.8-0.1c0.4,0,1.1,0.1,1.1,0.7c0,0.1,0,0.3-0.1,0.5
		v0.8c0,0.2,0.1,0.4,0.3,0.4C101.1,98.6,101.2,98.6,101.3,98.5z M102,59.8L102,59.8h2.5c0,0.1,0,0.2,0,0.3c-0.3,1.6-2.4,1.6-2.4,1.6
		l0,0V59.8z M102,69.3c0,0,2.5,0,2.5,1.9c0,0-0.1,0-0.2,0C103.7,71.2,102,70.9,102,69.3L102,69.3z M94.7,78.9c0,0,0-2.4,2.5-3.4
		c0.6-0.3,1.4-0.4,2.4-0.4v-3.8v0c0,3.6,4.3,3.8,4.9,3.8c0,0,0.1,0,0.1,0v3.8v3.8c0,0,0,0,0,0c0,0.1,0,0.2,0,0.3c0,0.1,0,0.2,0,0.2
		c-0.2,1.1-1.2,3.2-4.8,3.2h0h-4.9h0V78.9z M93.7,94.6c0.9,0,1.5,0.3,1.7,0.5c0.2,0.2,0.3,0.3,0.3,0.5c0,0.5-0.3,0.9-0.8,0.9
		c-0.3,0-0.5-0.1-0.5-0.2l0.1-0.3c-0.2-0.1-0.4-0.2-0.7-0.2c-0.6,0-1.1,0.4-1.1,1.3c0,0.8,0.5,1.4,1.3,1.4c0.4,0,0.6-0.1,0.6-0.5
		c-0.1,0-0.2,0-0.3,0c-0.5,0-0.6-0.3-0.6-0.5c0-0.2,0.1-0.3,0.2-0.4c0.1,0,0.4,0,0.6,0h0.7h0.7c0.1,0.1,0.2,0.3,0.2,0.8
		c0,1.2-1.2,1.7-2.4,1.7c-1.9,0-2.8-1.2-2.8-2.5C91,95.8,91.9,94.6,93.7,94.6z M84.6,100.1c-0.1-0.1-0.1-0.3,0-0.4
		c0.1-0.1,0.4-0.1,0.5,0l2.4,1.9l2.4-1.9c0.1-0.1,0.4-0.1,0.5,0c0.1,0.1,0.1,0.3,0,0.4l-2.4,1.9l2.4,1.9c0.1,0.1,0.1,0.3,0,0.4
		c-0.1,0.1-0.2,0.1-0.3,0.1s-0.2,0-0.3-0.1l-2.4-1.9l-2.4,1.9c-0.1,0.1-0.2,0.1-0.3,0.1c-0.1,0-0.2,0-0.3-0.1
		c-0.1-0.1-0.1-0.3,0-0.4l2.4-1.9L84.6,100.1z M65.2,36.9c-0.5,0-4.9-0.2-4.9-3.8h-4.9v0v-3.8c0,0,0-0.5-0.3-1.2
		c-0.4-1.1-1.6-2.6-4.7-2.6c0,0,0-3.8,4.9-3.8c4.9,0,4.9,3.8,4.9,3.8l0,0c0,0,4.3,0,4.9-3.1c0-0.2,0.1-0.4,0.1-0.7H75c0,0,0,0,0.1,0
		c0.5,0,4.9,0.2,4.9,3.8v3.8c0,0,0,7.6-9.8,7.6L65.2,36.9C65.2,36.9,65.2,36.9,65.2,36.9z"/>
	<path class="st1" d="M286.1,158.9h-9.8c0,0-9.8,0-9.8-7.6h-4.9v3.8l4.9,3.8v3.8l4.9,3.8h4.9c0,0,4.9,0,4.9-3.8h4.9v3.8h1.9V162l0,0
		C287,161.5,286.1,160.6,286.1,158.9z M271.4,164.7l-2.5-1.9v-1.9c2.5,0,2.5,1.9,2.5,1.9V164.7z"/>
	<path class="st1" d="M222.3,29.3c0,0.4,0.3,3.8,4.9,3.8h4.9h0l-4.9-3.8c-2.5,0-2.5-1.9-2.5-1.9c2.5,0,2.5,1.9,2.5,1.9
		c0.8,0,1.1,0,1.1,0H242c0,0-4.9,0-4.9-3.8l4.9-3.8l0,0h9.8v-3.8l-0.5-0.4L241,20.2c-0.7,0.8-1.9,1.4-3.9,1.4h-1.3l-13.4,3.7V29.3
		C222.3,29.3,222.3,29.3,222.3,29.3z"/>
	<path class="st1" d="M196.8,52.2L196.8,52.2c0.3,0,0.6-0.1,0.9-0.1c0,0,0,3.8,4.9,3.8c0,0,0-3.8,4.9-3.8c0,0-4.9,0-4.9-3.8h-4.9
		c0,1.1-0.4,1.8-0.9,2.4v0V52.2z"/>
	<path class="st1" d="M256.7,17.9h4.9l0,0v-3.3l-7.3,2l0,0C254.8,17.9,256.7,17.9,256.7,17.9z"/>
	<polygon class="st1" points="288.1,8.3 288.1,7.3 284.5,8.3 	"/>
	<path class="st1" d="M281.2,10.2c0-0.4,0.1-0.7,0.3-0.9c0-0.1,0.1-0.1,0.2-0.2l0,0l-2.2,0.6l0,0c0.2,0.1,0.3,0.2,0.5,0.3
		C280.6,10.2,281.2,10.2,281.2,10.2z"/>
	<path class="st1" d="M281.2,181.8c0,0-4.9,0-4.9,3.8h-4.9c0,3.8-4.9,3.8-4.9,3.8h-4.9c-4.9,0-4.9,3.8-4.9,3.8h-4.9
		c-4.9,0-4.9-3.8-4.9-3.8v-3.8l-4.9-3.8V178c-4.9,0-4.9-3.8-4.9-3.8v-3.8l-9.8-7.6v-3.8c-4.9,0-4.9-3.8-4.9-3.8h-4.9v3.8
		c0,0,4.9,0,4.9,3.8v3.8c0,0,4.9,0,4.9,3.8v3.8c4.9,0,4.9,3.8,4.9,3.8v3.8c0,0,4.9,0,4.9,3.8l9.8,7.6v3.8h19.6c0,0,0-3.8,4.9-3.8
		v3.8c0,0,0,3.8-4.9,3.8v3.8c0,0,0,3.8-4.9,3.8v3.8l-4.9,3.8c0,0-9.8,0-9.8,7.6H242c0,0,0,3.8-4.9,3.8v3.8v6.6l51-14v-44.1
		C286.6,181,284.4,181.8,281.2,181.8z"/>
	<path class="st1" d="M266.5,197.1c0,0,0,0-0.1,0L266.5,197.1z"/>
	<line class="st6" x1="246.9" y1="185.5" x2="246.9" y2="185.6"/>
	<line class="st6" x1="261.6" y1="147.5" x2="261.6" y2="147.4"/>
	<path class="st1" d="M261.6,113.2v3.8l4.9,3.8v3.8l-4.9,3.8v0l4.9,3.8h9.8v-7.6c0,0,0-3.8,4.9-3.8c0,0,0,0,0,0l-3.3-2.5l-1.6-1.3
		c0,0-4.9,0-4.9-3.8c0,0-0.1,0-0.2,0c0,0,0,0,0,0c-0.4,0-1.2-0.1-2.1-0.4c0,0-0.1,0-0.1-0.1c-0.1,0-0.1,0-0.2-0.1
		c-0.1,0-0.2-0.1-0.3-0.1c0,0,0,0,0,0c-1.1-0.5-2-1.5-2-3.1c0,0,0,0,0,0h9.8c0,0,4.9,0,4.9-3.8c0,0,0,0,0,0c0,0-2.4,0-3.9-1.3
		c-0.6-0.6-1-1.4-1-2.5h-9.8c0,0,0,3.8-4.9,3.8l-4.9,3.8h0C256.7,109.4,261.6,109.4,261.6,113.2z"/>
	<line class="st6" x1="276.4" y1="132.2" x2="276.3" y2="132.2"/>
	<line class="st6" x1="276.3" y1="132.2" x2="276.3" y2="132.2"/>
	<line class="st6" x1="261.7" y1="90.3" x2="261.6" y2="90.3"/>
	<path class="st1" d="M232.1,59.8L232.1,59.8L232.1,59.8L232.1,59.8c0,0,0,1.9,2.5,1.9v-3.8c0,0-0.8,0-1.5-0.4l0,0l0,0l0,0v0l0,0
		c-0.4-0.2-0.7-0.5-0.8-1c0-0.2-0.1-0.3-0.1-0.5v1.9h-2.5l0,0c0,0,0,0.8,0.7,1.4C230.7,59.6,231.3,59.8,232.1,59.8z"/>
	<line class="st6" x1="227.2" y1="37" x2="227.2" y2="36.9"/>
	<path class="st1" d="M232.1,52.2c0-0.2,0-0.4-0.1-0.6c-0.5-1.3-2.3-1.3-2.3-1.3l0,0C229.7,52.2,232.1,52.2,232.1,52.2z"/>
	<line class="st6" x1="232.1" y1="63.7" x2="232.1" y2="63.6"/>
	<line class="st6" x1="242" y1="59.8" x2="241.9" y2="59.8"/>
	<line class="st6" x1="266.5" y1="178" x2="266.5" y2="178.1"/>
	<line class="st6" x1="227.2" y1="147.5" x2="227.3" y2="147.5"/>
	<polygon class="st1" points="202.7,59.8 202.7,59.8 202.7,57.9 202.7,57.9 200.2,57.9 200.2,59.8 202.7,59.8 	"/>
	<line class="st6" x1="241.9" y1="105.5" x2="242" y2="105.6"/>
	<line class="st6" x1="197.8" y1="63.6" x2="197.9" y2="63.6"/>
	<path class="st1" d="M237,120.8c0,0,4.9,0,4.9-3.8c-4.9,0-4.9-3.8-4.9-3.8l-4.9-3.8c-4.9,0-4.9-3.8-4.9-3.8v0h4.9
		c0-3.1,3.2-3.7,4.5-3.8c0.3,0,0.5,0,0.5,0h-4.9h-4.9c0,0,0,3.8-4.9,3.8v0l4.9,3.8h0h-4.9c0,0-4.9,0-4.9-3.8c0,0-4.9,0-4.9-3.8
		c0,0,0,3.8-4.9,3.8v0v3.8c-2.5,0-3.7,1-4.3,1.9s-0.6,1.9-0.6,1.9v3.8c0,0,0,3.8,4.9,3.8h4.9c0,0,0-3.8,4.9-3.8h4.9
		c0,0,4.9,0,4.9,3.8H237z"/>
	<line class="st6" x1="251.9" y1="117" x2="251.8" y2="117"/>
	<path class="st1" d="M227.2,48.4L227.2,48.4v-3.8c0,0,0-1.2-0.9-2.3c-0.7-0.8-1.9-1.6-4-1.6l0,7.6l0,0H227.2z"/>
	<path class="st1" d="M207.6,48.4c0,0,4.9,0,4.9,3.8h4.9v-3.8l-4.9-3.8h-4.9V48.4z"/>
	<path class="st1" d="M207.6,40.7v-3.8c0,0,0,1.9-2.5,1.9v3.8c0,0,0,0,0.1,0C205.7,42.6,207.6,42.4,207.6,40.7L207.6,40.7z"/>
	<polygon class="st1" points="205.1,46.4 205.1,44.5 202.7,44.5 	"/>
	<line class="st6" x1="207.6" y1="59.8" x2="207.6" y2="59.7"/>
	<path class="st1" d="M205,36.9c0.1,0,0.1,0,0.1,0c0-1.9-2.5-1.9-2.5-1.9l0,0C202.7,36.7,204.6,36.9,205,36.9z"/>
	<path class="st1" d="M210,59.8c0,0,0,1.9,2.5,1.9C212.5,61.7,212.5,59.8,210,59.8z"/>
	<path class="st3" d="M93.8,99.6c1.2,0,2.4-0.5,2.4-1.7c0-0.4-0.1-0.7-0.2-0.8h-0.7h-0.7c-0.2,0-0.5,0-0.6,0
		c-0.1,0.1-0.2,0.3-0.2,0.4c0,0.2,0.1,0.5,0.6,0.5c0.1,0,0.2,0,0.3,0c0,0.3-0.2,0.5-0.6,0.5c-0.8,0-1.3-0.6-1.3-1.4
		c0-0.9,0.5-1.3,1.1-1.3c0.3,0,0.5,0.1,0.7,0.2l-0.1,0.3c0.1,0.1,0.3,0.2,0.5,0.2c0.4,0,0.8-0.3,0.8-0.9c0-0.2-0.1-0.4-0.3-0.5
		c-0.3-0.2-0.8-0.5-1.7-0.5c-1.8,0-2.7,1.2-2.7,2.5C91,98.4,91.9,99.6,93.8,99.6z"/>
	<path class="st3" d="M100.8,98.3v-0.8c0.1-0.2,0.1-0.4,0.1-0.5c0-0.7-0.7-0.7-1.1-0.7c-0.4,0-0.6,0.1-0.8,0.1
		c0.2,0.6,0.2,0.9,0.2,1.2c0,0.5,0,1-0.3,1c-0.3,0-0.3-0.4-0.3-0.9c0-0.8-0.1-1.4-1.1-1.4c-0.7,0-1.1,0.3-1.1,0.6
		c0,0.2,0.1,0.3,0.2,0.4l0.2,0c0.2,0,0.2,0.1,0.2,0.8c0,0.5,0,1.6,1.5,1.6c0.6,0,1-0.2,1.2-0.5c0.2,0.3,0.5,0.5,1,0.5
		c0.5,0,0.9-0.2,0.9-0.6c0-0.2-0.1-0.3-0.2-0.4c-0.1,0-0.2,0.1-0.3,0.1C100.8,98.6,100.8,98.5,100.8,98.3z"/>
	<path class="st3" d="M104.5,96.3c-0.5,0-0.9,0.2-1.2,0.5l0,0c-0.3-0.4-0.7-0.5-1-0.5c-0.6,0-1,0.2-1,0.6c0,0.2,0.1,0.4,0.2,0.4
		l0.2,0c0.1,0,0.2,0,0.2,0.4c0,0.2,0.1,0.4,0.1,0.7c-0.1,0.2-0.1,0.3-0.1,0.5c0,0.6,0.4,0.8,1,0.8c0.6,0,0.8-0.2,0.8-0.7
		s0-0.9-0.1-1.2c0.1-0.2,0.3-0.3,0.4-0.3c0.3,0,0.3,0.2,0.3,1.1c0,0.4,0.1,1.1,1.1,1.1c0.1,0,0.3,0,0.4,0v-2.6
		C105.4,96.4,105,96.3,104.5,96.3z"/>
	<path class="st3" d="M84.6,104.3c0.1,0.1,0.2,0.1,0.3,0.1c0.1,0,0.2,0,0.3-0.1l2.4-1.9l2.4,1.9c0.1,0.1,0.2,0.1,0.3,0.1
		s0.2,0,0.3-0.1c0.1-0.1,0.1-0.3,0-0.4l-2.4-1.9l2.4-1.9c0.1-0.1,0.1-0.3,0-0.4c-0.1-0.1-0.4-0.1-0.5,0l-2.4,1.9l-2.4-1.9
		c-0.1-0.1-0.4-0.1-0.5,0c-0.1,0.1-0.1,0.3,0,0.4l2.4,1.9l-2.4,1.9C84.5,104,84.5,104.2,84.6,104.3z"/>
	<rect x="105.6" y="113.2" class="st0" width="0" height="22.8"/>
	<path class="st0" d="M158.5,238.5L105.6,224v-11.7v-76.1l0,0v76.1V224v8.8l87.6,24c1.2,0.3,2.4,0.5,3.6,0.5V249L158.5,238.5z"/>
	<path class="st0" d="M105.6,61V70v0V61V7.3l52.9,14.5l24.6,6.7l9.5,2.6l4.3,1.2v-8.8l-87.6-24l-0.2,0c-0.2,0-0.3-0.1-0.5-0.1
		c-0.1,0-0.2-0.1-0.4-0.1c-0.2,0-0.3-0.1-0.5-0.1c-0.1,0-0.2,0-0.4-0.1c-0.2,0-0.4,0-0.5-0.1c-0.1,0-0.2,0-0.3,0c-0.3,0-0.6,0-0.8,0
		l0,0l0,0v8.3V61z M163.5,21.7l-0.1,0L163.5,21.7z"/>
	<path class="st2" d="M173.2,63.6c4.9,0,4.9-3.8,4.9-3.8C173.3,59.8,173.2,63.5,173.2,63.6L173.2,63.6z"/>
	<path class="st2" d="M111.9,56c0,0,0,1.9,2.5,1.9C114.3,57.9,114.3,56,111.9,56z"/>
	<path class="st2" d="M119.2,52.2v-1.9h-2.5C116.8,50.3,116.8,52.2,119.2,52.2z"/>
	<path class="st2" d="M148.7,33.1c-2.4,0-2.5,1.9-2.5,1.9v0C148.7,35,148.7,33.1,148.7,33.1z"/>
	<path class="st2" d="M151.1,124.6c0,0,0-1.9-2.5-1.9c0,0,0-1.9-2.5-1.9v5.7h2.5C148.7,126.5,151.1,126.5,151.1,124.6z"/>
	<path class="st2" d="M195.3,136.1h-4.9c0,0,0,1.9,2.5,1.9h4v-0.1C196.1,137.6,195.3,137.2,195.3,136.1z"/>
	<path class="st2" d="M163.4,132.2l4.9-3.8h-9.8C158.5,128.4,158.5,132.2,163.4,132.2z"/>
	<path class="st2" d="M148.7,117c0,0,0-1.9-2.5-1.9v3.8h2.5V117z"/>
	<path class="st2" d="M109.4,71.2V75c0,0,4.9,0,4.9,3.8c0,0-4.9,0-4.9,3.8v3.8h4.9c0,0-4.9,0-4.9,3.8h9.8c0,0,4.9,0,4.9-3.8l0,0
		c0-0.1,0.1-3.8,4.9-3.8h-4.9v-3.8c0,0,0-3.8-4.9-3.8c0,0,0-3.8-4.9-3.8v-3.8c0,0,0,0,0,0c0-0.1,0.1-3.8,4.9-3.8h-9.8l0,0
		c0-0.1,0.1-3.8,4.9-3.8h-4.9c0,0-2.3,0-3.8,1.2V70C106.3,70.7,107.5,71.2,109.4,71.2z"/>
	<path class="st2" d="M180.6,52.2c0,0,0-1.9-2.5-1.9C178.1,50.3,178.1,52.2,180.6,52.2z"/>
	<path class="st2" d="M192.9,147.5c-4.9,0-4.9-3.8-4.9-3.8s0,0-4.9,0c-4.9,0-4.9,3.7-4.9,3.8c0,0,0,0,0,0v3.8
		c-4.9,0-4.9-3.8-4.9-3.8h-4.9l-4.9-3.8h-9.8c0-3.8-4.9-3.8-4.9-3.8s4.9,0,4.9-3.8c0-3.8-4.9-3.8-4.9-3.8h-4.9v0H129
		c-4.9,0-4.9,3.7-4.9,3.8c0,0,0,0,0,0h-4.9c-4.9,0-4.9,3.7-4.9,3.8c0,0,0,0,0,0l0,0h0h-4.9c0-2.6-2.3-3.4-3.8-3.7v76.1h8.7h4.9
		c0,0,4.9,0,4.9-3.8h4.9h4.9c0,0,4.9,0,4.9,3.8h4.9h4.9v3.8v3.8v7.6l4.9,3.8l4.9,3.8l0-0.1l0,0.1v3.3l38.3,10.5V147.5H192.9z
		 M153.6,208.5L153.6,208.5L153.6,208.5z M158.5,227.6l0.1,0L158.5,227.6z"/>
	<path class="st2" d="M183,36.9v11.4c0,0,0,3.8,4.9,3.8c4.9,0,4.9,0,4.9,0s2.5,0,4-1.4v0v-6.6c-0.7,0.4-1.5,0.4-1.5,0.4
		c0-1.1,0.8-1.6,1.5-1.8V32.3l-4.3-1.2C191.8,33.4,189.7,36.9,183,36.9z"/>
	<path class="st2" d="M192.9,56C192.9,56,192.9,56,192.9,56l-4.9,0c0,0.1,0,0.2,0,0.3c0,0.3,0.1,0.5,0.1,0.8c0,0,0,0,0,0
		c0,0,0,0.1,0,0.1c0,0,0,0.1,0,0.1c0,0,0,0.1,0,0.1c0,0,0,0,0,0c0,0,0,0.1,0,0.1c0,0,0,0,0,0c0,0,0,0,0,0.1c0,0,0,0,0,0
		c0,0,0,0.1,0.1,0.1c0.1,0.2,0.3,0.4,0.4,0.6c0,0,0,0,0,0c0,0,0,0,0,0c0,0,0,0,0.1,0.1c0,0,0.1,0.1,0.1,0.1c0,0,0,0,0.1,0
		c0,0,0,0,0,0c0,0,0,0,0,0c0,0,0,0,0,0c0,0,0,0,0,0c0,0,0,0,0,0c0,0,0,0,0,0c0,0,0,0,0,0c0,0,0,0,0,0c0,0,0,0,0,0c0,0,0,0,0,0
		c0,0,0,0,0,0c0,0,0,0,0,0c0,0,0,0,0,0c0,0,0,0,0.1,0c0.1,0,0.1,0.1,0.2,0.1c0,0,0,0,0,0c0,0,0,0,0,0c0,0,0,0,0.1,0c0,0,0,0,0,0
		c0,0,0,0,0,0c0,0,0,0,0,0c0.3,0.1,0.5,0.3,0.8,0.4c0,0,0,0,0,0c0,0,0,0,0,0c0,0,0.1,0,0.1,0c0,0,0,0,0,0c0,0,0,0,0,0c0,0,0,0,0,0
		c0,0,0,0,0,0c0,0,0,0,0,0c0,0,0.1,0,0.1,0c0,0,0,0,0,0c0,0,0.1,0,0.1,0c0,0,0,0,0,0c0,0,0.1,0,0.1,0c0,0,0.1,0,0.1,0c0,0,0,0,0,0
		c0.1,0,0.1,0,0.2,0c0,0,0,0,0,0c0.1,0,0.1,0,0.2,0c0,0,0,0,0,0c0,0,0,0,0,0c0,0,0,0,0.1,0c0,0,0,0,0.1,0c0,0,0,0,0,0c0,0,0,0,0.1,0
		c0,0,0,0,0,0c0,0,0,0,0,0c0,0,0.1,0,0.1,0c0,0,0,0,0.1,0c0,0,0,0,0.1,0c0,0,0,0,0.1,0c0,0,0,0,0,0c0,0,0,0,0,0c0,0,0.1,0,0.1,0h0
		c0.1,0,0.1,0,0.2,0c0,0,0.1,0,0.1,0c0.1,0,0.1,0,0.1,0c0,0,0,0,0,0c0,0,0,0,0,0c0.1,0,0.1,0,0.1,0c0,0,0,0,0,0v3.8H183v3.8v3.8
		l0.1,0l-0.1,0c0,0.1,0,3.8-4.9,3.8h-9.8c-4.9,0-4.9,3.7-4.9,3.8l0,0c0,0,0-3.8-4.9-3.8c-4.9,0-4.9,3.7-4.9,3.8l0,0
		c0-3.8-4.9-3.8-4.9-3.8c0,3.8-4.9,3.8-4.9,3.8h-4.9v3.8c-4.9,0-4.9,3.7-4.9,3.8l0,0c-4.9,0-4.9,3.7-4.9,3.8v0
		c-4.9,0-4.9,3.7-4.9,3.8c0,0,0,0,0,0h-4.9c0,0.2,0,0.3,0,0.5c0.1,0,0.2,0,0.3,0c0.4,0,0.7,0,0.9-0.1c0,0,0.1,0.2,0.1,0.4
		c0,0.4-0.2,0.5-0.5,0.6c0,1,0.1,2.1,0.2,3.1c0.2,0,0.3,0,0.4,0c0,0,0.1,0.2,0.1,0.4c0,0.5-0.3,0.6-1.2,0.6c-0.5,0-0.8-0.1-1.3-0.1
		h-0.1c-0.1-0.1-0.2-0.3-0.2-0.5c0-0.2,0.1-0.4,0.5-0.4h0c0-0.7-0.1-1.4-0.1-2.1c-0.9,0.9-2.2,1.2-3.1,1.4v0.4
		c0,0.2,0.1,0.4,0.3,0.4c0.1,0,0.2,0,0.3-0.1c0.1,0,0.2,0.2,0.2,0.4c0,0.4-0.4,0.6-0.9,0.6c-0.5,0-0.9-0.2-1-0.5
		c-0.2,0.3-0.6,0.5-1,0.5c-1,0-1.8-0.8-1.8-1.8c0-0.9,0.7-1.5,1.6-1.5c0.3,0,0.5,0,0.7,0.1l0,0c0.1,0,0.3-0.1,0.7-0.1
		c0.1,0,0.1,0,0.2,0v-2.1c-2,0-3.2,0.6-3.9,1.4c0,0,0,0,0,0.1c0,0.9-0.1,1.6-0.1,2.4c0,0.5,0.1,0.6,0.3,0.6c0.1,0,0.3,0,0.3-0.1
		c0.1,0,0.2,0.2,0.2,0.4c0,0.1,0,0.2-0.1,0.3l3.2,2.5c0,3.8,4.9,3.8,4.9,3.8v3.8c0,3.8-4.9,3.8-4.9,3.8h-8.7V136
		c3.7-0.5,3.8-3.7,3.8-3.7h4.9c4.9,0,4.9-3.8,4.9-3.8c4.9,0,4.9-3.8,4.9-3.8c0,0,0,0,0,0v-3.8h4.9c0-3.8,4.9-3.8,4.9-3.8
		c0-3.8,4.9-3.8,4.9-3.8h4.9l4.9-3.8c0,0,0,3.8,4.9,3.8v3.8c0,0,4.9,0,4.9,3.8h4.9c0,0,0,3.8,4.9,3.8v3.8h4.9v-3.8
		c0,0,0-3.8-4.9-3.8c0,0,0-3.8-4.9-3.8c0,0,0-3.8-4.9-3.8v-3.8v0c0-0.1,0.1-3.8,4.9-3.8v3.8c4.9,0,4.9,3.8,4.9,3.8h4.9v3.7v0.1h4.9
		v7.6c0,0,4.9,0,4.9,3.8v3.8c0,0,4.9,0,4.9,3.8v-3.8c0,0,4.9,0,4.9-3.8c0,0-4.9,0-4.9-3.8c0,0,4.9,0,4.9-3.8h4V52.2v0
		C192.9,52.7,192.9,55.9,192.9,56z M134,90.4L134,90.4L134,90.4z M119.2,116.9L119.2,116.9L119.2,116.9z M122.6,99.6
		c-1.2,0-1.7-0.3-1.7-0.8c0-0.3,0.2-0.4,0.3-0.4c0.3,0.1,0.7,0.3,1.2,0.3c0.2,0,0.4,0,0.4-0.1c0-0.1-0.2-0.1-0.7-0.3
		c-1.1-0.2-1.3-0.6-1.3-1c0-0.8,0.9-1,1.8-1c1.1,0,1.5,0.3,1.5,0.7c0,0.3-0.1,0.4-0.3,0.4c-0.3-0.1-0.7-0.2-1.1-0.2
		c-0.2,0-0.3,0-0.3,0.1c0,0.1,0.2,0.1,0.7,0.2c1.1,0.2,1.4,0.6,1.4,1C124.5,99.3,123.5,99.6,122.6,99.6z M126.1,99.6
		c-0.7,0-1.3-0.3-1.3-1.3c0-1.1,0-1.4,0-2.5c0-0.3,0-0.8-0.3-0.8c-0.1,0-0.1,0-0.2,0c-0.1-0.1-0.1-0.2-0.1-0.4c0-0.2,0.3-0.6,1-0.6
		c0.8,0,1.3,0.4,1.3,1.5c0,0.8,0,1.3,0,2.4c0,0.4,0.1,0.6,0.2,0.6c0.1,0,0.3,0,0.3-0.1c0.1,0,0.2,0.2,0.2,0.4
		C127.2,99.4,126.8,99.6,126.1,99.6z M131.1,99.6c-0.5,0-0.9-0.2-1-0.5c-0.2,0.3-0.6,0.5-1,0.5c-1,0-1.8-0.8-1.8-1.8
		c0-0.9,0.7-1.5,1.6-1.5c0.3,0,0.5,0,0.7,0.1l0,0c0.1,0,0.3-0.1,0.7-0.1c0.6,0,1.2,0.2,1.2,0.8c0,0.1,0,0.3-0.1,0.5v0.7
		c0,0.2,0.1,0.4,0.3,0.4c0.1,0,0.2,0,0.3-0.1c0.1,0,0.2,0.2,0.2,0.4C132,99.3,131.6,99.6,131.1,99.6z M135.7,99.6
		c-1,0-1.1-0.7-1.1-1.1c0-0.9,0-1.1-0.3-1.1c-0.2,0-0.3,0.1-0.4,0.3c0,0.4,0.1,0.8,0.1,1.2s-0.2,0.7-0.8,0.7c-0.5,0-0.9-0.3-1-0.8
		c0-0.1,0-0.3,0.1-0.5c0-0.3,0-0.5-0.1-0.7c-0.1-0.4-0.1-0.4-0.2-0.4l-0.2,0c0,0-0.2-0.2-0.2-0.4c0-0.4,0.4-0.6,1-0.6
		c0.3,0,0.8,0.1,1,0.5l0,0c0.4-0.3,0.8-0.5,1.2-0.5c0.7,0,1.3,0.3,1.3,1.2c0,1.1,0.1,1.1,0.2,1.1l0.2,0c0.1,0.1,0.2,0.2,0.2,0.3
		C136.8,99.2,136.4,99.6,135.7,99.6z M140.6,99.6c-0.4,0-0.8-0.2-1.1-0.5c-0.2,0.3-0.6,0.5-1,0.5c-1.1,0-1.8-0.9-1.8-1.9
		c0-0.9,0.6-1.4,1.8-1.4c0.3,0,0.6,0,0.8,0.1c0-0.2,0-0.3,0-0.5c0-0.5-0.1-1.1-0.3-1.5c0.2-0.2,0.5-0.3,0.9-0.3c0.7,0,1,0.4,1,1.5
		c0,0.9-0.1,1.6-0.1,2.4c0,0.5,0.1,0.6,0.3,0.6c0.1,0,0.3,0,0.3-0.1c0.1,0,0.2,0.2,0.2,0.4C141.6,99.4,141.3,99.6,140.6,99.6z
		 M148.7,101.7L148.7,101.7L148.7,101.7z M153.6,101.7l0.1,0L153.6,101.7z M192.9,67.4l0.1,0L192.9,67.4z"/>
	<path class="st2" d="M153.6,67.4c0-3.8-4.9-3.8-4.9-3.8c-4.8,0-4.9,3.7-4.9,3.8c0,0,0,0,0,0v3.8c0,3.8,4.9,3.8,4.9,3.8v-3.8
		C148.7,67.4,153.6,67.4,153.6,67.4z"/>
	<path class="st2" d="M153.6,29.3c0,7.6-9.8,7.6-9.8,7.6v3.8c-9.7,0-9.8,7.5-9.8,7.6c0,0,0,0,0,0l4.9,3.8v7.6h4.9
		c4.9,0,4.9-3.8,4.9-3.8h4.9l0.1,0l-0.1,0v7.6c4.9,0,4.9,3.8,4.9,3.8c0,0.1,0,3.8-4.9,3.8V75c0,0,4.9,0,4.9-3.8h4.9
		c0-3.8,4.9-3.8,4.9-3.8v-7.6c4.9,0,4.9-3.8,4.9-3.8c0,0,4.9,0,4.9-3.8c0-3.8-4.9-3.8-4.9-3.8l0-7.6c0-7.6,9.8-7.6,9.8-7.6v-3.8
		c0-0.2,0-0.5,0-0.7l-24.6-6.7v3.6C158.5,29.3,153.6,29.3,153.6,29.3z M161,54.1v3.8c0,1.9-2.5,1.9-2.5,1.9V56
		C161,56,161,54.1,161,54.1z"/>
	<polygon class="st2" points="131.5,124.6 129,124.6 131.5,126.5 	"/>
	<polygon class="st2" points="185.5,57.9 185.5,59.8 188,59.8 	"/>
	<path class="st2" d="M109.4,78.9V77H107C107,77,109.4,77,109.4,78.9z"/>
	<line class="st4" x1="153.6" y1="208.4" x2="153.6" y2="208.5"/>
	<line class="st4" x1="158.6" y1="227.6" x2="158.5" y2="227.6"/>
	<path class="st7" d="M158.5,59.8c0,0,2.5,0,2.5-1.9v-3.8c0,0,0,1.9-2.5,1.9V59.8z"/>
	<line class="st4" x1="163.4" y1="21.7" x2="163.5" y2="21.7"/>
	<path class="st7" d="M195.3,44.5c0,0,0.8,0,1.5-0.4v0v-1.4v0C196.1,43,195.3,43.4,195.3,44.5z"/>
	<path class="st7" d="M109.4,139.9h4.9h0l0,0c0,0,0,0,0,0c0-0.1,0.1-3.8,4.9-3.8h4.9c0,0,0,0,0,0c0-0.1,0.1-3.8,4.9-3.8h14.7v0h4.9
		c0,0,4.9,0,4.9,3.8c0,3.8-4.9,3.8-4.9,3.8s4.9,0,4.9,3.8h9.8l4.9,3.8h4.9c0,0,0,3.8,4.9,3.8v-3.8c0,0,0,0,0,0
		c0-0.1,0.1-3.8,4.9-3.8c4.9,0,4.9,0,4.9,0s0,3.8,4.9,3.8h4V138h-4c-2.5,0-2.5-1.9-2.5-1.9h4.9c0,1.1,0.8,1.6,1.5,1.8v0v-17h-4
		c0,3.8-4.9,3.8-4.9,3.8c0,3.8,4.9,3.8,4.9,3.8c0,3.8-4.9,3.8-4.9,3.8v3.8c0-3.8-4.9-3.8-4.9-3.8v-3.8c0-3.8-4.9-3.8-4.9-3.8V117
		h-4.9v-0.1v-3.7h-4.9c0,0,0-3.8-4.9-3.8v-3.8c-4.9,0-4.9,3.7-4.9,3.8v0v3.8c4.9,0,4.9,3.8,4.9,3.8c4.9,0,4.9,3.8,4.9,3.8
		c4.9,0,4.9,3.8,4.9,3.8v3.8h-4.9l-4.9,3.8c-4.9,0-4.9-3.8-4.9-3.8h9.8v-3.8c-4.9,0-4.9-3.8-4.9-3.8h-4.9c0-3.8-4.9-3.8-4.9-3.8
		v-3.8c-4.9,0-4.9-3.8-4.9-3.8l-4.9,3.8h-4.9c0,0-4.9,0-4.9,3.8c0,0-4.9,0-4.9,3.8h-4.9v3.8c0,0,0,0,0,0c0,0.1,0,3.8-4.9,3.8
		c0,0.1,0,3.8-4.9,3.8h-4.9c0,0,0,3.2-3.8,3.7l0,0v0.2l0,0C107.1,136.4,109.4,137.2,109.4,139.9z M146.2,115.1
		c2.5,0,2.5,1.9,2.5,1.9v1.9h-2.5V115.1z M146.2,120.8c2.5,0,2.5,1.9,2.5,1.9c2.5,0,2.5,1.9,2.5,1.9c0,1.9-2.5,1.9-2.5,1.9h-2.5
		V120.8z M131.5,124.6v1.9l-2.5-1.9H131.5z"/>
	<line class="st4" x1="153.6" y1="56" x2="153.7" y2="56"/>
	<line class="st4" x1="183" y1="71.2" x2="183.1" y2="71.2"/>
	<line class="st4" x1="158.5" y1="235.2" x2="158.5" y2="235.1"/>
	<path class="st7" d="M105.6,96.9c0.1,0.2,0.1,0.4,0.1,0.6c0,1.1,0.1,1.1,0.2,1.1l0.2,0c0.1,0.1,0.2,0.2,0.2,0.3
		c0,0.3-0.2,0.5-0.7,0.6l0,0v13.6l0,0h8.7c0,0,4.9,0,4.9-3.8v-3.8c0,0-4.9,0-4.9-3.8l-3.2-2.5c-0.2,0.2-0.5,0.3-0.9,0.3
		c-0.4,0-0.8-0.2-1.1-0.5c-0.2,0.3-0.6,0.5-1,0.5c-1.1,0-1.8-0.9-1.8-1.9c0-0.9,0.6-1.4,1.8-1.4c0.3,0,0.6,0,0.8,0.1
		c0-0.2,0-0.3,0-0.5c0-0.5-0.1-1.1-0.3-1.5c0.2-0.2,0.5-0.3,0.9-0.3c0.7,0,1,0.4,1,1.5c0.7-0.7,1.9-1.4,3.9-1.4v2.1
		c0.6,0,1,0.3,1,0.8c0,0.1,0,0.3-0.1,0.5v0.3c0.9-0.1,2.2-0.5,3.1-1.4c0-0.3,0-0.7,0-1c-0.1,0-0.2,0-0.3,0h-0.1
		c-0.1-0.1-0.2-0.3-0.2-0.5c0-0.2,0.1-0.4,0.5-0.4c0.3,0,0.7,0,1,0c0-0.2,0-0.3,0-0.5h4.9c0,0,0,0,0,0c0-0.1,0.1-3.8,4.9-3.8v0
		c0-0.1,0.1-3.8,4.9-3.8l0,0c0-0.1,0.1-3.8,4.9-3.8v-3.8h4.9c0,0,4.9,0,4.9-3.8c0,0-4.9,0-4.9-3.8v-3.8c0,0,0,0,0,0
		c0-0.1,0.1-3.8,4.9-3.8c0,0,4.9,0,4.9,3.8c0,0-4.9,0-4.9,3.8V75c0,0,4.9,0,4.9,3.8l0,0c0-0.1,0.1-3.8,4.9-3.8
		c4.9,0,4.9,3.8,4.9,3.8l0,0c0-0.1,0.1-3.8,4.9-3.8h9.8c4.9,0,4.9-3.8,4.9-3.8v-3.8v-3.8h9.8v-3.8c0,0,0,0,0,0c0,0-0.1,0-0.1,0
		c0,0,0,0,0,0c0,0,0,0,0,0c0,0-0.1,0-0.1,0c0,0-0.1,0-0.1,0c-0.1,0-0.1,0-0.2,0h0c0,0-0.1,0-0.1,0c0,0,0,0,0,0c0,0,0,0,0,0
		c0,0,0,0-0.1,0c0,0,0,0-0.1,0c0,0,0,0-0.1,0c0,0-0.1,0-0.1,0c0,0,0,0,0,0c0,0,0,0,0,0c0,0,0,0-0.1,0c0,0,0,0,0,0c0,0,0,0-0.1,0
		c0,0,0,0-0.1,0c0,0,0,0,0,0c0,0,0,0,0,0c-0.1,0-0.1,0-0.2,0c0,0,0,0,0,0c-0.1,0-0.1,0-0.2,0c0,0,0,0,0,0c0,0-0.1,0-0.1,0
		c0,0-0.1,0-0.1,0c0,0,0,0,0,0c0,0-0.1,0-0.1,0c0,0,0,0,0,0c0,0-0.1,0-0.1,0c0,0,0,0,0,0c0,0,0,0,0,0c0,0,0,0,0,0c0,0,0,0,0,0
		c0,0,0,0,0,0c0,0-0.1,0-0.1,0c0,0,0,0,0,0c0,0,0,0,0,0c-0.3-0.1-0.5-0.2-0.8-0.4c0,0,0,0,0,0c0,0,0,0,0,0c0,0,0,0,0,0
		c0,0,0,0-0.1,0c0,0,0,0,0,0c0,0,0,0,0,0c-0.1,0-0.1-0.1-0.2-0.1c0,0,0,0-0.1,0c0,0,0,0,0,0c0,0,0,0,0,0c0,0,0,0,0,0c0,0,0,0,0,0
		c0,0,0,0,0,0c0,0,0,0,0,0c0,0,0,0,0,0c0,0,0,0,0,0c0,0,0,0,0,0c0,0,0,0,0,0c0,0,0,0,0,0c0,0,0,0,0,0c0,0,0,0,0,0c0,0,0,0-0.1,0
		c0,0-0.1-0.1-0.1-0.1c0,0,0,0-0.1-0.1c0,0,0,0,0,0c0,0,0,0,0,0c-0.2-0.2-0.3-0.4-0.4-0.6c0,0-0.1-0.1-0.1-0.1c0,0,0,0,0,0
		c0,0,0,0,0-0.1c0,0,0,0,0,0c0,0,0-0.1,0-0.1c0,0,0,0,0,0c0,0,0-0.1,0-0.1c0,0,0-0.1,0-0.1c0,0,0-0.1,0-0.1c0,0,0,0,0,0
		c-0.1-0.2-0.1-0.5-0.1-0.8c0-0.1,0-0.2,0-0.3h4.9c0,0,0,0,0,0c0-0.1,0-3.3,4-3.8v-1.5c-1.4,1.4-4,1.4-4,1.4s0,0-4.9,0
		c-4.9,0-4.9-3.8-4.9-3.8V36.9c6.7,0,8.8-3.5,9.5-5.8l-9.5-2.6c0,0.2,0,0.5,0,0.7v3.8c0,0-9.8,0-9.8,7.6l0,7.6c0,0,4.9,0,4.9,3.8
		c0,3.8-4.9,3.8-4.9,3.8c0,0.1,0,3.8-4.9,3.8v7.6c0,0-4.9,0-4.9,3.8h-4.9c0,3.8-4.9,3.8-4.9,3.8v-3.8c4.9,0,4.9-3.8,4.9-3.8
		c0,0,0-3.8-4.9-3.8V56h-4.9c0,0.1,0,3.8-4.9,3.8h-4.9v-7.6l-4.9-3.8c0,0,0,0,0,0c0-0.1,0.1-7.6,9.8-7.6v-3.8c0,0,9.8,0,9.8-7.6
		c0,0,4.9,0,4.9-3.8v-3.6L105.6,7.3V61c1.4-1.2,3.8-1.2,3.8-1.2h4.9c-4.9,0-4.9,3.7-4.9,3.8l0,0h9.8c-4.9,0-4.9,3.7-4.9,3.8
		c0,0,0,0,0,0v3.8c4.9,0,4.9,3.8,4.9,3.8c4.9,0,4.9,3.8,4.9,3.8v3.8h4.9c-4.9,0-4.9,3.7-4.9,3.8l0,0c0,3.8-4.9,3.8-4.9,3.8h-9.8
		c0-3.8,4.9-3.8,4.9-3.8h-4.9v-3.8c0-3.8,4.9-3.8,4.9-3.8c0-3.8-4.9-3.8-4.9-3.8v-3.8c-1.9,0-3.1-0.6-3.8-1.3v0V96.9
		C105.6,96.9,105.6,96.9,105.6,96.9z M185.5,57.9l2.5,1.9h-2.5V57.9z M180.6,52.2c-2.5,0-2.5-1.9-2.5-1.9
		C180.6,50.3,180.6,52.2,180.6,52.2z M178.1,59.8c0,0.1,0,3.8-4.9,3.8l0,0C173.2,63.5,173.3,59.8,178.1,59.8z M146.2,35
		c0,0,0-1.9,2.5-1.9C148.7,33.1,148.7,35,146.2,35L146.2,35z M111.9,56c2.5,0,2.5,1.9,2.5,1.9C111.9,57.9,111.9,56,111.9,56z
		 M119.2,52.2c-2.5,0-2.5-1.9-2.5-1.9h2.5V52.2z M109.4,77v1.9c0-1.9-2.5-1.9-2.5-1.9H109.4z"/>
	<path class="st7" d="M108.1,97.2c-0.1,0.1-0.2,0.3-0.2,0.5c0,0.4,0.2,0.7,0.5,0.7c0.3,0,0.3-0.6,0.3-0.7c0-0.2,0-0.5,0.1-0.7
		c-0.1,0-0.2,0-0.2,0C108.3,97.1,108.2,97.2,108.1,97.2z"/>
	<path class="st7" d="M153.6,231.4l-4.9-3.8v-7.6v-3.8v-3.8h-4.9h-4.9c0-3.8-4.9-3.8-4.9-3.8H129h-4.9c0,3.8-4.9,3.8-4.9,3.8h-4.9
		h-8.7V224l52.9,14.5v-3.3L153.6,231.4z"/>
	<line class="st4" x1="134" y1="90.3" x2="134" y2="90.4"/>
	<line class="st4" x1="192.9" y1="67.4" x2="193" y2="67.4"/>
	<line class="st4" x1="148.7" y1="101.7" x2="148.7" y2="101.7"/>
	<line class="st4" x1="153.6" y1="101.7" x2="153.7" y2="101.7"/>
	<line class="st4" x1="119.2" y1="117" x2="119.2" y2="116.9"/>
	<path class="st0" d="M106.3,98.9c0-0.2-0.1-0.3-0.2-0.3l-0.2,0c-0.1,0-0.2,0-0.2-1.1c0-0.2,0-0.4-0.1-0.6c0,0,0,0,0,0v0v2.6v0l0,0
		C106.1,99.4,106.3,99.2,106.3,98.9z"/>
	<path class="st0" d="M111.2,98.9c0-0.2-0.2-0.4-0.2-0.4c-0.1,0-0.2,0.1-0.3,0.1c-0.1,0-0.3-0.1-0.3-0.6c0-0.8,0.1-1.5,0.1-2.4
		c0,0,0,0,0-0.1c0-1-0.3-1.5-1-1.5c-0.4,0-0.7,0.1-0.9,0.3c0.2,0.5,0.3,1.1,0.3,1.5c0,0.2,0,0.3,0,0.5c-0.2-0.1-0.5-0.1-0.8-0.1
		c-1.2,0-1.8,0.5-1.8,1.4c0,1,0.7,1.9,1.8,1.9c0.4,0,0.8-0.2,1-0.5c0.3,0.3,0.6,0.5,1.1,0.5c0.5,0,0.8-0.1,0.9-0.3
		C111.2,99.2,111.2,99.1,111.2,98.9z M108.8,97.9c0,0.1,0,0.7-0.3,0.7c-0.3,0-0.5-0.4-0.5-0.7c0-0.3,0.1-0.5,0.2-0.5
		c0.1-0.1,0.2-0.1,0.5-0.1c0.1,0,0.2,0,0.2,0C108.8,97.4,108.8,97.6,108.8,97.9z"/>
	<path class="st2" d="M129.5,97.1c-0.2,0-0.4,0-0.5,0.1c-0.1,0.1-0.2,0.3-0.2,0.5c0,0.5,0.2,0.8,0.5,0.8c0.3,0,0.3-0.4,0.3-0.9
		c0-0.2,0-0.3,0-0.5L129.5,97.1z"/>
	<path class="st2" d="M113.4,97.1c-0.2,0-0.4,0-0.5,0.1c-0.1,0.1-0.2,0.3-0.2,0.5c0,0.5,0.2,0.8,0.5,0.8c0.3,0,0.3-0.4,0.3-0.9
		c0-0.2,0-0.3,0-0.5L113.4,97.1z"/>
	<path class="st0" d="M113.5,96.3L113.5,96.3c-0.2,0-0.5-0.1-0.7-0.1c-1,0-1.6,0.5-1.6,1.5c0,1,0.8,1.8,1.8,1.8c0.5,0,0.9-0.2,1-0.5
		c0.2,0.3,0.5,0.5,1,0.5c0.5,0,0.9-0.2,0.9-0.6c0-0.2-0.1-0.3-0.2-0.4c-0.1,0-0.2,0.1-0.3,0.1c-0.2,0-0.3-0.1-0.3-0.4v-0.4v-0.3
		c0.1-0.2,0.1-0.4,0.1-0.5c0-0.5-0.5-0.7-1-0.8c-0.1,0-0.1,0-0.2,0C113.8,96.3,113.6,96.3,113.5,96.3z M113.3,98.5
		c-0.3,0-0.5-0.3-0.5-0.8c0-0.2,0.1-0.4,0.2-0.5c0.1-0.1,0.3-0.1,0.5-0.1l0.1,0c0,0.1,0,0.3,0,0.5C113.6,98.1,113.5,98.5,113.3,98.5
		z"/>
	<path class="st0" d="M118.4,98.6L118.4,98.6c-0.5,0-0.5,0.2-0.5,0.4c0,0.2,0.1,0.4,0.2,0.5h0.1c0.4,0,0.7,0.1,1.3,0.1
		c0.9,0,1.2-0.1,1.2-0.6c0-0.2-0.1-0.4-0.1-0.4c-0.1,0-0.2,0-0.4,0c0-1-0.1-2-0.2-3.1c0.4-0.1,0.5-0.2,0.5-0.6
		c0-0.2-0.1-0.4-0.1-0.4c-0.2,0-0.5,0.1-0.9,0.1c-0.1,0-0.2,0-0.3,0c-0.4,0-0.7,0-1,0c-0.4,0-0.5,0.2-0.5,0.4c0,0.2,0.1,0.4,0.2,0.5
		h0.1c0.1,0,0.2,0,0.3,0c0,0.3,0,0.6,0,1C118.3,97.2,118.4,97.9,118.4,98.6z"/>
	<path class="st0" d="M123.1,97.4c-0.4-0.1-0.7-0.1-0.7-0.2c0-0.1,0.1-0.1,0.3-0.1c0.4,0,0.8,0.1,1.1,0.2c0.1-0.1,0.3-0.2,0.3-0.4
		c0-0.4-0.4-0.7-1.5-0.7c-1,0-1.8,0.2-1.8,1c0,0.4,0.2,0.8,1.3,1c0.6,0.1,0.7,0.2,0.7,0.3c0,0.1-0.2,0.1-0.4,0.1
		c-0.5,0-1-0.1-1.2-0.3c-0.1,0.1-0.3,0.2-0.3,0.4c0,0.5,0.5,0.8,1.7,0.8c0.9,0,1.9-0.2,1.9-1.1C124.5,98,124.2,97.7,123.1,97.4z"/>
	<path class="st0" d="M126.6,98.6c-0.2,0-0.2-0.2-0.2-0.6c0-1.1,0-1.6,0-2.4c0-1.1-0.5-1.5-1.3-1.5c-0.7,0-1,0.3-1,0.6
		c0,0.2,0.1,0.3,0.1,0.4c0.1,0,0.1,0,0.2,0c0.3,0,0.3,0.5,0.3,0.8c0,1.1,0,1.4,0,2.5c0,1,0.6,1.3,1.3,1.3c0.7,0,1.1-0.2,1.1-0.6
		c0-0.2-0.2-0.4-0.2-0.4C126.9,98.5,126.7,98.6,126.6,98.6z"/>
	<path class="st0" d="M131.5,98.6c-0.2,0-0.3-0.1-0.3-0.4v-0.7c0.1-0.2,0.1-0.4,0.1-0.5c0-0.6-0.5-0.8-1.2-0.8c-0.3,0-0.6,0-0.7,0.1
		l0,0c-0.2-0.1-0.5-0.1-0.7-0.1c-1,0-1.6,0.5-1.6,1.5c0,1,0.8,1.8,1.8,1.8c0.5,0,0.9-0.2,1-0.5c0.2,0.3,0.5,0.5,1,0.5
		c0.5,0,0.9-0.2,0.9-0.6c0-0.2-0.1-0.3-0.2-0.4C131.7,98.6,131.6,98.6,131.5,98.6z M129.3,98.5c-0.3,0-0.5-0.3-0.5-0.8
		c0-0.2,0.1-0.4,0.2-0.5c0.1-0.1,0.3-0.1,0.5-0.1l0.1,0c0,0.1,0,0.3,0,0.5C129.6,98.1,129.6,98.5,129.3,98.5z"/>
	<path class="st2" d="M138.6,97.2c-0.1,0.1-0.2,0.3-0.2,0.5c0,0.4,0.2,0.7,0.5,0.7c0.3,0,0.3-0.6,0.3-0.7c0-0.2,0-0.5,0.1-0.7
		c-0.1,0-0.2,0-0.2,0C138.8,97.1,138.6,97.2,138.6,97.2z"/>
	<path class="st0" d="M136.4,98.6c-0.1,0-0.2,0-0.2-1.1c0-0.9-0.6-1.2-1.3-1.2c-0.5,0-0.9,0.2-1.2,0.5l0,0c-0.3-0.4-0.7-0.5-1-0.5
		c-0.6,0-1,0.2-1,0.6c0,0.2,0.1,0.4,0.2,0.4l0.2,0c0.1,0,0.2,0,0.2,0.4c0,0.2,0.1,0.4,0.1,0.7c-0.1,0.2-0.1,0.3-0.1,0.5
		c0,0.6,0.4,0.8,1,0.8c0.6,0,0.8-0.2,0.8-0.7s0-0.9-0.1-1.2c0.1-0.2,0.3-0.3,0.4-0.3c0.3,0,0.3,0.2,0.3,1.1c0,0.4,0.1,1.1,1.1,1.1
		c0.7,0,1.1-0.3,1.1-0.7c0-0.2-0.1-0.3-0.2-0.3L136.4,98.6z"/>
	<path class="st0" d="M141.1,98.6c-0.1,0-0.3-0.1-0.3-0.6c0-0.8,0.1-1.5,0.1-2.4c0-1.1-0.3-1.5-1-1.5c-0.4,0-0.7,0.1-0.9,0.3
		c0.2,0.5,0.3,1.1,0.3,1.5c0,0.2,0,0.3,0,0.5c-0.2-0.1-0.5-0.1-0.8-0.1c-1.2,0-1.8,0.5-1.8,1.4c0,1,0.7,1.9,1.8,1.9
		c0.4,0,0.8-0.2,1-0.5c0.3,0.3,0.6,0.5,1.1,0.5c0.7,0,1-0.2,1-0.6c0-0.2-0.2-0.4-0.2-0.4C141.3,98.5,141.2,98.6,141.1,98.6z
		 M139.2,97.9c0,0.1,0,0.7-0.3,0.7c-0.3,0-0.5-0.4-0.5-0.7c0-0.3,0.1-0.5,0.2-0.5c0.1-0.1,0.2-0.1,0.5-0.1c0.1,0,0.2,0,0.2,0
		C139.3,97.4,139.2,97.6,139.2,97.9z"/>
	<path class="st0" d="M382.8,24.5l-91.2-25l-0.2,0c-0.2,0-0.3-0.1-0.5-0.1c-0.1,0-0.2-0.1-0.4-0.1c-0.2,0-0.3-0.1-0.5-0.1
		c-0.1,0-0.2,0-0.4-0.1c-0.2,0-0.4,0-0.5-0.1c-0.1,0-0.2,0-0.3,0c-0.3,0-0.6,0-0.8,0l0,0h0v8.3l0.7,0.2l4.7,1.3l2.1,0.6l30.8,8.5
		l6.5,1.8l46.3,12.7v65.6v57.2v15.4V249l-91.2-25v8.8l87.6,24c1.2,0.3,2.4,0.5,3.6,0.5c2.2,0,4.4-0.5,6.2-1.5
		c2.8-1.6,4.5-4.1,4.5-6.8V32.3C390,28.8,387.1,25.7,382.8,24.5z M310.7,10.2l0,0.1C310.7,10.3,310.7,10.2,310.7,10.2z M379.4,158.9
		L379.4,158.9L379.4,158.9z"/>
	<path class="st2" d="M291.1,174.2L291.1,174.2L291.1,174.2c0,0,4.9,0,4.9-3.8s-4.9-3.8-4.9-3.8h-3v13.3
		C291,177.7,291.1,174.3,291.1,174.2z"/>
	<path class="st2" d="M354.9,200.9v7.6c0,0,4.9,0,4.9-3.8S354.9,200.9,354.9,200.9z"/>
	<path class="st2" d="M288.1,8.3V162l0,0c1.4,0.7,3,0.7,3,0.7h9.8h14.7c0,0,0,3.8,4.9,3.8c0,3.8,4.9,3.8,4.9,3.8h-4.9l4.9,3.8h4.9
		v-3.8l4.9,3.8v15.2c0,3.8,4.9,3.8,4.9,3.8v3.8l4.9,3.8v3.8c4.9,0,4.9-3.8,4.9-3.8c0,0,0,0,0,0l4.9-3.8v-11.4h4.9l19.5-15.1v-15.4
		h-9.7c-4.9,0-4.9-3.8-4.9-3.8h-9.8c0-3.8-4.9-3.8-4.9-3.8v-7.6c0-3.8-4.9-3.8-4.9-3.8s0-3.8-4.9-3.8h-4.9c4.9,0,4.9-3.8,4.9-3.8v0
		c-4.9,0-4.9-3.8-4.9-3.8s4.9,0,4.9-3.8h9.8l4.9-3.8v-7.6c4.9,0,4.9-3.8,4.9-3.8c0-3.8,4.9-3.8,4.9-3.8h4.9v-3.8
		c4.9,0,4.9-3.7,4.9-3.8v0h0c0,3.4,3.9,3.8,4.8,3.8V32.3l-46.3-12.7l-0.2,0.1c-2.4,0-2.5,1.9-2.5,1.9h-4.9v-3.8h1l-30.8-8.5
		c-0.7,0.8-2.1,0.8-2.1,0.8V8.8l-4.7-1.3c-0.1,0.2-0.2,0.5-0.2,0.8H288.1z M374.6,158.9L374.6,158.9L374.6,158.9z M369.6,94.1
		L369.6,94.1l0-0.1C369.6,94.1,369.6,94.1,369.6,94.1z M364.7,97.9c0,0,2.5,0,2.5,1.9h-2.5c0,0-2.5,0-2.5-1.9H364.7z M354.9,90.3
		l0-0.1C354.9,90.3,354.9,90.3,354.9,90.3z M335.2,105.6L335.2,105.6c0-0.1,0.1-3.8,4.9-3.8c0,0,2.5,0,2.5,1.9h7.4
		c0,0,0,1.9-2.5,1.9h-4.9c0,0-2.5,0-2.5-1.9l-2.5,1.9v3.8l-2.5-1.9V105.6z M330.3,132.2L330.3,132.2L330.3,132.2z M298.4,105.6
		c-2.5,0-2.5-1.9-2.5-1.9C298.4,103.6,298.4,105.6,298.4,105.6z M291.1,105.6h4.9v3.8v0v3.8l-4.9-3.8V105.6l-0.1,0
		C291,105.6,291.1,105.6,291.1,105.6z"/>
	<path class="st7" d="M374.5,94.1L374.5,94.1L374.5,94.1c0,0.1,0,3.8-4.9,3.8v3.8h-4.9c0,0-4.9,0-4.9,3.8c0,0.1,0,3.8-4.9,3.8v7.6
		l-4.9,3.8h-9.8c0,3.8-4.9,3.8-4.9,3.8s0,3.8,4.9,3.8v0c0,0.1,0,3.8-4.9,3.8h4.9c4.9,0,4.9,3.8,4.9,3.8s4.9,0,4.9,3.8v7.6
		c0,0,4.9,0,4.9,3.8h9.8c0,0,0,3.8,4.9,3.8h9.7V97.9C378.5,97.9,374.5,97.5,374.5,94.1z"/>
	<path class="st7" d="M325.4,21.7h4.9c0,0,0-1.9,2.5-1.9l0.2-0.1l-6.5-1.8h-1V21.7z"/>
	<path class="st7" d="M354.9,185.6v11.4l-4.9,3.8c0,0,0,0,0,0c0,0.1,0,3.8-4.9,3.8v-3.8l-4.9-3.8v-3.8c0,0-4.9,0-4.9-3.8v-15.2
		l-4.9-3.8v3.8h-4.9l-4.9-3.8h4.9c0,0-4.9,0-4.9-3.8c-4.9,0-4.9-3.8-4.9-3.8h-14.7h-9.8c0,0-1.6,0-3-0.7v4.5h3c0,0,4.9,0,4.9,3.8
		s-4.9,3.8-4.9,3.8l0,0v0c0,0.1,0,3.5-3,5.7v0V224l91.2,25v-78.5l-19.5,15.1H354.9z M354.9,208.5v-7.6c0,0,4.9,0,4.9,3.8
		S354.9,208.5,354.9,208.5z"/>
	<path class="st7" d="M295.6,9.4l-2.1-0.6v1.4C293.5,10.2,294.9,10.2,295.6,9.4z"/>
	<path class="st7" d="M288.6,8.3c0-0.3,0.1-0.6,0.2-0.8l-0.7-0.2v1H288.6z"/>
	<path class="st7" d="M290.9,105.6l0.1,0C291.1,105.6,291,105.6,290.9,105.6z"/>
	<polygon class="st7" points="296,113.2 296,109.4 296,109.4 296,105.6 291.1,105.6 291.1,109.4 	"/>
	<path class="st7" d="M310.7,10.4l0-0.1C310.7,10.2,310.7,10.3,310.7,10.4z"/>
	<path class="st7" d="M298.4,105.6c0,0,0-1.9-2.5-1.9C296,103.6,296,105.6,298.4,105.6z"/>
	<path class="st7" d="M337.7,105.6l2.5-1.9c0,1.9,2.5,1.9,2.5,1.9h4.9c2.5,0,2.5-1.9,2.5-1.9h-7.4c0-1.9-2.5-1.9-2.5-1.9
		c-4.9,0-4.9,3.7-4.9,3.8v0v1.9l2.5,1.9V105.6z"/>
	<path class="st7" d="M354.9,90.2l0,0.1C354.9,90.3,354.9,90.3,354.9,90.2z"/>
	<line class="st4" x1="330.3" y1="132.2" x2="330.3" y2="132.2"/>
	<path class="st7" d="M364.7,99.8h2.5c0-1.9-2.5-1.9-2.5-1.9h-2.5C362.2,99.8,364.7,99.8,364.7,99.8z"/>
	<path class="st7" d="M369.6,94.1c0,0,0,0,0-0.1L369.6,94.1L369.6,94.1z"/>
	<line class="st4" x1="379.4" y1="159" x2="379.4" y2="158.9"/>
	<line class="st4" x1="374.5" y1="158.9" x2="374.6" y2="158.9"/>
</g>
</svg>
