<?xml version="1.0" encoding="utf-8"?>
<!-- Generator: Adobe Illustrator 16.0.0, SVG Export Plug-In . SVG Version: 6.00 Build 0)  -->
<!DOCTYPE svg PUBLIC "-//W3C//DTD SVG 1.1//EN" "http://www.w3.org/Graphics/SVG/1.1/DTD/svg11.dtd">
<svg version="1.1" id="Layer_1" xmlns="http://www.w3.org/2000/svg" xmlns:xlink="http://www.w3.org/1999/xlink" x="0px" y="0px" viewBox="0 0 375.1 246.1" style="enable-background:new 0 0 375.1 246.1;" xml:space="preserve"
	>
<style type="text/css">
<![CDATA[
	.st0{clip-path:url(#SVGID_6_);fill:#FFFFFF;}
	.st1{fill:#AC4145;}
	.st2{fill:#AFAFAF;}
	.st3{fill:#E2A97B;}
	.st4{fill:#E5E5E5;}
	.st5{fill:#4C9BA8;}
	.st6{clip-path:url(#SVGID_8_);fill:#FFFFFF;}
	.st7{fill:#B1B1B1;}
	.st8{opacity:0.25;}
	.st9{clip-path:url(#SVGID_50_);fill:#FFFFFF;}
	.st10{fill:#1C1C1C;}
	.st11{fill:#888A9A;}
	.st12{fill:#EBA300;}
	.st13{clip-path:url(#SVGID_40_);fill:#FFFFFF;}
	.st14{fill:#F0F0F0;}
	.st15{fill:#F16548;}
	.st16{clip-path:url(#SVGID_42_);fill:#FFFFFF;}
	.st17{clip-path:url(#SVGID_2_);}
	.st18{clip-path:url(#SVGID_4_);}
	.st19{clip-path:url(#SVGID_10_);fill:#FFFFFF;}
	.st20{fill:#C44A4E;}
	.st21{opacity:5.000310e-02;}
	.st22{fill:#2B2B2B;}
	.st23{fill:#C8C8C8;}
	.st24{opacity:0.1;}
	.st25{opacity:0.2;}
	.st26{opacity:0.3;}
	.st27{opacity:0.5;}
	.st28{fill:#FFB32B;}
	.st29{fill:#CACACA;}
	.st30{clip-path:url(#SVGID_12_);fill:#FFFFFF;}
	.st31{clip-path:url(#SVGID_34_);fill:#FFFFFF;}
	.st32{fill:#CE7200;}
	.st33{fill:#332D2E;}
	.st34{clip-path:url(#SVGID_24_);fill:#FFFFFF;}
	.st35{clip-path:url(#SVGID_46_);fill:#FFFFFF;}
	.st36{clip-path:url(#SVGID_68_);fill:#FFFFFF;}
	.st37{clip-path:url(#SVGID_14_);fill:#FFFFFF;}
	.st38{clip-path:url(#SVGID_36_);fill:#FFFFFF;}
	.st39{fill:#D3984C;}
	.st40{clip-path:url(#SVGID_18_);}
	.st41{clip-path:url(#SVGID_20_);}
	.st42{clip-path:url(#SVGID_22_);}
	.st43{clip-path:url(#SVGID_26_);}
	.st44{clip-path:url(#SVGID_28_);}
	.st45{clip-path:url(#SVGID_30_);}
	.st46{clip-path:url(#SVGID_32_);}
	.st47{clip-path:url(#SVGID_38_);}
	.st48{clip-path:url(#SVGID_44_);}
	.st49{clip-path:url(#SVGID_48_);}
	.st50{clip-path:url(#SVGID_52_);}
	.st51{clip-path:url(#SVGID_54_);}
	.st52{clip-path:url(#SVGID_56_);}
	.st53{clip-path:url(#SVGID_58_);}
	.st54{clip-path:url(#SVGID_60_);}
	.st55{clip-path:url(#SVGID_62_);}
	.st56{clip-path:url(#SVGID_64_);}
	.st57{clip-path:url(#SVGID_66_);}
	.st58{clip-path:url(#SVGID_16_);fill:#FFFFFF;}
	.st59{fill:#DDDDDD;}
]]>
</style>
<g>
	<g>
		<g class="st25">
			<g>
				<defs>
					<rect id="SVGID_1_" x="3.4" y="2" width="151" height="240.3"/>
				</defs>
				<clipPath id="SVGID_2_">
					<use xlink:href="#SVGID_1_"  style="overflow:visible;"/>
				</clipPath>
				<path class="st17" d="M143.8,4.1h-9V3.6c0-1-1.1-1.6-2.1-1.6h-7.7c-1,0-1.5,0.6-1.5,1.6v0.4H5.7c-1,0-2.3,0.5-2.3,1.5v233.2
					c0,1,1.3,1.5,2.3,1.5h117.9v0.5c0,1,0.5,1.6,1.5,1.6h7.7c1,0,2.1-0.6,2.1-1.6v-0.5h9c6.1,0,10.6-4.6,10.6-10.7V14.7
					C154.3,8.7,149.9,4.1,143.8,4.1"/>
			</g>
		</g>
		<path class="st33" d="M5.7,240.2c-1,0-2.3-0.4-2.3-1.5V5.5c0-1,1.3-1.5,2.3-1.5h138.1c6.1,0,10.6,4.6,10.6,10.7v214.9
			c0,6.1-4.5,10.7-10.6,10.7H5.7z"/>
		<rect x="3.4" y="90.3" width="151" height="61.6"/>
		<rect x="3.4" y="90.3" class="st15" width="152" height="60.6"/>
		<g class="st8">
			<g>
				<defs>
					<rect id="SVGID_3_" x="122.5" y="4.1" width="14.4" height="236.2"/>
				</defs>
				<clipPath id="SVGID_4_">
					<use xlink:href="#SVGID_3_"  style="overflow:visible;"/>
				</clipPath>
				<rect x="122.5" y="4.1" class="st18" width="14.4" height="236.2"/>
			</g>
		</g>
		<path d="M134.8,3.8c0-1-0.8-1.8-1.8-1.8h-7.6c-1,0-1.8,0.8-1.8,1.8v236.6c0,1,0.8,1.8,1.8,1.8h7.6c1,0,1.8-0.8,1.8-1.8V3.8z"/>
		<g class="st8">
			<g>
				<defs>
					<rect id="SVGID_5_" x="124.6" y="2" width="1" height="240.3"/>
				</defs>
				<clipPath id="SVGID_6_">
					<use xlink:href="#SVGID_5_"  style="overflow:visible;"/>
				</clipPath>
				<rect x="124.6" y="2" class="st0" width="1" height="240.3"/>
			</g>
		</g>
		<g class="st8">
			<g>
				<defs>
					<rect id="SVGID_7_" x="126.6" y="2" width="1" height="240.3"/>
				</defs>
				<clipPath id="SVGID_8_">
					<use xlink:href="#SVGID_7_"  style="overflow:visible;"/>
				</clipPath>
				<rect x="126.6" y="2" class="st6" width="1" height="240.3"/>
			</g>
		</g>
		<g class="st8">
			<g>
				<defs>
					<rect id="SVGID_9_" x="128.7" y="2" width="1" height="240.3"/>
				</defs>
				<clipPath id="SVGID_10_">
					<use xlink:href="#SVGID_9_"  style="overflow:visible;"/>
				</clipPath>
				<rect x="128.7" y="2" class="st19" width="1" height="240.3"/>
			</g>
		</g>
		<g class="st8">
			<g>
				<defs>
					<polygon id="SVGID_11_" points="130.7,242.3 130.7,242.3 130.7,2 					"/>
				</defs>
				<clipPath id="SVGID_12_">
					<use xlink:href="#SVGID_11_"  style="overflow:visible;"/>
				</clipPath>
				<polygon class="st30" points="130.7,242.3 130.7,242.3 130.7,2 				"/>
			</g>
		</g>
		<g class="st8">
			<g>
				<defs>
					<rect id="SVGID_13_" x="130.7" y="2" width="1" height="240.3"/>
				</defs>
				<clipPath id="SVGID_14_">
					<use xlink:href="#SVGID_13_"  style="overflow:visible;"/>
				</clipPath>
				<rect x="130.7" y="2" class="st37" width="1" height="240.3"/>
			</g>
		</g>
		<g class="st8">
			<g>
				<defs>
					<rect id="SVGID_15_" x="132.8" y="2" width="1" height="240.3"/>
				</defs>
				<clipPath id="SVGID_16_">
					<use xlink:href="#SVGID_15_"  style="overflow:visible;"/>
				</clipPath>
				<rect x="132.8" y="2" class="st58" width="1" height="240.3"/>
			</g>
		</g>
	</g>
	<g>
		<g class="st24">
			<g>
				<defs>
					<rect id="SVGID_17_" x="184.5" y="4.8" width="11.5" height="227.6"/>
				</defs>
				<clipPath id="SVGID_18_">
					<use xlink:href="#SVGID_17_"  style="overflow:visible;"/>
				</clipPath>
				<path class="st40" d="M188.6,232.4h6.1c0.7,0,1.3-0.5,1.3-1.1v-4.9v-0.5v-4.6v-0.4v-7v-0.4v-4.6v-0.5V30.4h0
					c0-0.8-0.1-1.5-0.2-2.2v0l-4.5-19l-1-4.4l-1,4.4l-4.5,19v0c-0.1,0.6-0.2,1.4-0.2,2.2h0v178.4v4.6h0v0.4h0v7h0v0.4h0v4.6v0v5.5
					l0,0c0,0.6,0.6,1.1,1.3,1.1H188.6C188.6,232.4,188.6,232.4,188.6,232.4"/>
			</g>
		</g>
		<path class="st20" d="M197.5,230.3c0.7,0,1.3-0.5,1.3-1.1v-5.5h-11.5v5.5c0,0.6,0.6,1.1,1.3,1.1H197.5z"/>
		<path class="st1" d="M188.6,230.3h2.8c-0.7,0-1.3-0.5-1.3-1.1v-5.5h-2.8v5.5C187.3,229.8,187.9,230.3,188.6,230.3"/>
		<g class="st24">
			<g>
				<defs>
					<rect id="SVGID_19_" x="187.3" y="223.8" width="11.5" height="0.5"/>
				</defs>
				<clipPath id="SVGID_20_">
					<use xlink:href="#SVGID_19_"  style="overflow:visible;"/>
				</clipPath>
				<rect x="187.3" y="223.8" class="st41" width="11.5" height="0.5"/>
			</g>
		</g>
		<g class="st24">
			<g>
				<defs>
					<rect id="SVGID_21_" x="187.3" y="206.2" width="11.5" height="0.5"/>
				</defs>
				<clipPath id="SVGID_22_">
					<use xlink:href="#SVGID_21_"  style="overflow:visible;"/>
				</clipPath>
				<rect x="187.3" y="206.2" class="st42" width="11.5" height="0.5"/>
			</g>
		</g>
		<polygon class="st3" points="198.6,29.2 187.6,29.2 187.6,27 192,8.1 194.1,8.1 198.6,27 		"/>
		<path class="st12" d="M195.9,29.2c0-2.2-1.3-4-2.8-4c-1.6,0-2.8,1.8-2.8,4l0,0V220h5.6V29.2z"/>
		<path class="st28" d="M198.8,29.2L198.8,29.2c0-2.2-0.7-4-1.5-4c-0.8,0-1.5,1.8-1.5,4v177.6h2.9V29.2z"/>
		<path class="st32" d="M190.2,29.2L190.2,29.2c0-2.2-0.7-4-1.5-4s-1.5,1.8-1.5,4v177.6h2.9V29.2z"/>
		<polygon class="st10" points="194.1,8.1 192,8.1 193.1,3.7 		"/>
		<rect x="187.3" y="206.8" class="st39" width="11.5" height="17"/>
		<g class="st26">
			<g>
				<defs>
					<rect id="SVGID_23_" x="195.9" y="206.8" width="2.9" height="17"/>
				</defs>
				<clipPath id="SVGID_24_">
					<use xlink:href="#SVGID_23_"  style="overflow:visible;"/>
				</clipPath>
				<rect x="195.9" y="206.8" class="st34" width="2.9" height="17"/>
			</g>
		</g>
		<g class="st26">
			<g>
				<defs>
					<rect id="SVGID_25_" x="187.3" y="206.8" width="2.9" height="17"/>
				</defs>
				<clipPath id="SVGID_26_">
					<use xlink:href="#SVGID_25_"  style="overflow:visible;"/>
				</clipPath>
				<rect x="187.3" y="206.8" class="st43" width="2.9" height="17"/>
			</g>
		</g>
		<g class="st24">
			<g>
				<defs>
					<rect id="SVGID_27_" x="187.3" y="211.4" width="11.5" height="0.4"/>
				</defs>
				<clipPath id="SVGID_28_">
					<use xlink:href="#SVGID_27_"  style="overflow:visible;"/>
				</clipPath>
				<rect x="187.3" y="211.4" class="st44" width="11.5" height="0.4"/>
			</g>
		</g>
		<g class="st24">
			<g>
				<defs>
					<rect id="SVGID_29_" x="187.3" y="218.8" width="11.5" height="0.4"/>
				</defs>
				<clipPath id="SVGID_30_">
					<use xlink:href="#SVGID_29_"  style="overflow:visible;"/>
				</clipPath>
				<rect x="187.3" y="218.8" class="st45" width="11.5" height="0.4"/>
			</g>
		</g>
	</g>
	<g>
		<g class="st24">
			<g>
				<defs>
					<rect id="SVGID_31_" x="216.2" y="29.7" width="19.9" height="201"/>
				</defs>
				<clipPath id="SVGID_32_">
					<use xlink:href="#SVGID_31_"  style="overflow:visible;"/>
				</clipPath>
				<path class="st46" d="M233.4,229.2v-8.1v-1.6c1,0,1.9-0.8,1.9-1.9v-92.2v-1.9h0.8V34.6v-0.3v-0.2v-2.2l-4.4-2.2h-4.2h-1.3h-5.5
					l-4.4,2.2v2.2v0.2v0.3v88.9h1v1.9v92.2c0,1,0.8,1.9,1.9,1.9v1.6v8.1c0,0.8,0.7,1.5,1.5,1.5h7.6h2.6h1.2
					C232.7,230.6,233.4,230,233.4,229.2"/>
			</g>
		</g>
		<path class="st22" d="M223.1,216.5c-1,0-1.8-0.8-1.8-1.9V103.8c0-1,0.8-1.8,1.8-1.8h14.3c1,0,1.8,0.8,1.8,1.8v110.9
			c0,1-0.8,1.9-1.8,1.9H223.1z"/>
		<path class="st4" d="M223.7,101.9V64.1c0-0.7,0.6-1.3,1.3-1.3h10.4c0.7,0,1.3,0.6,1.3,1.3v37.8H223.7z"/>
		<path class="st22" d="M235.6,58.7c0,0,0.1-1.3-0.4-2c-0.6-0.8-2.6-0.8-4.9-0.8s-4.3,0.1-4.9,0.8c-0.6,0.8-0.4,2-0.4,2l0.2,4h10.2
			L235.6,58.7z"/>
		<path class="st4" d="M230.2,55.9c-1.7,0-3.2,0-4.2,0.4v-3.2c0,0,0.7-7.5,3.6-13.7c-0.1-0.1-0.2-0.3-0.2-0.5c0-0.4,0.3-0.8,0.7-0.8
			s0.8,0.3,0.8,0.8c0,0.2-0.1,0.3-0.2,0.5c2.9,6.2,3.6,13.7,3.6,13.7v3.2C233.5,55.9,231.9,55.9,230.2,55.9"/>
		<path d="M230.1,51.6V38.2c0-0.1,0.1-0.1,0.1-0.1s0.1,0.1,0.1,0.1v13.3c0,0.1-0.1,0.1-0.1,0.1S230.1,51.6,230.1,51.6"/>
		<path d="M229.6,52.1c0-0.4,0.3-0.7,0.7-0.7s0.7,0.3,0.7,0.7c0,0.1-0.1,0.1-0.1,0.1s-0.1-0.1-0.1-0.1c0-0.2-0.2-0.4-0.4-0.4
			c-0.2,0-0.4,0.2-0.4,0.4c0,0.1-0.1,0.1-0.1,0.1S229.6,52.2,229.6,52.1"/>
		<g class="st26">
			<g>
				<defs>
					<rect id="SVGID_33_" x="230.9" y="62.8" width="3.5" height="39.2"/>
				</defs>
				<clipPath id="SVGID_34_">
					<use xlink:href="#SVGID_33_"  style="overflow:visible;"/>
				</clipPath>
				<rect x="230.9" y="62.8" class="st31" width="3.5" height="39.2"/>
			</g>
		</g>
		<g class="st24">
			<g>
				<defs>
					<rect id="SVGID_35_" x="230.2" y="101.9" width="5.7" height="114.6"/>
				</defs>
				<clipPath id="SVGID_36_">
					<use xlink:href="#SVGID_35_"  style="overflow:visible;"/>
				</clipPath>
				<rect x="230.2" y="101.9" class="st38" width="5.7" height="114.6"/>
			</g>
		</g>
		<g class="st24">
			<g>
				<defs>
					<rect id="SVGID_37_" x="223.7" y="101.1" width="13.1" height="0.8"/>
				</defs>
				<clipPath id="SVGID_38_">
					<use xlink:href="#SVGID_37_"  style="overflow:visible;"/>
				</clipPath>
				<rect x="223.7" y="101.1" class="st47" width="13.1" height="0.8"/>
			</g>
		</g>
		<g class="st24">
			<g>
				<defs>
					<rect id="SVGID_39_" x="230.5" y="55.9" width="2.8" height="6.9"/>
				</defs>
				<clipPath id="SVGID_40_">
					<use xlink:href="#SVGID_39_"  style="overflow:visible;"/>
				</clipPath>
				<path class="st13" d="M233.3,62.8h-2.8v-6.9c1.1,0,2,0,2.8,0.1V62.8z"/>
			</g>
		</g>
		<g class="st27">
			<g>
				<defs>
					<rect id="SVGID_41_" x="230.2" y="38.1" width="4.2" height="18.1"/>
				</defs>
				<clipPath id="SVGID_42_">
					<use xlink:href="#SVGID_41_"  style="overflow:visible;"/>
				</clipPath>
				<path class="st16" d="M234.4,53.1c0,0-0.7-7.5-3.6-13.7c0.1-0.1,0.2-0.3,0.2-0.5c0-0.4-0.3-0.7-0.8-0.7v17.8
					c1.7,0,3.2,0,4.2,0.4V53.1z"/>
			</g>
		</g>
		<g class="st24">
			<g>
				<defs>
					<rect id="SVGID_43_" x="226.1" y="55" width="8.3" height="1.3"/>
				</defs>
				<clipPath id="SVGID_44_">
					<use xlink:href="#SVGID_43_"  style="overflow:visible;"/>
				</clipPath>
				<path class="st48" d="M230.2,55.9c-1.7,0-3.2,0-4.2,0.4v-0.9c0.9-0.3,2.5-0.4,4.2-0.4c1.7,0,3.2,0,4.2,0.4v0.9
					C233.5,55.9,231.9,55.9,230.2,55.9"/>
			</g>
		</g>
		<path class="st22" d="M237.4,226.2v-9.7h-14.3v9.7c0,0.8,0.7,1.5,1.5,1.5h11.4C236.7,227.7,237.4,227,237.4,226.2"/>
		<g class="st24">
			<g>
				<defs>
					<rect id="SVGID_45_" x="232.2" y="216.5" width="2.6" height="11.2"/>
				</defs>
				<clipPath id="SVGID_46_">
					<use xlink:href="#SVGID_45_"  style="overflow:visible;"/>
				</clipPath>
				<rect x="232.2" y="216.5" class="st35" width="2.6" height="11.2"/>
			</g>
		</g>
		<g class="st24">
			<g>
				<defs>
					<rect id="SVGID_47_" x="223.1" y="216.5" width="14.3" height="1.6"/>
				</defs>
				<clipPath id="SVGID_48_">
					<use xlink:href="#SVGID_47_"  style="overflow:visible;"/>
				</clipPath>
				<rect x="223.1" y="216.5" class="st49" width="14.3" height="1.6"/>
			</g>
		</g>
		<polygon class="st22" points="240.1,28 240.1,31.4 240.1,120.6 220.2,120.6 220.2,31.4 220.2,28 224.6,25.8 230.1,25.8
			235.7,25.8 		"/>
		<g class="st24">
			<g>
				<defs>
					<rect id="SVGID_49_" x="231.4" y="25.8" width="5.7" height="94.8"/>
				</defs>
				<clipPath id="SVGID_50_">
					<use xlink:href="#SVGID_49_"  style="overflow:visible;"/>
				</clipPath>
				<polygon class="st9" points="231.4,25.8 231.4,120.6 237.1,120.6 237.1,26.5 235.7,25.8 				"/>
			</g>
		</g>
		<g class="st26">
			<g>
				<defs>
					<rect id="SVGID_51_" x="224.4" y="31.4" width="9.6" height="80.9"/>
				</defs>
				<clipPath id="SVGID_52_">
					<use xlink:href="#SVGID_51_"  style="overflow:visible;"/>
				</clipPath>
				<polygon class="st50" points="234,75.5 234,77.7 231.1,86.7 231.1,101.1 234,101.1 229.2,112.3 224.4,101.1 227.3,101.1
					227.3,86.7 224.4,77.7 224.4,75.5 224.4,31.4 229.2,31.4 234,31.4 				"/>
			</g>
		</g>
		<polygon class="st59" points="234.9,75.5 234.9,77.7 232.1,86.7 232.1,101.1 234.9,101.1 230.1,112.3 225.3,101.1 228.2,101.1
			228.2,86.7 225.3,77.7 225.3,75.5 225.3,31.4 230.1,31.4 234.9,31.4 		"/>
		<polygon class="st23" points="225.3,31.4 234.9,31.4 230.2,35.7 		"/>
		<polygon class="st2" points="231.2,108.5 231.2,34.8 229.2,34.8 229.2,108.5 230.1,109.8 		"/>
		<g class="st24">
			<g>
				<defs>
					<rect id="SVGID_53_" x="221.2" y="120.6" width="18" height="1.9"/>
				</defs>
				<clipPath id="SVGID_54_">
					<use xlink:href="#SVGID_53_"  style="overflow:visible;"/>
				</clipPath>
				<rect x="221.2" y="120.6" class="st51" width="18" height="1.9"/>
			</g>
		</g>
		<g class="st25">
			<g>
				<defs>
					<rect id="SVGID_55_" x="225.1" y="62" width="10.3" height="0.8"/>
				</defs>
				<clipPath id="SVGID_56_">
					<use xlink:href="#SVGID_55_"  style="overflow:visible;"/>
				</clipPath>
				<rect x="225.1" y="62" class="st52" width="10.3" height="0.8"/>
			</g>
		</g>
		<g class="st25">
			<g>
				<defs>
					<rect id="SVGID_57_" x="220.2" y="31.2" width="19.9" height="0.5"/>
				</defs>
				<clipPath id="SVGID_58_">
					<use xlink:href="#SVGID_57_"  style="overflow:visible;"/>
				</clipPath>
				<rect x="220.2" y="31.2" class="st53" width="19.9" height="0.5"/>
			</g>
		</g>
	</g>
	<g>
		<path class="st29" d="M283,239.1c-9.1,0-16.6-7.4-16.6-16.6V26.6c0-9.1,7.4-16.6,16.6-16.6h75.5c9.1,0,16.6,7.4,16.6,16.6v195.9
			c0,9.1-7.4,16.6-16.6,16.6H283z"/>
		<path class="st14" d="M283,238.1c-8.6,0-15.5-7-15.5-15.5V26.6c0-8.6,7-15.5,15.5-15.5h75.5c8.6,0,15.5,7,15.5,15.5v195.9
			c0,8.6-7,15.5-15.5,15.5H283z"/>
		<path class="st29" d="M323.7,21.9c0,1.7-1.3,3-3,3c-1.7,0-3-1.3-3-3c0-1.7,1.3-3,3-3C322.4,18.9,323.7,20.2,323.7,21.9"/>
		<path class="st7" d="M320.7,23.6c-0.9,0-1.7-0.8-1.7-1.7c0-0.9,0.8-1.7,1.7-1.7c0.9,0,1.7,0.8,1.7,1.7
			C322.4,22.8,321.7,23.6,320.7,23.6"/>
		<path class="st29" d="M328.4,28.5H313c-1.3,0-2.3,1-2.3,2.3c0,1.3,1,2.3,2.3,2.3h15.5c1.3,0,2.3-1,2.3-2.3
			C330.8,29.5,329.7,28.5,328.4,28.5"/>
		<path class="st7" d="M313,32.2c-0.7,0-1.3-0.6-1.3-1.3c0-0.7,0.6-1.3,1.3-1.3h15.5c0.7,0,1.3,0.6,1.3,1.3c0,0.7-0.6,1.3-1.3,1.3
			H313z"/>
		<path class="st29" d="M304.8,28.5L304.8,28.5c-1.3,0-2.3,1-2.3,2.3c0,1.3,1,2.3,2.3,2.3h0c1.3,0,2.3-1,2.3-2.3
			C307.2,29.5,306.1,28.5,304.8,28.5"/>
		<path class="st7" d="M304.9,32.2c-0.7,0-1.3-0.6-1.3-1.3c0-0.7,0.6-1.3,1.3-1.3h0c0.7,0,1.3,0.6,1.3,1.3
			C306.2,31.6,305.6,32.2,304.9,32.2L304.9,32.2z"/>
		<path class="st29" d="M320.7,212c-5.7,0-10.4,4.6-10.4,10.4c0,5.7,4.6,10.4,10.4,10.4c5.7,0,10.4-4.6,10.4-10.4
			C331.1,216.7,326.4,212,320.7,212 M320.7,232.1c-5.3,0-9.7-4.3-9.7-9.7c0-5.3,4.3-9.7,9.7-9.7c5.3,0,9.7,4.3,9.7,9.7
			C330.4,227.7,326,232.1,320.7,232.1"/>
		<rect x="274.3" y="42.8" class="st5" width="92.2" height="164.3"/>
		<rect x="374" y="222.1" class="st11" width="1" height="0.7"/>
		<rect x="266.4" y="222.1" class="st11" width="1" height="0.7"/>
		<rect x="374" y="29.8" class="st11" width="1" height="0.7"/>
		<path class="st29" d="M357,9c0-0.2-0.2-0.3-0.3-0.3h-17.1c-0.2,0-0.3,0.2-0.3,0.3v1H357V9z"/>
		<g class="st24">
			<g>
				<defs>
					<rect id="SVGID_59_" x="339.2" y="9.7" width="17.8" height="0.3"/>
				</defs>
				<clipPath id="SVGID_60_">
					<use xlink:href="#SVGID_59_"  style="overflow:visible;"/>
				</clipPath>
				<rect x="339.2" y="9.7" class="st54" width="17.8" height="0.3"/>
			</g>
		</g>
		<path class="st29" d="M265.4,61.7c-0.2,0-0.3,0.2-0.3,0.3v7.1c0,0.2,0.2,0.3,0.3,0.3h1v-7.8H265.4z"/>
		<g class="st24">
			<g>
				<defs>
					<rect id="SVGID_61_" x="266" y="61.7" width="0.3" height="7.8"/>
				</defs>
				<clipPath id="SVGID_62_">
					<use xlink:href="#SVGID_61_"  style="overflow:visible;"/>
				</clipPath>
				<rect x="266" y="61.7" class="st55" width="0.3" height="7.8"/>
			</g>
		</g>
		<path class="st29" d="M265.4,40.2c-0.2,0-0.3,0.2-0.3,0.3v9.8c0,0.2,0.2,0.3,0.3,0.3h1V40.2H265.4z"/>
		<g class="st24">
			<g>
				<defs>
					<rect id="SVGID_63_" x="266" y="40.2" width="0.3" height="10.5"/>
				</defs>
				<clipPath id="SVGID_64_">
					<use xlink:href="#SVGID_63_"  style="overflow:visible;"/>
				</clipPath>
				<rect x="266" y="40.2" class="st56" width="0.3" height="10.5"/>
			</g>
		</g>
		<path class="st29" d="M265.4,80.7c-0.2,0-0.3,0.2-0.3,0.3v7.1c0,0.2,0.2,0.3,0.3,0.3h1v-7.8H265.4z"/>
		<g class="st24">
			<g>
				<defs>
					<rect id="SVGID_65_" x="266" y="80.7" width="0.3" height="7.8"/>
				</defs>
				<clipPath id="SVGID_66_">
					<use xlink:href="#SVGID_65_"  style="overflow:visible;"/>
				</clipPath>
				<rect x="266" y="80.7" class="st57" width="0.3" height="7.8"/>
			</g>
		</g>
		<g class="st21">
			<g>
				<defs>
					<rect id="SVGID_67_" x="267.4" y="11.1" width="59.5" height="225.2"/>
				</defs>
				<clipPath id="SVGID_68_">
					<use xlink:href="#SVGID_67_"  style="overflow:visible;"/>
				</clipPath>
				<path class="st36" d="M283,11.1c-8.6,0-15.5,7-15.5,15.5v195.9c0,6,3.5,11.3,8.5,13.8l51-225.2H283z"/>
			</g>
		</g>
	</g>
</g>
</svg>
