<?xml version="1.0" encoding="utf-8"?>
<!-- Generator: Adobe Illustrator 16.0.0, SVG Export Plug-In . SVG Version: 6.00 Build 0)  -->
<!DOCTYPE svg PUBLIC "-//W3C//DTD SVG 1.1//EN" "http://www.w3.org/Graphics/SVG/1.1/DTD/svg11.dtd">
<svg version="1.1" id="Layer_1" xmlns="http://www.w3.org/2000/svg" xmlns:xlink="http://www.w3.org/1999/xlink" x="0px" y="0px" viewBox="100 200 600 400" style="enable-background:new 100 200 600 400;" xml:space="preserve">
<rect x="100" y="200" style="fill:#96D4C8;" width="600" height="360"/>
<polygon style="fill:#4C9BA8;" points="100.35,560.222 100.35,600.42 698.853,600.42 700,600.42 700,560.222 "/>
<path style="fill:#FFFFFF;" d="M376.258,255.771c-0.158-10.318-0.793-21.112-0.793-30.001c-0.635-0.317-3.017-1.111-5.873-1.111
	c-3.492,0-4.604,1.27-4.604,5.238c0,2.381,0.158,5.874,0.476,10h-9.683c-0.159-4.762-0.317-9.683-0.317-14.127h-0.476
	c-4.604,0-5.557-0.476-9.207-0.476c-3.651,0-4.604,1.587-4.604,3.651s0.952,3.175,1.429,3.651c0.317,0,1.429-0.317,2.857-0.476
	c0.158,10.317,0.952,21.429,0.952,30.317c0.317,0.159,2.381,1.111,4.92,1.111c3.81,0,5.238-1.27,5.238-2.698
	c0-3.651-0.159-7.937-0.317-12.54h9.683c0.159,4.762,0.476,9.683,0.476,14.286h0.159c4.604,0,7.144,0.477,10.159,0.477
	c1.27,0,3.175-0.477,3.175-3.81c0-1.746-0.794-3.175-0.952-3.492C378.64,255.771,377.529,255.771,376.258,255.771z"/>
<path style="fill:#FFFFFF;" d="M407.053,256.089c-1.111,0-1.588-0.793-1.588-2.698v-5.874c0.477-1.429,0.794-2.857,0.794-3.81
	c0-4.286-3.333-6.191-7.302-6.191c-2.063,0-3.492,0.318-4.127,0.635v0.317c-1.429-0.476-3.015-0.953-4.603-0.953
	c-5.873,0-9.842,4.127-9.842,11.429c0,8.096,4.921,14.445,11.112,14.445c2.856,0,5.396-1.429,6.348-3.968
	c1.111,2.381,3.017,3.968,6.35,3.968c3.017,0,5.715-1.746,5.715-4.921c0-1.746-0.794-2.698-1.111-3.016
	C408.481,255.93,407.688,256.089,407.053,256.089z M393.561,255.454c-1.587,0-2.857-2.54-2.857-6.032
	c0-1.746,0.317-3.333,0.952-3.968c0.634-0.793,1.746-0.952,3.016-0.952c0.317,0,0.476,0,0.793,0c0,1.111,0.159,2.222,0.159,3.81
	C395.624,251.962,395.307,255.454,393.561,255.454z"/>
<path style="fill:#FFFFFF;" d="M423.72,237.675c-0.952,0-1.904,0-2.857,0.159c0-1.429,0.159-3.016,0.318-4.127
	c-0.794-0.635-2.54-1.428-4.763-1.428c-3.175,0-5.396,2.54-5.396,7.302c0,0.793,0,1.587,0,2.381
	c-1.905,1.587-3.017,3.651-3.017,5.873c0,2.54,1.43,3.492,2.381,3.969c0.477-0.477,1.111-0.794,1.588-1.27
	c0.635,4.921,1.27,9.842,1.27,14.444c0,3.81-0.477,6.35-0.952,7.619c1.111,1.429,2.698,2.699,5.238,2.699
	c3.81,0,5.396-2.54,5.396-8.73c0-1.27,0-2.699-0.158-3.968c0.952,0.635,2.222,1.111,3.492,1.111c4.604,0,9.842-4.126,9.842-13.016
	C436.26,242.596,431.815,237.675,423.72,237.675z M423.562,255.771c-0.477,0-1.111-0.159-1.587-0.317
	c-0.477-3.175-0.953-6.508-1.112-9.842c0.477-0.159,1.112-0.159,1.588-0.159c2.539,0,3.492,1.27,3.492,5.08
	C425.942,255.295,424.514,255.771,423.562,255.771z"/>
<path style="fill:#FFFFFF;" d="M452.134,266.565c0-1.27,0-2.699-0.158-3.968c0.951,0.635,2.222,1.111,3.491,1.111
	c4.604,0,9.841-4.126,9.841-13.016c0-7.937-4.443-12.857-12.539-12.857c-0.952,0-1.905,0-2.857,0.159
	c0-1.429,0.158-3.016,0.317-4.127c-0.793-0.635-2.54-1.429-4.762-1.429c-3.175,0-5.397,2.54-5.397,7.302c0,0.793,0,1.587,0,2.381
	c-1.904,1.587-3.016,3.651-3.016,5.874c0,2.54,1.429,3.492,2.382,3.968c0.476-0.477,1.11-0.794,1.587-1.27
	c0.635,4.921,1.27,9.842,1.27,14.444c0,3.81-0.476,6.35-0.952,7.62c1.11,1.428,2.698,2.698,5.238,2.698
	C450.546,275.295,452.134,272.756,452.134,266.565z M451.816,245.454c2.54,0,3.491,1.27,3.491,5.08c0,4.762-1.428,5.238-2.381,5.238
	c-0.476,0-1.11-0.159-1.587-0.317c-0.477-3.175-0.952-6.508-1.111-9.842C450.705,245.454,451.182,245.454,451.816,245.454z"/>
<path style="fill:#FFFFFF;" d="M467.848,244.977c2.222,0,2.381,4.604,3.492,9.207c0.952,3.81,2.698,7.778,8.254,8.095
	c-2.54,2.857-6.35,4.762-11.271,4.762c-1.429,0-2.381-0.317-3.016-0.476c-0.635,0.793-1.111,2.063-1.111,3.492
	c0,3.651,2.857,5.397,6.826,5.397c13.968,0,22.857-13.017,22.857-28.413c0-7.619-4.762-9.207-8.096-9.207
	c-2.857,0-4.921,1.27-4.921,4.286c0,0.953,0.318,1.905,0.953,2.54c0.316,0,0.476-0.159,0.793-0.159c0.794,0,1.271,0.952,1.271,5.238
	c0,2.698-0.317,5.238-1.271,7.46c-2.063-1.429-2.381-4.445-2.698-7.778c-0.477-5.556-0.952-11.587-8.889-11.587
	c-3.017,0-5.397,1.587-5.397,4.603c0,1.905,0.953,2.857,1.111,3.175C467.054,245.136,467.529,244.977,467.848,244.977z"/>
<path style="fill:#FFFFFF;" d="M477.848,312.281c-0.159-10.318-0.794-21.112-0.794-30.002c-0.635-0.317-3.016-1.111-5.873-1.111
	c-3.492,0-4.603,1.27-4.603,5.238c0,2.381,0.158,5.873,0.476,10h-9.682c-0.159-4.762-0.317-9.683-0.317-14.128h-0.477
	c-4.603,0-5.556-0.476-9.207-0.476c-3.65,0-4.604,1.587-4.604,3.651c0,2.063,0.953,3.174,1.43,3.651
	c0.317,0,1.428-0.318,2.857-0.477c0.158,10.318,0.952,21.43,0.952,30.318c0.317,0.159,2.381,1.111,4.92,1.111
	c3.811,0,5.238-1.27,5.238-2.698c0-3.651-0.158-7.937-0.317-12.54h9.682c0.159,4.762,0.477,9.683,0.477,14.286h0.159
	c4.603,0,7.143,0.477,10.159,0.477c1.27,0,3.175-0.477,3.175-3.811c0-1.746-0.794-3.174-0.953-3.491
	C480.229,312.281,479.118,312.281,477.848,312.281z"/>
<path style="fill:#FFFFFF;" d="M495.785,294.026c-8.731,0-13.017,5.079-13.017,12.54c0,8.73,5.873,13.492,13.492,13.492
	c7.62,0,12.541-4.762,12.541-13.334C508.802,298.471,504.039,294.026,495.785,294.026z M495.943,311.805
	c-1.746,0-3.016-1.429-3.016-5.238c0-3.334,0.952-5.08,2.857-5.08c2.063,0,2.857,1.905,2.857,5.238
	C498.483,310.693,497.372,311.805,495.943,311.805z"/>
<path style="fill:#FFFFFF;" d="M521.976,312.281c-0.952,0-1.27-1.747-1.27-5.08c0-8.413,0.159-12.699,0.159-18.731
	c0-8.413-3.017-11.905-7.778-11.905c-4.444,0-6.032,2.698-6.032,4.603c0,1.27,0.317,2.381,0.794,2.857
	c0.317,0,0.635-0.159,1.111-0.159c1.905,0,1.905,3.492,1.905,6.19c0,8.73-0.159,11.111-0.159,19.842
	c0,7.461,3.81,10.001,8.096,10.001c4.444,0,6.666-1.746,6.666-4.921c0-1.746-0.952-3.017-1.428-3.492
	C523.563,311.963,522.611,312.281,521.976,312.281z"/>
<path style="fill:#FFFFFF;" d="M529.278,292.28c3.333,0,5.714-1.746,5.714-4.603c0-3.175-2.381-4.603-5.556-4.603
	c-3.333,0-5.714,1.428-5.714,4.603C523.881,290.534,526.263,292.28,529.278,292.28z"/>
<path style="fill:#FFFFFF;" d="M538.326,312.599c-1.111,0-1.111-0.477-1.111-2.54v-6.032c0-8.254-3.969-10-7.778-10
	c-3.65,0-5.556,2.062-5.556,4.604c0,1.904,0.952,3.016,1.111,3.174c0.317-0.158,0.794-0.317,1.271-0.317
	c0.951,0,1.11,1.111,1.11,4.286v3.969c0,6.666,1.746,10.317,7.778,10.317c3.175,0,5.556-1.587,5.556-4.762
	c0-1.905-0.794-2.857-1.111-3.016C539.12,312.439,538.644,312.599,538.326,312.599z"/>
<path style="fill:#FFFFFF;" d="M565.151,307.201c0-6.032,0.635-11.587,0.635-18.731c0-8.413-1.746-11.905-6.032-11.905
	c-2.54,0-4.604,1.111-5.555,2.54c1.428,3.81,1.904,8.572,1.904,12.064c0,1.27,0,2.54,0,3.81c-1.27-0.476-2.857-0.952-4.762-0.952
	c-7.143,0-10.952,4.127-10.952,11.27c0,7.461,3.651,13.811,9.683,14.604c5.555-4.128,10.793-6.826,15.556-8.572
	C565.31,310.534,565.151,309.265,565.151,307.201z M555.469,306.725c0,0.636-0.158,5.238-2.062,5.238
	c-1.588,0-2.857-2.857-2.857-5.873c0-2.063,0.317-3.492,0.952-4.286c0.476-0.635,1.429-0.952,2.856-0.952
	c0.477,0,1.111,0,1.43,0.159C555.787,303.074,555.627,304.979,555.469,306.725z"/>
<path style="fill:#FFFFFF;" d="M564.992,320.059c3.334-0.317,5.238-1.904,5.238-4.921c0-0.158,0-0.158,0-0.317
	C568.485,316.407,566.738,318.154,564.992,320.059z"/>
<path style="fill:#FFFFFF;" d="M579.913,305.772c0-1.746,0.317-3.333,0.953-3.969c0.635-0.793,1.746-0.952,3.016-0.952
	c0.317,0,0.476,0,0.794,0c0,1.111,0.158,2.223,0.158,3.81c0,3.81-0.317,7.302-2.063,7.302c-1.111,0-2.063-1.429-2.54-3.492
	c-3.016,1.271-5.873,3.017-8.571,5.238c1.905,3.81,5.396,6.35,9.207,6.35c2.857,0,5.396-1.429,6.349-3.968
	c1.112,2.381,3.017,3.968,6.351,3.968c3.015,0,5.714-1.746,5.714-4.921c0-1.746-0.794-2.698-1.111-3.016
	c-0.476,0.317-1.271,0.635-1.746,0.635c-1.111,0-1.588-0.794-1.588-2.698v-5.873c0.477-1.429,0.795-2.857,0.795-3.811
	c0-4.286-3.334-6.19-7.302-6.19c-2.064,0-3.493,0.317-4.128,0.635v0.317c-1.429-0.476-3.016-0.952-4.604-0.952
	c-5.873,0-9.842,4.127-9.842,11.429c0,1.428,0.159,2.857,0.477,4.127c4.444-1.27,7.937-1.746,9.842-1.905
	C580.072,307.201,579.913,306.566,579.913,305.772z"/>
<path style="fill:#FFFFFF;" d="M616.898,294.026c-2.857,0-4.921,1.27-4.921,4.286c0,0.952,0.318,1.904,0.953,2.539
	c0.317,0,0.477-0.158,0.794-0.158c0.793,0,1.27,0.952,1.27,5.238c0,2.698-0.317,5.238-1.27,7.46
	c-2.064-1.429-2.382-4.444-2.698-7.777c-0.477-5.556-0.953-11.588-8.891-11.588c-3.016,0-5.396,1.587-5.396,4.604
	c0,1.904,0.953,2.856,1.111,3.174c0.317-0.158,0.794-0.317,1.111-0.317c2.223,0,2.381,4.604,3.492,9.207
	c0.953,3.81,2.698,7.778,8.255,8.096c-2.54,2.856-6.351,4.762-11.271,4.762c-1.428,0-2.381-0.317-3.016-0.477
	c-0.635,0.794-1.111,2.063-1.111,3.492c0,3.65,2.857,5.396,6.826,5.396c13.969,0,22.857-13.016,22.857-28.412
	C625.153,295.772,620.232,294.026,616.898,294.026z"/>
<path style="fill:#FFFFFF;" d="M640.392,303.392c-2.54-0.635-3.969-0.794-3.969-1.746c0-0.635,0.794-0.794,1.747-0.794
	c2.381,0,5.079,0.952,6.824,1.746c0.635-0.476,1.588-1.429,1.588-3.492c0-3.175-2.223-5.397-9.048-5.397
	c-5.873,0-11.111,1.587-11.111,7.937c0,3.016,1.111,6.19,7.619,8.096c3.334,0.952,4.445,1.27,4.445,2.063s-0.953,1.111-2.54,1.111
	c-3.017,0-6.032-1.111-7.461-2.063c-0.794,0.476-1.746,1.429-1.746,3.491c0,3.651,3.334,5.874,10.317,5.874
	c5.397,0,11.429-1.746,11.429-8.731C648.645,307.678,646.898,304.979,640.392,303.392z"/>
<path style="fill:#EFB664;" d="M201.811,333.232c3.333,1.111,6.984,1.746,10.635,1.746l0,0l0,0l0,0l0,0
	c7.461,0,14.286-2.381,19.842-6.189C222.287,329.74,211.651,331.17,201.811,333.232z"/>
<path style="fill:#EFB664;" d="M247.208,299.265c-0.477-18.89-15.874-33.97-34.763-33.97l0,0l0,0l0,0l0,0
	c-19.207,0-34.762,15.556-34.762,34.764c0,9.047,3.492,17.302,9.047,23.492C197.842,313.392,216.572,302.598,247.208,299.265z"/>
<path style="fill:#EFB664;" d="M175.302,354.027c-1.428,2.539-0.635,5.714,1.905,7.302c0.794,0.476,1.746,0.635,2.699,0.635
	c1.905,0,3.651-0.952,4.603-2.698l9.366-16.191c1.428-2.54,0.635-5.873-1.905-7.302c-0.159,0-0.159,0-0.317-0.158
	c-2.54,0.635-4.921,1.429-7.143,2.222L175.302,354.027z"/>
<path style="fill:#EFB664;" d="M249.589,246.406l0.159-0.159c1.429-2.54,0.635-5.714-1.905-7.302
	c-2.54-1.429-5.714-0.635-7.302,1.905l-9.365,16.191c-1.429,2.54-0.635,5.714,1.905,7.301c0.793,0.476,1.746,0.635,2.698,0.635
	c1.905,0,3.651-0.952,4.604-2.698l8.254-14.286c-1.747-0.953-3.493-1.747-5.238-2.223
	C243.399,245.771,245.78,245.771,249.589,246.406z"/>
<path style="fill:#EFB664;" d="M169.428,318.789l-16.19,9.365c-2.54,1.429-3.492,4.761-1.904,7.301
	c0.952,1.746,2.698,2.698,4.603,2.698c0.952,0,1.746-0.158,2.699-0.635l16.19-9.364c2.54-1.429,3.492-4.762,1.905-7.302
	C175.302,318.312,171.968,317.36,169.428,318.789z"/>
<path style="fill:#EFB664;" d="M250.224,272.121c-2.54,1.429-3.492,4.762-1.905,7.302c0.953,1.746,2.699,2.698,4.604,2.698
	c0.952,0,1.746-0.159,2.698-0.635l16.191-9.365c0.317-0.159,0.635-0.476,0.952-0.794c-1.905-2.857-4.127-5.714-6.35-8.413
	L250.224,272.121z"/>
<path style="fill:#EFB664;" d="M171.175,300.059c0-2.857-2.381-5.239-5.238-5.239h-18.73c-2.857,0-5.238,2.381-5.238,5.239
	c0,2.856,2.381,5.237,5.238,5.237h18.571C168.794,305.455,171.175,303.074,171.175,300.059z"/>
<path style="fill:#EFB664;" d="M282.923,298.947c-0.477-2.381-2.699-4.127-5.238-4.127h-18.572c-2.54,0-4.444,1.747-5.079,3.968
	C262.764,298.153,272.288,298.153,282.923,298.947z"/>
<path style="fill:#EFB664;" d="M174.667,272.121l-16.191-9.365c-2.54-1.429-5.714-0.636-7.302,1.904
	c-1.429,2.54-0.635,5.714,1.905,7.302l16.191,9.365c0.793,0.477,1.746,0.635,2.698,0.635c1.905,0,3.651-0.953,4.604-2.699
	C178.159,276.883,177.365,273.708,174.667,272.121z"/>
<path style="fill:#EFB664;" d="M271.653,328.154l-3.174-1.746c-5.08,0.158-11.746,0.477-19.365,0.952
	c0.317,0.317,0.635,0.477,0.952,0.794l15.714,9.047c2.381-2.223,5.08-4.443,7.778-6.826
	C273.241,329.424,272.605,328.631,271.653,328.154z"/>
<path style="fill:#EFB664;" d="M184.508,240.851c-1.429-2.54-4.762-3.493-7.302-1.905c-2.54,1.429-3.492,4.762-1.905,7.302
	l9.365,16.19c0.953,1.747,2.699,2.699,4.604,2.699c0.953,0,1.746-0.159,2.698-0.635c2.54-1.428,3.492-4.762,1.905-7.301
	L184.508,240.851z"/>
<path style="fill:#EFB664;" d="M249.748,354.027l-9.365-16.191c-1.429-2.54-4.762-3.492-7.302-1.904
	c-2.54,1.429-3.333,4.762-1.905,7.302l9.365,16.19c0.952,1.746,2.699,2.699,4.603,2.699c0.159,0,0.159,0,0.318,0
	c1.429-2.382,3.016-4.763,4.762-7.144C249.907,354.503,249.907,354.186,249.748,354.027z"/>
<path style="fill:#EFB664;" d="M212.445,229.58c-2.857,0-5.238,2.381-5.238,5.238v18.731c0,2.857,2.38,5.397,5.238,5.397
	c3.016,0,5.238-2.381,5.238-5.397v-18.731C217.842,231.961,215.461,229.58,212.445,229.58z"/>
<path style="fill:#EFB664;" d="M212.445,370.694c3.016,0,5.238-2.381,5.238-5.238v-18.73c0-2.857-2.381-5.238-5.238-5.238
	s-5.238,2.381-5.238,5.238v18.73C207.208,368.313,209.588,370.694,212.445,370.694z"/>
<path style="fill:#4C9BA8;" d="M505.468,468.315H333.083c12.064,11.111,42.541,34.445,86.192,34.445
	C462.928,502.761,493.404,479.427,505.468,468.315z"/>
<path style="fill:#487149;" d="M404.037,308.312c-35.715-35.716-89.208-8.89-89.208-8.89c-20.635-41.429-52.065-50.794-65.24-52.858
	c-3.968-0.635-6.19-0.635-6.19-0.635c1.746,0.635,3.492,1.428,5.238,2.222c6.507,3.492,12.381,8.889,17.619,14.921
	c2.222,2.698,4.444,5.555,6.349,8.413c9.683,13.969,15.397,28.096,15.397,28.096c-1.746-0.159-3.492-0.317-5.079-0.477
	c-10.635-0.793-20.16-0.793-28.89-0.158c-2.381,0.158-4.603,0.317-6.667,0.635c-30.795,3.016-49.525,13.81-60.637,23.969
	c-11.429,10.635-14.762,20.476-14.762,20.476c3.333-2.222,7.619-4.285,12.54-6.031c2.222-0.794,4.604-1.588,7.143-2.223
	c3.333-0.952,6.667-1.746,10.318-2.54c9.841-2.062,20.318-3.492,30.477-4.602c5.873-0.636,11.587-1.111,16.826-1.429
	c7.46-0.477,14.127-0.794,19.365-0.953c6.508-0.158,10.635-0.158,10.635-0.158c-1.905,1.429-3.651,2.856-5.397,4.126
	c-2.857,2.223-5.397,4.604-7.778,6.825c-6.508,6.032-11.587,11.905-15.873,17.62c-1.746,2.381-3.333,4.762-4.762,7.143
	c-23.334,39.366-2.063,71.271-2.063,71.271c0-80.319,62.541-89.367,62.541-89.367S332.607,272.597,404.037,308.312z"/>
<path style="fill:#7F5458;" d="M296.257,361.805c0.476-1.428,1.111-2.698,1.587-3.968
	C297.369,359.106,296.733,360.535,296.257,361.805z"/>
<path style="fill:#7F5458;" d="M294.669,366.726c0.477-1.429,0.952-3.016,1.429-4.444
	C295.622,363.71,295.146,365.139,294.669,366.726z"/>
<path style="fill:#7F5458;" d="M290.067,387.361c0.317-1.587,0.476-3.333,0.793-4.921
	C290.542,384.187,290.384,385.774,290.067,387.361z"/>
<path style="fill:#7F5458;" d="M298.162,357.36c0.636-1.27,1.111-2.54,1.746-3.81C299.273,354.82,298.638,356.091,298.162,357.36z"
	/>
<path style="fill:#7F5458;" d="M291.019,381.806c0.317-1.587,0.635-3.333,0.952-4.921
	C291.654,378.631,291.336,380.219,291.019,381.806z"/>
<path style="fill:#7F5458;" d="M294.987,519.586L294.987,519.586L294.987,519.586z"/>
<path style="fill:#7F5458;" d="M295.463,411.489c0,13.017,0.794,28.095,2.857,44.921h12.698
	c-15.873-75.081-5.238-112.542-5.238-112.542c-1.27,1.587-2.539,3.492-3.65,5.396c0.793-1.27,1.429-2.381,2.222-3.491
	C302.288,352.122,295.463,374.027,295.463,411.489z"/>
<path style="fill:#7F5458;" d="M332.607,522.603h-3.175c-6.667-19.683-11.905-37.778-15.715-54.287h-13.651
	c2.856,18.89,7.301,40.001,13.968,63.176c10.477,0,20.317,0,27.461,0C341.654,531.015,341.337,522.603,332.607,522.603z"/>
<path style="fill:#7F5458;" d="M293.241,507.523L293.241,507.523L293.241,507.523z"/>
<path style="fill:#7F5458;" d="M293.876,511.968C293.876,511.968,293.876,511.809,293.876,511.968
	C293.876,511.809,293.876,511.968,293.876,511.968z"/>
<path style="fill:#7F5458;" d="M289.273,393.234c0.158-1.746,0.476-3.491,0.635-5.079
	C289.749,389.743,289.431,391.488,289.273,393.234z"/>
<path style="fill:#7F5458;" d="M300.067,353.233c0.635-1.27,1.269-2.54,2.063-3.65C301.336,350.693,300.702,351.964,300.067,353.233
	z"/>
<path style="fill:#7F5458;" d="M292.13,376.567c0.793-3.333,1.587-6.667,2.539-9.683C293.717,369.9,292.765,373.234,292.13,376.567z
	"/>
<path style="fill:#7F5458;" d="M287.368,439.267c0-0.317,0-0.477,0-0.794C287.368,438.79,287.368,438.949,287.368,439.267z"/>
<path style="fill:#7F5458;" d="M287.527,442.76c0-0.318,0-0.477,0-0.794C287.527,442.124,287.527,442.441,287.527,442.76z"/>
<path style="fill:#7F5458;" d="M287.844,449.426c0-0.317,0-0.477,0-0.794C287.685,448.949,287.844,449.268,287.844,449.426z"/>
<path style="fill:#7F5458;" d="M287.685,446.092c0-0.316,0-0.476,0-0.793C287.685,445.616,287.685,445.775,287.685,446.092z"/>
<path style="fill:#7F5458;" d="M292.923,505.143L292.923,505.143L292.923,505.143z"/>
<path style="fill:#7F5458;" d="M288.162,456.093c0-0.159,0-0.477,0-0.635C288.162,455.616,288.162,455.934,288.162,456.093z"/>
<path style="fill:#7F5458;" d="M288.002,452.76c0-0.317,0-0.477,0-0.794C287.844,452.283,288.002,452.601,288.002,452.76z"/>
<path style="fill:#7F5458;" d="M287.844,410.537c0.158-1.747,0.158-3.492,0.317-5.397
	C288.002,407.045,287.844,408.79,287.844,410.537z"/>
<path style="fill:#7F5458;" d="M287.368,422.76c0-1.747,0-3.334,0.159-5.08C287.527,419.426,287.368,421.013,287.368,422.76z"/>
<path style="fill:#7F5458;" d="M287.527,416.568c0-1.745,0.158-3.491,0.158-5.238C287.685,413.077,287.527,414.823,287.527,416.568z
	"/>
<path style="fill:#7F5458;" d="M288.162,404.664c0.158-1.905,0.317-3.651,0.477-5.557
	C288.479,401.013,288.32,402.918,288.162,404.664z"/>
<path style="fill:#7F5458;" d="M288.638,399.107c0.158-1.904,0.317-3.65,0.635-5.396
	C288.956,395.457,288.796,397.361,288.638,399.107z"/>
<path style="fill:#7F5458;" d="M287.368,429.107c0-1.745,0-3.49,0-5.078C287.368,425.617,287.368,427.362,287.368,429.107z"/>
<path style="fill:#7F5458;" d="M287.368,432.441c0-0.159,0-0.317,0-0.477C287.368,432.124,287.368,432.282,287.368,432.441z"/>
<path style="fill:#7F5458;" d="M287.368,435.774c0-0.317,0-0.476,0-0.793C287.368,435.299,287.368,435.616,287.368,435.774z"/>
<path style="fill:#6D484B;" d="M298.479,456.569c-2.063-16.826-2.857-31.905-2.857-44.922c0-37.461,6.667-59.366,8.889-65.716
	c-0.794,1.111-1.588,2.223-2.223,3.492c0,0,0,0.159-0.158,0.159c-0.635,1.11-1.428,2.381-2.063,3.65
	c0,0.159-0.159,0.317-0.159,0.317c-0.635,1.27-1.27,2.54-1.746,3.81c0,0.159-0.158,0.317-0.158,0.477
	c-0.635,1.27-1.111,2.698-1.588,3.968c0,0.159-0.158,0.318-0.158,0.477c-0.477,1.429-0.953,2.857-1.429,4.444v0.159
	c-0.952,3.175-1.746,6.35-2.54,9.683c0,0.159,0,0.317-0.158,0.477c-0.318,1.587-0.635,3.175-0.953,4.921
	c0,0.158,0,0.476-0.158,0.635c-0.317,1.587-0.635,3.333-0.794,4.921c0,0.159,0,0.476-0.158,0.635
	c-0.318,1.746-0.477,3.333-0.636,5.079c0,0.159,0,0.317,0,0.477c-0.158,1.746-0.476,3.65-0.635,5.396l0,0
	c-0.158,1.746-0.317,3.651-0.477,5.557c0,0.158,0,0.317,0,0.476c-0.158,1.746-0.158,3.492-0.317,5.397c0,0.317,0,0.635,0,0.952
	c-0.158,1.746-0.158,3.492-0.158,5.238c0,0.317,0,0.794,0,1.111c0,1.746-0.159,3.333-0.159,5.08c0,0.315,0,0.792,0,1.11
	c0,1.745,0,3.491,0,5.078c0,0.159,0,0.159,0,0.318c0,0.794,0,1.745,0,2.539c0,0.159,0,0.317,0,0.477c0,0.952,0,1.746,0,2.698
	c0,0.317,0,0.477,0,0.794c0,0.952,0,1.746,0,2.698c0,0.317,0,0.477,0,0.794c0,0.794,0,1.746,0,2.54c0,0.317,0,0.476,0,0.794
	c0,0.793,0,1.745,0.159,2.539c0,0.317,0,0.477,0,0.793c0,0.794,0,1.747,0.158,2.54c0,0.317,0,0.477,0,0.794
	c0,0.794,0,1.746,0.159,2.54c0,0.317,0,0.477,0,0.794c0,0.793,0.158,1.746,0.158,2.54c0,0.158,0,0.476,0,0.634
	c0,0.159,0,0.317,0,0.477h10.159V456.569z"/>
<path style="fill:#6D484B;" d="M314.035,531.491c-6.667-23.175-11.112-44.286-13.968-63.176h-11.111
	c1.111,13.811,6.031,51.271,6.031,51.271c0.159,1.111,0.317,2.223,0.477,3.175c-2.54,0.476-7.461,2.223-7.461,8.73
	C296.416,531.491,305.463,531.491,314.035,531.491z"/>
<path style="fill:#629160;" d="M323.718,344.026c62.542,8.89,62.542,80.319,62.542,80.319
	c35.715-98.255-44.605-107.145-44.605-107.145c8.889-17.778,62.541-8.889,62.541-8.889c-71.588-35.716-98.256,35.714-98.256,35.714
	c26.826,26.827,35.715,62.542,35.715,62.542C350.543,370.854,323.718,344.026,323.718,344.026z"/>
<path style="fill:#487149;" d="M581.977,454.506c0,0,27.938-41.905-27.938-83.971c0,0,63.019,0,83.972,13.97
	c0,0-13.969-41.907-90.955-34.922c0,0,6.825-16.985,18.096-29.683c1.587-1.905,3.334-3.651,5.238-5.238
	c0.477-0.318,0.952-0.794,1.27-1.111c2.698-2.223,5.556-3.969,8.571-5.238c0.636-0.159,1.111-0.477,1.746-0.635
	c0,0-0.635,0-1.746,0.158c-1.904,0.159-5.556,0.635-9.841,1.905c-1.429,0.476-3.017,0.952-4.604,1.587
	c-4.762,1.746-10.159,4.604-15.556,8.572c-8.412,6.19-16.984,15.555-24.127,29.683c0,0-41.906-20.952-70.002,6.983
	c55.874-27.936,76.986,27.938,76.986,27.938S581.977,391.646,581.977,454.506z"/>
<path style="fill:#7F5458;" d="M542.93,406.409c0,0.317,0.158,0.636,0.158,0.953C543.088,407.045,542.93,406.727,542.93,406.409z"/>
<path style="fill:#7F5458;" d="M543.882,410.695c0.159,0.477,0.159,1.111,0.317,1.588
	C544.041,411.807,544.041,411.172,543.882,410.695z"/>
<path style="fill:#7F5458;" d="M534.675,386.885c0.317,0.477,0.635,0.953,0.794,1.271
	C535.151,387.838,534.992,387.361,534.675,386.885z"/>
<path style="fill:#7F5458;" d="M536.58,390.06c0.317,0.477,0.476,0.953,0.793,1.429C537.056,391.013,536.738,390.536,536.58,390.06z
	"/>
<path style="fill:#7F5458;" d="M538.326,393.394c0.158,0.476,0.477,0.952,0.635,1.429
	C538.803,394.346,538.484,393.869,538.326,393.394z"/>
<path style="fill:#7F5458;" d="M539.913,397.045c0.159,0.476,0.317,0.952,0.635,1.428
	C540.23,397.997,540.071,397.521,539.913,397.045z"/>
<path style="fill:#7F5458;" d="M541.342,401.171c0.159,0.317,0.317,0.794,0.317,1.112
	C541.659,401.965,541.501,401.647,541.342,401.171z"/>
<path style="fill:#7F5458;" d="M546.897,471.967c0,0.158,0,0.317,0,0.476C546.897,472.284,546.897,472.125,546.897,471.967z"/>
<path style="fill:#7F5458;" d="M546.58,477.205c0,0.158,0,0.158,0,0.317C546.58,477.363,546.58,477.205,546.58,477.205z"/>
<path style="fill:#7F5458;" d="M547.532,456.41v0.159C547.532,456.41,547.532,456.41,547.532,456.41z"/>
<path style="fill:#7F5458;" d="M547.532,450.854c0,0.158,0,0.317,0,0.477C547.532,451.013,547.532,451.013,547.532,450.854z"/>
<path style="fill:#7F5458;" d="M511.976,524.507c-6.825,0-6.984,6.508-6.984,6.984c7.778,0,14.921,0,21.589,0
	c6.825-23.968,10.793-45.08,12.698-63.176h-9.524c-3.333,16.35-8.095,35.08-15.397,56.191H511.976L511.976,524.507z"/>
<path style="fill:#7F5458;" d="M546.263,482.284L546.263,482.284L546.263,482.284z"/>
<path style="fill:#7F5458;" d="M545.469,419.743c0.159,0.636,0.159,1.27,0.317,1.905
	C545.628,421.013,545.628,420.379,545.469,419.743z"/>
<path style="fill:#7F5458;" d="M547.215,439.426c0,0.635,0,1.27,0,1.746C547.373,440.537,547.373,440.061,547.215,439.426z"/>
<path style="fill:#7F5458;" d="M544.834,415.141c0.158,0.635,0.158,1.27,0.317,1.904
	C544.992,416.41,544.834,415.775,544.834,415.141z"/>
<path style="fill:#7F5458;" d="M546.104,424.506c0,0.635,0.158,1.269,0.158,2.062C546.263,425.774,546.263,425.141,546.104,424.506z
	"/>
<path style="fill:#7F5458;" d="M547.056,434.188c0,0.635,0.159,1.27,0.159,1.904C547.056,435.616,547.056,434.981,547.056,434.188z"
	/>
<path style="fill:#7F5458;" d="M546.58,429.267c0,0.635,0.159,1.271,0.159,2.063C546.739,430.537,546.739,429.901,546.58,429.267z"
	/>
<path style="fill:#7F5458;" d="M547.373,444.664c0,0.477,0,0.952,0,1.428C547.532,445.775,547.532,445.299,547.373,444.664z"/>
<path style="fill:#7F5458;" d="M540.39,456.569c0.477-6.826,0.635-13.176,0.635-19.048c0-29.207-5.079-46.191-6.984-51.271
	c-0.317-0.476-0.794-1.11-1.111-1.587c0,0,6.825,23.969-0.952,71.906H540.39z"/>
<path style="fill:#6D484B;" d="M539.278,468.315c-2.063,18.096-5.873,39.208-12.698,63.176c7.936,0,14.921,0,20.476,0
	c0-5.08-3.809-6.508-5.872-6.825c1.428-8.572,3.65-24.286,5.079-42.382c0,0,0,0,0-0.158c0.158-1.588,0.317-3.176,0.317-4.763
	c0-0.158,0-0.158,0-0.317c0.159-1.587,0.159-3.175,0.317-4.762c0-0.159,0-0.317,0-0.477c0-1.27,0.158-2.381,0.158-3.651h-7.777
	V468.315z"/>
<path style="fill:#6D484B;" d="M541.024,437.521c0,5.872-0.158,12.222-0.635,19.048h7.143l0,0v-0.159c0-1.587,0-3.175,0-4.921
	c0-0.159,0-0.159,0-0.317c0-0.159,0-0.317,0-0.477c0-1.587,0-3.015,0-4.604c0-0.476,0-0.951,0-1.428c0-1.111,0-2.381-0.159-3.492
	c0-0.635,0-1.27,0-1.746c0-1.111-0.158-2.063-0.158-3.175c0-0.635,0-1.27-0.159-1.905c0-0.952-0.158-2.063-0.158-3.016
	c0-0.635-0.158-1.27-0.158-2.063c-0.159-0.952-0.159-1.904-0.318-2.857c0-0.635-0.158-1.269-0.158-2.063
	c-0.158-0.951-0.158-1.903-0.317-2.856c-0.159-0.635-0.159-1.27-0.317-1.904c-0.159-0.953-0.318-1.905-0.477-2.699
	c-0.159-0.635-0.159-1.27-0.317-1.904c-0.159-0.953-0.317-1.904-0.477-2.857c-0.158-0.477-0.158-1.111-0.316-1.587
	c-0.318-1.111-0.477-2.223-0.795-3.334c0-0.317-0.158-0.635-0.158-0.952c-0.317-1.429-0.794-2.699-1.111-4.127
	c-0.158-0.317-0.317-0.794-0.317-1.111c-0.317-0.952-0.635-1.905-0.952-2.698c-0.159-0.477-0.318-0.953-0.636-1.43
	c-0.317-0.793-0.635-1.428-0.951-2.222c-0.159-0.477-0.477-0.952-0.636-1.429c-0.317-0.635-0.635-1.27-0.953-1.904
	c-0.317-0.477-0.476-0.952-0.793-1.429c-0.317-0.635-0.635-1.111-1.111-1.746c-0.317-0.476-0.635-0.952-0.794-1.271
	c-0.158-0.317-0.317-0.477-0.476-0.793v0.158C535.945,391.33,541.184,408.473,541.024,437.521z"/>
<path style="fill:#629160;" d="M456.102,356.726c0,0,41.905-6.984,48.89,6.984c0,0-62.857,6.984-34.922,83.971
	c0,0,0-55.874,48.892-62.859c0,0-20.954,20.953-13.97,48.89c0,0,6.984-27.937,27.938-48.89
	C532.929,384.663,511.976,328.631,456.102,356.726z"/>
<path style="fill:#D7A45A;" d="M526.58,531.491c-6.509,0-13.811,0-21.589,0c-61.747,0-152.384,0-152.384,0v28.73h233.498
	c0,0,0-28.73-28.731-28.73c-2.381,0-6.031,0-10.317,0C541.501,531.491,534.516,531.491,526.58,531.491z"/>
<path style="fill:#EFB664;" d="M352.607,531.491c0,0-4.286,0-11.111,0c-7.144,0-16.984,0-27.461,0c-8.572,0-17.62,0-26.033,0
	c-4.444,0-8.73,0-12.54,0c-28.731,0-28.731,28.73-28.731,28.73h105.875V531.491z"/>
<path style="fill:#FFFFFF;" d="M300.067,468.315h13.651h19.365h172.385h24.286h9.524h7.777h1.271c3.175,0,5.873-2.698,5.873-5.873
	s-2.698-5.873-5.873-5.873h-0.794h-7.143h-8.413H311.178h-12.699h-10.317h-1.111c-3.175,0-5.873,2.698-5.873,5.873
	s2.698,5.873,5.873,5.873h1.905H300.067z"/>
</svg>
