<?xml version="1.0" encoding="utf-8"?>
<!-- Generator: Adobe Illustrator 16.0.0, SVG Export Plug-In . SVG Version: 6.00 Build 0)  -->
<!DOCTYPE svg PUBLIC "-//W3C//DTD SVG 1.1//EN" "http://www.w3.org/Graphics/SVG/1.1/DTD/svg11.dtd">
<svg version="1.1" id="Layer_1" xmlns="http://www.w3.org/2000/svg" xmlns:xlink="http://www.w3.org/1999/xlink" x="0px" y="0px" viewBox="0 0 368 257" style="enable-background:new 0 0 368 257;" xml:space="preserve">
<style type="text/css">
<![CDATA[
	.st0{fill:#487149;}
	.st1{fill:#7F5458;}
	.st2{fill:#4C9BA8;}
	.st3{fill:#EFB664;}
	.st4{fill:#96D4C8;}
	.st5{fill:#FFFFFF;}
	.st6{fill:#629160;}
	.st7{fill:#6D484B;}
	.st8{fill:#D7A45A;}
]]>
</style>
<g id="image">
	<path class="st4" d="M255.1,207.7h1.5c4.5-13.3,7.6-25.1,9.7-35.4H251c-7.6,7-26.8,21.7-54.3,21.7c-27.5,0-46.7-14.6-54.3-21.7
		h-12.2c2.5,10.4,5.7,21.8,9.9,34.2h2c5.5,0,5.6,5.3,5.6,5.6c4.3,0,7,0,7,0s57,0,96,0C250.7,211.8,250.9,207.7,255.1,207.7z"/>
	<path class="st4" d="M198.8,31.9c-0.3,0-0.7,0-1,0.1c0.1,2.2,0.4,4.2,0.7,6.2c0.3,0.1,0.7,0.2,1,0.2c0.6,0,1.5-0.3,1.5-3.3
		C200.9,32.6,200.4,31.9,198.8,31.9z"/>
	<path class="st4" d="M181.2,31.2c-0.8,0-1.5,0.1-1.9,0.6c-0.4,0.5-0.6,1.4-0.6,2.5c0,2.2,0.8,3.8,1.8,3.8c1.1,0,1.3-2.2,1.3-4.6
		c0-0.9,0-1.7-0.1-2.4C181.6,31.2,181.4,31.2,181.2,31.2z"/>
	<path class="st4" d="M217.8,38.4c0.6,0,1.5-0.3,1.5-3.3c0-2.5-0.6-3.2-2.2-3.2c-0.3,0-0.7,0-1,0.1c0.1,2.2,0.4,4.2,0.7,6.2
		C217.2,38.3,217.5,38.4,217.8,38.4z"/>
	<path class="st4" d="M105,85.4c1.1-0.9,2.2-1.8,3.4-2.6c0,0-2.5,0-6.7,0.1l2,1.1C104.3,84.3,104.7,84.8,105,85.4z"/>
	<path class="st4" d="M299.7,73.7c1.1,0,1.3-2.2,1.3-4.6c0-0.9,0-1.7-0.1-2.4c-0.2,0-0.3,0-0.5,0c-0.8,0-1.5,0.1-1.9,0.6
		c-0.4,0.5-0.6,1.4-0.6,2.5c0,0.5,0,0.9,0.1,1.3c0.7-0.1,1.1-0.1,1.1-0.1c-0.4,0.1-0.7,0.3-1.1,0.4C298.4,72.9,299,73.7,299.7,73.7z
		"/>
	<path class="st4" d="M280,67.4c-0.3,0.5-0.6,1.4-0.6,2.7c0,1.9,0.8,3.7,1.8,3.7c1.3,0,1.3-2.9,1.3-3.3c0.1-1.1,0.1-2.3,0.2-3.6
		c-0.3,0-0.6-0.1-0.9-0.1C280.9,66.8,280.3,67,280,67.4z"/>
	<path class="st4" d="M244.9,67.2c-1.2,0-1.8,1.1-1.8,3.2c0,2.4,0.8,3.3,1.9,3.3c0.9,0,1.7-0.7,1.7-3.2
		C246.6,68.4,246.1,67.2,244.9,67.2z"/>
	<path class="st4" d="M1-0.2v230.4h87c0,0,0-18.1,18.1-18.1c2.4,0,5.1,0,7.9,0c0-4.1,3.1-5.2,4.7-5.5c-0.1-0.6-0.2-1.3-0.3-2
		c0,0,0,0,0,0c-0.2-1.4-3.1-23.6-3.8-32.3h-1.2c-2,0-3.7-1.7-3.7-3.7s1.7-3.7,3.7-3.7h0.7c0-0.1,0-0.2,0-0.3c0-0.1,0-0.3,0-0.4
		c0-0.5-0.1-1.1-0.1-1.6c0-0.2,0-0.3,0-0.5c0-0.5-0.1-1.1-0.1-1.6c0-0.2,0-0.3,0-0.5c0-0.5,0-1.1-0.1-1.6c0-0.2,0-0.3,0-0.5
		c0-0.5,0-1.1-0.1-1.6c0-0.2,0-0.3,0-0.5c0-0.5,0-1.1,0-1.6c0-0.2,0-0.3,0-0.5c0-0.6,0-1.1,0-1.7c0-0.2,0-0.3,0-0.5
		c0-0.6,0-1.1,0-1.7c0-0.1,0-0.2,0-0.3c0-0.5,0-1.1,0-1.6c0-0.1,0-0.1,0-0.2c0-1.1,0-2.2,0-3.2c0-0.2,0-0.5,0-0.7
		c0-1.1,0-2.1,0.1-3.2c0-0.2,0-0.5,0-0.7c0-1.1,0.1-2.2,0.1-3.3c0-0.2,0-0.4,0-0.6c0.1-1.1,0.1-2.2,0.2-3.4c0-0.1,0-0.2,0-0.3
		c0.1-1.2,0.2-2.3,0.3-3.5c0,0,0,0,0,0c0.1-1.2,0.2-2.3,0.4-3.4c0-0.1,0-0.2,0-0.3c0.1-1.1,0.3-2.2,0.4-3.2c0-0.1,0-0.3,0.1-0.4
		c0.2-1,0.3-2.1,0.5-3.1c0-0.1,0-0.3,0.1-0.4c0.2-1,0.4-2.1,0.6-3.1c0-0.1,0-0.2,0.1-0.3c0.5-2.1,1-4.2,1.6-6.1c0,0,0-0.1,0-0.1
		c0.3-0.9,0.6-1.9,0.9-2.8c0-0.1,0.1-0.2,0.1-0.3c0.3-0.9,0.7-1.7,1-2.5c0-0.1,0.1-0.2,0.1-0.3c0.4-0.8,0.7-1.6,1.1-2.4
		c0-0.1,0.1-0.2,0.1-0.2c0.4-0.8,0.8-1.6,1.3-2.3c0,0,0-0.1,0.1-0.1c0.7-1.2,1.5-2.3,2.3-3.4c0,0-39.4,5.6-39.4,56.3
		c0,0-13.4-20.2,1.3-44.9c-0.1,0-0.1,0-0.2,0c-1.2,0-2.3-0.6-2.9-1.7l-5.9-10.2c-0.9-1.6-0.4-3.7,1.2-4.6c1.6-0.9,3.6-0.4,4.6,1.2
		l5.9,10.2c0.1,0.2,0.2,0.3,0.2,0.5c2.6-3.7,5.9-7.4,10-11.1l-9.9-5.7c-0.2-0.1-0.4-0.3-0.6-0.5c-3.3,0.2-6.9,0.5-10.6,0.9
		c-3.6,2.5-7.9,3.9-12.5,3.9l0,0h0h0l0,0c-2.3,0-4.6-0.4-6.7-1.1c-2.2,0.5-4.4,1-6.5,1.6c0.1,0,0.1,0,0.2,0.1c1.6,0.9,2.2,3,1.2,4.6
		l-5.9,10.2c-0.6,1.1-1.7,1.7-2.9,1.7c-0.6,0-1.1-0.1-1.7-0.4c-1.6-0.9-2.1-3-1.2-4.6l5.8-10.1c-3.1,1.1-5.7,2.3-7.9,3.8
		c0,0,2.1-6.2,9.3-12.9c-3.6-3.9-5.7-9.1-5.7-14.8c0-12.1,9.8-21.9,21.9-21.9l0,0h0h0l0,0c12,0,21.6,9.6,21.9,21.4
		c1.4-0.1,2.8-0.3,4.2-0.4c0.4-1.4,1.7-2.5,3.2-2.5h11.8c1.6,0,2.9,1.1,3.3,2.6c1.1,0.1,2.1,0.2,3.2,0.3c0,0-3.6-8.9-9.7-17.7
		c-0.2,0.2-0.4,0.4-0.6,0.5l-10.2,5.9C93,54.8,92.4,55,91.9,55c-1.2,0-2.3-0.6-2.9-1.7c-0.9-1.6-0.4-3.7,1.2-4.6l10.1-5.8
		c-3.2-3.8-7-7.2-11.1-9.4l-5.2,9c-0.6,1.1-1.7,1.7-2.9,1.7c-0.6,0-1.1-0.1-1.7-0.4c-1.6-0.9-2.1-3-1.2-4.6L84.1,29
		c0.9-1.6,3-2.2,4.6-1.2c1.6,0.9,2.2,3,1.2,4.6l-0.1,0.1c8.3,1.4,28,7.3,41.1,33.3c0,0,33.7-16.9,56.2,5.6c0,0-33.8-5.6-39.4,5.6
		c0,0,50.6,5.6,28.1,67.5c0,0,0-45-39.4-50.6c0,0,16.9,16.9,11.2,39.4c0,0-5.6-22.5-22.5-39.4c0,0-6.7,23.7,3.3,70.9h139.1
		c5-30.2,0.6-45.3,0.6-45.3c-13.2,13.2-17.6,30.8-17.6,30.8c-4.4-17.6,8.8-30.8,8.8-30.8c-30.8,4.4-30.8,39.6-30.8,39.6
		c-17.6-48.5,22-52.9,22-52.9c-4.4-8.8-30.8-4.4-30.8-4.4c17.6-17.6,44.1-4.4,44.1-4.4c4.5-8.9,9.9-14.8,15.2-18.7
		c-3.8-0.5-6.1-4.5-6.1-9.2c0-4.5,2.4-7.1,6.9-7.1c1.1,0,2.2,0.2,3,0.6c0-0.8,0-1.6,0-2.4c0-2.2-0.3-5.3-1.2-7.6
		c0.7-0.9,1.9-1.6,3.5-1.6c2.6,0,3.8,2.2,3.8,7.5c0,4.5-0.4,8-0.4,11.8c0,1.4,0.1,2.2,0.3,2.6c1-0.4,2-0.7,2.9-1
		c-0.2-0.8-0.3-1.7-0.3-2.6c0-4.6,2.5-7.2,6.2-7.2c1,0,1.9,0.2,2.9,0.6l0-0.2c0.5-0.2,1.3-0.4,2.6-0.4c2.5,0,4.6,1.1,4.6,3.9
		c0,0.6-0.2,1.5-0.5,2.4v3.7c0,1.2,0.3,1.7,1,1.7c0.4,0,0.9-0.2,1.1-0.4c0.2,0.2,0.7,0.8,0.7,1.9c0,2-1.7,3.1-3.6,3.1
		c-2.1,0-3.3-1.1-4-2.5c-0.6,1.6-2.2,2.5-4,2.5c-2.5,0-4.6-1.6-5.8-4c-0.3,0.2-0.6,0.5-0.8,0.7c0,0.1,0,0.1,0,0.2
		c0,1.9-1.2,2.9-3.3,3.1c-7.1,8-11.4,18.7-11.4,18.7c48.5-4.4,57.3,22,57.3,22c-13.2-8.8-52.9-8.8-52.9-8.8
		c35.2,26.4,17.6,52.9,17.6,52.9c0-39.6-30.8-44.1-30.8-44.1c0.3,0.3,0.5,0.7,0.7,1c0,0,0-0.1,0-0.1c0.1,0.2,0.2,0.3,0.3,0.5
		c0.2,0.3,0.4,0.5,0.5,0.8c0.2,0.4,0.4,0.7,0.7,1.1c0.2,0.3,0.3,0.6,0.5,0.9c0.2,0.4,0.4,0.8,0.6,1.2c0.1,0.3,0.3,0.6,0.4,0.9
		c0.2,0.5,0.4,0.9,0.6,1.4c0.1,0.3,0.2,0.6,0.4,0.9c0.2,0.6,0.4,1.1,0.6,1.7c0.1,0.2,0.2,0.5,0.2,0.7c0.3,0.8,0.5,1.7,0.7,2.6
		c0,0.2,0.1,0.4,0.1,0.6c0.2,0.7,0.3,1.4,0.5,2.1c0.1,0.3,0.1,0.7,0.2,1c0.1,0.6,0.2,1.2,0.3,1.8c0.1,0.4,0.1,0.8,0.2,1.2
		c0.1,0.6,0.2,1.2,0.3,1.7c0.1,0.4,0.1,0.8,0.2,1.2c0.1,0.6,0.2,1.2,0.2,1.8c0,0.4,0.1,0.8,0.1,1.3c0.1,0.6,0.1,1.2,0.2,1.8
		c0,0.4,0.1,0.8,0.1,1.3c0,0.6,0.1,1.3,0.1,1.9c0,0.4,0.1,0.8,0.1,1.2c0,0.7,0.1,1.3,0.1,2c0,0.4,0,0.8,0,1.1c0,0.7,0,1.5,0.1,2.2
		c0,0.3,0,0.6,0,0.9c0,1,0,1.9,0,2.9c0,0.1,0,0.2,0,0.3c0,0.1,0,0.1,0,0.2c0,1,0,2,0,3.1c0,0,0,0.1,0,0.1v0h0.5c2,0,3.7,1.7,3.7,3.7
		s-1.7,3.7-3.7,3.7h-0.8c0,0.8-0.1,1.5-0.1,2.3c0,0.1,0,0.2,0,0.3c-0.1,1-0.1,2-0.2,3c0,0.1,0,0.1,0,0.2c-0.1,1-0.1,2-0.2,3
		c0,0,0,0,0,0.1c-0.9,11.4-2.3,21.3-3.2,26.7c1.2,0.2,3.7,1.1,3.7,4.3c2.8,0,5,0,6.5,0c18.1,0,18.1,18.1,18.1,18.1H367V-0.2H1z
		 M63.1,95.7c0-1.8,1.5-3.3,3.3-3.3c1.9,0,3.3,1.5,3.3,3.3v11.8c0,1.8-1.5,3.3-3.3,3.3c-1.8,0-3.3-1.5-3.3-3.3V95.7z M21.9,66.3
		c0-1.8,1.5-3.3,3.3-3.3L37,63c1.8,0,3.3,1.5,3.3,3.3c0,1.8-1.5,3.3-3.3,3.3H25.3C23.4,69.7,21.9,68.2,21.9,66.3z M42.6,83.9
		l-10.2,5.9c-0.5,0.3-1.1,0.4-1.7,0.4c-1.2,0-2.3-0.6-2.9-1.7C27,87,27.5,84.9,29.1,84l10.2-5.9c1.6-0.9,3.7-0.4,4.6,1.2
		C44.8,81,44.3,83,42.6,83.9z M43.9,53.3C43.3,54.4,42.1,55,41,55c-0.6,0-1.1-0.1-1.7-0.4l-10.2-5.9c-1.6-0.9-2.2-3-1.2-4.6
		c0.9-1.6,3-2.2,4.6-1.2l10.2,5.9C44.3,49.7,44.8,51.7,43.9,53.3z M53.4,43.8c-0.5,0.3-1.1,0.4-1.7,0.4c-1.2,0-2.3-0.6-2.9-1.7
		L43,32.4c-0.9-1.6-0.4-3.6,1.2-4.6c1.6-0.9,3.7-0.4,4.6,1.2l5.9,10.2C55.6,40.8,55,42.9,53.4,43.8z M69.8,37c0,1.8-1.5,3.4-3.3,3.4
		c-1.8,0-3.3-1.5-3.3-3.4V25.2c0-1.9,1.5-3.3,3.3-3.3c1.9,0,3.3,1.5,3.3,3.3V37z M266.2,55.6c2,0,3.5,0.9,3.5,2.9
		c0,1.8-1.6,2.9-3.6,2.9c-1.9,0-3.4-1.1-3.4-2.9C262.6,56.5,264,55.6,266.2,55.6z M229.3,27c4.9,0,5.2,3.9,5.6,7.3
		c0.2,2.1,0.4,4,1.7,4.9c0.5-1.4,0.8-3,0.8-4.7c0-2.7-0.3-3.3-0.8-3.3c-0.2,0-0.3,0-0.5,0.1c-0.3-0.5-0.6-1-0.6-1.6
		c0-1.9,1.3-2.7,3.1-2.7c2.1,0,5.1,1,5.1,5.8c0,9.7-5.7,17.9-14.4,17.9c-2.5,0-4.3-1.1-4.3-3.4c0-0.9,0.2-1.7,0.7-2.2
		c0.4,0.1,1,0.3,1.9,0.3c3.1,0,5.5-1.1,7.1-3c-3.4-0.2-4.6-2.7-5.2-5.1c-0.6-2.9-0.7-5.8-2.2-5.8c-0.2,0-0.5,0.1-0.7,0.2
		c-0.1-0.2-0.7-0.8-0.7-2C225.9,28,227.4,27,229.3,27z M169.8,43c-1.9,0-3.4-0.3-6.4-0.3h-0.1c0-2.9-0.1-6-0.3-9h-6.1
		c0.1,2.9,0.2,5.7,0.2,7.9c0,0.9-0.9,1.7-3.3,1.7c-1.7,0-3-0.6-3.1-0.7c0-5.6-0.5-12.6-0.6-19.1c-0.9,0.1-1.6,0.3-1.8,0.3
		c-0.2-0.3-0.9-1.1-0.9-2.3c0-1.3,0.6-2.3,2.9-2.3c2.3,0,2.9,0.3,5.8,0.3h0.3c0,2.9,0.1,5.9,0.2,8.9h6.1c-0.2-2.6-0.3-4.8-0.3-6.3
		c0-2.5,0.7-3.3,2.9-3.3c1.7,0,3.3,0.5,3.7,0.7c0,5.6,0.3,12.5,0.5,18.9c0.8,0,1.4,0,1.7-0.1c0.1,0.2,0.6,1.1,0.6,2.2
		C171.9,42.6,170.6,43,169.8,43z M187.3,43.3c-2.1,0-3.3-1.1-4-2.5c-0.6,1.6-2.2,2.5-4,2.5c-3.9,0-7-4-7-9.1c0-4.6,2.5-7.2,6.2-7.2
		c1,0,1.9,0.2,2.9,0.6l0-0.2c0.5-0.2,1.3-0.4,2.6-0.4c2.5,0,4.6,1.1,4.6,3.9c0,0.6-0.2,1.5-0.5,2.4v3.7c0,1.2,0.3,1.7,1,1.7
		c0.4,0,0.9-0.2,1.1-0.4c0.2,0.2,0.7,0.8,0.7,1.9C190.9,42.2,189.2,43.3,187.3,43.3z M201.2,43.3c-0.8,0-1.6-0.3-2.2-0.7
		c0.1,0.9,0.1,1.7,0.1,2.5c0,3.9-1,5.5-3.4,5.5c-1.7,0-2.7-0.8-3.3-1.7c0.3-0.9,0.6-2.4,0.6-4.8c0-2.9-0.4-6.1-0.8-9.1
		c-0.3,0.2-0.7,0.5-1,0.8c-0.6-0.3-1.5-0.9-1.5-2.5c0-1.4,0.7-2.7,1.9-3.7c0-0.5,0-1,0-1.5c0-3,1.4-4.6,3.4-4.6c1.4,0,2.5,0.6,3,0.9
		c-0.1,0.7-0.2,1.7-0.2,2.6c0.6-0.1,1.2-0.1,1.8-0.1c5,0,7.9,3.1,7.9,8.1C207.4,40.7,204,43.3,201.2,43.3z M210.6,49
		c0.3-0.9,0.6-2.4,0.6-4.8c0-2.9-0.4-6.1-0.8-9.1c-0.3,0.2-0.7,0.5-1,0.8c-0.6-0.3-1.5-0.9-1.5-2.5c0-1.4,0.7-2.7,1.9-3.7
		c0-0.5,0-1,0-1.5c0-3,1.4-4.6,3.4-4.6c1.4,0,2.5,0.6,3,0.9c-0.1,0.7-0.2,1.7-0.2,2.6c0.6-0.1,1.2-0.1,1.8-0.1c5,0,7.9,3.1,7.9,8.1
		c0,5.6-3.4,8.2-6.2,8.2c-0.8,0-1.6-0.3-2.2-0.7c0.1,0.9,0.1,1.7,0.1,2.5c0,3.9-1,5.5-3.4,5.5C212.3,50.7,211.3,49.9,210.6,49z
		 M233.8,78.5c-1.9,0-3.4-0.3-6.4-0.3h-0.1c0-2.9-0.1-6-0.3-9H221c0.1,2.9,0.2,5.7,0.2,7.9c0,0.9-0.9,1.7-3.3,1.7
		c-1.7,0-3-0.6-3.1-0.7c0-5.6-0.5-12.6-0.6-19.1c-0.9,0.1-1.6,0.3-1.8,0.3c-0.2-0.3-0.9-1.1-0.9-2.3c0-1.3,0.6-2.3,2.9-2.3
		c2.3,0,2.9,0.3,5.8,0.3h0.3c0,2.9,0.1,5.9,0.2,8.9h6.1c-0.2-2.6-0.3-4.8-0.3-6.3c0-2.5,0.7-3.3,2.9-3.3c1.7,0,3.3,0.5,3.7,0.7
		c0,5.6,0.3,12.5,0.5,18.9c0.8,0,1.4,0,1.7-0.1c0.1,0.2,0.6,1.1,0.6,2.2C235.9,78.2,234.6,78.5,233.8,78.5z M245.1,78.9
		c-4.8,0-8.5-3-8.5-8.5c0-4.7,2.7-7.9,8.2-7.9c5.1,0,8.2,2.7,8.2,8C253.1,75.9,249.9,78.9,245.1,78.9z M259.4,78.9
		c-2.7,0-5.1-1.6-5.1-6.3c0-5.5,0.1-7,0.1-12.5c0-1.7,0-3.9-1.2-3.9c-0.3,0-0.5,0-0.7,0.1c-0.3-0.3-0.5-1-0.5-1.8
		c0-1.2,1-2.9,3.8-2.9c3,0,4.9,2.2,4.9,7.5c0,3.8-0.1,6.5-0.1,11.8c0,2.1,0.2,3.2,0.8,3.2c0.3,0,1-0.2,1.3-0.4
		c0.3,0.2,0.9,1,0.9,2.2C263.6,77.8,262.2,78.9,259.4,78.9z M273,75.9c0,1.9-1.5,3-3.5,3c-3.8,0-4.9-2.3-4.9-6.5v-2.5
		c0-1.9-0.1-2.7-0.7-2.7c-0.3,0-0.6,0.1-0.8,0.2c-0.1-0.1-0.7-0.8-0.7-2c0-1.6,1.3-2.9,3.5-2.9c2.4,0,4.9,1.1,4.9,6.3v3.8
		c0,1.3,0,1.6,0.7,1.6c0.2,0,0.5-0.1,0.7-0.2C272.5,74.2,273,74.8,273,75.9z M311.9,86.3c-2.5,0-4.3-1.1-4.3-3.4
		c0-0.9,0.2-1.7,0.7-2.2c0.4,0.1,1,0.3,1.9,0.3c3.1,0,5.5-1.1,7.1-3c-3.4-0.2-4.6-2.7-5.2-5.1c-0.6-2.9-0.7-5.8-2.2-5.8
		c-0.2,0-0.5,0.1-0.7,0.2c-0.1-0.2-0.7-0.8-0.7-2c0-1.8,1.5-2.9,3.4-2.9c4.9,0,5.2,3.9,5.6,7.3c0.2,2.1,0.4,4,1.7,4.9
		c0.5-1.4,0.8-3,0.8-4.7c0-2.7-0.3-3.3-0.8-3.3c-0.2,0-0.3,0-0.5,0.1c-0.3-0.5-0.6-1-0.6-1.6c0-1.9,1.3-2.7,3.1-2.7
		c2.1,0,5.1,1,5.1,5.8C326.4,78.1,320.7,86.3,311.9,86.3z M333.9,78.9c-4.4,0-6.5-1.4-6.5-3.7c0-1.3,0.7-1.9,1.1-2.2
		c1,0.6,2.9,1.3,4.7,1.3c0.9,0,1.6-0.2,1.6-0.7c0-0.5-0.7-0.7-2.8-1.3c-4.1-1.1-4.8-3.2-4.8-5.1c0-4,3.3-5,7-5
		c4.3,0,5.7,1.5,5.7,3.4c0,1.3-0.6,1.9-1,2.2c-1.2-0.5-2.9-1.1-4.3-1.1c-0.7,0-1.1,0.1-1.1,0.5c0,0.6,0.9,0.7,2.5,1.1
		c4.1,1.1,5.2,2.7,5.2,5C341.2,77.7,337.4,78.9,333.9,78.9z"/>
	<polygon class="st2" points="1,230.2 1,256 366.3,256 367,256 367,230.2 	"/>
	<path class="st5" d="M169.6,38.4c-0.1-6.5-0.5-13.3-0.5-18.9c-0.4-0.2-1.9-0.7-3.7-0.7c-2.2,0-2.9,0.8-2.9,3.3
		c0,1.5,0.1,3.7,0.3,6.3h-6.1c-0.1-3-0.2-6.1-0.2-8.9h-0.3c-2.9,0-3.5-0.3-5.8-0.3c-2.3,0-2.9,1-2.9,2.3c0,1.3,0.6,2,0.9,2.3
		c0.2,0,0.9-0.2,1.8-0.3c0.1,6.5,0.6,13.5,0.6,19.1c0.2,0.1,1.5,0.7,3.1,0.7c2.4,0,3.3-0.8,3.3-1.7c0-2.3-0.1-5-0.2-7.9h6.1
		c0.1,3,0.3,6.1,0.3,9h0.1c2.9,0,4.5,0.3,6.4,0.3c0.8,0,2-0.3,2-2.4c0-1.1-0.5-2-0.6-2.2C171.1,38.4,170.4,38.4,169.6,38.4z"/>
	<path class="st5" d="M189,38.6c-0.7,0-1-0.5-1-1.7v-3.7c0.3-0.9,0.5-1.8,0.5-2.4c0-2.7-2.1-3.9-4.6-3.9c-1.3,0-2.2,0.2-2.6,0.4
		l0,0.2c-0.9-0.3-1.9-0.6-2.9-0.6c-3.7,0-6.2,2.6-6.2,7.2c0,5.1,3.1,9.1,7,9.1c1.8,0,3.4-0.9,4-2.5c0.7,1.5,1.9,2.5,4,2.5
		c1.9,0,3.6-1.1,3.6-3.1c0-1.1-0.5-1.7-0.7-1.9C189.9,38.5,189.4,38.6,189,38.6z M180.5,38.2c-1,0-1.8-1.6-1.8-3.8
		c0-1.1,0.2-2.1,0.6-2.5c0.4-0.5,1.1-0.6,1.9-0.6c0.2,0,0.3,0,0.5,0c0,0.7,0.1,1.4,0.1,2.4C181.8,36,181.6,38.2,180.5,38.2z"/>
	<path class="st5" d="M199.5,27c-0.6,0-1.2,0-1.8,0.1c0-0.9,0.1-1.9,0.2-2.6c-0.5-0.4-1.6-0.9-3-0.9c-2,0-3.4,1.6-3.4,4.6
		c0,0.5,0,1,0,1.5c-1.2,1-1.9,2.3-1.9,3.7c0,1.6,0.9,2.2,1.5,2.5c0.3-0.3,0.7-0.5,1-0.8c0.4,3.1,0.8,6.2,0.8,9.1
		c0,2.4-0.3,4-0.6,4.8c0.7,0.9,1.7,1.7,3.3,1.7c2.4,0,3.4-1.6,3.4-5.5c0-0.8,0-1.7-0.1-2.5c0.6,0.4,1.4,0.7,2.2,0.7
		c2.9,0,6.2-2.6,6.2-8.2C207.4,30.1,204.6,27,199.5,27z M199.4,38.4c-0.3,0-0.7-0.1-1-0.2c-0.3-2-0.6-4.1-0.7-6.2
		c0.3-0.1,0.7-0.1,1-0.1c1.6,0,2.2,0.8,2.2,3.2C200.9,38.1,200,38.4,199.4,38.4z"/>
	<path class="st5" d="M217.4,45.2c0-0.8,0-1.7-0.1-2.5c0.6,0.4,1.4,0.7,2.2,0.7c2.9,0,6.2-2.6,6.2-8.2c0-5-2.8-8.1-7.9-8.1
		c-0.6,0-1.2,0-1.8,0.1c0-0.9,0.1-1.9,0.2-2.6c-0.5-0.4-1.6-0.9-3-0.9c-2,0-3.4,1.6-3.4,4.6c0,0.5,0,1,0,1.5c-1.2,1-1.9,2.3-1.9,3.7
		c0,1.6,0.9,2.2,1.5,2.5c0.3-0.3,0.7-0.5,1-0.8c0.4,3.1,0.8,6.2,0.8,9.1c0,2.4-0.3,4-0.6,4.8c0.7,0.9,1.7,1.7,3.3,1.7
		C216.4,50.7,217.4,49.1,217.4,45.2z M217.2,31.9c1.6,0,2.2,0.8,2.2,3.2c0,3-0.9,3.3-1.5,3.3c-0.3,0-0.7-0.1-1-0.2
		c-0.3-2-0.6-4.1-0.7-6.2C216.5,31.9,216.8,31.9,217.2,31.9z"/>
	<path class="st5" d="M227.3,31.6c1.4,0,1.5,2.9,2.2,5.8c0.6,2.4,1.7,4.9,5.2,5.1c-1.6,1.8-4,3-7.1,3c-0.9,0-1.5-0.2-1.9-0.3
		c-0.4,0.5-0.7,1.3-0.7,2.2c0,2.3,1.8,3.4,4.3,3.4c8.8,0,14.4-8.2,14.4-17.9c0-4.8-3-5.8-5.1-5.8c-1.8,0-3.1,0.8-3.1,2.7
		c0,0.6,0.2,1.2,0.6,1.6c0.2,0,0.3-0.1,0.5-0.1c0.5,0,0.8,0.6,0.8,3.3c0,1.7-0.2,3.3-0.8,4.7c-1.3-0.9-1.5-2.8-1.7-4.9
		c-0.3-3.5-0.6-7.3-5.6-7.3c-1.9,0-3.4,1-3.4,2.9c0,1.2,0.6,1.8,0.7,2C226.8,31.7,227.1,31.6,227.3,31.6z"/>
	<path class="st5" d="M233.6,74c-0.1-6.5-0.5-13.3-0.5-18.9c-0.4-0.2-1.9-0.7-3.7-0.7c-2.2,0-2.9,0.8-2.9,3.3c0,1.5,0.1,3.7,0.3,6.3
		h-6.1c-0.1-3-0.2-6.1-0.2-8.9h-0.3c-2.9,0-3.5-0.3-5.8-0.3c-2.3,0-2.9,1-2.9,2.3c0,1.3,0.6,2,0.9,2.3c0.2,0,0.9-0.2,1.8-0.3
		c0.1,6.5,0.6,13.5,0.6,19.1c0.2,0.1,1.5,0.7,3.1,0.7c2.4,0,3.3-0.8,3.3-1.7c0-2.3-0.1-5-0.2-7.9h6.1c0.1,3,0.3,6.1,0.3,9h0.1
		c2.9,0,4.5,0.3,6.4,0.3c0.8,0,2-0.3,2-2.4c0-1.1-0.5-2-0.6-2.2C235.1,74,234.4,74,233.6,74z"/>
	<path class="st5" d="M244.9,62.5c-5.5,0-8.2,3.2-8.2,7.9c0,5.5,3.7,8.5,8.5,8.5c4.8,0,7.9-3,7.9-8.4
		C253.1,65.3,250.1,62.5,244.9,62.5z M245,73.7c-1.1,0-1.9-0.9-1.9-3.3c0-2.1,0.6-3.2,1.8-3.2c1.3,0,1.8,1.2,1.8,3.3
		C246.6,73,245.9,73.7,245,73.7z"/>
	<path class="st5" d="M261.4,74c-0.6,0-0.8-1.1-0.8-3.2c0-5.3,0.1-8,0.1-11.8c0-5.3-1.9-7.5-4.9-7.5c-2.8,0-3.8,1.7-3.8,2.9
		c0,0.8,0.2,1.5,0.5,1.8c0.2,0,0.4-0.1,0.7-0.1c1.2,0,1.2,2.2,1.2,3.9c0,5.5-0.1,7-0.1,12.5c0,4.7,2.4,6.3,5.1,6.3
		c2.8,0,4.2-1.1,4.2-3.1c0-1.1-0.6-1.9-0.9-2.2C262.4,73.8,261.8,74,261.4,74z"/>
	<path class="st5" d="M266,61.4c2.1,0,3.6-1.1,3.6-2.9c0-2-1.5-2.9-3.5-2.9c-2.1,0-3.6,0.9-3.6,2.9C262.6,60.3,264.1,61.4,266,61.4z
		"/>
	<path class="st5" d="M271.7,74.2c-0.7,0-0.7-0.3-0.7-1.6v-3.8c0-5.2-2.5-6.3-4.9-6.3c-2.3,0-3.5,1.3-3.5,2.9c0,1.2,0.6,1.9,0.7,2
		c0.2-0.1,0.5-0.2,0.8-0.2c0.6,0,0.7,0.7,0.7,2.7v2.5c0,4.2,1.1,6.5,4.9,6.5c2,0,3.5-1,3.5-3c0-1.2-0.5-1.8-0.7-1.9
		C272.2,74.1,271.9,74.2,271.7,74.2z"/>
	<path class="st5" d="M288.6,70.8c0-3.8,0.4-7.3,0.4-11.8c0-5.3-1.1-7.5-3.8-7.5c-1.6,0-2.9,0.7-3.5,1.6c0.9,2.4,1.2,5.4,1.2,7.6
		c0,0.8,0,1.6,0,2.4c-0.8-0.3-1.8-0.6-3-0.6c-4.5,0-6.9,2.6-6.9,7.1c0,4.7,2.3,8.7,6.1,9.2c3.5-2.6,6.8-4.3,9.8-5.4
		C288.7,72.9,288.6,72.1,288.6,70.8z M282.5,70.5c0,0.4-0.1,3.3-1.3,3.3c-1,0-1.8-1.8-1.8-3.7c0-1.3,0.2-2.2,0.6-2.7
		c0.3-0.4,0.9-0.6,1.8-0.6c0.3,0,0.7,0,0.9,0.1C282.7,68.2,282.6,69.4,282.5,70.5z"/>
	<path class="st5" d="M288.5,78.9c2.1-0.2,3.3-1.2,3.3-3.1c0-0.1,0-0.1,0-0.2C290.7,76.6,289.6,77.7,288.5,78.9z"/>
	<path class="st5" d="M297.9,69.9c0-1.1,0.2-2.1,0.6-2.5c0.4-0.5,1.1-0.6,1.9-0.6c0.2,0,0.3,0,0.5,0c0,0.7,0.1,1.4,0.1,2.4
		c0,2.4-0.2,4.6-1.3,4.6c-0.7,0-1.3-0.9-1.6-2.2c-1.9,0.8-3.7,1.9-5.4,3.3c1.2,2.4,3.4,4,5.8,4c1.8,0,3.4-0.9,4-2.5
		c0.7,1.5,1.9,2.5,4,2.5c1.9,0,3.6-1.1,3.6-3.1c0-1.1-0.5-1.7-0.7-1.9c-0.3,0.2-0.8,0.4-1.1,0.4c-0.7,0-1-0.5-1-1.7v-3.7
		c0.3-0.9,0.5-1.8,0.5-2.4c0-2.7-2.1-3.9-4.6-3.9c-1.3,0-2.2,0.2-2.6,0.4l0,0.2c-0.9-0.3-1.9-0.6-2.9-0.6c-3.7,0-6.2,2.6-6.2,7.2
		c0,0.9,0.1,1.8,0.3,2.6c2.8-0.8,5-1.1,6.2-1.2C298,70.8,297.9,70.4,297.9,69.9z"/>
	<path class="st5" d="M321.2,62.5c-1.8,0-3.1,0.8-3.1,2.7c0,0.6,0.2,1.2,0.6,1.6c0.2,0,0.3-0.1,0.5-0.1c0.5,0,0.8,0.6,0.8,3.3
		c0,1.7-0.2,3.3-0.8,4.7c-1.3-0.9-1.5-2.8-1.7-4.9c-0.3-3.5-0.6-7.3-5.6-7.3c-1.9,0-3.4,1-3.4,2.9c0,1.2,0.6,1.8,0.7,2
		c0.2-0.1,0.5-0.2,0.7-0.2c1.4,0,1.5,2.9,2.2,5.8c0.6,2.4,1.7,4.9,5.2,5.1c-1.6,1.8-4,3-7.1,3c-0.9,0-1.5-0.2-1.9-0.3
		c-0.4,0.5-0.7,1.3-0.7,2.2c0,2.3,1.8,3.4,4.3,3.4c8.8,0,14.4-8.2,14.4-17.9C326.4,63.6,323.3,62.5,321.2,62.5z"/>
	<path class="st5" d="M336,68.4c-1.6-0.4-2.5-0.5-2.5-1.1c0-0.4,0.5-0.5,1.1-0.5c1.5,0,3.2,0.6,4.3,1.1c0.4-0.3,1-0.9,1-2.2
		c0-2-1.4-3.4-5.7-3.4c-3.7,0-7,1-7,5c0,1.9,0.7,3.9,4.8,5.1c2.1,0.6,2.8,0.8,2.8,1.3c0,0.5-0.6,0.7-1.6,0.7c-1.9,0-3.8-0.7-4.7-1.3
		c-0.5,0.3-1.1,0.9-1.1,2.2c0,2.3,2.1,3.7,6.5,3.7c3.4,0,7.2-1.1,7.2-5.5C341.2,71.1,340.1,69.4,336,68.4z"/>
	<path class="st3" d="M59.7,87.2c2.1,0.7,4.4,1.1,6.7,1.1l0,0h0h0l0,0c4.7,0,9-1.5,12.5-3.9C72.6,85,65.9,85.9,59.7,87.2z"/>
	<path class="st3" d="M88.3,65.8c-0.3-11.9-10-21.4-21.9-21.4l0,0h0h0l0,0c-12.1,0-21.9,9.8-21.9,21.9c0,5.7,2.2,10.9,5.7,14.8
		C57.2,74.7,69,67.9,88.3,65.8z"/>
	<path class="st3" d="M43,100.3c-0.9,1.6-0.4,3.6,1.2,4.6c0.5,0.3,1.1,0.4,1.7,0.4c1.2,0,2.3-0.6,2.9-1.7l5.9-10.2
		c0.9-1.6,0.4-3.7-1.2-4.6c-0.1,0-0.1,0-0.2-0.1c-1.6,0.4-3.1,0.9-4.5,1.4L43,100.3z"/>
	<path class="st3" d="M89.8,32.5l0.1-0.1c0.9-1.6,0.4-3.6-1.2-4.6c-1.6-0.9-3.6-0.4-4.6,1.2l-5.9,10.2c-0.9,1.6-0.4,3.6,1.2,4.6
		c0.5,0.3,1.1,0.4,1.7,0.4c1.2,0,2.3-0.6,2.9-1.7l5.2-9c-1.1-0.6-2.2-1.1-3.3-1.4C85.9,32.1,87.4,32.1,89.8,32.5z"/>
	<path class="st3" d="M39.3,78.1L29.1,84c-1.6,0.9-2.2,3-1.2,4.6c0.6,1.1,1.7,1.7,2.9,1.7c0.6,0,1.1-0.1,1.7-0.4l10.2-5.9
		c1.6-0.9,2.2-3,1.2-4.6C43,77.8,40.9,77.2,39.3,78.1z"/>
	<path class="st3" d="M90.2,48.7c-1.6,0.9-2.2,3-1.2,4.6c0.6,1.1,1.7,1.7,2.9,1.7c0.6,0,1.1-0.1,1.7-0.4l10.2-5.9
		c0.2-0.1,0.4-0.3,0.6-0.5c-1.2-1.8-2.6-3.6-4-5.3L90.2,48.7z"/>
	<path class="st3" d="M40.4,66.3c0-1.8-1.5-3.3-3.3-3.3l-11.8,0c-1.8,0-3.3,1.5-3.3,3.3c0,1.8,1.5,3.3,3.3,3.3H37
		C38.9,69.7,40.4,68.2,40.4,66.3z"/>
	<path class="st3" d="M110.8,65.6c-0.3-1.5-1.7-2.6-3.3-2.6H95.8c-1.6,0-2.8,1.1-3.2,2.5C98.1,65.1,104.1,65.1,110.8,65.6z"/>
	<path class="st3" d="M42.6,48.7l-10.2-5.9c-1.6-0.9-3.6-0.4-4.6,1.2c-0.9,1.6-0.4,3.6,1.2,4.6l10.2,5.9c0.5,0.3,1.1,0.4,1.7,0.4
		c1.2,0,2.3-0.6,2.9-1.7C44.8,51.7,44.3,49.7,42.6,48.7z"/>
	<path class="st3" d="M103.7,84l-2-1.1c-3.2,0.1-7.4,0.3-12.2,0.6c0.2,0.2,0.4,0.3,0.6,0.5l9.9,5.7c1.5-1.4,3.2-2.8,4.9-4.3
		C104.7,84.8,104.3,84.3,103.7,84z"/>
	<path class="st3" d="M48.8,29c-0.9-1.6-3-2.2-4.6-1.2c-1.6,0.9-2.2,3-1.2,4.6l5.9,10.2c0.6,1.1,1.7,1.7,2.9,1.7
		c0.6,0,1.1-0.1,1.7-0.4c1.6-0.9,2.2-3,1.2-4.6L48.8,29z"/>
	<path class="st3" d="M89.9,100.3L84,90.1c-0.9-1.6-3-2.2-4.6-1.2c-1.6,0.9-2.1,3-1.2,4.6l5.9,10.2c0.6,1.1,1.7,1.7,2.9,1.7
		c0.1,0,0.1,0,0.2,0c0.9-1.5,1.9-3,3-4.5C90,100.6,90,100.4,89.9,100.3z"/>
	<path class="st3" d="M66.4,21.9c-1.8,0-3.3,1.5-3.3,3.3V37c0,1.8,1.5,3.4,3.3,3.4c1.9,0,3.3-1.5,3.3-3.4V25.2
		C69.8,23.4,68.3,21.9,66.4,21.9z"/>
	<path class="st3" d="M66.4,110.8c1.9,0,3.3-1.5,3.3-3.3V95.7c0-1.8-1.5-3.3-3.3-3.3c-1.8,0-3.3,1.5-3.3,3.3v11.8
		C63.1,109.3,64.6,110.8,66.4,110.8z"/>
	<path class="st2" d="M251,172.3H142.4c7.6,7,26.8,21.7,54.3,21.7C224.2,194,243.4,179.3,251,172.3z"/>
	<path class="st0" d="M187.1,71.5c-22.5-22.5-56.2-5.6-56.2-5.6c-13-26.1-32.8-32-41.1-33.3c-2.5-0.4-3.9-0.4-3.9-0.4
		c1.1,0.4,2.2,0.9,3.3,1.4c4.1,2.2,7.8,5.6,11.1,9.4c1.4,1.7,2.8,3.5,4,5.3c6.1,8.8,9.7,17.7,9.7,17.7c-1.1-0.1-2.2-0.2-3.2-0.3
		c-6.7-0.5-12.7-0.5-18.2-0.1c-1.5,0.1-2.9,0.2-4.2,0.4C69,67.9,57.2,74.7,50.2,81.1C43,87.8,40.9,94,40.9,94
		c2.1-1.4,4.8-2.7,7.9-3.8c1.4-0.5,2.9-1,4.5-1.4c2.1-0.6,4.2-1.1,6.5-1.6c6.2-1.3,12.8-2.2,19.2-2.9c3.7-0.4,7.3-0.7,10.6-0.9
		c4.7-0.3,8.9-0.5,12.2-0.6c4.1-0.1,6.7-0.1,6.7-0.1c-1.2,0.9-2.3,1.8-3.4,2.6c-1.8,1.4-3.4,2.9-4.9,4.3c-4.1,3.8-7.3,7.5-10,11.1
		c-1.1,1.5-2.1,3-3,4.5c-14.7,24.8-1.3,44.9-1.3,44.9c0-50.6,39.4-56.3,39.4-56.3S142.1,49,187.1,71.5z"/>
	<path class="st1" d="M119.2,105.2c0.3-0.9,0.7-1.7,1-2.5C119.9,103.5,119.5,104.4,119.2,105.2z"/>
	<path class="st1" d="M118.2,108.3c0.3-0.9,0.6-1.9,0.9-2.8C118.8,106.4,118.5,107.3,118.2,108.3z"/>
	<path class="st1" d="M115.3,121.3c0.2-1,0.3-2.1,0.5-3.1C115.6,119.3,115.5,120.3,115.3,121.3z"/>
	<path class="st1" d="M120.4,102.4c0.4-0.8,0.7-1.6,1.1-2.4C121.1,100.8,120.7,101.6,120.4,102.4z"/>
	<path class="st1" d="M115.9,117.8c0.2-1,0.4-2.1,0.6-3.1C116.3,115.8,116.1,116.8,115.9,117.8z"/>
	<path class="st1" d="M118.4,204.6C118.4,204.6,118.4,204.6,118.4,204.6C118.4,204.6,118.4,204.6,118.4,204.6z"/>
	<path class="st1" d="M118.7,136.5c0,8.2,0.5,17.7,1.8,28.3h8c-10-47.3-3.3-70.9-3.3-70.9c-0.8,1-1.6,2.2-2.3,3.4
		c0.5-0.8,0.9-1.5,1.4-2.2C123,99.1,118.7,112.9,118.7,136.5z"/>
	<path class="st1" d="M142.1,206.5h-2c-4.2-12.4-7.5-23.8-9.9-34.2h-8.6c1.8,11.9,4.6,25.2,8.8,39.8c6.6,0,12.8,0,17.3,0
		C147.8,211.8,147.6,206.5,142.1,206.5z"/>
	<path class="st1" d="M117.3,197L117.3,197L117.3,197z"/>
	<path class="st1" d="M117.7,199.8C117.7,199.8,117.7,199.7,117.7,199.8C117.7,199.7,117.7,199.8,117.7,199.8z"/>
	<path class="st1" d="M114.8,125c0.1-1.1,0.3-2.2,0.4-3.2C115.1,122.8,114.9,123.9,114.8,125z"/>
	<path class="st1" d="M121.6,99.8c0.4-0.8,0.8-1.6,1.3-2.3C122.4,98.2,122,99,121.6,99.8z"/>
	<path class="st1" d="M116.6,114.5c0.5-2.1,1-4.2,1.6-6.1C117.6,110.3,117,112.4,116.6,114.5z"/>
	<path class="st1" d="M113.6,154c0-0.2,0-0.3,0-0.5C113.6,153.7,113.6,153.8,113.6,154z"/>
	<path class="st1" d="M113.7,156.2c0-0.2,0-0.3,0-0.5C113.7,155.8,113.7,156,113.7,156.2z"/>
	<path class="st1" d="M113.9,160.4c0-0.2,0-0.3,0-0.5C113.8,160.1,113.9,160.3,113.9,160.4z"/>
	<path class="st1" d="M113.8,158.3c0-0.2,0-0.3,0-0.5C113.8,158,113.8,158.1,113.8,158.3z"/>
	<path class="st1" d="M117.1,195.5C117.1,195.5,117.1,195.5,117.1,195.5C117.1,195.5,117.1,195.5,117.1,195.5z"/>
	<path class="st1" d="M114.1,164.6c0-0.1,0-0.3,0-0.4C114.1,164.3,114.1,164.5,114.1,164.6z"/>
	<path class="st1" d="M114,162.5c0-0.2,0-0.3,0-0.5C113.9,162.2,114,162.4,114,162.5z"/>
	<path class="st1" d="M113.9,135.9c0.1-1.1,0.1-2.2,0.2-3.4C114,133.7,113.9,134.8,113.9,135.9z"/>
	<path class="st1" d="M113.6,143.6c0-1.1,0-2.1,0.1-3.2C113.7,141.5,113.6,142.5,113.6,143.6z"/>
	<path class="st1" d="M113.7,139.7c0-1.1,0.1-2.2,0.1-3.3C113.8,137.5,113.7,138.6,113.7,139.7z"/>
	<path class="st1" d="M114.1,132.2c0.1-1.2,0.2-2.3,0.3-3.5C114.3,129.9,114.2,131.1,114.1,132.2z"/>
	<path class="st1" d="M114.4,128.7c0.1-1.2,0.2-2.3,0.4-3.4C114.6,126.4,114.5,127.6,114.4,128.7z"/>
	<path class="st1" d="M113.6,147.6c0-1.1,0-2.2,0-3.2C113.6,145.4,113.6,146.5,113.6,147.6z"/>
	<path class="st1" d="M113.6,149.7c0-0.1,0-0.2,0-0.3C113.6,149.5,113.6,149.6,113.6,149.7z"/>
	<path class="st1" d="M113.6,151.8c0-0.2,0-0.3,0-0.5C113.6,151.5,113.6,151.7,113.6,151.8z"/>
	<path class="st7" d="M120.6,164.9c-1.3-10.6-1.8-20.1-1.8-28.3c0-23.6,4.2-37.4,5.6-41.4c-0.5,0.7-1,1.4-1.4,2.2c0,0,0,0.1-0.1,0.1
		c-0.4,0.7-0.9,1.5-1.3,2.3c0,0.1-0.1,0.2-0.1,0.2c-0.4,0.8-0.8,1.6-1.1,2.4c0,0.1-0.1,0.2-0.1,0.3c-0.4,0.8-0.7,1.7-1,2.5
		c0,0.1-0.1,0.2-0.1,0.3c-0.3,0.9-0.6,1.8-0.9,2.8c0,0,0,0.1,0,0.1c-0.6,2-1.1,4-1.6,6.1c0,0.1,0,0.2-0.1,0.3c-0.2,1-0.4,2-0.6,3.1
		c0,0.1,0,0.3-0.1,0.4c-0.2,1-0.4,2.1-0.5,3.1c0,0.1,0,0.3-0.1,0.4c-0.2,1.1-0.3,2.1-0.4,3.2c0,0.1,0,0.2,0,0.3
		c-0.1,1.1-0.3,2.3-0.4,3.4c0,0,0,0,0,0c-0.1,1.1-0.2,2.3-0.3,3.5c0,0.1,0,0.2,0,0.3c-0.1,1.1-0.1,2.2-0.2,3.4c0,0.2,0,0.4,0,0.6
		c-0.1,1.1-0.1,2.2-0.1,3.3c0,0.2,0,0.5,0,0.7c0,1.1-0.1,2.1-0.1,3.2c0,0.2,0,0.5,0,0.7c0,1.1,0,2.2,0,3.2c0,0.1,0,0.1,0,0.2
		c0,0.5,0,1.1,0,1.6c0,0.1,0,0.2,0,0.3c0,0.6,0,1.1,0,1.7c0,0.2,0,0.3,0,0.5c0,0.6,0,1.1,0,1.7c0,0.2,0,0.3,0,0.5c0,0.5,0,1.1,0,1.6
		c0,0.2,0,0.3,0,0.5c0,0.5,0,1.1,0.1,1.6c0,0.2,0,0.3,0,0.5c0,0.5,0,1.1,0.1,1.6c0,0.2,0,0.3,0,0.5c0,0.5,0,1.1,0.1,1.6
		c0,0.2,0,0.3,0,0.5c0,0.5,0.1,1.1,0.1,1.6c0,0.1,0,0.3,0,0.4c0,0.1,0,0.2,0,0.3H120.6z"/>
	<path class="st7" d="M130.4,212.1c-4.2-14.6-7-27.9-8.8-39.8h-7c0.7,8.7,3.8,32.3,3.8,32.3c0.1,0.7,0.2,1.4,0.3,2
		c-1.6,0.3-4.7,1.4-4.7,5.5C119.3,212.1,125,212.1,130.4,212.1z"/>
	<path class="st6" d="M136.5,94c39.4,5.6,39.4,50.6,39.4,50.6c22.5-61.9-28.1-67.5-28.1-67.5c5.6-11.2,39.4-5.6,39.4-5.6
		C142.1,49,125.3,94,125.3,94c16.9,16.9,22.5,39.4,22.5,39.4C153.4,110.9,136.5,94,136.5,94z"/>
	<path class="st0" d="M299.2,163.6c0,0,17.6-26.4-17.6-52.9c0,0,39.7,0,52.9,8.8c0,0-8.8-26.4-57.3-22c0,0,4.3-10.7,11.4-18.7
		c1-1.2,2.1-2.3,3.3-3.3c0.3-0.2,0.6-0.5,0.8-0.7c1.7-1.4,3.5-2.5,5.4-3.3c0.4-0.1,0.7-0.3,1.1-0.4c0,0-0.4,0-1.1,0.1
		c-1.2,0.1-3.5,0.4-6.2,1.2c-0.9,0.3-1.9,0.6-2.9,1c-3,1.1-6.4,2.9-9.8,5.4c-5.3,3.9-10.7,9.8-15.2,18.7c0,0-26.4-13.2-44.1,4.4
		c35.2-17.6,48.5,17.6,48.5,17.6S299.2,124,299.2,163.6z"/>
	<path class="st1" d="M274.6,133.3c0,0.2,0.1,0.4,0.1,0.6C274.7,133.7,274.6,133.5,274.6,133.3z"/>
	<path class="st1" d="M275.2,136c0.1,0.3,0.1,0.7,0.2,1C275.3,136.7,275.3,136.3,275.2,136z"/>
	<path class="st1" d="M269.4,121c0.2,0.3,0.4,0.6,0.5,0.8C269.7,121.6,269.6,121.3,269.4,121z"/>
	<path class="st1" d="M270.6,123c0.2,0.3,0.3,0.6,0.5,0.9C270.9,123.6,270.7,123.3,270.6,123z"/>
	<path class="st1" d="M271.7,125.1c0.1,0.3,0.3,0.6,0.4,0.9C272,125.7,271.8,125.4,271.7,125.1z"/>
	<path class="st1" d="M272.7,127.4c0.1,0.3,0.2,0.6,0.4,0.9C272.9,128,272.8,127.7,272.7,127.4z"/>
	<path class="st1" d="M273.6,130c0.1,0.2,0.2,0.5,0.2,0.7C273.8,130.5,273.7,130.3,273.6,130z"/>
	<path class="st1" d="M277.1,174.6c0,0.1,0,0.2,0,0.3C277.1,174.8,277.1,174.7,277.1,174.6z"/>
	<path class="st1" d="M276.9,177.9c0,0.1,0,0.1,0,0.2C276.9,178,276.9,177.9,276.9,177.9z"/>
	<path class="st1" d="M277.5,164.8c0,0,0,0.1,0,0.1C277.5,164.8,277.5,164.8,277.5,164.8z"/>
	<path class="st1" d="M277.5,161.3c0,0.1,0,0.2,0,0.3C277.5,161.4,277.5,161.4,277.5,161.3z"/>
	<path class="st1" d="M255.1,207.7c-4.3,0-4.4,4.1-4.4,4.4c4.9,0,9.4,0,13.6,0c4.3-15.1,6.8-28.4,8-39.8h-6
		c-2.1,10.3-5.1,22.1-9.7,35.4H255.1z"/>
	<path class="st1" d="M276.7,181.1C276.7,181.1,276.7,181.1,276.7,181.1C276.7,181.1,276.7,181.1,276.7,181.1z"/>
	<path class="st1" d="M276.2,141.7c0.1,0.4,0.1,0.8,0.2,1.2C276.3,142.5,276.3,142.1,276.2,141.7z"/>
	<path class="st1" d="M277.3,154.1c0,0.4,0,0.8,0,1.1C277.4,154.8,277.4,154.5,277.3,154.1z"/>
	<path class="st1" d="M275.8,138.8c0.1,0.4,0.1,0.8,0.2,1.2C275.9,139.6,275.8,139.2,275.8,138.8z"/>
	<path class="st1" d="M276.6,144.7c0,0.4,0.1,0.8,0.1,1.3C276.7,145.5,276.7,145.1,276.6,144.7z"/>
	<path class="st1" d="M277.2,150.8c0,0.4,0.1,0.8,0.1,1.2C277.2,151.7,277.2,151.3,277.2,150.8z"/>
	<path class="st1" d="M276.9,147.7c0,0.4,0.1,0.8,0.1,1.3C277,148.5,277,148.1,276.9,147.7z"/>
	<path class="st1" d="M277.4,157.4c0,0.3,0,0.6,0,0.9C277.5,158.1,277.5,157.8,277.4,157.4z"/>
	<path class="st1" d="M273,164.9c0.3-4.3,0.4-8.3,0.4-12c0-18.4-3.2-29.1-4.4-32.3c-0.2-0.3-0.5-0.7-0.7-1c0,0,4.3,15.1-0.6,45.3
		H273z"/>
	<path class="st7" d="M272.3,172.3c-1.3,11.4-3.7,24.7-8,39.8c5,0,9.4,0,12.9,0c0-3.2-2.4-4.1-3.7-4.3c0.9-5.4,2.3-15.3,3.2-26.7
		c0,0,0,0,0-0.1c0.1-1,0.2-2,0.2-3c0-0.1,0-0.1,0-0.2c0.1-1,0.1-2,0.2-3c0-0.1,0-0.2,0-0.3c0-0.8,0.1-1.5,0.1-2.3H272.3z"/>
	<path class="st7" d="M273.4,152.9c0,3.7-0.1,7.7-0.4,12h4.5v0c0,0,0-0.1,0-0.1c0-1,0-2,0-3.1c0-0.1,0-0.1,0-0.2c0-0.1,0-0.2,0-0.3
		c0-1,0-1.9,0-2.9c0-0.3,0-0.6,0-0.9c0-0.7,0-1.5-0.1-2.2c0-0.4,0-0.8,0-1.1c0-0.7-0.1-1.3-0.1-2c0-0.4,0-0.8-0.1-1.2
		c0-0.6-0.1-1.3-0.1-1.9c0-0.4-0.1-0.8-0.1-1.3c-0.1-0.6-0.1-1.2-0.2-1.8c0-0.4-0.1-0.8-0.1-1.3c-0.1-0.6-0.1-1.2-0.2-1.8
		c-0.1-0.4-0.1-0.8-0.2-1.2c-0.1-0.6-0.2-1.2-0.3-1.7c-0.1-0.4-0.1-0.8-0.2-1.2c-0.1-0.6-0.2-1.2-0.3-1.8c-0.1-0.3-0.1-0.7-0.2-1
		c-0.2-0.7-0.3-1.4-0.5-2.1c0-0.2-0.1-0.4-0.1-0.6c-0.2-0.9-0.5-1.7-0.7-2.6c-0.1-0.2-0.2-0.5-0.2-0.7c-0.2-0.6-0.4-1.2-0.6-1.7
		c-0.1-0.3-0.2-0.6-0.4-0.9c-0.2-0.5-0.4-0.9-0.6-1.4c-0.1-0.3-0.3-0.6-0.4-0.9c-0.2-0.4-0.4-0.8-0.6-1.2c-0.2-0.3-0.3-0.6-0.5-0.9
		c-0.2-0.4-0.4-0.7-0.7-1.1c-0.2-0.3-0.4-0.6-0.5-0.8c-0.1-0.2-0.2-0.3-0.3-0.5c0,0,0,0.1,0,0.1
		C270.2,123.8,273.5,134.6,273.4,152.9z"/>
	<path class="st6" d="M219.9,102c0,0,26.4-4.4,30.8,4.4c0,0-39.6,4.4-22,52.9c0,0,0-35.2,30.8-39.6c0,0-13.2,13.2-8.8,30.8
		c0,0,4.4-17.6,17.6-30.8C268.3,119.6,255.1,84.3,219.9,102z"/>
	<path class="st8" d="M264.3,212.1c-4.1,0-8.7,0-13.6,0c-38.9,0-96,0-96,0v18.1h147.1c0,0,0-18.1-18.1-18.1c-1.5,0-3.8,0-6.5,0
		C273.7,212.1,269.3,212.1,264.3,212.1z"/>
	<path class="st3" d="M154.7,212.1c0,0-2.7,0-7,0c-4.5,0-10.7,0-17.3,0c-5.4,0-11.1,0-16.4,0c-2.8,0-5.5,0-7.9,0
		C88,212.1,88,230.2,88,230.2h66.7V212.1z"/>
	<path class="st5" d="M121.6,172.3h8.6h12.2H251h15.3h6h4.9h0.8c2,0,3.7-1.7,3.7-3.7s-1.7-3.7-3.7-3.7h-0.5H273h-5.3H128.6h-8h-6.5
		h-0.7c-2,0-3.7,1.7-3.7,3.7s1.7,3.7,3.7,3.7h1.2H121.6z"/>
</g>
</svg>
